<?xml version="1.0" encoding="UTF-8" standalone="no"?>
<!-- Created with Inkscape (http://www.inkscape.org/) -->

<svg
   xmlns:dc="http://purl.org/dc/elements/1.1/"
   xmlns:cc="http://creativecommons.org/ns#"
   xmlns:rdf="http://www.w3.org/1999/02/22-rdf-syntax-ns#"
   xmlns:svg="http://www.w3.org/2000/svg"
   xmlns="http://www.w3.org/2000/svg"
   xmlns:sodipodi="http://sodipodi.sourceforge.net/DTD/sodipodi-0.dtd"
   xmlns:inkscape="http://www.inkscape.org/namespaces/inkscape"
   width="64px"
   height="64px"
   id="svg10766"
   version="1.1"
   inkscape:version="0.48.2 r9819"
   sodipodi:docname="FeatureInteractionMergedCells.svg">
  <defs
     id="defs10768">
    <marker
       inkscape:stockid="Arrow1Mstart"
       orient="auto"
       refY="0"
       refX="0"
       id="Arrow1Mstart"
       style="overflow:visible">
      <path
         inkscape:connector-curvature="0"
         id="path4364"
         d="M 0,0 5,-5 -12.5,0 5,5 0,0 z"
         style="fill-rule:evenodd;stroke:#000000;stroke-width:1pt;marker-start:none"
         transform="matrix(0.4,0,0,0.4,4,0)" />
    </marker>
    <marker
       inkscape:stockid="Arrow1Mstart"
       orient="auto"
       refY="0"
       refX="0"
       id="Arrow1Mstart-1"
       style="overflow:visible">
      <path
         inkscape:connector-curvature="0"
         id="path4364-2"
         d="M 0,0 5,-5 -12.5,0 5,5 0,0 z"
         style="fill-rule:evenodd;stroke:#000000;stroke-width:1pt;marker-start:none"
         transform="matrix(0.4,0,0,0.4,4,0)" />
    </marker>
    <marker
       inkscape:stockid="Arrow1Mstart"
       orient="auto"
       refY="0"
       refX="0"
       id="Arrow1Mstart-3"
       style="overflow:visible">
      <path
         inkscape:connector-curvature="0"
         id="path4364-4"
         d="M 0,0 5,-5 -12.5,0 5,5 0,0 z"
         style="fill-rule:evenodd;stroke:#000000;stroke-width:1pt;marker-start:none"
         transform="matrix(0.4,0,0,0.4,4,0)" />
    </marker>
    <marker
       inkscape:stockid="Arrow1Mstart"
       orient="auto"
       refY="0"
       refX="0"
       id="Arrow1Mstart-13"
       style="overflow:visible">
      <path
         inkscape:connector-curvature="0"
         id="path4364-8"
         d="M 0,0 5,-5 -12.5,0 5,5 0,0 z"
         style="fill-rule:evenodd;stroke:#000000;stroke-width:1pt;marker-start:none"
         transform="matrix(0.4,0,0,0.4,4,0)" />
    </marker>
    <marker
       inkscape:stockid="Arrow1Mstart"
       orient="auto"
       refY="0"
       refX="0"
       id="Arrow1Mstart-4"
       style="overflow:visible">
      <path
         inkscape:connector-curvature="0"
         id="path4364-27"
         d="M 0,0 5,-5 -12.5,0 5,5 0,0 z"
         style="fill-rule:evenodd;stroke:#000000;stroke-width:1pt;marker-start:none"
         transform="matrix(0.4,0,0,0.4,4,0)" />
    </marker>
    <marker
       inkscape:stockid="Arrow1Mstart"
       orient="auto"
       refY="0"
       refX="0"
       id="Arrow1Mstart-0"
       style="overflow:visible">
      <path
         inkscape:connector-curvature="0"
         id="path4364-24"
         d="M 0,0 5,-5 -12.5,0 5,5 0,0 z"
         style="fill-rule:evenodd;stroke:#000000;stroke-width:1pt;marker-start:none"
         transform="matrix(0.4,0,0,0.4,4,0)" />
    </marker>
    <marker
       inkscape:stockid="Arrow1Mstart"
       orient="auto"
       refY="0"
       refX="0"
       id="Arrow1Mstart-00"
       style="overflow:visible">
      <path
         inkscape:connector-curvature="0"
         id="path4364-6"
         d="M 0,0 5,-5 -12.5,0 5,5 0,0 z"
         style="fill-rule:evenodd;stroke:#000000;stroke-width:1pt;marker-start:none"
         transform="matrix(0.4,0,0,0.4,4,0)" />
    </marker>
    <marker
       inkscape:stockid="Arrow1Mstart"
       orient="auto"
       refY="0"
       refX="0"
       id="Arrow1Mstart-38"
       style="overflow:visible">
      <path
         inkscape:connector-curvature="0"
         id="path4364-9"
         d="M 0,0 5,-5 -12.5,0 5,5 0,0 z"
         style="fill-rule:evenodd;stroke:#000000;stroke-width:1pt;marker-start:none"
         transform="matrix(0.4,0,0,0.4,4,0)" />
    </marker>
    <marker
       inkscape:stockid="Arrow1Mstart"
       orient="auto"
       refY="0"
       refX="0"
       id="Arrow1Mstart-9"
       style="overflow:visible">
      <path
         inkscape:connector-curvature="0"
         id="path4364-48"
         d="M 0,0 5,-5 -12.5,0 5,5 0,0 z"
         style="fill-rule:evenodd;stroke:#000000;stroke-width:1pt;marker-start:none"
         transform="matrix(0.4,0,0,0.4,4,0)" />
    </marker>
    <marker
       inkscape:stockid="Arrow1Mstart"
       orient="auto"
       refY="0"
       refX="0"
       id="marker4604"
       style="overflow:visible">
      <path
         inkscape:connector-curvature="0"
         id="path4606"
         d="M 0,0 5,-5 -12.5,0 5,5 0,0 z"
         style="fill-rule:evenodd;stroke:#000000;stroke-width:1pt;marker-start:none"
         transform="matrix(0.4,0,0,0.4,4,0)" />
    </marker>
    <inkscape:path-effect
       effect="spiro"
       id="path-effect4586"
       is_visible="true" />
    <marker
       inkscape:stockid="Arrow1Mstart"
       orient="auto"
       refY="0"
       refX="0"
       id="Arrow1Mstart-8"
       style="overflow:visible">
      <path
         inkscape:connector-curvature="0"
         id="path4364-245"
         d="M 0,0 5,-5 -12.5,0 5,5 0,0 z"
         style="fill-rule:evenodd;stroke:#000000;stroke-width:1pt;marker-start:none"
         transform="matrix(0.4,0,0,0.4,4,0)" />
    </marker>
    <marker
       inkscape:stockid="Arrow1Mstart"
       orient="auto"
       refY="0"
       refX="0"
       id="marker5296"
       style="overflow:visible">
      <path
         inkscape:connector-curvature="0"
         id="path5298"
         d="M 0,0 5,-5 -12.5,0 5,5 0,0 z"
         style="fill-rule:evenodd;stroke:#000000;stroke-width:1pt;marker-start:none"
         transform="matrix(0.4,0,0,0.4,4,0)" />
    </marker>
    <marker
       inkscape:stockid="Arrow1Mstart"
       orient="auto"
       refY="0"
       refX="0"
       id="marker5300"
       style="overflow:visible">
      <path
         inkscape:connector-curvature="0"
         id="path5302"
         d="M 0,0 5,-5 -12.5,0 5,5 0,0 z"
         style="fill-rule:evenodd;stroke:#000000;stroke-width:1pt;marker-start:none"
         transform="matrix(0.4,0,0,0.4,4,0)" />
    </marker>
    <marker
       inkscape:stockid="Arrow1Mstart"
       orient="auto"
       refY="0"
       refX="0"
       id="marker5304"
       style="overflow:visible">
      <path
         inkscape:connector-curvature="0"
         id="path5306"
         d="M 0,0 5,-5 -12.5,0 5,5 0,0 z"
         style="fill-rule:evenodd;stroke:#000000;stroke-width:1pt;marker-start:none"
         transform="matrix(0.4,0,0,0.4,4,0)" />
    </marker>
    <marker
       inkscape:stockid="Arrow1Mstart"
       orient="auto"
       refY="0"
       refX="0"
       id="marker5308"
       style="overflow:visible">
      <path
         inkscape:connector-curvature="0"
         id="path5310"
         d="M 0,0 5,-5 -12.5,0 5,5 0,0 z"
         style="fill-rule:evenodd;stroke:#000000;stroke-width:1pt;marker-start:none"
         transform="matrix(0.4,0,0,0.4,4,0)" />
    </marker>
  </defs>
  <sodipodi:namedview
     id="base"
     pagecolor="#ffffff"
     bordercolor="#666666"
     borderopacity="1.0"
     inkscape:pageopacity="0.0"
     inkscape:pageshadow="2"
     inkscape:zoom="5.807006"
     inkscape:cx="29.619928"
     inkscape:cy="28.181171"
     inkscape:current-layer="layer1"
     showgrid="true"
     inkscape:document-units="px"
     inkscape:grid-bbox="true"
     inkscape:snap-global="false"
     inkscape:window-width="1920"
     inkscape:window-height="1018"
     inkscape:window-x="-8"
     inkscape:window-y="-8"
     inkscape:window-maximized="1">
    <inkscape:grid
       type="xygrid"
       id="grid10774" />
  </sodipodi:namedview>
  <metadata
     id="metadata10771">
    <rdf:RDF>
      <cc:Work
         rdf:about="">
        <dc:format>image/svg+xml</dc:format>
        <dc:type
           rdf:resource="http://purl.org/dc/dcmitype/StillImage" />
        <dc:title />
      </cc:Work>
    </rdf:RDF>
  </metadata>
  <g
     id="layer1"
     inkscape:label="Layer 1"
     inkscape:groupmode="layer">
    <path
       style="fill:none;stroke:#000000;stroke-width:1px;stroke-linecap:butt;stroke-linejoin:miter;stroke-opacity:1"
       d="m 21.702238,27.295964 34.000002,0 0,-15 -50.0000029,0 0,40.999997 16.0000009,0 0,-25.999997"
       id="path4584"
       inkscape:path-effect="#path-effect4586"
       inkscape:original-d="m 21.702238,27.295964 34.000002,0 0,-15 -50.0000029,0 0,40.999997 16.0000009,0 0,-25.999997"
       inkscape:connector-curvature="0"
       sodipodi:nodetypes="ccccccc" />
    <path
       style="fill:none;stroke:#000000;stroke-width:1;stroke-linecap:butt;stroke-linejoin:miter;stroke-miterlimit:4;stroke-opacity:1;stroke-dasharray:none;stroke-dashoffset:0"
       d="m 21.218855,27.295964 -15.0992176,0"
       id="path15130-9"
       inkscape:connector-curvature="0" />
    <path
       style="fill:none;stroke:#000000;stroke-width:1;stroke-linecap:butt;stroke-linejoin:miter;stroke-miterlimit:4;stroke-opacity:1;stroke-dasharray:none;stroke-dashoffset:0"
       d="m 21.702238,12.295964 0,15.099217"
       id="path15130"
       inkscape:connector-curvature="0" />
    <path
       style="fill:#0000ff;fill-opacity:1;stroke:#000000;stroke-width:0.17220578;stroke-linecap:round;stroke-linejoin:round;stroke-miterlimit:4;stroke-opacity:1;stroke-dasharray:none;stroke-dashoffset:0"
       d="m 6.3377065,19.786471 0,-6.974334 7.4048485,0 7.404849,0 0,6.974334 0,6.974334 -7.404849,0 -7.4048485,0 0,-6.974334 z"
       id="path5278"
       inkscape:connector-curvature="0" />
    <path
       style="fill:#b3b3b3;fill-opacity:1;stroke:#000000;stroke-width:0.17220578;stroke-linecap:round;stroke-linejoin:round;stroke-miterlimit:4;stroke-opacity:1;stroke-dasharray:none;stroke-dashoffset:0"
       d="m 6.3377065,40.278959 0,-12.48492 7.4048485,0 7.404849,0 0,12.48492 0,12.484919 -7.404849,0 -7.4048485,0 0,-12.484919 z"
       id="path5280"
       inkscape:connector-curvature="0" />
    <path
       style="fill:#808080;fill-opacity:1;stroke:#000000;stroke-width:0.17220578;stroke-linecap:round;stroke-linejoin:round;stroke-miterlimit:4;stroke-opacity:1;stroke-dasharray:none;stroke-dashoffset:0"
       d="m 22.352844,19.786471 0,-6.974334 16.35955,0 16.359549,0 0,6.974334 0,6.974334 -16.359549,0 -16.35955,0 0,-6.974334 z"
       id="path5282"
       inkscape:connector-curvature="0" />
    <path
       style="fill:none;stroke:#000000;stroke-width:0.5;stroke-linecap:butt;stroke-linejoin:miter;stroke-miterlimit:4;stroke-opacity:1;stroke-dasharray:0.99999998, 0.49999999;stroke-dashoffset:0;marker-start:url(#Arrow1Mstart)"
       d="m 14.195196,18.655847 c 0,0 7.880025,-18.78350833 7.750139,-14.6864623 -0.129882,4.097047 0.552556,7.8524523 2.760628,3.960258 2.20807,-3.892194 3.508571,-3.24975 3.508571,-3.24975"
       id="path4353-5"
       inkscape:connector-curvature="0"
       sodipodi:nodetypes="cssc" />
    <path
       style="fill:none;stroke:#000000;stroke-width:0.5;stroke-linecap:butt;stroke-linejoin:miter;stroke-miterlimit:4;stroke-opacity:1;stroke-dasharray:1, 0.5;stroke-dashoffset:0;marker-start:url(#Arrow1Mstart)"
       d="m 40.027929,19.184456 c 0,0 6.398816,-19.11773333 6.26893,-15.5788003 -0.129882,3.538935 -1.476739,7.6705833 0.731334,4.308596 2.208069,-3.361988 3.508573,-2.807059 3.508573,-2.807059"
       id="path4353-5-3-5"
       inkscape:connector-curvature="0"
       sodipodi:nodetypes="cssc" />
    <text
       xml:space="preserve"
       style="font-size:10px;font-style:normal;font-variant:normal;font-weight:normal;font-stretch:normal;text-align:start;line-height:125%;letter-spacing:0px;word-spacing:0px;writing-mode:lr-tb;text-anchor:start;fill:#000000;fill-opacity:1;stroke:none;font-family:Arial;-inkscape-font-specification:Arial"
       x="29.321186"
       y="6.8360577"
       id="text11393"
       sodipodi:linespacing="125%"><tspan
         sodipodi:role="line"
         id="tspan11395"
         x="29.321186"
         y="6.8360577"
         style="font-size:6px">f''<tspan
   style="font-size:65.00091553%;baseline-shift:sub"
   id="tspan15126">1</tspan>f''<tspan
   style="font-size:65.00091553%;baseline-shift:sub"
   id="tspan15128">2</tspan></tspan></text>
    <text
       xml:space="preserve"
       style="font-size:10px;font-style:normal;font-variant:normal;font-weight:normal;font-stretch:normal;text-align:start;line-height:125%;letter-spacing:0px;word-spacing:0px;writing-mode:lr-tb;text-anchor:start;fill:#000000;fill-opacity:1;stroke:none;font-family:Arial;-inkscape-font-specification:Arial"
       x="51.262913"
       y="7.0897198"
       id="text11399-1"
       sodipodi:linespacing="125%"><tspan
         sodipodi:role="line"
         id="tspan11401-7"
         x="51.262913"
         y="7.0897198"
         style="font-size:6px">f'<tspan
   style="font-size:65.00091553%;baseline-shift:sub"
   id="tspan15048-1">2</tspan></tspan></text>
    <path
       style="fill:none;stroke:#000000;stroke-width:0.5;stroke-linecap:butt;stroke-linejoin:miter;stroke-miterlimit:4;stroke-opacity:1;stroke-dasharray:1, 0.5;stroke-dashoffset:0;marker-start:url(#Arrow1Mstart)"
       d="m 14.919763,36.444804 c 0,0 19.117731,6.398816 15.578798,6.26893 -3.538935,-0.129882 -7.670582,-1.476739 -4.308596,0.731334 3.361987,2.208069 2.807059,3.50857 2.807059,3.50857"
       id="path4353-5-3-8-1"
       inkscape:connector-curvature="0"
       sodipodi:nodetypes="cssc" />
    <text
       xml:space="preserve"
       style="font-size:10px;font-style:normal;font-variant:normal;font-weight:normal;font-stretch:normal;text-align:start;line-height:125%;letter-spacing:0px;word-spacing:0px;writing-mode:lr-tb;text-anchor:start;fill:#000000;fill-opacity:1;stroke:none;font-family:Arial;-inkscape-font-specification:Arial"
       x="32.125835"
       y="47.528328"
       id="text11393-6-5"
       sodipodi:linespacing="125%"><tspan
         sodipodi:role="line"
         id="tspan11395-5-2"
         x="32.125835"
         y="47.528328"
         style="font-size:6px">f'<tspan
   style="font-size:65.00091553%;baseline-shift:sub"
   id="tspan15124-7">1</tspan></tspan></text>
    <path
       style="fill:none;stroke:#000000;stroke-width:0.5;stroke-linecap:butt;stroke-linejoin:miter;stroke-miterlimit:4;stroke-opacity:1;stroke-dasharray:1, 0.5;stroke-dashoffset:0;marker-start:url(#Arrow1Mstart)"
       d="m 22.591139,21.467355 c 0,0 19.2395,8.590638 15.700567,8.460752 -3.538935,-0.129882 -7.792351,-1.111436 -4.430364,1.096637 3.361987,2.208069 13.035561,2.534426 13.035561,2.534426"
       id="path4353-5-3-1"
       inkscape:connector-curvature="0"
       sodipodi:nodetypes="cssc" />
    <path
       style="fill:none;stroke:#000000;stroke-width:0.5;stroke-linecap:butt;stroke-linejoin:miter;stroke-miterlimit:4;stroke-opacity:1;stroke-dasharray:1, 0.5;stroke-dashoffset:0;marker-start:url(#Arrow1Mstart)"
       d="m 17.651975,28.130894 c 0,0 23.988447,8.590638 20.449514,8.460752 -3.538935,-0.129882 -12.541298,-1.111436 -9.179311,1.096637 3.361987,2.20807 18.028043,4.726249 18.028043,4.726249"
       id="path4353-5-3-1-3"
       inkscape:connector-curvature="0"
       sodipodi:nodetypes="cssc" />
    <text
       xml:space="preserve"
       style="font-size:6px;font-style:normal;font-variant:normal;font-weight:normal;font-stretch:normal;text-align:start;line-height:125%;letter-spacing:0px;word-spacing:0px;writing-mode:lr-tb;text-anchor:start;fill:#000000;fill-opacity:1;stroke:none;font-family:Arial;-inkscape-font-specification:Arial"
       x="48.933186"
       y="34.498066"
       id="text15742"
       sodipodi:linespacing="125%"><tspan
         sodipodi:role="line"
         id="tspan15744"
         x="48.933186"
         y="34.498066">o<tspan
   style="font-size:65%;baseline-shift:sub"
   id="tspan3043">2,1</tspan></tspan></text>
    <text
       xml:space="preserve"
       style="font-size:6px;font-style:normal;font-variant:normal;font-weight:normal;font-stretch:normal;text-align:start;line-height:125%;letter-spacing:0px;word-spacing:0px;writing-mode:lr-tb;text-anchor:start;fill:#000000;fill-opacity:1;stroke:none;font-family:Arial;-inkscape-font-specification:Arial"
       x="49.90733"
       y="42.534752"
       id="text15748"
       sodipodi:linespacing="125%"><tspan
         sodipodi:role="line"
         id="tspan15750"
         x="49.90733"
         y="42.534752">o<tspan
   style="font-size:65%;baseline-shift:sub"
   id="tspan3045">1,2</tspan></tspan></text>
  </g>
</svg>
