<?xml version="1.0" encoding="UTF-8" standalone="no"?>
<!-- Created with Inkscape (http://www.inkscape.org/) -->

<svg
   xmlns:dc="http://purl.org/dc/elements/1.1/"
   xmlns:cc="http://creativecommons.org/ns#"
   xmlns:rdf="http://www.w3.org/1999/02/22-rdf-syntax-ns#"
   xmlns:svg="http://www.w3.org/2000/svg"
   xmlns="http://www.w3.org/2000/svg"
   xmlns:sodipodi="http://sodipodi.sourceforge.net/DTD/sodipodi-0.dtd"
   xmlns:inkscape="http://www.inkscape.org/namespaces/inkscape"
   width="162"
   height="205.14569"
   id="svg10766"
   version="1.1"
   inkscape:version="0.48.2 r9819"
   sodipodi:docname="FeatureInteractionMergedPart_1.svg">
  <defs
     id="defs10768">
    <inkscape:path-effect
       effect="spiro"
       id="path-effect4586"
       is_visible="true" />
    <inkscape:path-effect
       effect="spiro"
       id="path-effect4393"
       is_visible="true" />
    <inkscape:path-effect
       effect="spiro"
       id="path-effect3851"
       is_visible="true" />
    <inkscape:path-effect
       effect="spiro"
       id="path-effect3845"
       is_visible="true" />
    <inkscape:path-effect
       effect="spiro"
       id="path-effect3841"
       is_visible="true" />
    <marker
       inkscape:stockid="Arrow1Mstart"
       orient="auto"
       refY="0"
       refX="0"
       id="Arrow1Mstart"
       style="overflow:visible">
      <path
         inkscape:connector-curvature="0"
         id="path4364"
         d="M 0,0 5,-5 -12.5,0 5,5 0,0 z"
         style="fill-rule:evenodd;stroke:#000000;stroke-width:1pt;marker-start:none"
         transform="matrix(0.4,0,0,0.4,4,0)" />
    </marker>
    <marker
       inkscape:stockid="Arrow1Mstart"
       orient="auto"
       refY="0"
       refX="0"
       id="Arrow1Mstart-1"
       style="overflow:visible">
      <path
         inkscape:connector-curvature="0"
         id="path4364-2"
         d="M 0,0 5,-5 -12.5,0 5,5 0,0 z"
         style="fill-rule:evenodd;stroke:#000000;stroke-width:1pt;marker-start:none"
         transform="matrix(0.4,0,0,0.4,4,0)" />
    </marker>
    <marker
       inkscape:stockid="Arrow1Mstart"
       orient="auto"
       refY="0"
       refX="0"
       id="Arrow1Mstart-3"
       style="overflow:visible">
      <path
         inkscape:connector-curvature="0"
         id="path4364-4"
         d="M 0,0 5,-5 -12.5,0 5,5 0,0 z"
         style="fill-rule:evenodd;stroke:#000000;stroke-width:1pt;marker-start:none"
         transform="matrix(0.4,0,0,0.4,4,0)" />
    </marker>
    <marker
       inkscape:stockid="Arrow1Mstart"
       orient="auto"
       refY="0"
       refX="0"
       id="Arrow1Mstart-13"
       style="overflow:visible">
      <path
         inkscape:connector-curvature="0"
         id="path4364-8"
         d="M 0,0 5,-5 -12.5,0 5,5 0,0 z"
         style="fill-rule:evenodd;stroke:#000000;stroke-width:1pt;marker-start:none"
         transform="matrix(0.4,0,0,0.4,4,0)" />
    </marker>
    <marker
       inkscape:stockid="Arrow1Mstart"
       orient="auto"
       refY="0"
       refX="0"
       id="Arrow1Mstart-4"
       style="overflow:visible">
      <path
         inkscape:connector-curvature="0"
         id="path4364-27"
         d="M 0,0 5,-5 -12.5,0 5,5 0,0 z"
         style="fill-rule:evenodd;stroke:#000000;stroke-width:1pt;marker-start:none"
         transform="matrix(0.4,0,0,0.4,4,0)" />
    </marker>
    <marker
       inkscape:stockid="Arrow1Mstart"
       orient="auto"
       refY="0"
       refX="0"
       id="Arrow1Mstart-17"
       style="overflow:visible">
      <path
         inkscape:connector-curvature="0"
         id="path4364-40"
         d="M 0,0 5,-5 -12.5,0 5,5 0,0 z"
         style="fill-rule:evenodd;stroke:#000000;stroke-width:1pt;marker-start:none"
         transform="matrix(0.4,0,0,0.4,4,0)" />
    </marker>
    <marker
       inkscape:stockid="Arrow1Mstart"
       orient="auto"
       refY="0"
       refX="0"
       id="marker4459"
       style="overflow:visible">
      <path
         inkscape:connector-curvature="0"
         id="path4461"
         d="M 0,0 5,-5 -12.5,0 5,5 0,0 z"
         style="fill-rule:evenodd;stroke:#000000;stroke-width:1pt;marker-start:none"
         transform="matrix(0.4,0,0,0.4,4,0)" />
    </marker>
    <marker
       inkscape:stockid="Arrow1Mstart"
       orient="auto"
       refY="0"
       refX="0"
       id="marker4463"
       style="overflow:visible">
      <path
         inkscape:connector-curvature="0"
         id="path4465"
         d="M 0,0 5,-5 -12.5,0 5,5 0,0 z"
         style="fill-rule:evenodd;stroke:#000000;stroke-width:1pt;marker-start:none"
         transform="matrix(0.4,0,0,0.4,4,0)" />
    </marker>
    <marker
       inkscape:stockid="Arrow1Mstart"
       orient="auto"
       refY="0"
       refX="0"
       id="marker4467"
       style="overflow:visible">
      <path
         inkscape:connector-curvature="0"
         id="path4469"
         d="M 0,0 5,-5 -12.5,0 5,5 0,0 z"
         style="fill-rule:evenodd;stroke:#000000;stroke-width:1pt;marker-start:none"
         transform="matrix(0.4,0,0,0.4,4,0)" />
    </marker>
    <marker
       inkscape:stockid="Arrow1Mstart"
       orient="auto"
       refY="0"
       refX="0"
       id="marker4471"
       style="overflow:visible">
      <path
         inkscape:connector-curvature="0"
         id="path4473"
         d="M 0,0 5,-5 -12.5,0 5,5 0,0 z"
         style="fill-rule:evenodd;stroke:#000000;stroke-width:1pt;marker-start:none"
         transform="matrix(0.4,0,0,0.4,4,0)" />
    </marker>
    <inkscape:path-effect
       effect="spiro"
       id="path-effect3056"
       is_visible="true" />
    <inkscape:path-effect
       effect="spiro"
       id="path-effect3060"
       is_visible="true" />
  </defs>
  <sodipodi:namedview
     id="base"
     pagecolor="#ffffff"
     bordercolor="#666666"
     borderopacity="1.0"
     inkscape:pageopacity="0.0"
     inkscape:pageshadow="2"
     inkscape:zoom="2.864342"
     inkscape:cx="-51.270905"
     inkscape:cy="92.440541"
     inkscape:current-layer="layer1"
     showgrid="true"
     inkscape:document-units="px"
     inkscape:grid-bbox="true"
     inkscape:snap-global="true"
     inkscape:window-width="1920"
     inkscape:window-height="1018"
     inkscape:window-x="-8"
     inkscape:window-y="-8"
     inkscape:window-maximized="1"
     fit-margin-top="0"
     fit-margin-left="0"
     fit-margin-right="0"
     fit-margin-bottom="0"
     inkscape:snap-grids="false">
    <inkscape:grid
       type="xygrid"
       id="grid10774"
       empspacing="5"
       visible="true"
       enabled="true"
       snapvisiblegridlinesonly="true" />
  </sodipodi:namedview>
  <metadata
     id="metadata10771">
    <rdf:RDF>
      <cc:Work
         rdf:about="">
        <dc:format>image/svg+xml</dc:format>
        <dc:type
           rdf:resource="http://purl.org/dc/dcmitype/StillImage" />
        <dc:title></dc:title>
      </cc:Work>
    </rdf:RDF>
  </metadata>
  <g
     id="layer1"
     inkscape:label="Layer 1"
     inkscape:groupmode="layer"
     transform="translate(84,81.563)">
    <path
       inkscape:connector-curvature="0"
       style="fill:none;stroke:#000000;stroke-width:1.98425198px;stroke-linecap:butt;stroke-linejoin:miter;stroke-miterlimit:4;stroke-opacity:1;stroke-dasharray:none"
       d="m -83.007874,-27.433069 160.015754,0 0,40.003938 -120.011816,0 0,110.019691 -40.003938,0 0,-150.023629 z"
       id="path3854" />
    <path
       inkscape:connector-curvature="0"
       style="fill:#cccccc;fill-opacity:1;fill-rule:nonzero;stroke:none"
       d="m -83.007874,-26.417309 159.055673,0 0,38.142083 -159.055673,0 z"
       id="path3856" />
    <path
       inkscape:connector-curvature="0"
       style="fill:#808080;fill-opacity:1;fill-rule:nonzero;stroke:none"
       d="m -82.833313,-27.258509 38.782016,0 0,148.801709 -38.782016,0 z"
       id="path3858" />
    <path
       inkscape:connector-curvature="0"
       style="fill:none;stroke:#000000;stroke-width:1;stroke-linecap:butt;stroke-linejoin:miter;stroke-miterlimit:4;stroke-opacity:1;stroke-dasharray:none"
       d="m 16.98425,-17.440943 0,-39.968505"
       id="path3866" />
    <path
       inkscape:connector-curvature="0"
       style="fill:#000000;fill-opacity:1;fill-rule:evenodd;stroke:none"
       d="m 21.27426,-23.742293 -4.42913,12.011811 -4.429136,-12.011811 c 2.622047,1.913385 6.200786,1.913385 8.858266,0 z"
       id="path3868" />
    <path
       inkscape:connector-curvature="0"
       style="fill:none;stroke:#000000;stroke-width:1;stroke-linecap:butt;stroke-linejoin:miter;stroke-miterlimit:4;stroke-opacity:1;stroke-dasharray:none"
       d="m -52.996062,100.58662 40.003938,0"
       id="path3870" />
    <path
       inkscape:connector-curvature="0"
       style="fill:#000000;fill-opacity:1;fill-rule:evenodd;stroke:none"
       d="m -48.492161,105.01575 -12.047244,-4.42913 12.047244,-4.42913 c -1.948818,2.62204 -1.913385,6.20078 0,8.85826 z"
       id="path3872" />
    <path
       inkscape:connector-curvature="0"
       style="fill:#000000;fill-opacity:1;fill-rule:nonzero;stroke:none"
       d="m -3.791339,103 0,-9 -1.559055,0 0,-1.34646 1.559055,0 0,-1.09842 c 0,-0.70866 0.07087,-1.24016 0.212598,-1.55906 0.141733,-0.46063 0.46063,-0.85039 0.885827,-1.13386 0.425197,-0.28346 1.027559,-0.42519 1.771654,-0.42519 0.496063,0 1.062992,0.0709 1.665354,0.17716 l -0.283465,1.55906 c -0.35433,-0.0709 -0.708661,-0.1063 -1.027559,-0.1063 -0.531496,0 -0.921259,0.1063 -1.133858,0.35433 -0.212598,0.2126 -0.318898,0.63779 -0.318898,1.27559 l 0,0.95669 L 0,92.65354 0,94 l -2.019686,0 0,9 z"
       id="path3874" />
    <path
       inkscape:connector-curvature="0"
       style="fill:#000000;fill-opacity:1;fill-rule:nonzero;stroke:none"
       d="m 4.854332,107.00394 -1.13386,0 0,-7.26378 c -0.283464,0.24803 -0.637795,0.53149 -1.062992,0.77953 -0.46063,0.24803 -0.850394,0.46062 -1.204725,0.60236 l 0,-1.13386 C 2.090551,99.70472 2.65748,99.35039 3.11811,98.9252 3.614172,98.5 3.933072,98.0748 4.145672,97.68504 l 0.70866,0 z"
       id="path3876" />
    <path
       inkscape:connector-curvature="0"
       style="fill:#000000;fill-opacity:1;fill-rule:nonzero;stroke:none"
       d="m 16.244094,-67 0,-9 -1.559055,0 0,-1.38189 1.559055,0 0,-1.09843 c 0,-0.70866 0.03543,-1.20472 0.177165,-1.55905 0.177166,-0.46063 0.46063,-0.81497 0.885827,-1.09843 0.425197,-0.28346 1.027559,-0.4252 1.807087,-0.4252 0.496063,0 1.027559,0.0709 1.629921,0.17717 l -0.248031,1.52362 c -0.389764,-0.0709 -0.708662,-0.1063 -1.062992,-0.1063 -0.531497,0 -0.885827,0.14173 -1.133859,0.35433 -0.212598,0.2126 -0.318897,0.67323 -0.318897,1.27559 l 0,0.9567 2.019685,0 0,1.38189 -2.019685,0 0,9 z"
       id="path3878" />
    <path
       inkscape:connector-curvature="0"
       style="fill:#000000;fill-opacity:1;fill-rule:nonzero;stroke:none"
       d="m 26.590551,-64.09449 0,1.09842 -6.165354,0 c 0,-0.28346 0.03543,-0.53149 0.141732,-0.81496 0.177165,-0.38976 0.425197,-0.81496 0.744094,-1.24016 0.354331,-0.38976 0.850394,-0.85039 1.523622,-1.38188 0.992126,-0.8504 1.665355,-1.48819 2.019685,-1.98426 0.354331,-0.49606 0.531497,-0.95669 0.531497,-1.38189 0,-0.46063 -0.141733,-0.81496 -0.46063,-1.13385 -0.318898,-0.3189 -0.744095,-0.46063 -1.275591,-0.46063 -0.566929,0 -0.992126,0.14173 -1.311024,0.49606 -0.35433,0.3189 -0.496063,0.77953 -0.496063,1.34645 l -1.204724,-0.10629 c 0.106299,-0.88583 0.389764,-1.55906 0.92126,-2.01969 0.531496,-0.4252 1.240157,-0.67323 2.125984,-0.67323 0.885827,0 1.594488,0.24803 2.125984,0.7441 0.496063,0.49606 0.779528,1.09842 0.779528,1.84252 0,0.35433 -0.106299,0.74409 -0.248032,1.09842 -0.141732,0.35433 -0.389763,0.7441 -0.744094,1.13386 -0.354331,0.38976 -0.956693,0.95669 -1.771654,1.62992 -0.673228,0.56693 -1.133858,0.95669 -1.311023,1.16929 -0.212599,0.2126 -0.354331,0.4252 -0.496063,0.6378 z"
       id="path3880" />
    <path
       style="fill:none;stroke:#000000;stroke-width:2;stroke-linecap:butt;stroke-linejoin:miter;stroke-miterlimit:4;stroke-opacity:1;stroke-dasharray:6,2;stroke-dashoffset:0"
       d="m -44,13.582691 -40,0"
       id="path3054"
       inkscape:path-effect="#path-effect3056"
       inkscape:original-d="m -44,13.582691 -40,0"
       inkscape:connector-curvature="0" />
    <path
       style="fill:none;stroke:#000000;stroke-width:2;stroke-linecap:butt;stroke-linejoin:miter;stroke-miterlimit:4;stroke-opacity:1;stroke-dasharray:6,2;stroke-dashoffset:0"
       d="m -44,13.582691 0,-40"
       id="path3058"
       inkscape:path-effect="#path-effect3060"
       inkscape:original-d="m -44,13.582691 0,-40"
       inkscape:connector-curvature="0" />
  </g>
</svg>
