<?xml version="1.0" encoding="UTF-8" standalone="no"?>
<!-- Created with Inkscape (http://www.inkscape.org/) -->

<svg
   xmlns:dc="http://purl.org/dc/elements/1.1/"
   xmlns:cc="http://creativecommons.org/ns#"
   xmlns:rdf="http://www.w3.org/1999/02/22-rdf-syntax-ns#"
   xmlns:svg="http://www.w3.org/2000/svg"
   xmlns="http://www.w3.org/2000/svg"
   xmlns:sodipodi="http://sodipodi.sourceforge.net/DTD/sodipodi-0.dtd"
   xmlns:inkscape="http://www.inkscape.org/namespaces/inkscape"
   width="83.503197"
   height="48.205914"
   id="svg3007"
   version="1.1"
   inkscape:version="0.48.2 r9819"
   sodipodi:docname="hausdorff.svg">
  <defs
     id="defs3009">
    <marker
       inkscape:stockid="Arrow1Mend"
       orient="auto"
       refY="0"
       refX="0"
       id="Arrow1Mend"
       style="overflow:visible">
      <path
         id="path3829"
         d="M 0,0 5,-5 -12.5,0 5,5 0,0 z"
         style="fill-rule:evenodd;stroke:#000000;stroke-width:1pt;marker-start:none"
         transform="matrix(-0.4,0,0,-0.4,-4,0)"
         inkscape:connector-curvature="0" />
    </marker>
    <marker
       inkscape:stockid="Arrow1Send"
       orient="auto"
       refY="0"
       refX="0"
       id="Arrow1Send"
       style="overflow:visible">
      <path
         id="path3835"
         d="M 0,0 5,-5 -12.5,0 5,5 0,0 z"
         style="fill-rule:evenodd;stroke:#000000;stroke-width:1pt;marker-start:none"
         transform="matrix(-0.2,0,0,-0.2,-1.2,0)"
         inkscape:connector-curvature="0" />
    </marker>
    <marker
       inkscape:stockid="Arrow1Lend"
       orient="auto"
       refY="0"
       refX="0"
       id="Arrow1Lend"
       style="overflow:visible">
      <path
         id="path3823"
         d="M 0,0 5,-5 -12.5,0 5,5 0,0 z"
         style="fill-rule:evenodd;stroke:#000000;stroke-width:1pt;marker-start:none"
         transform="matrix(-0.8,0,0,-0.8,-10,0)"
         inkscape:connector-curvature="0" />
    </marker>
    <inkscape:path-effect
       effect="spiro"
       id="path-effect3039"
       is_visible="true" />
    <inkscape:path-effect
       effect="spiro"
       id="path-effect3035"
       is_visible="true" />
    <inkscape:path-effect
       effect="spiro"
       id="path-effect3023"
       is_visible="true" />
    <inkscape:path-effect
       effect="spiro"
       id="path-effect3019"
       is_visible="true" />
    <marker
       inkscape:stockid="Arrow1Mend"
       orient="auto"
       refY="0"
       refX="0"
       id="Arrow1Mend-1"
       style="overflow:visible">
      <path
         inkscape:connector-curvature="0"
         id="path3829-7"
         d="M 0,0 5,-5 -12.5,0 5,5 0,0 z"
         style="fill-rule:evenodd;stroke:#000000;stroke-width:1pt;marker-start:none"
         transform="matrix(-0.4,0,0,-0.4,-4,0)" />
    </marker>
    <inkscape:path-effect
       effect="spiro"
       id="path-effect3035-4"
       is_visible="true" />
    <marker
       inkscape:stockid="Arrow1Mend"
       orient="auto"
       refY="0"
       refX="0"
       id="Arrow1Mend-9"
       style="overflow:visible">
      <path
         inkscape:connector-curvature="0"
         id="path3829-4"
         d="M 0,0 5,-5 -12.5,0 5,5 0,0 z"
         style="fill-rule:evenodd;stroke:#000000;stroke-width:1pt;marker-start:none"
         transform="matrix(-0.4,0,0,-0.4,-4,0)" />
    </marker>
    <inkscape:path-effect
       effect="spiro"
       id="path-effect3035-4-8"
       is_visible="true" />
  </defs>
  <sodipodi:namedview
     id="base"
     pagecolor="#ffffff"
     bordercolor="#666666"
     borderopacity="1.0"
     inkscape:pageopacity="0.0"
     inkscape:pageshadow="2"
     inkscape:zoom="5.5"
     inkscape:cx="-30.087713"
     inkscape:cy="33.365537"
     inkscape:current-layer="layer1"
     showgrid="true"
     inkscape:document-units="px"
     inkscape:grid-bbox="true"
     inkscape:snap-grids="false"
     inkscape:window-width="1920"
     inkscape:window-height="1018"
     inkscape:window-x="-8"
     inkscape:window-y="-8"
     inkscape:window-maximized="1"
     fit-margin-top="0"
     fit-margin-left="0"
     fit-margin-right="0"
     fit-margin-bottom="0">
    <inkscape:grid
       type="xygrid"
       id="grid3015"
       empspacing="5"
       visible="true"
       enabled="true"
       snapvisiblegridlinesonly="true" />
  </sodipodi:namedview>
  <metadata
     id="metadata3012">
    <rdf:RDF>
      <cc:Work
         rdf:about="">
        <dc:format>image/svg+xml</dc:format>
        <dc:type
           rdf:resource="http://purl.org/dc/dcmitype/StillImage" />
        <dc:title />
      </cc:Work>
    </rdf:RDF>
  </metadata>
  <g
     id="layer1"
     inkscape:label="Layer 1"
     inkscape:groupmode="layer"
     transform="translate(23.003197,-17.159624)">
    <path
       style="fill:none;stroke:#000000;stroke-width:1px;stroke-linecap:butt;stroke-linejoin:miter;stroke-opacity:1"
       d="M 5,29 C 6.3091869,27.020859 8.0208588,25.309187 10,24 14.552365,20.988645 20.388143,20.238377 25.729965,21.359634 31.071788,22.48089 35.93855,25.353507 40,29 c 1.863923,1.673487 3.600525,3.519206 5.714185,4.86353 1.05683,0.672163 2.202851,1.214744 3.414956,1.53017 1.212105,0.315425 2.489083,0.399159 3.72487,0.195392 1.235787,-0.203767 2.424053,-0.697091 3.433917,-1.437947 1.009863,-0.740856 1.835253,-1.724394 2.421391,-2.831252 0.586138,-1.106857 0.933149,-2.330129 1.108663,-3.570244 C 59.993497,26.509533 60,25.252474 60,24 l 0,-5"
       id="path3017"
       inkscape:path-effect="#path-effect3019"
       inkscape:original-d="m 5,29 c 0,0 -15,0 5,-5 20,-5 25,5 30,5 5,0 20,0 20,-5 0,-5 0,-5 0,-5"
       inkscape:connector-curvature="0" />
    <path
       style="fill:none;stroke:#000000;stroke-width:1px;stroke-linecap:butt;stroke-linejoin:miter;stroke-opacity:1"
       d="m 5,44 c 5.215405,0.890965 10.293097,2.583529 15,5 5.352642,2.747986 10.180706,6.397694 15,10 2.481537,1.854889 5.013188,3.715014 7.901583,4.835646 2.888394,1.120631 6.161702,1.424517 9.09274,0.420697 2.931039,-1.003819 5.352124,-3.316102 6.620963,-6.142528 C 59.884125,55.287389 60,52.098167 60,49 l 0,-5"
       id="path3021"
       inkscape:path-effect="#path-effect3023"
       inkscape:original-d="m 5,44 c 0,0 10,5 15,5 5,0 5,10 15,10 10,0 25,-5 25,-10 0,-5 0,-5 0,-5"
       inkscape:connector-curvature="0" />
    <text
       xml:space="preserve"
       style="font-size:6px;font-style:normal;font-weight:normal;line-height:125%;letter-spacing:0px;word-spacing:0px;fill:#000000;fill-opacity:1;stroke:none;font-family:Sans"
       x="-23.272728"
       y="30.727274"
       id="text3025"
       sodipodi:linespacing="125%"><tspan
         sodipodi:role="line"
         id="tspan3027"
         x="-23.272728"
         y="30.727274">Surface A</tspan></text>
    <text
       xml:space="preserve"
       style="font-size:6px;font-style:normal;font-weight:normal;line-height:125%;letter-spacing:0px;word-spacing:0px;fill:#000000;fill-opacity:1;stroke:none;font-family:Sans"
       x="-23.181818"
       y="46"
       id="text3029"
       sodipodi:linespacing="125%"><tspan
         sodipodi:role="line"
         id="tspan3031"
         x="-23.181818"
         y="46">Surface B</tspan></text>
    <path
       style="fill:none;stroke:#000000;stroke-width:0.50000000000000000;stroke-linecap:butt;stroke-linejoin:miter;stroke-miterlimit:4;stroke-opacity:1;stroke-dasharray:none;marker-end:url(#Arrow1Mend)"
       d="M 20.181818,49.454545 12.727273,22.727273"
       id="path3033"
       inkscape:path-effect="#path-effect3035"
       inkscape:original-d="M 20.181818,49.454545 12.727273,22.727273"
       inkscape:connector-curvature="0" />
    <text
       xml:space="preserve"
       style="font-size:6px;font-style:normal;font-weight:normal;line-height:125%;letter-spacing:0px;word-spacing:0px;fill:#000000;fill-opacity:1;stroke:none;font-family:Sans"
       x="3.8181806"
       y="55.272728"
       id="text3041"
       sodipodi:linespacing="125%"><tspan
         sodipodi:role="line"
         id="tspan3043"
         x="3.8181806"
         y="55.272728">Point b</tspan></text>
    <text
       xml:space="preserve"
       style="font-size:6px;font-style:normal;font-weight:normal;line-height:125%;letter-spacing:0px;word-spacing:0px;fill:#000000;fill-opacity:1;stroke:none;font-family:Sans"
       x="30.909092"
       y="21.454546"
       id="text3045"
       sodipodi:linespacing="125%"><tspan
         sodipodi:role="line"
         id="tspan3047"
         x="30.909092"
         y="21.454546">Point a</tspan></text>
    <path
       style="fill:none;stroke:#000000;stroke-width:0.50000000000000000;stroke-linecap:butt;stroke-linejoin:miter;stroke-miterlimit:4;stroke-opacity:1;stroke-dasharray:none;marker-end:url(#Arrow1Mend)"
       d="M 20.013271,49.405015 31.962867,23.822129"
       id="path3033-0"
       inkscape:path-effect="#path-effect3035-4"
       inkscape:original-d="M 20.013271,49.405015 31.962867,23.822129"
       inkscape:connector-curvature="0" />
    <path
       style="fill:none;stroke:#000000;stroke-width:0.49252707000000001;stroke-linecap:butt;stroke-linejoin:miter;stroke-miterlimit:4;stroke-opacity:1;stroke-dasharray:none;marker-end:url(#Arrow1Mend)"
       d="M 19.873107,48.887491 23.732975,21.636248"
       id="path3033-0-8"
       inkscape:path-effect="#path-effect3035-4-8"
       inkscape:original-d="M 19.873107,48.887491 23.732975,21.636248"
       inkscape:connector-curvature="0" />
    <path
       sodipodi:type="arc"
       style="fill:#000000;fill-opacity:1;stroke:#f70000;stroke-width:0.5;stroke-linecap:butt;stroke-linejoin:round;stroke-miterlimit:4;stroke-opacity:1;stroke-dasharray:none;stroke-dashoffset:0"
       id="path4875"
       sodipodi:cx="19.727272"
       sodipodi:cy="49.272728"
       sodipodi:rx="0.81818181"
       sodipodi:ry="0.90909094"
       d="m 20.545454,49.272728 c 0,0.502077 -0.366313,0.909091 -0.818182,0.909091 -0.451869,0 -0.818182,-0.407014 -0.818182,-0.909091 0,-0.502077 0.366313,-0.909091 0.818182,-0.909091 0.451869,0 0.818182,0.407014 0.818182,0.909091 z"
       transform="translate(0.54545455,-0.36363636)" />
    <path
       sodipodi:type="arc"
       style="fill:#000000;fill-opacity:1;stroke:#f70000;stroke-width:0.5;stroke-linecap:butt;stroke-linejoin:round;stroke-miterlimit:4;stroke-opacity:1;stroke-dasharray:none;stroke-dashoffset:0"
       id="path4875-7"
       sodipodi:cx="19.727272"
       sodipodi:cy="49.272728"
       sodipodi:rx="0.81818181"
       sodipodi:ry="0.90909094"
       d="m 20.545454,49.272728 c 0,0.502077 -0.366313,0.909091 -0.818182,0.909091 -0.451869,0 -0.818182,-0.407014 -0.818182,-0.909091 0,-0.502077 0.366313,-0.909091 0.818182,-0.909091 0.451869,0 0.818182,0.407014 0.818182,0.909091 z"
       transform="translate(-7.1818175,-26.727273)" />
    <path
       sodipodi:type="arc"
       style="fill:#000000;fill-opacity:1;stroke:#f70000;stroke-width:0.5;stroke-linecap:butt;stroke-linejoin:round;stroke-miterlimit:4;stroke-opacity:1;stroke-dasharray:none;stroke-dashoffset:0"
       id="path4875-7-6"
       sodipodi:cx="19.727272"
       sodipodi:cy="49.272728"
       sodipodi:rx="0.81818181"
       sodipodi:ry="0.90909094"
       d="m 20.545454,49.272728 c 0,0.502077 -0.366313,0.909091 -0.818182,0.909091 -0.451869,0 -0.818182,-0.407014 -0.818182,-0.909091 0,-0.502077 0.366313,-0.909091 0.818182,-0.909091 0.451869,0 0.818182,0.407014 0.818182,0.909091 z"
       transform="translate(4.272728,-28.363637)" />
    <path
       sodipodi:type="arc"
       style="fill:#000000;fill-opacity:1;stroke:#f70000;stroke-width:0.5;stroke-linecap:butt;stroke-linejoin:round;stroke-miterlimit:4;stroke-opacity:1;stroke-dasharray:none;stroke-dashoffset:0"
       id="path4875-7-6-1"
       sodipodi:cx="19.727272"
       sodipodi:cy="49.272728"
       sodipodi:rx="0.81818181"
       sodipodi:ry="0.90909094"
       d="m 20.545454,49.272728 c 0,0.502077 -0.366313,0.909091 -0.818182,0.909091 -0.451869,0 -0.818182,-0.407014 -0.818182,-0.909091 0,-0.502077 0.366313,-0.909091 0.818182,-0.909091 0.451869,0 0.818182,0.407014 0.818182,0.909091 z"
       transform="translate(13.000001,-26.000001)" />
  </g>
</svg>
