<?xml version="1.0" encoding="UTF-8" standalone="no"?>
<!-- Created with Inkscape (http://www.inkscape.org/) -->

<svg
   xmlns:dc="http://purl.org/dc/elements/1.1/"
   xmlns:cc="http://creativecommons.org/ns#"
   xmlns:rdf="http://www.w3.org/1999/02/22-rdf-syntax-ns#"
   xmlns:svg="http://www.w3.org/2000/svg"
   xmlns="http://www.w3.org/2000/svg"
   xmlns:sodipodi="http://sodipodi.sourceforge.net/DTD/sodipodi-0.dtd"
   xmlns:inkscape="http://www.inkscape.org/namespaces/inkscape"
   width="64px"
   height="64px"
   id="svg10766"
   version="1.1"
   inkscape:version="0.48.2 r9819"
   sodipodi:docname="L_cellsJoining.svg">
  <defs
     id="defs10768">
    <marker
       inkscape:stockid="Arrow1Mstart"
       orient="auto"
       refY="0"
       refX="0"
       id="Arrow1Mstart"
       style="overflow:visible">
      <path
         inkscape:connector-curvature="0"
         id="path4364"
         d="M 0,0 5,-5 -12.5,0 5,5 0,0 z"
         style="fill-rule:evenodd;stroke:#000000;stroke-width:1pt;marker-start:none"
         transform="matrix(0.4,0,0,0.4,4,0)" />
    </marker>
    <marker
       inkscape:stockid="Arrow1Mstart"
       orient="auto"
       refY="0"
       refX="0"
       id="Arrow1Mstart-1"
       style="overflow:visible">
      <path
         inkscape:connector-curvature="0"
         id="path4364-2"
         d="M 0,0 5,-5 -12.5,0 5,5 0,0 z"
         style="fill-rule:evenodd;stroke:#000000;stroke-width:1pt;marker-start:none"
         transform="matrix(0.4,0,0,0.4,4,0)" />
    </marker>
    <marker
       inkscape:stockid="Arrow1Mstart"
       orient="auto"
       refY="0"
       refX="0"
       id="Arrow1Mstart-3"
       style="overflow:visible">
      <path
         inkscape:connector-curvature="0"
         id="path4364-4"
         d="M 0,0 5,-5 -12.5,0 5,5 0,0 z"
         style="fill-rule:evenodd;stroke:#000000;stroke-width:1pt;marker-start:none"
         transform="matrix(0.4,0,0,0.4,4,0)" />
    </marker>
    <marker
       inkscape:stockid="Arrow1Mstart"
       orient="auto"
       refY="0"
       refX="0"
       id="Arrow1Mstart-13"
       style="overflow:visible">
      <path
         inkscape:connector-curvature="0"
         id="path4364-8"
         d="M 0,0 5,-5 -12.5,0 5,5 0,0 z"
         style="fill-rule:evenodd;stroke:#000000;stroke-width:1pt;marker-start:none"
         transform="matrix(0.4,0,0,0.4,4,0)" />
    </marker>
    <marker
       inkscape:stockid="Arrow1Mstart"
       orient="auto"
       refY="0"
       refX="0"
       id="Arrow1Mstart-4"
       style="overflow:visible">
      <path
         inkscape:connector-curvature="0"
         id="path4364-27"
         d="M 0,0 5,-5 -12.5,0 5,5 0,0 z"
         style="fill-rule:evenodd;stroke:#000000;stroke-width:1pt;marker-start:none"
         transform="matrix(0.4,0,0,0.4,4,0)" />
    </marker>
    <marker
       inkscape:stockid="Arrow1Mstart"
       orient="auto"
       refY="0"
       refX="0"
       id="Arrow1Mstart-0"
       style="overflow:visible">
      <path
         inkscape:connector-curvature="0"
         id="path4364-24"
         d="M 0,0 5,-5 -12.5,0 5,5 0,0 z"
         style="fill-rule:evenodd;stroke:#000000;stroke-width:1pt;marker-start:none"
         transform="matrix(0.4,0,0,0.4,4,0)" />
    </marker>
    <marker
       inkscape:stockid="Arrow1Mstart"
       orient="auto"
       refY="0"
       refX="0"
       id="Arrow1Mstart-00"
       style="overflow:visible">
      <path
         inkscape:connector-curvature="0"
         id="path4364-6"
         d="M 0,0 5,-5 -12.5,0 5,5 0,0 z"
         style="fill-rule:evenodd;stroke:#000000;stroke-width:1pt;marker-start:none"
         transform="matrix(0.4,0,0,0.4,4,0)" />
    </marker>
    <marker
       inkscape:stockid="Arrow1Mstart"
       orient="auto"
       refY="0"
       refX="0"
       id="Arrow1Mstart-38"
       style="overflow:visible">
      <path
         inkscape:connector-curvature="0"
         id="path4364-9"
         d="M 0,0 5,-5 -12.5,0 5,5 0,0 z"
         style="fill-rule:evenodd;stroke:#000000;stroke-width:1pt;marker-start:none"
         transform="matrix(0.4,0,0,0.4,4,0)" />
    </marker>
    <marker
       inkscape:stockid="Arrow1Mstart"
       orient="auto"
       refY="0"
       refX="0"
       id="Arrow1Mstart-17"
       style="overflow:visible">
      <path
         inkscape:connector-curvature="0"
         id="path4364-40"
         d="M 0,0 5,-5 -12.5,0 5,5 0,0 z"
         style="fill-rule:evenodd;stroke:#000000;stroke-width:1pt;marker-start:none"
         transform="matrix(0.4,0,0,0.4,4,0)" />
    </marker>
    <marker
       inkscape:stockid="Arrow1Mstart"
       orient="auto"
       refY="0"
       refX="0"
       id="Arrow1Mstart-48"
       style="overflow:visible">
      <path
         inkscape:connector-curvature="0"
         id="path4364-82"
         d="M 0,0 5,-5 -12.5,0 5,5 0,0 z"
         style="fill-rule:evenodd;stroke:#000000;stroke-width:1pt;marker-start:none"
         transform="matrix(0.4,0,0,0.4,4,0)" />
    </marker>
    <marker
       inkscape:stockid="Arrow1Mstart"
       orient="auto"
       refY="0"
       refX="0"
       id="Arrow1Mstart-7"
       style="overflow:visible">
      <path
         inkscape:connector-curvature="0"
         id="path4364-1"
         d="M 0,0 5,-5 -12.5,0 5,5 0,0 z"
         style="fill-rule:evenodd;stroke:#000000;stroke-width:1pt;marker-start:none"
         transform="matrix(0.4,0,0,0.4,4,0)" />
    </marker>
  </defs>
  <sodipodi:namedview
     id="base"
     pagecolor="#ffffff"
     bordercolor="#666666"
     borderopacity="1.0"
     inkscape:pageopacity="0.0"
     inkscape:pageshadow="2"
     inkscape:zoom="8.4384381"
     inkscape:cx="8.1491705"
     inkscape:cy="32.034173"
     inkscape:current-layer="layer1"
     showgrid="true"
     inkscape:document-units="px"
     inkscape:grid-bbox="true"
     inkscape:snap-global="false"
     inkscape:window-width="885"
     inkscape:window-height="760"
     inkscape:window-x="175"
     inkscape:window-y="175"
     inkscape:window-maximized="0">
    <inkscape:grid
       type="xygrid"
       id="grid10774" />
  </sodipodi:namedview>
  <metadata
     id="metadata10771">
    <rdf:RDF>
      <cc:Work
         rdf:about="">
        <dc:format>image/svg+xml</dc:format>
        <dc:type
           rdf:resource="http://purl.org/dc/dcmitype/StillImage" />
        <dc:title />
      </cc:Work>
    </rdf:RDF>
  </metadata>
  <g
     id="layer1"
     inkscape:label="Layer 1"
     inkscape:groupmode="layer">
    <path
       style="fill:none;stroke:#000000;stroke-width:1px;stroke-linecap:butt;stroke-linejoin:miter;stroke-opacity:1"
       d="m 5,51.982071 15,0 0,-40 -15,0 0,40"
       id="path10776"
       inkscape:connector-curvature="0" />
    <path
       style="fill:none;stroke:#000000;stroke-width:1px;stroke-linecap:butt;stroke-linejoin:miter;stroke-opacity:1"
       d="m 4.9407023,51.938431 0,-15 50.0992167,0 0,15 z"
       id="path10778"
       inkscape:connector-curvature="0" />
    <path
       style="fill:none;stroke:#000000;stroke-width:0.5;stroke-linecap:butt;stroke-linejoin:miter;stroke-miterlimit:4;stroke-opacity:1;stroke-dasharray:0.99999998, 0.49999999;stroke-dashoffset:0;marker-start:url(#Arrow1Mstart)"
       d="m 12.373699,45.628062 c 0,0 7.880025,18.783508 7.750139,14.686462 -0.129882,-4.097047 0.552556,-7.852452 2.760629,-3.960258 2.20807,3.892194 2.754408,5.260852 2.754408,5.260852"
       id="path4353-5"
       inkscape:connector-curvature="0"
       sodipodi:nodetypes="cssc" />
    <path
       style="fill:none;stroke:#c86400;stroke-width:1px;stroke-linecap:butt;stroke-linejoin:miter;stroke-opacity:1"
       d="m 19.985963,51.942565 0,-15.099217"
       id="path15130"
       inkscape:connector-curvature="0" />
    <path
       style="fill:none;stroke:#c86400;stroke-width:1px;stroke-linecap:butt;stroke-linejoin:miter;stroke-opacity:1"
       d="m 19.848163,36.95773 -15.099217,0"
       id="path15130-9"
       inkscape:connector-curvature="0" />
    <path
       style="fill:none;stroke:#000000;stroke-width:0.5;stroke-linecap:butt;stroke-linejoin:miter;stroke-miterlimit:4;stroke-opacity:1;stroke-dasharray:1, 0.5;stroke-dashoffset:0;marker-start:url(#Arrow1Mstart)"
       d="m 20.789974,38.753653 c 0,0 9.602969,-7.249903 6.064036,-7.120017 -3.538935,0.129882 -4.272922,0.105885 -0.910935,-2.102188 3.361987,-2.208069 5.410131,-3.623773 5.410131,-3.623773"
       id="path4353-5-3-1"
       inkscape:connector-curvature="0"
       sodipodi:nodetypes="cssc" />
    <text
       xml:space="preserve"
       style="font-size:6px;font-style:normal;font-variant:normal;font-weight:normal;font-stretch:normal;text-align:start;line-height:125%;letter-spacing:0px;word-spacing:0px;writing-mode:lr-tb;text-anchor:start;fill:#000000;fill-opacity:1;stroke:none;font-family:Arial;-inkscape-font-specification:Arial"
       x="32.719116"
       y="24.722248"
       id="text15742"
       sodipodi:linespacing="125%"><tspan
         sodipodi:role="line"
         id="tspan15744"
         x="32.719116"
         y="24.722248">o<tspan
   style="font-size:65.00091553%;baseline-shift:sub"
   id="tspan4049">1,2</tspan></tspan></text>
    <path
       sodipodi:type="arc"
       style="fill:#de8787;stroke:#27ff00;stroke-width:1;stroke-linecap:butt;stroke-linejoin:miter;stroke-miterlimit:4;stroke-opacity:1;stroke-dasharray:none;stroke-dashoffset:0"
       id="path16973-2"
       sodipodi:cx="32.5"
       sodipodi:cy="35.5"
       sodipodi:rx="0.5"
       sodipodi:ry="0.5"
       d="m 33,35.5 a 0.5,0.5 0 1 1 -1,0 0.5,0.5 0 1 1 1,0 z"
       transform="matrix(1,0,0,-1,-20.265794,80.008506)" />
    <text
       xml:space="preserve"
       style="font-size:6px;font-style:normal;font-variant:normal;font-weight:normal;font-stretch:normal;text-align:start;line-height:125%;letter-spacing:0px;word-spacing:0px;writing-mode:lr-tb;text-anchor:start;fill:#000000;fill-opacity:1;stroke:none;font-family:Arial;-inkscape-font-specification:Arial"
       x="28.13859"
       y="62.621593"
       id="text4041"
       sodipodi:linespacing="125%"><tspan
         sodipodi:role="line"
         id="tspan4043"
         x="28.13859"
         y="62.621593">centroid</tspan></text>
    <text
       xml:space="preserve"
       style="font-size:6px;font-style:normal;font-variant:normal;font-weight:normal;font-stretch:normal;text-align:start;line-height:125%;letter-spacing:0px;word-spacing:0px;writing-mode:lr-tb;text-anchor:start;fill:#000000;fill-opacity:1;stroke:none;font-family:Arial;-inkscape-font-specification:Arial"
       x="22.373514"
       y="18.327293"
       id="text4045"
       sodipodi:linespacing="125%"><tspan
         sodipodi:role="line"
         id="tspan4047"
         x="22.373514"
         y="18.327293">iCell(n<tspan
   style="font-size:65.00091553%;baseline-shift:sub"
   id="tspan4067">2</tspan>)</tspan></text>
    <text
       xml:space="preserve"
       style="font-size:6px;font-style:normal;font-variant:normal;font-weight:normal;font-stretch:normal;text-align:start;line-height:125%;letter-spacing:0px;word-spacing:0px;writing-mode:lr-tb;text-anchor:start;fill:#000000;fill-opacity:1;stroke:none;font-family:Arial;-inkscape-font-specification:Arial"
       x="27.869762"
       y="6.719739"
       id="text4051"
       sodipodi:linespacing="125%"><tspan
         sodipodi:role="line"
         id="tspan4053"
         x="27.869762"
         y="6.719739">sCell(n<tspan
   style="font-size:65.00091553%;baseline-shift:sub"
   id="tspan4069">1</tspan>)</tspan></text>
    <text
       xml:space="preserve"
       style="font-size:6px;font-style:normal;font-variant:normal;font-weight:normal;font-stretch:normal;text-align:start;line-height:125%;letter-spacing:0px;word-spacing:0px;writing-mode:lr-tb;text-anchor:start;fill:#000000;fill-opacity:1;stroke:none;font-family:Arial;-inkscape-font-specification:Arial"
       x="6.3074932"
       y="19.215166"
       id="text4057"
       sodipodi:linespacing="125%"><tspan
         sodipodi:role="line"
         id="tspan4059"
         x="6.3074932"
         y="19.215166">n<tspan
   style="font-size:65.00091553%;baseline-shift:sub"
   id="tspan4061">3</tspan></tspan></text>
    <text
       xml:space="preserve"
       style="font-size:6px;font-style:normal;font-variant:normal;font-weight:normal;font-stretch:normal;text-align:start;line-height:125%;letter-spacing:0px;word-spacing:0px;writing-mode:lr-tb;text-anchor:start;fill:#000000;fill-opacity:1;stroke:none;font-family:Arial;-inkscape-font-specification:Arial"
       x="6.9550624"
       y="26.962198"
       id="text4063"
       sodipodi:linespacing="125%"><tspan
         sodipodi:role="line"
         id="tspan4065"
         x="6.9550624"
         y="26.962198" /></text>
    <path
       style="fill:none;stroke:#000000;stroke-width:0.5;stroke-linecap:butt;stroke-linejoin:miter;stroke-miterlimit:4;stroke-opacity:1;stroke-dasharray:0.99999998, 0.49999999;stroke-dashoffset:0;marker-start:url(#Arrow1Mstart)"
       d="m 17.376107,15.071735 c 8.583833,-14.93676387 1.455935,6.225031 9.68728,-6.8830069"
       id="path4353-5-9"
       inkscape:connector-curvature="0"
       sodipodi:nodetypes="cc" />
    <path
       style="fill:none;stroke:#0000ff;stroke-width:1px;stroke-linecap:butt;stroke-linejoin:miter;stroke-opacity:1"
       d="m 20.282977,44.508506 35.000001,0"
       id="path16968"
       inkscape:connector-curvature="0" />
    <path
       style="fill:none;stroke:#000000;stroke-width:0.5;stroke-linecap:butt;stroke-linejoin:miter;stroke-miterlimit:4;stroke-opacity:1;stroke-dasharray:1.00000001, 0.50000001;stroke-dashoffset:0;marker-start:url(#Arrow1Mstart)"
       d="m 15.425857,38.875469 c 0,0 11.477364,-11.750494 8.544196,-11.615342 -2.93317,0.135146 -4.899096,0.315902 -2.112585,-1.981678 2.78651,-2.297575 5.521383,-4.784298 5.521383,-4.784298"
       id="path4353-5-3-8"
       inkscape:connector-curvature="0"
       sodipodi:nodetypes="cssc" />
    <text
       xml:space="preserve"
       style="font-size:6px;font-style:normal;font-variant:normal;font-weight:normal;font-stretch:normal;text-align:start;line-height:125%;letter-spacing:0px;word-spacing:0px;writing-mode:lr-tb;text-anchor:start;fill:#000000;fill-opacity:1;stroke:none;font-family:Arial;-inkscape-font-specification:Arial"
       x="38.555611"
       y="32.375778"
       id="text15742-5"
       sodipodi:linespacing="125%"><tspan
         sodipodi:role="line"
         id="tspan15744-5"
         x="38.555611"
         y="32.375778">m<tspan
   style="font-size:65.00091553%;baseline-shift:super"
   id="tspan4149">1</tspan></tspan></text>
    <path
       style="fill:none;stroke:#000000;stroke-width:0.5;stroke-linecap:butt;stroke-linejoin:miter;stroke-miterlimit:4;stroke-opacity:1;stroke-dasharray:1, 0.5;stroke-dashoffset:0;marker-start:url(#Arrow1Mstart)"
       d="m 49.0397,43.730432 c 0,0 5.580764,-5.992964 2.041831,-5.863078 -3.538935,0.129882 -4.189126,-2.491789 -0.827139,-4.699861 3.361987,-2.208069 5.41013,-3.372385 5.41013,-3.372385"
       id="path4353-5-3-1-4-1"
       inkscape:connector-curvature="0"
       sodipodi:nodetypes="cssc" />
    <text
       xml:space="preserve"
       style="font-size:6px;font-style:normal;font-variant:normal;font-weight:normal;font-stretch:normal;text-align:start;line-height:125%;letter-spacing:0px;word-spacing:0px;writing-mode:lr-tb;text-anchor:start;fill:#000000;fill-opacity:1;stroke:none;font-family:Arial;-inkscape-font-specification:Arial"
       x="55.453712"
       y="29.048466"
       id="text15742-5-5"
       sodipodi:linespacing="125%"><tspan
         sodipodi:role="line"
         id="tspan15744-5-2"
         x="55.453712"
         y="29.048466">m<tspan
   style="font-size:65.00091553%;baseline-shift:super"
   id="tspan4184">2</tspan></tspan></text>
    <path
       style="fill:none;stroke:#c80000;stroke-width:1;stroke-linecap:butt;stroke-linejoin:miter;stroke-miterlimit:4;stroke-opacity:1;stroke-dasharray:1, 1;stroke-dashoffset:0"
       d="m 13.204026,44.508506 7.110321,0"
       id="path17061"
       inkscape:connector-curvature="0" />
    <path
       sodipodi:type="arc"
       style="fill:none;stroke:#ff00ff;stroke-width:1;stroke-linecap:butt;stroke-linejoin:miter;stroke-miterlimit:4;stroke-opacity:1;stroke-dasharray:none;stroke-dashoffset:0"
       id="path16973"
       sodipodi:cx="32.5"
       sodipodi:cy="35.5"
       sodipodi:rx="0.5"
       sodipodi:ry="0.5"
       d="m 33,35.5 a 0.5,0.5 0 1 1 -1,0 0.5,0.5 0 1 1 1,0 z"
       transform="matrix(1,0,0,-1,-12.369416,80.008506)" />
    <path
       style="fill:none;stroke:#000000;stroke-width:0.5;stroke-linecap:butt;stroke-linejoin:miter;stroke-miterlimit:4;stroke-opacity:1;stroke-dasharray:1, 0.5;stroke-dashoffset:0;marker-start:url(#Arrow1Mstart)"
       d="m 21.359237,44.145221 c 0,0 11.949255,-5.741576 8.410322,-5.61169 -3.538935,0.129882 -2.513207,-2.407993 0.84878,-4.616066 3.361987,-2.208069 7.253641,-3.623773 7.253641,-3.623773"
       id="path4353-5-3-1-4"
       inkscape:connector-curvature="0"
       sodipodi:nodetypes="cssc" />
    <path
       style="fill:none;stroke:#c80000;stroke-width:1;stroke-linecap:butt;stroke-linejoin:miter;stroke-miterlimit:4;stroke-opacity:1;stroke-dasharray:1, 1;stroke-dashoffset:0"
       d="m 12.561566,44.209608 0,-7.110321"
       id="path17061-1"
       inkscape:connector-curvature="0" />
    <path
       sodipodi:type="arc"
       style="fill:none;stroke:#ff00ff;stroke-width:1;stroke-linecap:butt;stroke-linejoin:miter;stroke-miterlimit:4;stroke-opacity:1;stroke-dasharray:none;stroke-dashoffset:0"
       id="path16973-7"
       sodipodi:cx="32.5"
       sodipodi:cy="35.5"
       sodipodi:rx="0.5"
       sodipodi:ry="0.5"
       d="m 33,35.5 a 0.5,0.5 0 1 1 -1,0 0.5,0.5 0 1 1 1,0 z"
       transform="matrix(1,0,0,-1,-20.175444,72.362276)" />
    <path
       style="fill:none;stroke:#0000ff;stroke-width:0.85058069px;stroke-linecap:butt;stroke-linejoin:miter;stroke-opacity:1"
       d="m 12.443061,36.843236 0,-25.322064"
       id="path16968-4"
       inkscape:connector-curvature="0" />
    <path
       style="opacity:0.2;fill:#0000ff;fill-opacity:1;stroke:#ff0000;stroke-width:0.11631253000000000;stroke-linecap:round;stroke-linejoin:round;stroke-miterlimit:4;stroke-opacity:1;stroke-dasharray:none;stroke-dashoffset:0"
       d="m 5.542053,44.491842 0,-6.932563 2.9668029,0 c 2.5314801,0 3.0096621,0.02808 3.2588971,0.191387 0.160651,0.105264 0.292094,0.265246 0.292094,0.355517 0,0.115519 0.157937,0.164128 0.533274,0.164128 0.513523,0 0.533274,-0.01317 0.533274,-0.355516 l 0,-0.355516 1.314311,0 1.314311,0 -0.544635,1.007296 c -0.299549,0.554012 -0.497468,1.007295 -0.439818,1.007295 0.05765,0 0.89783,-0.45306 1.867068,-1.006801 1.449418,-0.828075 1.851657,-1.006889 2.265898,-1.007295 l 0.503648,-4.95e-4 0,3.062932 c 0,2.613738 -0.02879,3.120636 -0.196286,3.456398 -0.172007,0.344796 -0.175889,0.438664 -0.03139,0.758865 0.124104,0.274999 0.173601,1.135008 0.200066,3.476165 l 0.03516,3.110765 -2.073452,0 c -1.919525,0 -2.082444,-0.0168 -2.194576,-0.226321 -0.137494,-0.25691 -0.598247,-0.208862 -0.598247,0.06239 0,0.136703 -0.748099,0.163936 -4.503203,0.163936 l -4.503203,0 0,-6.932562 z m 9.12409,6.22197 c 0.21057,-0.112694 0.211564,-0.139597 0.02183,-0.591322 -0.191872,-0.456827 -0.399079,-0.570718 -0.695481,-0.382267 -0.105539,0.0671 -0.08456,0.216267 0.08309,0.590712 0.243772,0.544483 0.264042,0.557625 0.590561,0.382877 z M 14.14478,49.245889 c 0.07384,-0.192438 -0.248469,-1.021129 -0.397162,-1.021129 -0.05605,0 -0.188141,0.06666 -0.293544,0.148132 -0.174129,0.134595 -0.175041,0.18874 -0.01,0.592526 0.186822,0.457004 0.573538,0.611801 0.700681,0.280471 l 10e-7,0 z m -0.798912,-1.248754 c 0.188397,-0.100827 0.377628,-0.07592 0.856135,0.112691 0.337855,0.13317 0.635013,0.221395 0.660352,0.196056 0.02534,-0.02534 -0.434877,-0.647194 -1.022703,-1.381899 -0.587825,-0.734706 -1.068773,-1.36499 -1.068773,-1.400632 0,-0.03564 0.08826,-0.162326 0.196125,-0.28152 0.138593,-0.153144 0.364549,-0.216715 0.770285,-0.216715 l 0.574159,0 0,-0.533274 0,-0.533274 -0.592526,0 -0.592527,0 0,-0.414769 c 0,-0.412574 -0.0028,-0.414769 -0.533274,-0.414769 -0.383869,0 -0.533274,0.04756 -0.533274,0.169772 0,0.09337 -0.09962,0.201391 -0.221382,0.240037 -0.647874,0.205627 -0.852675,1.15147 -0.362338,1.673409 0.148235,0.157789 0.340214,0.286889 0.426619,0.286889 0.0864,0 0.156572,0.04 0.155925,0.08888 -0.0034,0.25408 0.383238,3.432845 0.435979,3.584787 0.03886,0.111945 0.163085,-0.04883 0.335533,-0.434237 0.150607,-0.336597 0.382666,-0.670241 0.515685,-0.741431 z m 2.861666,-3.505293 0,-0.533274 -0.533274,0 -0.533274,0 0,0.533274 0,0.533274 0.533274,0 0.533274,0 0,-0.533274 z m 2.014591,0 0,-0.533274 -0.533274,0 -0.533274,0 0,0.533274 0,0.533274 0.533274,0 0.533274,0 0,-0.533274 z m -5.09573,-2.784876 0,-0.592527 -0.533274,0 -0.533274,0 0,0.592527 0,0.592527 0.533274,0 0.533274,0 0,-0.592527 z m 0,-2.014591 0,-0.592526 -0.533274,0 -0.533274,0 0,0.592526 0,0.592527 0.533274,0 0.533274,0 0,-0.592527 z"
       id="path3096"
       inkscape:connector-curvature="0" />
  </g>
</svg>
