<?xml version="1.0" encoding="UTF-8" standalone="no"?>
<!-- Created with Inkscape (http://www.inkscape.org/) -->

<svg
   xmlns:dc="http://purl.org/dc/elements/1.1/"
   xmlns:cc="http://creativecommons.org/ns#"
   xmlns:rdf="http://www.w3.org/1999/02/22-rdf-syntax-ns#"
   xmlns:svg="http://www.w3.org/2000/svg"
   xmlns="http://www.w3.org/2000/svg"
   xmlns:sodipodi="http://sodipodi.sourceforge.net/DTD/sodipodi-0.dtd"
   xmlns:inkscape="http://www.inkscape.org/namespaces/inkscape"
   width="744.09448819"
   height="1052.3622047"
   id="svg3189"
   version="1.1"
   inkscape:version="0.48.2 r9819"
   sodipodi:docname="Midsurface.svg"
   inkscape:export-filename="C:\Users\kulkary\Documents\Yogesh\Google Drive\PhD\MyPapers\IJPD\images\Midsurface.png"
   inkscape:export-xdpi="600"
   inkscape:export-ydpi="600">
  <defs
     id="defs3191" />
  <sodipodi:namedview
     id="base"
     pagecolor="#ffffff"
     bordercolor="#666666"
     borderopacity="1.0"
     inkscape:pageopacity="0.0"
     inkscape:pageshadow="2"
     inkscape:zoom="3.959798"
     inkscape:cx="505.86894"
     inkscape:cy="688.96493"
     inkscape:document-units="px"
     inkscape:current-layer="layer1"
     showgrid="false"
     inkscape:window-width="1920"
     inkscape:window-height="1028"
     inkscape:window-x="-8"
     inkscape:window-y="-8"
     inkscape:window-maximized="1" />
  <metadata
     id="metadata3194">
    <rdf:RDF>
      <cc:Work
         rdf:about="">
        <dc:format>image/svg+xml</dc:format>
        <dc:type
           rdf:resource="http://purl.org/dc/dcmitype/StillImage" />
        <dc:title></dc:title>
      </cc:Work>
    </rdf:RDF>
  </metadata>
  <g
     inkscape:label="Layer 1"
     inkscape:groupmode="layer"
     id="layer1">
    <g
       transform="matrix(3.9132308,0,0,2.9865052,-311.85192,49.441773)"
       id="140ccb1f-198e-4fdc-b76c-218223dbc420"
       style="fill:#000000;fill-opacity:0;stroke:#000000;stroke-width:0.34999999;stroke-linecap:round;stroke-linejoin:round;stroke-opacity:1">
      <line
         x1="136.69009"
         y1="132.43201"
         x2="109.8947"
         y2="116.9616"
         id="line5" />
      <line
         x1="166.4632"
         y1="137.37399"
         x2="166.4632"
         y2="133.2916"
         id="line7" />
      <line
         x1="109.8947"
         y1="116.9616"
         x2="109.8947"
         y2="84.408157"
         id="line9" />
      <line
         x1="124.0368"
         y1="101.3765"
         x2="124.0368"
         y2="59.80687"
         id="line11" />
      <line
         x1="124.0368"
         y1="59.80687"
         x2="95.752518"
         y2="76.136803"
         id="line13" />
      <line
         x1="113.4302"
         y1="114.9204"
         x2="140.22569"
         y2="130.39079"
         id="line15" />
      <line
         x1="113.4302"
         y1="82.366913"
         x2="113.4302"
         y2="114.9204"
         id="line17" />
      <line
         x1="124.0368"
         y1="108.7967"
         x2="124.0368"
         y2="101.3765"
         id="line19" />
      <line
         x1="120.5013"
         y1="110.8379"
         x2="120.5013"
         y2="57.765629"
         id="line21" />
      <line
         x1="95.752518"
         y1="125.1266"
         x2="95.752518"
         y2="76.136803"
         id="line23" />
      <line
         x1="138.17889"
         y1="153.70399"
         x2="138.17889"
         y2="149.62151"
         id="line25" />
      <line
         x1="113.4302"
         y1="114.9204"
         x2="109.8947"
         y2="116.9616"
         id="line27" />
      <line
         x1="120.5013"
         y1="57.765629"
         x2="124.0368"
         y2="59.80687"
         id="line29" />
      <line
         x1="109.8947"
         y1="84.408157"
         x2="136.69009"
         y2="132.43201"
         id="line31" />
      <line
         x1="130.1445"
         y1="112.323"
         x2="166.4632"
         y2="133.2916"
         id="line33" />
      <line
         x1="124.0368"
         y1="108.7967"
         x2="113.4302"
         y2="114.9204"
         id="line35" />
      <line
         x1="109.8947"
         y1="84.408157"
         x2="113.4302"
         y2="82.366913"
         id="line37" />
      <line
         x1="138.17889"
         y1="149.62151"
         x2="95.752518"
         y2="125.1266"
         id="line39" />
      <line
         x1="140.22569"
         y1="130.39079"
         x2="113.4302"
         y2="82.366913"
         id="line41" />
      <line
         x1="140.22569"
         y1="130.39079"
         x2="136.69009"
         y2="132.43201"
         id="line43" />
      <line
         x1="92.216988"
         y1="74.095551"
         x2="120.5013"
         y2="57.765629"
         id="line45" />
      <line
         x1="95.752518"
         y1="125.1266"
         x2="92.216988"
         y2="127.1678"
         id="line47" />
      <line
         x1="95.752518"
         y1="76.136803"
         x2="92.216988"
         y2="74.095551"
         id="line49" />
      <line
         x1="92.216988"
         y1="127.1678"
         x2="92.216988"
         y2="74.095551"
         id="line51" />
      <line
         x1="124.0368"
         y1="108.7967"
         x2="130.1445"
         y2="112.323"
         id="line53" />
      <line
         x1="92.216988"
         y1="127.1678"
         x2="138.17889"
         y2="153.70399"
         id="line55" />
      <line
         x1="166.4632"
         y1="133.2916"
         x2="138.17889"
         y2="149.62151"
         id="line57" />
      <line
         x1="109.8947"
         y1="116.9616"
         x2="95.752518"
         y2="125.1266"
         id="line59" />
      <line
         x1="138.17889"
         y1="153.70399"
         x2="166.4632"
         y2="137.37399"
         id="line61" />
      <line
         x1="166.4632"
         y1="137.37399"
         x2="120.5013"
         y2="110.8379"
         id="line63" />
    </g>
    <line
       style="fill:#000000;fill-opacity:0;stroke:#000000;stroke-width:1.19651294;stroke-linecap:round;stroke-linejoin:round;stroke-opacity:1"
       id="line5-7"
       y2="403.03391"
       x2="449.61996"
       y1="449.23636"
       x1="554.47656" />
    <line
       style="fill:#000000;fill-opacity:0;stroke:#000000;stroke-width:1.19651294;stroke-linecap:round;stroke-linejoin:round;stroke-opacity:1"
       id="line7-4"
       y2="451.80353"
       x2="670.98553"
       y1="463.99564"
       x1="670.98553" />
    <line
       style="fill:#000000;fill-opacity:0;stroke:#000000;stroke-width:1.19651294;stroke-linecap:round;stroke-linejoin:round;stroke-opacity:1"
       id="line9-0"
       y2="305.81287"
       x2="449.61996"
       y1="403.03391"
       x1="449.61996" />
    <line
       style="fill:#000000;fill-opacity:0;stroke:#000000;stroke-width:1.19651294;stroke-linecap:round;stroke-linejoin:round;stroke-opacity:1"
       id="line11-9"
       y2="232.341"
       x2="504.96127"
       y1="356.48892"
       x1="504.96127" />
    <line
       style="fill:#000000;fill-opacity:0;stroke:#000000;stroke-width:1.19651294;stroke-linecap:round;stroke-linejoin:round;stroke-opacity:1"
       id="line13-4"
       y2="281.11044"
       x2="394.27835"
       y1="232.341"
       x1="504.96127" />
    <line
       style="fill:#000000;fill-opacity:0;stroke:#000000;stroke-width:1.19651294;stroke-linecap:round;stroke-linejoin:round;stroke-opacity:1"
       id="line15-8"
       y2="443.14026"
       x2="568.31213"
       y1="396.93787"
       x1="463.4552" />
    <line
       style="fill:#000000;fill-opacity:0;stroke:#000000;stroke-width:1.19651294;stroke-linecap:round;stroke-linejoin:round;stroke-opacity:1"
       id="line17-8"
       y2="396.93787"
       x2="463.4552"
       y1="299.71671"
       x1="463.4552" />
    <line
       style="fill:#000000;fill-opacity:0;stroke:#000000;stroke-width:1.19651294;stroke-linecap:round;stroke-linejoin:round;stroke-opacity:1"
       id="line19-2"
       y2="356.48892"
       x2="504.96127"
       y1="378.64938"
       x1="504.96127" />
    <line
       style="fill:#000000;fill-opacity:0;stroke:#000000;stroke-width:1.19651294;stroke-linecap:round;stroke-linejoin:round;stroke-opacity:1"
       id="line21-4"
       y2="226.24483"
       x2="491.12604"
       y1="384.74542"
       x1="491.12604" />
    <line
       style="fill:#000000;fill-opacity:0;stroke:#000000;stroke-width:1.19651294;stroke-linecap:round;stroke-linejoin:round;stroke-opacity:1"
       id="line23-5"
       y2="281.11044"
       x2="394.27835"
       y1="427.41873"
       x1="394.27835" />
    <line
       style="fill:#000000;fill-opacity:0;stroke:#000000;stroke-width:1.19651294;stroke-linecap:round;stroke-linejoin:round;stroke-opacity:1"
       id="line25-5"
       y2="500.57288"
       x2="560.30255"
       y1="512.76526"
       x1="560.30255" />
    <line
       style="fill:#000000;fill-opacity:0;stroke:#000000;stroke-width:1.19651294;stroke-linecap:round;stroke-linejoin:round;stroke-opacity:1"
       id="line27-1"
       y2="403.03391"
       x2="449.61996"
       y1="396.93787"
       x1="463.4552" />
    <line
       style="fill:#000000;fill-opacity:0;stroke:#000000;stroke-width:1.19651294;stroke-linecap:round;stroke-linejoin:round;stroke-opacity:1"
       id="line29-7"
       y2="232.341"
       x2="504.96127"
       y1="226.24483"
       x1="491.12604" />
    <line
       style="fill:#000000;fill-opacity:0;stroke:#000000;stroke-width:1.19651294;stroke-linecap:round;stroke-linejoin:round;stroke-opacity:1"
       id="line31-1"
       y2="449.23636"
       x2="554.47656"
       y1="305.81287"
       x1="449.61996" />
    <line
       style="fill:#000000;fill-opacity:0;stroke:#000000;stroke-width:1.19651294;stroke-linecap:round;stroke-linejoin:round;stroke-opacity:1"
       id="line33-1"
       y2="451.80353"
       x2="670.98553"
       y1="389.18069"
       x1="528.86212" />
    <line
       style="fill:#000000;fill-opacity:0;stroke:#000000;stroke-width:1.19651294;stroke-linecap:round;stroke-linejoin:round;stroke-opacity:1"
       id="line35-5"
       y2="396.93787"
       x2="463.4552"
       y1="378.64938"
       x1="504.96127" />
    <line
       style="fill:#000000;fill-opacity:0;stroke:#000000;stroke-width:1.19651294;stroke-linecap:round;stroke-linejoin:round;stroke-opacity:1"
       id="line37-2"
       y2="299.71671"
       x2="463.4552"
       y1="305.81287"
       x1="449.61996" />
    <line
       style="fill:#000000;fill-opacity:0;stroke:#000000;stroke-width:1.19651294;stroke-linecap:round;stroke-linejoin:round;stroke-opacity:1"
       id="line39-7"
       y2="427.41873"
       x2="394.27835"
       y1="500.57288"
       x1="560.30255" />
    <line
       style="fill:#000000;fill-opacity:0;stroke:#000000;stroke-width:1.19651294;stroke-linecap:round;stroke-linejoin:round;stroke-opacity:1"
       id="line41-6"
       y2="299.71671"
       x2="463.4552"
       y1="443.14026"
       x1="568.31213" />
    <line
       style="fill:#000000;fill-opacity:0;stroke:#000000;stroke-width:1.19651294;stroke-linecap:round;stroke-linejoin:round;stroke-opacity:1"
       id="line43-1"
       y2="449.23636"
       x2="554.47656"
       y1="443.14026"
       x1="568.31213" />
    <line
       style="fill:#000000;fill-opacity:0;stroke:#000000;stroke-width:1.19651294;stroke-linecap:round;stroke-linejoin:round;stroke-opacity:1"
       id="line45-4"
       y2="226.24483"
       x2="491.12604"
       y1="275.01422"
       x1="380.44299" />
    <line
       style="fill:#000000;fill-opacity:0;stroke:#000000;stroke-width:1.19651294;stroke-linecap:round;stroke-linejoin:round;stroke-opacity:1"
       id="line47-2"
       y2="433.51477"
       x2="380.44299"
       y1="427.41873"
       x1="394.27835" />
    <line
       style="fill:#000000;fill-opacity:0;stroke:#000000;stroke-width:1.19651294;stroke-linecap:round;stroke-linejoin:round;stroke-opacity:1"
       id="line49-3"
       y2="275.01422"
       x2="380.44299"
       y1="281.11044"
       x1="394.27835" />
    <line
       style="fill:#000000;fill-opacity:0;stroke:#000000;stroke-width:1.19651294;stroke-linecap:round;stroke-linejoin:round;stroke-opacity:1"
       id="line51-2"
       y2="275.01422"
       x2="380.44299"
       y1="433.51477"
       x1="380.44299" />
    <line
       style="fill:#000000;fill-opacity:0;stroke:#000000;stroke-width:1.19651294;stroke-linecap:round;stroke-linejoin:round;stroke-opacity:1"
       id="line53-2"
       y2="389.18069"
       x2="528.86212"
       y1="378.64938"
       x1="504.96127" />
    <line
       style="fill:#000000;fill-opacity:0;stroke:#000000;stroke-width:1.19651294;stroke-linecap:round;stroke-linejoin:round;stroke-opacity:1"
       id="line55-1"
       y2="512.76526"
       x2="560.30255"
       y1="433.51477"
       x1="380.44299" />
    <line
       style="fill:#000000;fill-opacity:0;stroke:#000000;stroke-width:1.19651294;stroke-linecap:round;stroke-linejoin:round;stroke-opacity:1"
       id="line57-6"
       y2="500.57288"
       x2="560.30255"
       y1="451.80353"
       x1="670.98553" />
    <line
       style="fill:#000000;fill-opacity:0;stroke:#000000;stroke-width:1.19651294;stroke-linecap:round;stroke-linejoin:round;stroke-opacity:1"
       id="line59-8"
       y2="427.41873"
       x2="394.27835"
       y1="403.03391"
       x1="449.61996" />
    <line
       style="fill:#000000;fill-opacity:0;stroke:#000000;stroke-width:1.19651294;stroke-linecap:round;stroke-linejoin:round;stroke-opacity:1"
       id="line61-5"
       y2="463.99564"
       x2="670.98553"
       y1="512.76526"
       x1="560.30255" />
    <line
       style="fill:#000000;fill-opacity:0;stroke:#000000;stroke-width:1.19651294;stroke-linecap:round;stroke-linejoin:round;stroke-opacity:1"
       id="line63-7"
       y2="384.74542"
       x2="491.12604"
       y1="463.99564"
       x1="670.98553" />
    <line
       style="fill:#000000;fill-opacity:0;stroke:#000000;stroke-width:1.19651294;stroke-linecap:round;stroke-linejoin:round;stroke-opacity:1"
       id="line13-4-6"
       y2="277.85385"
       x2="387.14597"
       y1="229.08441"
       x1="497.82889" />
    <line
       style="fill:#000000;fill-opacity:0;stroke:#000000;stroke-width:1.16865766;stroke-linecap:round;stroke-linejoin:round;stroke-opacity:1"
       id="line51-2-1"
       y2="278.3262"
       x2="387.25"
       y1="429.53271"
       x1="387.25" />
    <line
       style="fill:#000000;fill-opacity:0;stroke:#000000;stroke-width:1.14565659;stroke-linecap:round;stroke-linejoin:round;stroke-opacity:1"
       id="line55-1-8"
       y2="506.57599"
       x2="559.66376"
       y1="430.60437"
       x1="387.65195" />
    <line
       style="fill:#000000;fill-opacity:0;stroke:#000000;stroke-width:1.19651294;stroke-linecap:round;stroke-linejoin:round;stroke-opacity:1"
       id="line61-5-9"
       y2="457.78793"
       x2="671.1604"
       y1="506.55759"
       x1="560.47742" />
    <line
       style="fill:#000000;fill-opacity:0;stroke:#000000;stroke-width:1.14014471;stroke-linecap:round;stroke-linejoin:round;stroke-opacity:1"
       id="line63-7-2"
       y2="382.20383"
       x2="498.67474"
       y1="457.58185"
       x1="670.37634" />
    <line
       style="fill:#000000;fill-opacity:0;stroke:#000000;stroke-width:1.1686579;stroke-linecap:round;stroke-linejoin:round;stroke-opacity:1"
       id="line21-4-7"
       y2="229.60999"
       x2="498.51028"
       y1="380.81662"
       x1="498.51028" />
    <line
       style="fill:#000000;fill-opacity:0;stroke:#000000;stroke-width:1.19651294;stroke-linecap:round;stroke-linejoin:round;stroke-opacity:1"
       id="line31-1-9"
       y2="446.2168"
       x2="560.64258"
       y1="302.7933"
       x1="455.78595" />
    <line
       style="fill:#000000;fill-opacity:0;stroke:#000000;stroke-width:1.26861632;stroke-linecap:round;stroke-linejoin:round;stroke-opacity:1"
       id="line9-0-5"
       y2="297.36301"
       x2="441.07144"
       y1="406.65445"
       x1="441.07144" />
    <line
       style="fill:#000000;fill-opacity:0;stroke:#000000;stroke-width:1.34714794;stroke-linecap:round;stroke-linejoin:round;stroke-opacity:1"
       id="line5-7-4"
       y2="406.83627"
       x2="441.21844"
       y1="458.60239"
       x1="559.85303" />
    <line
       style="fill:#000000;fill-opacity:0;stroke:#000000;stroke-width:1.19651294;stroke-linecap:round;stroke-linejoin:round;stroke-opacity:1"
       id="line49-3-3"
       y2="296.41364"
       x2="441.35788"
       y1="302.50986"
       x1="455.19324" />
    <line
       style="fill:#000000;fill-opacity:0;stroke:#000000;stroke-width:1.19651294;stroke-linecap:round;stroke-linejoin:round;stroke-opacity:1"
       id="line25-5-1"
       y2="446.36163"
       x2="560.63464"
       y1="458.55402"
       x1="560.63464" />
    <path
       style="fill:#008080;stroke-width:0.99921262;stroke-miterlimit:4;stroke-dasharray:none;stroke-dashoffset:0"
       d="m 501.4032,432.28499 c -32.10233,-14.00877 -58.36787,-25.50333 -58.36787,-25.54347 0,-0.16444 6.48544,-2.91879 6.74062,-2.86272 0.14702,0.0323 23.56395,10.33018 52.03763,22.88416 28.47367,12.55399 51.97625,22.9084 52.22795,23.0098 0.50433,0.20318 0.36034,0.25419 4.49843,-1.59375 l 1.42052,-0.63437 0,5.10767 c 0,2.80921 -0.0426,5.10665 -0.0947,5.10542 -0.0521,-0.001 -26.36024,-11.46397 -58.46258,-25.47274 l 0,0 z"
       id="path3600"
       inkscape:connector-curvature="0" />
    <path
       style="fill:#008080;stroke-width:0.99921262;stroke-miterlimit:4;stroke-dasharray:none;stroke-dashoffset:0"
       d="m 441.77356,351.46076 0,-54.03998 1.45209,0.64286 c 0.79865,0.35358 3.57835,1.57266 6.1771,2.70907 2.59875,1.13641 4.64431,2.14414 4.54568,2.2394 -0.0986,0.0953 -1.14527,0.59328 -2.32588,1.10671 -1.18062,0.51342 -2.28863,1.04716 -2.46225,1.18608 -0.25054,0.20046 -0.31666,10.26418 -0.32048,48.77211 l -0.005,48.51953 -3.34133,1.45594 c -1.83773,0.80076 -3.42656,1.45421 -3.53073,1.45209 -0.10417,-0.002 -0.1894,-24.32183 -0.1894,-54.04381 z"
       id="path4422"
       inkscape:connector-curvature="0" />
    <path
       style="fill:#008080;stroke-width:0.99921262;stroke-miterlimit:4;stroke-dasharray:none;stroke-dashoffset:0"
       d="m 456.79958,314.37127 c -3.19461,-4.37002 -5.84033,-8.02334 -5.87938,-8.11849 -0.0719,-0.17523 4.73243,-2.38223 4.85247,-2.22911 0.0358,0.0457 1.6194,2.21541 3.51912,4.82169 l 3.45406,4.73869 -0.069,4.36635 -0.0689,4.36635 -5.80838,-7.94548 z"
       id="path4424"
       inkscape:connector-curvature="0" />
    <path
       style="fill:#008080;stroke-width:0.99921262;stroke-miterlimit:4;stroke-dasharray:none;stroke-dashoffset:0"
       d="m 450.35986,354.95102 c 0,-25.71891 0.0579,-46.70369 0.12879,-46.63286 0.0708,0.0708 2.85546,3.86223 6.18805,8.42531 l 6.05925,8.2965 -0.064,35.72872 -0.064,35.7287 -5.9131,2.60764 c -3.2522,1.4342 -6.00803,2.60763 -6.12405,2.60763 -0.11603,0 -0.21095,-21.04274 -0.21095,-46.76164 z"
       id="path4426"
       inkscape:connector-curvature="0" />
    <path
       style="fill:#008080;stroke-width:0.99921262;stroke-miterlimit:4;stroke-dasharray:none;stroke-dashoffset:0"
       d="m 477.31782,342.42933 -13.0625,-17.86707 -0.003,-4.40679 c -0.002,-2.57243 0.0902,-4.30693 0.22086,-4.16688 0.12309,0.13195 6.03248,8.19179 13.13199,17.91076 l 12.90819,17.67085 0,4.3631 c 0,2.39971 -0.0299,4.36311 -0.0666,4.36311 -0.0366,0 -5.94468,-8.04019 -13.12905,-17.86708 z"
       id="path4428"
       inkscape:connector-curvature="0" />
    <path
       style="fill:#008080;stroke-width:0.99921262;stroke-miterlimit:4;stroke-dasharray:none;stroke-dashoffset:0"
       d="m 464.24945,361.42353 0,-34.28225 0.83606,1.1096 c 0.45984,0.61028 6.36923,8.68345 13.13199,17.94037 l 12.29592,16.83076 0,10.58999 0,10.59 -12.69004,5.58784 c -6.97952,3.07331 -12.88892,5.66166 -13.13199,5.75189 -0.41953,0.15574 -0.44194,-1.5743 -0.44194,-34.1182 z"
       id="path4430"
       inkscape:connector-curvature="0" />
    <path
       style="fill:#008080;stroke-width:0.99921262;stroke-miterlimit:4;stroke-dasharray:none;stroke-dashoffset:0"
       d="m 501.57114,425.12605 c -27.46162,-12.10965 -49.84913,-22.09107 -49.75001,-22.18094 0.0991,-0.0899 2.75525,-1.29636 5.9025,-2.68108 l 5.72228,-2.51767 38.57898,16.999 c 21.21843,9.34945 38.72136,17.14563 38.89539,17.32484 0.41962,0.43212 10.95991,14.84741 10.95991,14.98918 0,0.0606 -0.0852,0.10431 -0.18941,0.0972 -0.10417,-0.007 -22.65801,-9.92086 -50.11964,-22.03052 z"
       id="path4432"
       inkscape:connector-curvature="0" />
    <path
       style="fill:#008080;stroke-width:0.99921262;stroke-miterlimit:4;stroke-dasharray:none;stroke-dashoffset:0"
       d="m 501.95223,413.11664 c -20.02944,-8.84048 -36.33477,-16.15599 -36.23407,-16.2567 0.1007,-0.1007 5.85768,-2.68526 12.79328,-5.74347 l 12.61018,-5.56037 11.7274,5.16794 c 6.45007,2.84236 11.74895,5.19912 11.7753,5.23723 0.0263,0.0381 5.46499,7.48616 12.08589,16.55123 6.6209,9.06507 12.03799,16.53704 12.03799,16.60438 0,0.0673 -0.0852,0.1114 -0.1894,0.0979 -0.10417,-0.0135 -16.57713,-7.25766 -36.60657,-16.09814 l 0,0 z"
       id="path4434"
       inkscape:connector-curvature="0" />
    <path
       style="fill:#008080;stroke-width:0.99921262;stroke-miterlimit:4;stroke-dasharray:none;stroke-dashoffset:0"
       d="m 552.5736,445.34769 c -5.94075,-8.07929 -8.72474,-11.9493 -8.64989,-12.02415 0.0457,-0.0457 2.16718,0.84033 4.7143,1.96905 l 4.63114,2.05223 3.03045,4.17178 c 1.66676,2.29447 3.06859,4.27848 3.11519,4.40891 0.0781,0.21864 -4.01282,2.25417 -4.53036,2.25417 -0.12565,0 -1.16553,-1.27439 -2.31083,-2.83199 z"
       id="path4436"
       inkscape:connector-curvature="0" />
    <path
       style="fill:#008080;stroke-width:0.99921262;stroke-miterlimit:4;stroke-dasharray:none;stroke-dashoffset:0"
       d="m 546.39594,432.6901 -4.60037,-2.06182 -12.15141,-16.62535 c -6.68327,-9.14394 -12.11349,-16.65773 -12.06715,-16.69731 0.0463,-0.0396 2.16333,0.85059 4.70441,1.97814 l 4.62015,2.05009 8.85762,12.12183 c 4.87169,6.66701 10.37705,14.1958 12.23414,16.73066 1.85709,2.53485 3.29247,4.59909 3.18975,4.5872 -0.10273,-0.0119 -2.25694,-0.94943 -4.78714,-2.08344 l 0,0 z"
       id="path4438"
       inkscape:connector-curvature="0" />
    <path
       style="fill:#008080;stroke-width:0.99921262;stroke-miterlimit:4;stroke-dasharray:none;stroke-dashoffset:0"
       d="m 520.06038,396.70281 -4.41942,-1.95524 -2.22991,-2.97907 c -1.22645,-1.63848 -2.18339,-3.02558 -2.12653,-3.08244 0.0569,-0.0569 2.13207,0.7769 4.61157,1.85279 l 4.5082,1.95617 2.05218,2.77792 c 2.36385,3.19981 2.50399,3.41352 2.22764,3.39719 -0.11237,-0.007 -2.19305,-0.89193 -4.62373,-1.96732 z"
       id="path4440"
       inkscape:connector-curvature="0" />
    <path
       style="fill:#008080;stroke-width:0.99921262;stroke-miterlimit:4;stroke-dasharray:none;stroke-dashoffset:0"
       d="m 513.75213,388.07081 c -2.5298,-1.13315 -4.61755,-2.22797 -4.89051,-2.56458 -1.47984,-1.82495 -4.24557,-5.80906 -4.11985,-5.93478 0.081,-0.081 2.1383,0.73314 4.57172,1.80926 l 4.4244,1.95658 2.23487,3.06364 c 2.52127,3.45625 2.68343,3.70449 2.39789,3.67104 -0.11237,-0.0132 -2.1907,-0.91369 -4.61852,-2.00116 l 0,0 z"
       id="path4442"
       inkscape:connector-curvature="0" />
    <path
       style="fill:#008080;stroke-width:0.99921262;stroke-miterlimit:4;stroke-dasharray:none;stroke-dashoffset:0"
       d="m 501.38724,375.34247 -2.29961,-3.14087 0.0692,-4.37283 0.0692,-4.37282 2.46225,3.39711 2.46225,3.39711 0,3.97332 c 0,2.18532 -0.10432,4.03779 -0.23182,4.11659 -0.1275,0.0788 -1.26664,-1.27012 -2.53142,-2.99761 l 0,0 z"
       id="path4444"
       inkscape:connector-curvature="0" />
    <path
       style="fill:#008080;stroke-width:0.99921262;stroke-miterlimit:4;stroke-dasharray:none;stroke-dashoffset:0"
       d="m 494.74343,366.26275 -2.96732,-4.06006 0,-4.41291 c 0,-2.47425 0.0952,-4.30752 0.21675,-4.17301 0.11922,0.13195 1.48553,1.97715 3.03625,4.10043 l 2.81949,3.86051 -0.0689,4.37255 -0.0689,4.37254 -2.96733,-4.06005 z"
       id="path4446"
       inkscape:connector-curvature="0" />
    <path
       style="fill:#008080;stroke-width:0.99921262;stroke-miterlimit:4;stroke-dasharray:none;stroke-dashoffset:0"
       d="m 502.87163,389.25094 c -5.5949,-2.46746 -10.17255,-4.49504 -10.17255,-4.50574 0,-0.0154 1.8036,-0.81631 5.23191,-2.32319 l 0.16537,-0.0727 0.0628,0.12305 c 0.0345,0.0677 0.10599,0.15383 0.15881,0.19144 0.0528,0.0376 2.30822,1.03952 5.01202,2.22647 l 4.91599,2.1581 2.40891,3.29256 c 1.32491,1.81091 2.42276,3.31742 2.43968,3.34781 0.0223,0.0401 0.0197,0.0543 -0.01,0.0519 -0.0223,-0.002 -4.61822,-2.02221 -10.21312,-4.48967 z"
       id="path4448"
       inkscape:connector-curvature="0" />
    <path
       style="fill:#008080;stroke-width:0.99921262;stroke-miterlimit:4;stroke-dasharray:none;stroke-dashoffset:0"
       d="m 503.02695,383.47562 c -3.38703,-1.49059 -3.72848,-1.64744 -3.6618,-1.68209 0.0582,-0.0302 3.12427,-1.38512 3.67796,-1.62526 l 0.13201,-0.0573 1.74624,2.38828 c 0.96043,1.31356 1.78539,2.44196 1.83324,2.50756 0.0487,0.0667 0.0695,0.11782 0.0473,0.11596 -0.0218,-0.002 -1.72056,-0.74306 -3.775,-1.64719 l 0,0 z"
       id="path4450"
       inkscape:connector-curvature="0" />
    <path
       style="fill:#008080;stroke-width:0.99921262;stroke-miterlimit:4;stroke-dasharray:none;stroke-dashoffset:0"
       d="m 491.75206,375.40185 0,-8.39534 0.92334,9e-4 0.92334,8.9e-4 2.15367,2.94798 2.15366,2.94799 0.009,4.08633 0.009,4.08633 -2.74635,1.20966 c -1.5105,0.66531 -2.89906,1.27737 -3.0857,1.36013 l -0.33935,0.15046 0,-8.39533 z"
       id="path4452"
       inkscape:connector-curvature="0" />
    <path
       style="fill:#008080;stroke-width:0.99921262;stroke-miterlimit:4;stroke-dasharray:none;stroke-dashoffset:0"
       d="m 499.10723,377.559 c 0,-2.54056 0.007,-2.98292 0.0435,-2.94365 0.0715,0.076 3.24126,4.42274 3.24857,4.45479 0.005,0.0214 -3.23068,1.47822 -3.28416,1.47867 -0.004,3e-5 -0.008,-1.34538 -0.008,-2.98981 z"
       id="path4454"
       inkscape:connector-curvature="0" />
    <path
       style="fill:#008080;stroke-width:0.99921262;stroke-miterlimit:4;stroke-dasharray:none;stroke-dashoffset:0"
       d="m 491.74182,365.74325 0,-1.2541 0.87614,1.19829 c 0.48188,0.65906 0.89617,1.22341 0.92065,1.2541 0.0353,0.0443 -0.14566,0.0558 -0.87615,0.0558 l -0.92064,0 0,-1.25409 z"
       id="path4456"
       inkscape:connector-curvature="0" />
    <path
       style="fill:#008080;stroke-width:0.99921262;stroke-miterlimit:4;stroke-dasharray:none;stroke-dashoffset:0"
       d="m 508.76989,379.57832 -3.07704,-1.35431 -0.003,-2.94005 c -0.003,-2.47281 0.0348,-2.8985 0.23678,-2.67858 0.4624,0.50357 6.04767,8.22952 5.98446,8.27815 -0.0351,0.027 -1.44851,-0.56034 -3.14088,-1.30521 z"
       id="path4458"
       inkscape:connector-curvature="0" />
    <path
       style="fill:#008080;stroke-width:0.99921262;stroke-miterlimit:4;stroke-dasharray:none;stroke-dashoffset:0"
       d=""
       id="path4460"
       inkscape:connector-curvature="0" />
    <path
       style="fill:#008000;stroke-width:0.99921262;stroke-miterlimit:4;stroke-dasharray:none;stroke-dashoffset:0"
       d="M 479.59597,464.1663 C 435.30133,444.64212 398.45106,428.37799 397.7065,428.02379 l -1.35376,-0.644 22.19668,-9.77645 c 20.44526,-9.00504 22.28516,-9.7482 23.31804,-9.41852 0.61675,0.19686 27.15708,11.74023 58.97851,25.65194 38.89785,17.00538 58.26676,25.30087 59.10714,25.31492 l 1.25,0.0209 0.10163,-6.07143 0.10163,-6.07143 3.72824,-1.60714 c 2.05053,-0.88393 3.80303,-1.79563 3.89443,-2.02599 0.0914,-0.23035 -5.34316,-7.94464 -12.07683,-17.14285 -6.73366,-9.1982 -12.20541,-16.77371 -12.15943,-16.83446 0.046,-0.0607 24.83678,10.78747 55.09067,24.10715 30.25388,13.31967 54.90061,24.32723 54.7705,24.46125 -0.21,0.21631 -94.30108,41.75287 -94.45876,41.69887 -0.0349,-0.012 -36.30458,-15.99607 -80.59922,-35.52025 z"
       id="path4480"
       inkscape:connector-curvature="0" />
    <path
       style="fill:#008000;stroke-width:0.99921262;stroke-miterlimit:4;stroke-dasharray:none;stroke-dashoffset:0"
       d="m 474.77454,468.2111 c -46.55357,-20.57159 -84.80357,-37.47032 -85,-37.55271 -0.19643,-0.0824 0.73422,-0.64752 2.0681,-1.25582 l 2.42524,-1.10601 82.39619,36.28932 c 45.3179,19.95912 82.52501,36.40469 82.68246,36.54571 0.15745,0.14102 0.23781,1.20726 0.17857,2.36941 l -0.1077,2.11301 -84.64286,-37.40291 z"
       id="path4482"
       inkscape:connector-curvature="0" />
    <path
       style="fill:#008000;stroke-width:0.99921262;stroke-miterlimit:4;stroke-dasharray:none;stroke-dashoffset:0"
       d="m 561.09699,503.23395 0.10612,-2.17284 47.32143,-20.86805 c 26.02679,-11.47743 47.72321,-20.95286 48.21429,-21.0565 0.5579,-0.11775 1.71345,0.18861 3.08026,0.81665 l 2.1874,1.00509 -48.23484,21.25 c -26.52916,11.6875 -49.25768,21.68841 -50.50781,22.22425 l -2.27297,0.97425 0.10612,-2.17285 0,0 z"
       id="path4484"
       inkscape:connector-curvature="0" />
    <path
       style="fill:#008000;stroke-width:0.99921262;stroke-miterlimit:4;stroke-dasharray:none;stroke-dashoffset:0"
       d="m 661.64954,459.05303 c -1.12946,-0.51385 -2.05357,-1.03466 -2.05357,-1.15735 0,-0.12269 1.02567,-0.659 2.27928,-1.19179 l 2.27927,-0.9687 2.2743,0.95266 c 1.25086,0.52396 2.33445,1.00932 2.40797,1.07857 0.14629,0.13778 -3.41113,1.76494 -4.47333,2.0461 -0.36319,0.0961 -1.58446,-0.24564 -2.71392,-0.75949 z"
       id="path4486"
       inkscape:connector-curvature="0" />
    <path
       style="fill:#008000;stroke-width:0.99921262;stroke-miterlimit:4;stroke-dasharray:none;stroke-dashoffset:0"
       d=""
       id="path4488"
       inkscape:connector-curvature="0" />
    <path
       style="fill:#008000;stroke-width:0.99921262;stroke-miterlimit:4;stroke-dasharray:none;stroke-dashoffset:0"
       d="m 599.59597,431.69131 -56.96429,-25.11818 -2.06867,-2.80238 c -1.13777,-1.54131 -1.94102,-2.84493 -1.78499,-2.89694 0.15602,-0.052 27.76549,11.97543 61.35438,26.72765 33.58889,14.75221 61.28428,26.9083 61.5453,27.01354 0.50893,0.20518 -3.68421,2.22347 -4.58173,2.20533 -0.29464,-0.006 -26.16964,-11.31401 -57.5,-25.12902 z"
       id="path4490"
       inkscape:connector-curvature="0" />
    <path
       style="fill:#008000;stroke-width:0.99921262;stroke-miterlimit:4;stroke-dasharray:none;stroke-dashoffset:0"
       d="m 558.77589,442.29192 c -1.26428,-1.71563 -2.19712,-3.16036 -2.07297,-3.21049 0.12415,-0.0501 2.34958,0.8508 4.9454,2.00208 l 4.71968,2.09325 -1.33245,0.54556 c -0.73284,0.30006 -1.92386,0.80282 -2.6467,1.11725 l -1.31427,0.57169 -2.29869,-3.11934 0,0 z"
       id="path4492"
       inkscape:connector-curvature="0" />
    <path
       style="fill:#008000;stroke-width:0.99921262;stroke-miterlimit:4;stroke-dasharray:none;stroke-dashoffset:0"
       d="m 559.50219,438.39528 -5.27234,-2.34212 -12.14988,-16.60791 c -6.68243,-9.13436 -11.86344,-16.50185 -11.51337,-16.37222 0.35008,0.12963 2.93505,1.23364 5.74439,2.45334 l 5.10787,2.21764 11.9457,16.3388 c 6.57013,8.98634 11.94569,16.41937 11.94569,16.51786 0,0.3391 -0.55201,0.12949 -5.80806,-2.20539 l 0,0 z"
       id="path4494"
       inkscape:connector-curvature="0" />
    <path
       style="fill:#008000;stroke-width:0.99921262;stroke-miterlimit:4;stroke-dasharray:none;stroke-dashoffset:0"
       d="m 533.52454,402.55463 -5.53571,-2.4276 -2.04751,-2.77495 c -1.12613,-1.52623 -1.97689,-2.84557 -1.89058,-2.93188 0.0863,-0.0863 2.61483,0.92246 5.61893,2.2417 l 5.46201,2.39863 2.07464,2.86234 c 1.14105,1.57429 2.02498,2.90667 1.96429,2.96085 -0.0607,0.0542 -2.60143,-0.9939 -5.64607,-2.32909 z"
       id="path4496"
       inkscape:connector-curvature="0" />
    <path
       style="fill:#ff8080;stroke-width:0.99921262;stroke-miterlimit:4;stroke-dasharray:none;stroke-dashoffset:0"
       d="m 388.1674,354.16779 0,-74.82622 1.33928,0.56942 c 0.73661,0.31318 1.94197,0.81493 2.67857,1.115 l 1.33929,0.54558 0,72.63624 0,72.63624 -2.37083,1.07498 c -1.30395,0.59124 -2.50931,1.07498 -2.67857,1.07498 -0.17125,0 -0.30774,-33.18744 -0.30774,-74.82622 z"
       id="path4498"
       inkscape:connector-curvature="0" />
    <path
       style="fill:#ff8080;stroke-width:0.99921262;stroke-miterlimit:4;stroke-dasharray:none;stroke-dashoffset:0"
       d="m 394.95703,353.93449 0.004,-72.2619 47.58537,-20.95702 47.58536,-20.95701 0.0918,23.72487 c 0.0505,13.04868 0.0505,34.43645 0,47.52838 l -0.0918,23.80352 -12.98763,-17.75911 c -7.14321,-9.76751 -13.2025,-17.84156 -13.4651,-17.94233 -0.26261,-0.10077 -2.11742,0.55306 -4.12182,1.45295 -2.22695,0.99982 -3.79624,1.51575 -4.03489,1.32654 -0.72187,-0.57229 -13.56846,-6.11365 -14.17335,-6.11365 -0.329,0 -0.69509,0.36161 -0.81353,0.80357 -0.11845,0.44196 -0.22131,25.3125 -0.22859,55.26786 l -0.0132,54.46428 -22.33631,9.82143 c -12.28497,5.40179 -22.48656,9.875 -22.67021,9.94048 -0.20642,0.0736 -0.33241,-27.47167 -0.32999,-72.14286 l -2e-5,0 z"
       id="path4500"
       inkscape:connector-curvature="0" />
    <path
       style="fill:#ff8080;stroke-width:0.99921262;stroke-miterlimit:4;stroke-dasharray:none;stroke-dashoffset:0"
       d="m 391.38168,278.95777 c -1.95595,-0.9293 -2.20897,-1.14812 -1.60714,-1.38992 0.39286,-0.15784 21.92857,-9.64384 47.85714,-21.07999 25.92857,-11.43616 48.39567,-21.33343 49.92689,-21.99395 l 2.78402,-1.20093 -0.10545,2.35255 -0.10546,2.35256 -47.32143,20.86818 c -26.02678,11.4775 -47.72321,20.94159 -48.21428,21.03132 -0.5428,0.0992 -1.80301,-0.26929 -3.21429,-0.93982 z"
       id="path4504"
       inkscape:connector-curvature="0" />
    <path
       style="fill:#ff8080;stroke-width:0.99921262;stroke-miterlimit:4;stroke-dasharray:none;stroke-dashoffset:0"
       d="m 491.73883,234.9729 0,-2.31182 2.58928,-1.16132 c 1.42411,-0.63873 2.79018,-1.23994 3.03572,-1.33603 0.32909,-0.12879 0.44642,0.4315 0.44642,2.13175 l 0,2.30647 -2.58928,1.15714 c -1.42411,0.63642 -2.79018,1.24005 -3.03572,1.34138 -0.33014,0.13626 -0.44642,-0.41794 -0.44642,-2.12757 z"
       id="path4506"
       inkscape:connector-curvature="0" />
    <path
       style="fill:#ff8080;stroke-width:0.99921262;stroke-miterlimit:4;stroke-dasharray:none;stroke-dashoffset:0"
       d="m 494.68407,341.06238 -2.94762,-4.03265 0.0905,-49.03838 0.0905,-49.03838 2.8274,-1.22945 c 1.55507,-0.6762 2.88149,-1.17538 2.94758,-1.10928 0.0661,0.0661 0.0795,24.50131 0.0297,54.30048 l -0.0904,54.18031 -2.94761,-4.03265 z"
       id="path4508"
       inkscape:connector-curvature="0" />
    <path
       style="fill:#ff8080;stroke-width:0.99921262;stroke-miterlimit:4;stroke-dasharray:none;stroke-dashoffset:0"
       d="m 494.67445,354.6205 -2.93562,-4.01637 0,-5.34077 c 0,-3.07836 0.13259,-5.19705 0.313,-5.00149 0.17215,0.18661 1.53822,2.01898 3.03571,4.07194 l 2.72271,3.73264 0,5.28521 c 0,2.90687 -0.045,5.28521 -0.10008,5.28521 -0.055,0 -1.42112,-1.80736 -3.03572,-4.01637 z"
       id="path4510"
       inkscape:connector-curvature="0" />
    <path
       style="fill:#ff8080;stroke-width:0.99921262;stroke-miterlimit:4;stroke-dasharray:none;stroke-dashoffset:0"
       d="m 477.13654,330.6173 -12.91699,-17.66243 0.0989,-5.28185 0.0989,-5.28186 12.93411,17.67643 12.9341,17.67642 0.0123,5.26786 c 0.007,2.89732 -0.0454,5.26786 -0.11605,5.26786 -0.0706,0 -5.94101,-7.94809 -13.04535,-17.66243 z"
       id="path4512"
       inkscape:connector-curvature="0" />
    <path
       style="fill:#ff8080;stroke-width:0.99921262;stroke-miterlimit:4;stroke-dasharray:none;stroke-dashoffset:0"
       d="m 459.984,307.17807 c -1.43731,-1.98091 -2.47421,-3.73338 -2.30423,-3.89438 0.16998,-0.16099 1.39388,-0.78017 2.71977,-1.37594 l 2.41071,-1.08322 0,4.9776 c 0,2.73768 -0.0479,4.9776 -0.10648,4.9776 -0.0586,0 -1.28246,-1.62075 -2.71977,-3.60166 z"
       id="path4514"
       inkscape:connector-curvature="0" />
    <path
       style="fill:#ffe680;stroke-width:0.99921262;stroke-miterlimit:4;stroke-dasharray:none;stroke-dashoffset:0"
       d="m 441.95217,371.04667 c -0.0923,-18.84011 -0.16786,-43.08053 -0.16791,-53.86759 l -1.1e-4,-19.61284 4.98763,2.20967 c 2.7432,1.21532 5.41635,2.43086 5.94033,2.70119 l 0.9527,0.49151 -2.25831,1.10692 c -1.99898,0.97982 -2.27394,1.19635 -2.39445,1.88564 -0.0749,0.42829 -0.21505,22.35175 -0.3115,48.7188 l -0.17537,47.9401 -0.52946,0.21088 c -0.2912,0.11599 -1.73237,0.7193 -3.2026,1.34068 l -2.67313,1.12979 -0.16782,-34.25475 z"
       id="path4516"
       inkscape:connector-curvature="0" />
    <path
       style="fill:#ffe680;stroke-width:0.99921262;stroke-miterlimit:4;stroke-dasharray:none;stroke-dashoffset:0"
       d="m 450.59231,377.11141 c -0.0526,-13.42527 -0.0388,-34.26675 0.0307,-46.31438 l 0.12627,-21.90479 5.86693,8.01519 5.86693,8.01519 0.005,35.73933 0.005,35.73932 -3.85121,1.68371 c -2.11816,0.92603 -4.77414,2.07797 -5.90218,2.55986 l -2.05098,0.87617 -0.0956,-24.4096 0,0 z"
       id="path4518"
       inkscape:connector-curvature="0" />
    <path
       style="fill:#ffe680;stroke-width:0.99921262;stroke-miterlimit:4;stroke-dasharray:none;stroke-dashoffset:0"
       d="m 456.71408,313.98853 -5.63348,-7.75373 1.9809,-0.93945 c 1.0895,-0.5167 2.16055,-0.94286 2.38011,-0.94702 0.23164,-0.004 1.8054,1.93103 3.74938,4.61101 l 3.35019,4.61858 -0.036,4.0214 c -0.0198,2.21177 -0.0634,4.04875 -0.0968,4.08217 -0.0334,0.0334 -2.59584,-3.42841 -5.69425,-7.69296 z"
       id="path4520"
       inkscape:connector-curvature="0" />
    <path
       style="fill:#ffe680;stroke-width:0.99921262;stroke-miterlimit:4;stroke-dasharray:none;stroke-dashoffset:0"
       d="m 486.20642,354.28771 c -2.16634,-2.95568 -7.9905,-10.90491 -12.94258,-17.66496 l -9.00379,-12.29099 0.0314,-2.22995 c 0.0172,-1.22647 0.10248,-3.00042 0.1894,-3.94211 l 0.15804,-1.71217 6.80616,9.28831 c 3.74339,5.10857 9.5136,12.99889 12.82268,17.53404 l 6.01653,8.24573 -0.0695,4.07304 -0.0695,4.07303 -3.93879,-5.37397 z"
       id="path4522"
       inkscape:connector-curvature="0" />
    <path
       style="fill:#ffe680;stroke-width:0.99921262;stroke-miterlimit:4;stroke-dasharray:none;stroke-dashoffset:0"
       d="m 464.39913,366.90709 c -0.0964,-15.59107 -0.13866,-30.82827 -0.094,-33.86043 l 0.0812,-5.51303 12.94532,17.69683 12.94532,17.69684 -0.0659,10.64639 -0.0659,10.64639 -12.50064,5.50309 c -6.87535,3.0267 -12.6288,5.50944 -12.78544,5.51721 -0.20879,0.0103 -0.33157,-7.55232 -0.46,-28.33329 z"
       id="path4524"
       inkscape:connector-curvature="0" />
    <path
       style="fill:#ffe680;stroke-width:0.99921262;stroke-miterlimit:4;stroke-dasharray:none;stroke-dashoffset:0"
       d="m 523.85905,422.62301 c -23.55696,-10.39004 -48.36606,-21.41908 -53.21801,-23.65839 l -4.60442,-2.12507 11.80175,-5.24988 c 6.49097,-2.88743 12.14269,-5.39249 12.55938,-5.5668 0.721,-0.30162 1.32423,-0.0649 12.48429,4.89929 l 11.72668,5.21622 11.58244,15.9099 c 11.83842,16.26153 12.22504,16.80737 11.88204,16.77518 -0.10906,-0.0102 -6.50543,-2.80044 -14.21415,-6.20045 z"
       id="path4526"
       inkscape:connector-curvature="0" />
    <path
       style="fill:#ffe680;stroke-width:0.99921262;stroke-miterlimit:4;stroke-dasharray:none;stroke-dashoffset:0"
       d="m 491.78671,375.42707 0,-8.20431 0.88539,0 c 0.83617,0 1.00464,0.16116 3.03046,2.89899 l 2.14506,2.89899 0,4.00099 0,4.00099 -1.57836,0.65508 c -0.8681,0.3603 -2.23181,0.94725 -3.03046,1.30433 l -1.45209,0.64924 0,-8.2043 z"
       id="path4528"
       inkscape:connector-curvature="0" />
    <path
       style="fill:#ffe680;stroke-width:0.99921262;stroke-miterlimit:4;stroke-dasharray:none;stroke-dashoffset:0"
       d="m 494.62006,365.84321 -2.83335,-3.87825 0.0314,-2.23246 c 0.0173,-1.22785 0.10249,-3.01157 0.18941,-3.96381 l 0.15803,-1.73135 2.73923,3.76203 2.73923,3.76202 -0.036,4.02079 c -0.0198,2.21144 -0.0627,4.04745 -0.0953,4.08003 -0.0326,0.0326 -1.33425,-1.68596 -2.89259,-3.819 l 0,0 z"
       id="path4530"
       inkscape:connector-curvature="0" />
    <path
       style="fill:#ffe680;stroke-width:0.99921262;stroke-miterlimit:4;stroke-dasharray:none;stroke-dashoffset:0"
       d="m 501.48303,375.17354 -2.29923,-3.03464 0.15266,-4.053 0.15266,-4.053 2.21623,3.08809 2.21623,3.08809 -0.0697,3.99954 -0.0697,3.99955 -2.29924,-3.03463 z"
       id="path4532"
       inkscape:connector-curvature="0" />
    <path
       style="fill:#ffe680;stroke-width:0.99921262;stroke-miterlimit:4;stroke-dasharray:none;stroke-dashoffset:0"
       d="m 508.39394,379.27379 -2.45939,-1.06562 -0.003,-2.63902 c -0.002,-1.45615 0.0927,-2.53149 0.21042,-2.39911 0.26494,0.29804 4.67068,6.43605 4.93045,6.86903 0.28565,0.47612 -0.005,0.39294 -2.67862,-0.76528 z"
       id="path4534"
       inkscape:connector-curvature="0" />
    <path
       style="fill:#ffe680;stroke-width:0.99921262;stroke-miterlimit:4;stroke-dasharray:none;stroke-dashoffset:0"
       d="m 515.02021,388.46621 c -4.67367,-2.12973 -5.72102,-2.74175 -6.62801,-3.8731 -1.1336,-1.41401 -3.22097,-4.3854 -3.22097,-4.58508 0,-0.19779 1.58586,0.41134 5.43137,2.0862 l 3.03226,1.32066 2.0185,2.80063 c 2.3324,3.23615 2.49311,3.48736 2.22046,3.47107 -0.11108,-0.007 -1.3952,-0.55581 -2.85361,-1.22038 z"
       id="path4536"
       inkscape:connector-curvature="0" />
    <path
       style="fill:#ffe680;stroke-width:0.99921262;stroke-miterlimit:4;stroke-dasharray:none;stroke-dashoffset:0"
       d="m 504.79242,384.12495 c -0.55558,-0.27039 -1.91929,-0.90299 -3.03046,-1.40578 l -2.0203,-0.91418 1.51523,-0.70578 c 0.83337,-0.38818 1.59964,-0.71448 1.70282,-0.72512 0.15987,-0.0165 2.50218,3.00888 3.06448,3.95813 0.25162,0.42476 -0.0307,0.37726 -1.23177,-0.20727 z"
       id="path4538"
       inkscape:connector-curvature="0" />
    <path
       style="fill:#ffe680;stroke-width:0.99921262;stroke-miterlimit:4;stroke-dasharray:none;stroke-dashoffset:0"
       d="m 499.2609,379.14173 c -0.0801,-0.65235 -0.0615,-1.79217 0.0413,-2.53293 l 0.18693,-1.34683 1.13642,1.58866 c 0.62503,0.87376 1.21569,1.71478 1.31257,1.86893 0.1081,0.172 -0.34689,0.5368 -1.17771,0.94427 l -1.35386,0.664 -0.14564,-1.1861 z"
       id="path4540"
       inkscape:connector-curvature="0" />
    <path
       style="fill:#ffe680;stroke-width:0.99921262;stroke-miterlimit:4;stroke-dasharray:none;stroke-dashoffset:0"
       d="m 491.78671,375.30398 c 0,-4.84397 0.0946,-8.08122 0.23609,-8.08122 0.46259,0 1.62128,0.53054 1.8899,0.86534 0.15021,0.18723 1.10002,1.4262 2.11068,2.75327 l 1.83755,2.41286 -0.0698,3.83592 -0.0698,3.83591 -2.90419,1.22951 c -1.5973,0.67623 -2.9326,1.22954 -2.96732,1.22957 -0.0347,4e-5 -0.0631,-3.63649 -0.0631,-8.08116 z"
       id="path4542"
       inkscape:connector-curvature="0" />
    <path
       style="fill:#ffe680;stroke-width:0.99921262;stroke-miterlimit:4;stroke-dasharray:none;stroke-dashoffset:0"
       d="m 491.75402,365.77903 c 0,-0.65067 0.008,-1.18304 0.0172,-1.18304 0.0166,0 1.62923,2.19639 1.69628,2.31027 0.0258,0.0439 -0.15401,0.0558 -0.84031,0.0558 l -0.87317,0 0,-1.18303 z"
       id="path4544"
       inkscape:connector-curvature="0" />
    <path
       style="fill:#ffe680;stroke-width:0.99921262;stroke-miterlimit:4;stroke-dasharray:none;stroke-dashoffset:0"
       d="m 507.89241,391.43385 c -9.29597,-4.09129 -15.11097,-6.67781 -15.07767,-6.70658 0.0182,-0.0157 1.20395,-0.54634 2.63508,-1.17923 l 2.60206,-1.1507 0.14348,0.15694 c 0.14704,0.16084 1.23636,0.65411 7.96748,3.60787 l 2.06508,0.9062 0.90041,1.23034 c 2.43339,3.32503 3.87569,5.30987 3.87569,5.33358 0,0.0144 -0.0151,0.0252 -0.0335,0.024 -0.0184,-0.001 -2.30358,-1.00132 -5.07813,-2.22243 z"
       id="path4546"
       inkscape:connector-curvature="0" />
    <path
       style="fill:#ffe680;stroke-width:0.99921262;stroke-miterlimit:4;stroke-dasharray:none;stroke-dashoffset:0"
       d="m 523.94152,398.35097 c -1.50305,-0.62207 -8.24787,-3.58894 -8.3052,-3.65324 -0.0655,-0.0735 -2.06788,-2.75782 -2.71522,-3.63999 -0.76348,-1.04043 -1.63042,-2.30793 -1.59963,-2.33872 0.0259,-0.0259 0.91728,0.31499 2.1839,0.83533 0.9745,0.40033 6.5481,2.80397 6.78334,2.92534 0.16437,0.0848 4.14288,5.47264 4.37172,5.92032 0.0896,0.17527 0.10632,0.25934 0.0512,0.25715 -0.0184,-7.3e-4 -0.36496,-0.13852 -0.77009,-0.30619 z"
       id="path4548"
       inkscape:connector-curvature="0" />
    <path
       style="fill:#ffe680;stroke-width:0.99921262;stroke-miterlimit:4;stroke-dasharray:none;stroke-dashoffset:0"
       d="m 546.07507,432.43797 -4.23083,-1.90329 -3.52355,-4.82143 c -17.54987,-24.01423 -20.56476,-28.2162 -20.12517,-28.0492 0.17856,0.0678 2.18716,0.92951 4.46357,1.91483 l 4.13891,1.79149 10.59323,14.48513 c 14.06964,19.23875 13.56776,18.5323 13.14415,18.50211 -0.12622,-0.009 -2.13336,-0.87283 -4.46031,-1.91964 z"
       id="path4550"
       inkscape:connector-curvature="0" />
    <path
       style="fill:#ffe680;stroke-width:0.99921262;stroke-miterlimit:4;stroke-dasharray:none;stroke-dashoffset:0"
       d="m 525.93089,435.73647 c -30.4204,-13.38754 -58.27169,-25.71672 -66.42857,-29.40654 -3.29018,-1.48834 -6.28267,-2.83863 -6.64997,-3.00066 -0.36731,-0.16202 -0.66711,-0.33477 -0.66624,-0.38387 8.7e-4,-0.0491 0.62282,-0.36535 1.38211,-0.70275 0.75929,-0.33741 3.14838,-1.40525 5.3091,-2.37299 2.16071,-0.96773 4.10367,-1.80387 4.31768,-1.85807 0.39074,-0.099 6.0394,2.36016 47.11089,20.50956 9.33035,4.12307 20.01276,8.8719 23.73867,10.55296 l 6.77439,3.05648 3.05407,4.11276 c 3.7368,5.03217 7.59358,10.37659 7.59358,10.5226 0,0.0594 -0.0603,0.10408 -0.13393,0.0993 -0.0737,-0.005 -11.50446,-5.01275 -25.40178,-11.12874 l 0,0 z"
       id="path4552"
       inkscape:connector-curvature="0" />
    <path
       style="fill:#ffe680;stroke-width:0.99921262;stroke-miterlimit:4;stroke-dasharray:none;stroke-dashoffset:0"
       d="m 534.85946,446.77398 c -50.86086,-22.18453 -91.42857,-39.97223 -91.42857,-40.08862 0,-0.11243 3.93704,-1.82527 5.59383,-2.43364 l 0.74545,-0.27373 24.55357,10.80024 c 13.50447,5.94013 36.98167,16.27476 52.17157,22.96584 15.18989,6.69109 27.77215,12.16561 27.96057,12.16561 0.18843,0 1.45486,-0.48214 2.81429,-1.07143 1.35944,-0.58928 2.49816,-1.07143 2.5305,-1.07143 0.0323,0 0.0588,2.20983 0.0588,4.91072 0,2.70089 -0.0603,4.90473 -0.13393,4.89742 -0.0737,-0.007 -11.26339,-4.86775 -24.86607,-10.80098 z"
       id="path4554"
       inkscape:connector-curvature="0" />
    <path
       style="fill:#ffe680;stroke-width:0.99921262;stroke-miterlimit:4;stroke-dasharray:none;stroke-dashoffset:0"
       d="m 553.95126,446.87373 c -2.14229,-2.64316 -9.62164,-13.06885 -9.37553,-13.06885 0.0929,0 2.05658,0.80635 4.36379,1.79188 l 4.19492,1.79188 2.95952,4.12111 c 1.62773,2.26661 2.95952,4.23006 2.95952,4.36321 0,0.23905 -3.53422,2.07406 -3.99462,2.07406 -0.13073,0 -0.62915,-0.48298 -1.1076,-1.07329 z"
       id="path4556"
       inkscape:connector-curvature="0" />
  </g>
</svg>
