<?xml version="1.0" encoding="UTF-8" standalone="no"?>
<!-- Created with Inkscape (http://www.inkscape.org/) -->

<svg
   xmlns:dc="http://purl.org/dc/elements/1.1/"
   xmlns:cc="http://creativecommons.org/ns#"
   xmlns:rdf="http://www.w3.org/1999/02/22-rdf-syntax-ns#"
   xmlns:svg="http://www.w3.org/2000/svg"
   xmlns="http://www.w3.org/2000/svg"
   xmlns:sodipodi="http://sodipodi.sourceforge.net/DTD/sodipodi-0.dtd"
   xmlns:inkscape="http://www.inkscape.org/namespaces/inkscape"
   width="64px"
   height="64px"
   id="svg3138"
   version="1.1"
   inkscape:version="0.48.2 r9819"
   sodipodi:docname="SG_entity_surf.svg">
  <defs
     id="defs3140">
    <linearGradient
       id="SVGID_2_"
       gradientUnits="userSpaceOnUse"
       x1="150.70171"
       y1="80.384804"
       x2="120.2104"
       y2="170.36861">
      <stop
         offset="0"
         style="stop-color:#FFFFFF"
         id="stop45" />
      <stop
         offset="1"
         style="stop-color:#000000"
         id="stop47" />
    </linearGradient>
  </defs>
  <sodipodi:namedview
     id="base"
     pagecolor="#ffffff"
     bordercolor="#666666"
     borderopacity="1.0"
     inkscape:pageopacity="0.0"
     inkscape:pageshadow="2"
     inkscape:zoom="2.75"
     inkscape:cx="-30.324111"
     inkscape:cy="30.024387"
     inkscape:current-layer="g42"
     showgrid="true"
     inkscape:document-units="px"
     inkscape:grid-bbox="true"
     inkscape:window-width="1366"
     inkscape:window-height="716"
     inkscape:window-x="-8"
     inkscape:window-y="-8"
     inkscape:window-maximized="1" />
  <metadata
     id="metadata3143">
    <rdf:RDF>
      <cc:Work
         rdf:about="">
        <dc:format>image/svg+xml</dc:format>
        <dc:type
           rdf:resource="http://purl.org/dc/dcmitype/StillImage" />
      </cc:Work>
    </rdf:RDF>
  </metadata>
  <g
     id="layer1"
     inkscape:label="Layer 1"
     inkscape:groupmode="layer">
    <g
       transform="matrix(0.22372552,0,0,0.31135007,-1.0274386,3.4027434)"
       id="g42">
      <linearGradient
         id="linearGradient3066"
         gradientUnits="userSpaceOnUse"
         x1="150.70171"
         y1="80.384804"
         x2="120.2104"
         y2="170.36861">
        <stop
           offset="0"
           style="stop-color:#FFFFFF"
           id="stop3068" />
        <stop
           offset="1"
           style="stop-color:#000000"
           id="stop3070" />
      </linearGradient>
      <path
         style="fill:none;stroke:#000000;stroke-width:0.85640001"
         inkscape:connector-curvature="0"
         clip-rule="evenodd"
         d="m 184.29,30.295 c 8.861,-0.315 17.585,-0.361 26.082,0.274 22.32,1.67 43.96,7.699 66.537,14.997"
         id="path51" />
      <path
         style="fill:none;stroke:#000000;stroke-width:0.85640001"
         inkscape:connector-curvature="0"
         clip-rule="evenodd"
         d="m 47.889,58.465 c 35.616,-17.191 66.864,-25.828 102.386,-20.981 47.838,6.526 92.647,39.683 132.77,69.665"
         id="path53" />
      <path
         style="fill:none;stroke:#000000;stroke-width:0.85640001"
         inkscape:connector-curvature="0"
         clip-rule="evenodd"
         d="M 23.292,83.062 C 23.367,83.061 23.443,83.06 23.52,83.059 57.826,67.03 93.053,58.553 129.082,65.366 c 1.603,0.303 3.187,0.592 4.799,0.899 55.405,10.567 97.19,52.239 137.345,91.098"
         id="path55" />
      <path
         style="fill:none;stroke:#000000;stroke-width:0.85640001"
         inkscape:connector-curvature="0"
         clip-rule="evenodd"
         d="m 181.446,140.729 c 13.515,-31.93 34.717,-70.519 36.897,-106.69 0.29,-4.812 0.541,-9.543 -0.901,-13.744"
         id="path57" />
      <path
         style="fill:none;stroke:#000000;stroke-width:0.85640001"
         inkscape:connector-curvature="0"
         clip-rule="evenodd"
         d="m 130.753,114.407 c 1.621,-10.851 3.109,-23.601 5.4,-35.674 3.858,-20.328 10.588,-46.872 27.427,-47.858"
         id="path59" />
      <path
         style="fill:none;stroke:#000000;stroke-width:0.85640001"
         inkscape:connector-curvature="0"
         clip-rule="evenodd"
         d="M 74.06,109.908 C 74.2,82.46 75.163,48.93 100.967,37.232"
         id="path61" />
      <path
         style="opacity:0.2;fill:#1b1f8a;fill-rule:evenodd"
         inkscape:connector-curvature="0"
         clip-rule="evenodd"
         enable-background="new    "
         d="m 244.468,9.271 c 18.48,-1.287 26.617,16.146 31.5,30.899 8.013,24.212 12.009,79.137 0.6,107.7 -2.038,5.104 -5.266,9.89 -8.7,13.8 -2.989,3.404 -3.981,3.885 -8.1,6.3 -3.515,2.062 -8.938,4.34 -14.4,4.5 -6.552,0.193 -13.465,-1.975 -19.5,-4.199 -16.509,-6.087 -30.739,-17.38 -44.399,-26.4 -17.942,-11.849 -38.527,-25.807 -64.5,-29.7 -21.127,-3.167 -47.317,-0.014 -70.5,-2.1 -9.261,-0.833 -17.653,-2.47 -22.801,-6.601 -3.087,-2.477 -5.014,-6.7 -3.899,-12.899 1.333,-7.413 6.834,-13.464 11.399,-18.601 13.255,-14.911 36.657,-25.367 57,-32.1 15.113,-5.002 31.598,-8.414 50.7,-9 19.218,-0.59 39.049,1.365 56.7,-2.1 9.354,-1.837 16.01,-6.644 23.4,-10.5 7.236,-3.776 15.364,-8.293 25.5,-8.999 z"
         id="path63" />
      <path
         style="fill:none;stroke:#000000;stroke-width:1.71270001"
         inkscape:connector-curvature="0"
         clip-rule="evenodd"
         d="m 244.468,9.271 c 18.48,-1.287 26.617,16.146 31.5,30.899 8.013,24.212 12.009,79.137 0.6,107.7 -2.038,5.104 -5.266,9.89 -8.7,13.8 -2.989,3.404 -3.981,3.885 -8.1,6.3 -3.515,2.062 -8.938,4.34 -14.4,4.5 -6.552,0.193 -13.465,-1.975 -19.5,-4.199 -16.509,-6.087 -30.739,-17.38 -44.399,-26.4 -17.942,-11.849 -38.527,-25.807 -64.5,-29.7 -21.127,-3.167 -47.317,-0.014 -70.5,-2.1 -9.261,-0.833 -17.653,-2.47 -22.801,-6.601 -3.087,-2.477 -5.014,-6.7 -3.899,-12.899 1.333,-7.413 6.834,-13.464 11.399,-18.601 13.255,-14.911 36.657,-25.367 57,-32.1 15.113,-5.002 31.598,-8.414 50.7,-9 19.218,-0.59 39.049,1.365 56.7,-2.1 9.354,-1.837 16.01,-6.644 23.4,-10.5 7.236,-3.776 15.364,-8.293 25.5,-8.999 z"
         id="path65" />
    </g>
  </g>
</svg>
