<?xml version="1.0" encoding="UTF-8" standalone="no"?>
<!-- Created with Inkscape (http://www.inkscape.org/) -->

<svg
   xmlns:dc="http://purl.org/dc/elements/1.1/"
   xmlns:cc="http://creativecommons.org/ns#"
   xmlns:rdf="http://www.w3.org/1999/02/22-rdf-syntax-ns#"
   xmlns:svg="http://www.w3.org/2000/svg"
   xmlns="http://www.w3.org/2000/svg"
   xmlns:sodipodi="http://sodipodi.sourceforge.net/DTD/sodipodi-0.dtd"
   xmlns:inkscape="http://www.inkscape.org/namespaces/inkscape"
   width="64px"
   height="64px"
   id="svg3789"
   version="1.1"
   inkscape:version="0.48.2 r9819"
   sodipodi:docname="SG_entity_solid.svg">
  <defs
     id="defs3791">
    <inkscape:perspective
       sodipodi:type="inkscape:persp3d"
       inkscape:vp_x="-40.947931 : 15.225165 : 0"
       inkscape:vp_y="0 : 1427.3592 : 0"
       inkscape:vp_z="40.947931 : 15.225165 : 0"
       inkscape:persp3d-origin="45.589654 : -2.5825405 : 1"
       id="perspective3154" />
  </defs>
  <sodipodi:namedview
     id="base"
     pagecolor="#ffffff"
     bordercolor="#666666"
     borderopacity="1.0"
     inkscape:pageopacity="0.0"
     inkscape:pageshadow="2"
     inkscape:zoom="2.75"
     inkscape:cx="16.687657"
     inkscape:cy="23.181212"
     inkscape:current-layer="g3394"
     showgrid="true"
     inkscape:document-units="px"
     inkscape:grid-bbox="true"
     inkscape:window-width="1366"
     inkscape:window-height="716"
     inkscape:window-x="-8"
     inkscape:window-y="-8"
     inkscape:window-maximized="1" />
  <metadata
     id="metadata3794">
    <rdf:RDF>
      <cc:Work
         rdf:about="">
        <dc:format>image/svg+xml</dc:format>
        <dc:type
           rdf:resource="http://purl.org/dc/dcmitype/StillImage" />
        <dc:title />
      </cc:Work>
    </rdf:RDF>
  </metadata>
  <g
     id="layer1"
     inkscape:label="Layer 1"
     inkscape:groupmode="layer">
    <g
       transform="matrix(0.16241624,0,0,0.15079072,-33.871512,-29.862821)"
       id="g3394">
      <g
         transform="matrix(0.6064442,0,0,0.6064442,737.12711,274.64598)"
         id="g13013"
         style="stroke:#0000f4;stroke-opacity:0.43386236;fill:#0000ff;fill-opacity:0.20105819000000000">
        <path
           inkscape:connector-curvature="0"
           sodipodi:nodetypes="cccc"
           style="fill:#0000ff;fill-opacity:0.20105819000000000;fill-rule:evenodd;stroke:#0000f4;stroke-opacity:0.43386236"
           d="M -388.40365,116.45585 -242.91892,321.59732 -498.0052,499.80874 -388.40365,116.45585 z"
           id="path2329" />
        <path
           inkscape:connector-curvature="0"
           style="fill:#0000ff;fill-opacity:0.20105819000000000;fill-rule:evenodd;stroke:#0000f4;stroke-opacity:0.43386236"
           d="M -784.88853,221.00664 -389.91888,115.95077 -498.51028,497.28336 -784.88853,221.00664 z"
           id="path3300"
           sodipodi:nodetypes="cccc" />
        <path
           inkscape:connector-curvature="0"
           sodipodi:nodetypes="cccc"
           style="fill:#0000ff;fill-opacity:0.20105819000000000;fill-rule:evenodd;stroke:#0000f4;stroke-opacity:0.43386236"
           d="M -387.89858,113.42539 -330.82496,8.3695264 -242.77253,320.97268 -387.89858,113.42539 z"
           id="path4271" />
        <path
           inkscape:connector-curvature="0"
           style="fill:#0000ff;fill-opacity:0.20105819000000000;fill-rule:evenodd;stroke:#0000f4;stroke-opacity:0.43386236"
           d="M -643.46717,-80.523898 -332.84526,6.8542976 -390.42396,113.93047 -643.46717,-80.523898 z"
           id="path4273" />
        <path
           inkscape:connector-curvature="0"
           style="fill:#0000ff;fill-opacity:0.20105819000000000;fill-rule:evenodd;stroke:#0000f4;stroke-opacity:0.43386236"
           d="m -784.88853,224.0371 3.78705,243.53266 281.58104,30.21867 -285.36809,-273.75133 z"
           id="path5244"
           sodipodi:nodetypes="cccc" />
        <path
           inkscape:connector-curvature="0"
           style="fill:#0000ff;fill-opacity:0.20105819000000000;fill-rule:evenodd;stroke:#0000f4;stroke-opacity:0.43386236"
           d="M -243.2158,320.49444 -475.27677,513.95088 -495.47982,499.30367 -243.2158,320.49444 z"
           id="path6215"
           sodipodi:nodetypes="cccc" />
        <path
           inkscape:connector-curvature="0"
           style="fill:#0000ff;fill-opacity:0.20105819000000000;fill-rule:evenodd;stroke:#0000f4;stroke-opacity:0.43386236"
           d="M -643.46717,-76.483288 -785.3936,219.99648 -393.45441,114.43554 -643.46717,-76.483288 z"
           id="path7186"
           sodipodi:nodetypes="cccc" />
        <path
           inkscape:connector-curvature="0"
           style="fill:#0000ff;fill-opacity:0.20105819000000000;fill-rule:evenodd;stroke:#0000f4;stroke-opacity:0.43386236"
           d="M -644.47732,-79.008669 -785.3936,217.4711 -850.54844,147.77058 -644.47732,-79.008669 z"
           id="path8157" />
        <path
           inkscape:connector-curvature="0"
           style="fill:#0000ff;fill-opacity:0.20105819000000000;fill-rule:evenodd;stroke:#0000f4;stroke-opacity:0.43386236"
           d="m -851.05352,150.29596 64.14469,70.2056 4.04061,245.46707 -68.1853,-315.67267 z"
           id="path9128"
           sodipodi:nodetypes="cccc" />
        <path
           inkscape:connector-curvature="0"
           style="fill:#0000ff;fill-opacity:0.20105819000000000;fill-rule:evenodd;stroke:#0000f4;stroke-opacity:0.43386236"
           d="m -498.0052,499.30366 21.2132,15.15229 -304.56099,-42.4264 283.34779,27.27411 z"
           id="path10099"
           sodipodi:nodetypes="cccc" />
        <path
           inkscape:connector-curvature="0"
           style="opacity:0.33000003999999999;fill:#0000ff;fill-rule:nonzero;stroke:#0000f4;stroke-opacity:0.43386236;fill-opacity:0.20105819000000000"
           d="m -640.9487,-78.994924 -6.5625,1 47.46875,115.65625 -247.96875,105.062504 2.5,6.0625 243.96875,-104.562504 -69.71875,270.218754 -97.96875,-97.46875 -12.125,4.03125 106.0625,100 -108.09375,139.40625 3.5625,9.09375 109.59375,-145.96875 194.46241,191.4218 1.5,-8.59375 -189.89991,-186.3593 269.6875,-70.21875 -85.21182,260.06891 2.89932,2.08734 5.5625,-4.0625 1,-5.03125 81.3125,-252.5625 141.30451,76.44004 3.03125,-8.0625 -142.80451,-72.90879 55.5625,-232.843754 -8.59375,9.59375 -51.53125,217.687504 -200,-199.500004 257.09375,-30.3125 -6.5625,-6.0624997 -254.5625,32.3437497 -44.96875,-115.65625 z m 44.96875,124.75 199.5,199.500004 -270.71875,71.21875 71.21875,-270.718754 z"
           id="path12039"
           sodipodi:nodetypes="ccccccccccccccccccccccccccccccccccccc" />
      </g>
      <path
         inkscape:connector-curvature="0"
         sodipodi:nodetypes="cccc"
         id="use3340"
         d="m 435.56781,576.86843 11.06747,8.83445 c 51.28761,-34.3317 96.1215,-76.85567 143.25888,-116.51971 L 435.56781,576.86843 z"
         style="fill:none;stroke:#0000f4;stroke-width:4.53299999000000040;stroke-linecap:butt;stroke-linejoin:round;stroke-miterlimit:4;stroke-opacity:0.43386236;stroke-dasharray:none" />
      <path
         inkscape:connector-curvature="0"
         style="fill:none;stroke:#0000f4;stroke-width:4.53299999000000040;stroke-linecap:butt;stroke-linejoin:round;stroke-miterlimit:4;stroke-opacity:0.43386236;stroke-dasharray:none"
         d="m 435.56781,576.86843 59.6389,-211.87984 c 0,0 4.12319,-20.76936 8.56058,-16.11513 3.44393,3.61222 86.37941,120.05717 86.37941,120.05717 l -154.57889,107.9378 z"
         id="path3334"
         sodipodi:nodetypes="ccscc" />
      <path
         inkscape:connector-curvature="0"
         id="path3330"
         d="m 534.93166,279.85108 -33.37883,65.62237 c 0,0 -59.45173,-46.21186 -63.81571,-49.65419 -3.91852,-3.09095 -90.12762,-68.5193 -90.12762,-68.5193 0,0 1.56401,-1.15867 8.67816,0.47534 6.66151,1.53005 178.70674,51.35963 178.644,52.07578 z"
         style="fill:none;stroke:#0000f4;stroke-width:4.53299999000000040;stroke-linecap:butt;stroke-linejoin:round;stroke-miterlimit:4;stroke-opacity:0.43386236;stroke-dasharray:none"
         sodipodi:nodetypes="ccscsc" />
      <path
         inkscape:connector-curvature="0"
         sodipodi:nodetypes="ccscsc"
         style="fill:none;stroke:#0000f4;stroke-width:4.15732956000000000;stroke-linecap:butt;stroke-linejoin:round;stroke-miterlimit:4;stroke-opacity:0.43386236;stroke-dasharray:none"
         d="m 221.69606,363.67824 39.14527,44.24701 c 0,0 32.82781,-70.39364 35.23749,-75.63728 2.16372,-4.70837 50.74845,-104.82056 50.74845,-104.82056 0,0 -1.22075,-1.49712 -6.66687,4.56337 -2.91059,3.23893 -118.49899,130.55657 -118.46434,131.64746 z"
         id="path3336" />
      <path
         inkscape:connector-curvature="0"
         sodipodi:nodetypes="ccscsc"
         style="fill:none;stroke:#0000f4;stroke-width:4.53299999000000040;stroke-linecap:butt;stroke-linejoin:round;stroke-miterlimit:4;stroke-opacity:0.43386236;stroke-dasharray:none"
         d="m 500.60534,345.07896 -236.4944,62.38208 c 0,0 -2.25044,1.28597 -0.96446,-3.53641 1.28595,-4.82236 83.67472,-176.64873 83.67472,-176.64873 0,0 2.64002,1.69793 8.65612,5.83165 5.63334,3.87071 145.44951,111.3284 145.12802,111.97141 z"
         id="path3328" />
      <path
         inkscape:connector-curvature="0"
         style="fill:none;stroke:#0000f4;stroke-width:4.53299999000000040;stroke-linecap:butt;stroke-linejoin:round;stroke-miterlimit:4;stroke-opacity:0.43386236;stroke-dasharray:none"
         d="m 434.8102,576.11082 11.82508,9.59206 -183.40106,-27.41336 171.57598,17.8213 z"
         id="path3344"
         sodipodi:nodetypes="cccc" />
      <path
         inkscape:connector-curvature="0"
         sodipodi:nodetypes="ccc"
         style="fill:none;stroke:#0000f4;stroke-width:4.15732956000000000;stroke-linecap:butt;stroke-linejoin:round;stroke-miterlimit:4;stroke-opacity:0.43386236;stroke-dasharray:none"
         d="M 435.47231,576.16952 263.33225,557.52749 435.47231,576.16952 z"
         id="path3346"
         inkscape:transform-center-y="-101.61778"
         inkscape:transform-center-x="9.7622278" />
      <path
         inkscape:connector-curvature="0"
         sodipodi:nodetypes="ccscc"
         style="fill:none;stroke:#0000f4;stroke-width:4.53299999000000040;stroke-linecap:butt;stroke-linejoin:round;stroke-miterlimit:4;stroke-opacity:0.43386236;stroke-dasharray:none"
         d="m 502.01285,344.95616 33.20874,-64.3624 c 0,0 21.02606,72.30456 22.53999,77.65264 1.3594,4.80217 32.27183,110.76679 32.27183,110.76679 L 502.01285,344.95616 z"
         id="path3332" />
      <path
         inkscape:connector-curvature="0"
         sodipodi:nodetypes="ccscsc"
         id="path2357"
         d="m 261.01944,408.25394 239.74022,-63.2648 c 0,0 1.11402,-2.42239 -0.55077,3.78895 -1.29207,4.82072 -63.97674,226.65128 -63.97674,226.65128 0,0 0.64297,3.85791 -3.8579,-1.28596 -4.50086,-5.14385 -171.6763,-165.24646 -171.35481,-165.88947 z"
         style="fill:none;stroke:#0000f4;stroke-width:4.53299999000000040;stroke-linecap:butt;stroke-linejoin:round;stroke-miterlimit:4;stroke-opacity:0.43386236;stroke-dasharray:none" />
      <path
         inkscape:connector-curvature="0"
         inkscape:transform-center-x="9.7622278"
         inkscape:transform-center-y="-101.61778"
         id="path3338"
         d="m 221.1866,363.84809 40.89247,44.08377 c 0,0 -0.2139,35.50224 -0.81918,41.24122 -0.54349,5.15316 2.26062,108.89634 2.26062,108.89634 0,0 -1.81403,0.66401 -3.40254,-7.32764 -0.84896,-4.271 -39.51813,-185.97339 -38.93137,-186.89369 z"
         style="fill:none;stroke:#0000f4;stroke-width:4.15732956000000000;stroke-linecap:butt;stroke-linejoin:round;stroke-miterlimit:4;stroke-opacity:0.43386236;stroke-dasharray:none"
         sodipodi:nodetypes="ccscsc" />
    </g>
  </g>
</svg>
