<?xml version="1.0" encoding="UTF-8" standalone="no"?>
<!-- Created with Inkscape (http://www.inkscape.org/) -->

<svg
   xmlns:dc="http://purl.org/dc/elements/1.1/"
   xmlns:cc="http://creativecommons.org/ns#"
   xmlns:rdf="http://www.w3.org/1999/02/22-rdf-syntax-ns#"
   xmlns:svg="http://www.w3.org/2000/svg"
   xmlns="http://www.w3.org/2000/svg"
   xmlns:sodipodi="http://sodipodi.sourceforge.net/DTD/sodipodi-0.dtd"
   xmlns:inkscape="http://www.inkscape.org/namespaces/inkscape"
   width="64px"
   height="64px"
   id="svg3024"
   version="1.1"
   inkscape:version="0.48.2 r9819"
   sodipodi:docname="New document 3">
  <defs
     id="defs3026" />
  <sodipodi:namedview
     id="base"
     pagecolor="#ffffff"
     bordercolor="#666666"
     borderopacity="1.0"
     inkscape:pageopacity="0.0"
     inkscape:pageshadow="2"
     inkscape:zoom="1.9711292"
     inkscape:cx="-71.68737"
     inkscape:cy="30.050283"
     inkscape:current-layer="layer1"
     showgrid="true"
     inkscape:document-units="px"
     inkscape:grid-bbox="true"
     inkscape:window-width="1366"
     inkscape:window-height="707"
     inkscape:window-x="-9"
     inkscape:window-y="-9"
     inkscape:window-maximized="1" />
  <metadata
     id="metadata3029">
    <rdf:RDF>
      <cc:Work
         rdf:about="">
        <dc:format>image/svg+xml</dc:format>
        <dc:type
           rdf:resource="http://purl.org/dc/dcmitype/StillImage" />
        <dc:title></dc:title>
      </cc:Work>
    </rdf:RDF>
  </metadata>
  <g
     id="layer1"
     inkscape:label="Layer 1"
     inkscape:groupmode="layer">
    <g
       transform="matrix(0.23243148,0,0,0.25599059,-15.35417,-111.27032)"
       id="g3005"
       style="stroke:#0000ff;stroke-opacity:1">
      <path
         sodipodi:nodetypes="cszssssssssssssssssc"
         inkscape:connector-curvature="0"
         id="path2999"
         d="m 116.9722,519.64542 c -18.128961,0.48074 -14.78233,-62.00936 -5.63722,-62.00936 6.41712,0 30.20898,61.39575 38.0512,53.55354 7.84221,-7.84222 29.14058,-46.96182 15.50234,-60.60006 -2.32523,-2.32523 0,6.57675 0,9.86513 0,8.00808 0.0801,19.24584 2.81861,26.77677 9.8593,27.11308 17.51051,59.75379 21.13955,88.78612 1.31929,10.55433 -0.0939,21.89162 1.40931,32.41399 3.19805,22.3864 11.89332,66.92967 -22.54886,62.00936 -13.4935,-1.92765 -20.97781,-11.4448 -29.59538,-21.13956 -40.062385,-45.07019 30.29805,-97.94066 43.68842,-138.11175 6.00447,-18.01343 12.68373,-32.5936 12.68373,-52.14424 0,-4.36709 1.39506,9.81528 4.22791,19.73026 4.46914,15.64201 5.44691,40.48919 12.68373,54.96284 6.10246,12.20491 22.26024,-29.05193 22.54886,-28.18608 14.95189,44.85569 10.38942,9.34083 22.54886,-2.8186 3.29752,-3.29753 10.43486,13.80816 15.50234,11.27443 9.19147,-4.59574 4.7521,-20.77864 8.45582,-28.18608 0.67318,-1.34637 11.65291,16.53316 12.68373,15.50234 3.38754,-3.38754 2.81861,-9.30232 2.81861,-14.09303"
         style="fill:none;stroke:#0000ff;stroke-width:4.09959077999999980px;stroke-linecap:butt;stroke-linejoin:miter;stroke-opacity:1" />
      <path
         sodipodi:nodetypes="cc"
         inkscape:connector-curvature="0"
         id="path3001"
         d="m 195.8932,604.20364 c 11.93122,-29.13817 80.48983,-75.47751 109.92568,-90.19543"
         style="fill:none;stroke:#0000ff;stroke-width:4.09959077999999980px;stroke-linecap:butt;stroke-linejoin:miter;stroke-opacity:1" />
      <path
         sodipodi:nodetypes="cc"
         inkscape:connector-curvature="0"
         id="path3003"
         d="m 208.57693,601.38503 c 22.52116,-27.48106 57.54073,-49.90992 90.19543,-66.23727"
         style="fill:none;stroke:#0000ff;stroke-width:4.09959077999999980px;stroke-linecap:butt;stroke-linejoin:miter;stroke-opacity:1" />
    </g>
  </g>
</svg>
