<?xml version="1.0" encoding="UTF-8" standalone="no"?>
<!-- Created with Inkscape (http://www.inkscape.org/) -->

<svg
   xmlns:dc="http://purl.org/dc/elements/1.1/"
   xmlns:cc="http://creativecommons.org/ns#"
   xmlns:rdf="http://www.w3.org/1999/02/22-rdf-syntax-ns#"
   xmlns:svg="http://www.w3.org/2000/svg"
   xmlns="http://www.w3.org/2000/svg"
   xmlns:sodipodi="http://sodipodi.sourceforge.net/DTD/sodipodi-0.dtd"
   xmlns:inkscape="http://www.inkscape.org/namespaces/inkscape"
   width="210mm"
   height="297mm"
   id="svg6490"
   version="1.1"
   inkscape:version="0.48.2 r9819"
   sodipodi:docname="New document 3">
  <defs
     id="defs3" />
  <sodipodi:namedview
     inkscape:document-units="mm"
     id="base"
     pagecolor="#ffffff"
     bordercolor="#666666"
     borderopacity="1.0"
     inkscape:pageopacity="0.0"
     inkscape:pageshadow="2"
     inkscape:zoom="0.50174198"
     inkscape:cx="231.93352"
     inkscape:cy="558.56799"
     inkscape:current-layer="layer1"
     showgrid="false"
     inkscape:window-width="1366"
     inkscape:window-height="707"
     inkscape:window-x="-9"
     inkscape:window-y="-9"
     inkscape:window-maximized="1" />
  <metadata
     id="metadata4">
    <rdf:RDF>
      <cc:Work
         rdf:about="">
        <dc:format>image/svg+xml</dc:format>
        <dc:type
           rdf:resource="http://purl.org/dc/dcmitype/StillImage" />
        <dc:title></dc:title>
      </cc:Work>
    </rdf:RDF>
  </metadata>
  <g
     inkscape:label="Layer 1"
     inkscape:groupmode="layer"
     id="layer1">
    <g
       id="g6557"
       transform="matrix(0.70710678,-0.70710678,0.70710678,0.70710678,-212.15977,404.19856)">
      <g
         class="com.sun.star.drawing.PolyPolygonShape"
         id="g5104"
         transform="matrix(0.17710337,0,0,0.17716536,-371.30114,-420.18707)">
        <g
           id="id59">
          <path
             d="m 2841,4958 1413,0 0,1411 -1413,-1411 z"
             id="path5107"
             inkscape:connector-curvature="0"
             style="fill:#000000;stroke:none" />
          <path
             d="m 2841,4958 1413,0 0,1411 -1413,-1411 z"
             id="path5109"
             inkscape:connector-curvature="0"
             style="fill:none;stroke:#ffffff;stroke-width:7.00122452;stroke-linecap:round;stroke-linejoin:round" />
        </g>
      </g>
      <g
         class="com.sun.star.drawing.PolyPolygonShape"
         id="g5111"
         transform="matrix(0.17710337,0,0,0.17716536,-371.30114,-420.18707)">
        <g
           id="id60">
          <path
             d="m 2841,4958 1413,-1411 0,1411 -1413,0 z"
             id="path5114"
             inkscape:connector-curvature="0"
             style="fill:#000000;stroke:none" />
          <path
             d="m 2841,4958 1413,-1411 0,1411 -1413,0 z"
             id="path5116"
             inkscape:connector-curvature="0"
             style="fill:none;stroke:#ffffff;stroke-width:7.00122452;stroke-linecap:round;stroke-linejoin:round" />
        </g>
      </g>
      <g
         class="com.sun.star.drawing.PolyPolygonShape"
         id="g5118"
         transform="matrix(0.17710337,0,0,0.17716536,-371.30114,-420.18707)">
        <g
           id="id61">
          <path
             d="m 4252,3547 0,706 706,0 -706,-706 z"
             id="path5121"
             inkscape:connector-curvature="0"
             style="fill:#000000;stroke:none" />
          <path
             d="m 4252,3547 0,706 706,0 -706,-706 z"
             id="path5123"
             inkscape:connector-curvature="0"
             style="fill:none;stroke:#ffffff;stroke-width:7.00122452;stroke-linecap:round;stroke-linejoin:round" />
        </g>
      </g>
      <g
         class="com.sun.star.drawing.PolyPolygonShape"
         id="g5125"
         transform="matrix(0.17710337,0,0,0.17716536,-371.30114,-420.18707)">
        <g
           id="id62">
          <path
             d="m 4252,5664 0,-706 706,0 -706,706 z"
             id="path5128"
             inkscape:connector-curvature="0"
             style="fill:#000000;stroke:none" />
          <path
             d="m 4252,5664 0,-706 706,0 -706,706 z"
             id="path5130"
             inkscape:connector-curvature="0"
             style="fill:none;stroke:#ffffff;stroke-width:7.00122452;stroke-linecap:round;stroke-linejoin:round" />
        </g>
      </g>
      <g
         class="com.sun.star.drawing.PolyPolygonShape"
         id="g5132"
         transform="matrix(0.17710337,0,0,0.17716536,-371.30114,-420.18707)">
        <g
           id="id63">
          <path
             d="m 4958,5664 0,-1411 706,706 -706,705 z"
             id="path5135"
             inkscape:connector-curvature="0"
             style="fill:#000000;stroke:none" />
          <path
             d="m 4958,5664 0,-1411 706,706 -706,705 z"
             id="path5137"
             inkscape:connector-curvature="0"
             style="fill:none;stroke:#ffffff;stroke-width:7.00122452;stroke-linecap:round;stroke-linejoin:round" />
        </g>
      </g>
      <g
         class="com.sun.star.drawing.PolyPolygonShape"
         id="g5139"
         transform="matrix(0.17710337,0,0,0.17716536,-371.30114,-420.18707)">
        <g
           id="id64">
          <path
             d="m 4252,4959 0,-706 706,0 0,706 -706,0 z"
             id="path5142"
             inkscape:connector-curvature="0"
             style="fill:#000000;stroke:none" />
          <path
             d="m 4252,4959 0,-706 706,0 0,706 -706,0 z"
             id="path5144"
             inkscape:connector-curvature="0"
             style="fill:none;stroke:#ffffff;stroke-width:7.00122452;stroke-linecap:round;stroke-linejoin:round" />
        </g>
      </g>
      <g
         class="com.sun.star.drawing.PolyPolygonShape"
         id="g5146"
         transform="matrix(0.17710337,0,0,0.17716536,-371.30114,-420.18707)">
        <g
           id="id65">
          <path
             d="m 4252,6369 0,-705 706,-706 0,706 -706,705 z"
             id="path5149"
             inkscape:connector-curvature="0"
             style="fill:#000000;stroke:none" />
          <path
             d="m 4252,6369 0,-705 706,-706 0,706 -706,705 z"
             id="path5151"
             inkscape:connector-curvature="0"
             style="fill:none;stroke:#ffffff;stroke-width:7.00122452;stroke-linecap:round;stroke-linejoin:round" />
        </g>
      </g>
    </g>
  </g>
</svg>
