<?xml version="1.0" encoding="UTF-8" standalone="no"?>
<!-- Created with Inkscape (http://www.inkscape.org/) -->

<svg
   xmlns:dc="http://purl.org/dc/elements/1.1/"
   xmlns:cc="http://creativecommons.org/ns#"
   xmlns:rdf="http://www.w3.org/1999/02/22-rdf-syntax-ns#"
   xmlns:svg="http://www.w3.org/2000/svg"
   xmlns="http://www.w3.org/2000/svg"
   xmlns:sodipodi="http://sodipodi.sourceforge.net/DTD/sodipodi-0.dtd"
   xmlns:inkscape="http://www.inkscape.org/namespaces/inkscape"
   width="744.09448819"
   height="1052.3622047"
   id="svg4817"
   version="1.1"
   inkscape:version="0.48.2 r9819"
   sodipodi:docname="WedgeTopology.svg">
  <defs
     id="defs4819" />
  <sodipodi:namedview
     id="base"
     pagecolor="#ffffff"
     bordercolor="#666666"
     borderopacity="1.0"
     inkscape:pageopacity="0.0"
     inkscape:pageshadow="2"
     inkscape:zoom="1.003484"
     inkscape:cx="180.87199"
     inkscape:cy="492.00684"
     inkscape:document-units="px"
     inkscape:current-layer="layer1"
     showgrid="true"
     inkscape:window-width="1366"
     inkscape:window-height="707"
     inkscape:window-x="-9"
     inkscape:window-y="-9"
     inkscape:window-maximized="1">
    <inkscape:grid
       type="xygrid"
       id="grid4825" />
  </sodipodi:namedview>
  <metadata
     id="metadata4822">
    <rdf:RDF>
      <cc:Work
         rdf:about="">
        <dc:format>image/svg+xml</dc:format>
        <dc:type
           rdf:resource="http://purl.org/dc/dcmitype/StillImage" />
        <dc:title></dc:title>
      </cc:Work>
    </rdf:RDF>
  </metadata>
  <g
     inkscape:label="Layer 1"
     inkscape:groupmode="layer"
     id="layer1">
    <path
       style="fill:none;stroke:#000000;stroke-width:1px;stroke-linecap:butt;stroke-linejoin:miter;stroke-opacity:1"
       d="m 140,512.36218 220,-20 0,40 z"
       id="path4827"
       inkscape:connector-curvature="0" />
    <path
       style="fill:none;stroke:#000000;stroke-width:1px;stroke-linecap:butt;stroke-linejoin:miter;stroke-opacity:1"
       d="m 360,492.36218 60,-40 0,40 -60,40"
       id="path4829"
       inkscape:connector-curvature="0" />
    <path
       style="fill:none;stroke:#000000;stroke-width:1px;stroke-linecap:butt;stroke-linejoin:miter;stroke-opacity:1"
       d="m 140,512.36218 60,-40 220,-20"
       id="path4831"
       inkscape:connector-curvature="0" />
    <path
       style="fill:#00c8ff;fill-opacity:1;fill-rule:evenodd;stroke:none;stroke-width:3.99999976000000010;stroke-linecap:round;stroke-linejoin:round;stroke-miterlimit:4;stroke-opacity:1;stroke-dasharray:none;stroke-dashoffset:0"
       d="m 151.55491,511.33059 c -2.51913,-0.31262 -4.58023,-1.06151 -4.58023,-1.66419 0,-0.60268 12.0468,-9.12402 26.77068,-18.93631 19.71608,-13.13919 27.90834,-17.84052 31.08785,-17.84052 2.37445,0 3.99986,-0.51341 3.61204,-1.14092 -0.38782,-0.62751 3.15127,-0.86198 7.86465,-0.52104 5.14769,0.37234 8.24289,0.091 7.75117,-0.70466 -0.49172,-0.79562 2.60348,-1.077 7.75117,-0.70465 5.14769,0.37235 8.24289,0.091 7.75117,-0.70465 -0.49172,-0.79562 2.60348,-1.077 7.75117,-0.70465 5.14768,0.37235 8.24289,0.091 7.75117,-0.70465 -0.49172,-0.79562 2.60348,-1.07701 7.75117,-0.70466 5.14768,0.37235 8.24289,0.091 7.75117,-0.70465 -0.49172,-0.79562 2.60348,-1.077 7.75117,-0.70465 5.14768,0.37235 8.24288,0.091 7.75117,-0.70465 -0.49172,-0.79562 2.60348,-1.077 7.75116,-0.70465 5.14769,0.37235 8.24289,0.091 7.75117,-0.70465 -0.49171,-0.79562 2.60349,-1.07701 7.75117,-0.70466 5.14769,0.37235 8.24289,0.091 7.75117,-0.70465 -0.49171,-0.79562 2.60349,-1.077 7.75117,-0.70465 5.14769,0.37235 8.24289,0.091 7.75117,-0.70465 -0.49171,-0.79562 2.60349,-1.077 7.75117,-0.70465 5.14769,0.37235 8.24289,0.091 7.75117,-0.70466 -0.49171,-0.79562 2.60349,-1.077 7.75117,-0.70465 5.14769,0.37235 8.24289,0.091 7.75117,-0.70465 -0.49171,-0.79562 2.60349,-1.077 7.75117,-0.70465 5.14769,0.37235 8.24289,0.091 7.75117,-0.70465 -0.49171,-0.79562 2.60349,-1.077 7.75117,-0.70465 5.14769,0.37235 8.24289,0.091 7.75117,-0.70466 -0.49171,-0.79562 2.60349,-1.077 7.75117,-0.70465 6.78379,0.4907 8.33376,0.238 7.43729,-1.21253 -0.82436,-1.33383 -0.46304,-1.57552 1.32791,-0.88826 1.35323,0.51928 3.20128,0.95825 4.10678,0.97549 0.9055,0.0172 0.0609,1.34064 -1.87689,2.9409 -1.93779,1.60026 -2.57198,2.43576 -1.40931,1.85667 1.22367,-0.60947 1.62693,-0.52016 0.95751,0.21206 -0.63604,0.69572 -2.22151,1.27304 -3.52326,1.28292 -1.30174,0.01 -2.19255,0.85785 -1.97956,1.88436 0.21297,1.02651 -0.26155,1.46541 -1.05451,0.97533 -1.87607,-1.15947 -7.38866,2.69224 -6.01797,4.20483 0.57641,0.63609 0.34871,0.75807 -0.50599,0.27107 -0.8547,-0.487 -2.75726,0.0925 -4.22791,1.28786 -1.47065,1.19533 -1.78318,1.71121 -0.69452,1.14641 1.26951,-0.65863 1.63238,-0.46547 1.01183,0.53859 -0.53213,0.86103 -1.83435,1.23288 -2.89379,0.82633 -1.05946,-0.40655 -2.40551,0.0362 -2.99123,0.98395 -0.72586,1.17447 -0.47756,1.3601 0.77985,0.58298 1.19481,-0.73844 1.50391,-0.58857 0.87726,0.42535 -0.53214,0.86103 -1.83435,1.23287 -2.89379,0.82632 -1.05946,-0.40654 -2.40551,0.0362 -2.99123,0.98396 -0.72586,1.17447 -0.47756,1.3601 0.77985,0.58298 1.19481,-0.73844 1.50391,-0.58857 0.87726,0.42535 -0.53214,0.86103 -1.83435,1.23287 -2.89379,0.82632 -1.05946,-0.40655 -2.40551,0.0362 -2.99123,0.98395 -0.72587,1.17448 -0.47756,1.3601 0.77985,0.58298 1.22987,-0.7601 1.50487,-0.59013 0.82502,0.50989 -0.56088,0.90753 -1.58793,1.29891 -2.28234,0.86974 -1.15559,-0.71419 -12.63572,5.96057 -12.63572,7.34664 0,0.33031 0.73218,0.14804 1.62706,-0.40502 0.98524,-0.60892 1.2454,-0.38805 0.65951,0.55993 -0.53214,0.86102 -1.83435,1.23287 -2.89379,0.82632 -1.05946,-0.40655 -2.40552,0.0362 -2.99124,0.98395 -0.72586,1.17448 -0.47755,1.3601 0.77986,0.58298 1.22987,-0.7601 1.50486,-0.59014 0.82502,0.50989 -0.56088,0.90753 -1.55292,1.32055 -2.20454,0.91783 -1.56614,-0.96793 -5.82396,0.70143 -5.03695,1.97483 0.33762,0.54629 -3.24254,0.71431 -7.95591,0.37337 -5.14769,-0.37235 -8.24289,-0.091 -7.75117,0.70465 0.49171,0.79563 -2.60349,1.07701 -7.75117,0.70466 -5.14769,-0.37235 -8.24289,-0.091 -7.75117,0.70465 0.49171,0.79562 -2.60349,1.077 -7.75117,0.70465 -5.14769,-0.37235 -8.24289,-0.091 -7.75117,0.70465 0.49171,0.79562 -2.60349,1.077 -7.75117,0.70465 -5.14769,-0.37235 -8.24289,-0.091 -7.75117,0.70465 0.49171,0.79563 -2.60349,1.07701 -7.75117,0.70466 -5.14769,-0.37235 -8.24289,-0.091 -7.75117,0.70465 0.49172,0.79562 -2.60349,1.077 -7.75117,0.70465 -5.14769,-0.37235 -8.24289,-0.091 -7.75117,0.70465 0.49172,0.79562 -2.60349,1.077 -7.75117,0.70465 -5.14769,-0.37235 -8.24289,-0.091 -7.75117,0.70466 0.49172,0.79562 -2.60349,1.077 -7.75117,0.70465 -5.14769,-0.37235 -8.24289,-0.091 -7.75117,0.70465 0.49172,0.79562 -2.60349,1.077 -7.75117,0.70465 -5.14769,-0.37235 -8.24289,-0.091 -7.75117,0.70465 0.49172,0.79562 -2.60349,1.07701 -7.75117,0.70465 -5.14769,-0.37234 -8.24289,-0.091 -7.75117,0.70466 0.49172,0.79562 -2.60349,1.077 -7.75117,0.70465 -5.14769,-0.37235 -8.24289,-0.091 -7.75117,0.70465 0.49172,0.79562 -2.60348,1.077 -7.75117,0.70465 -5.14769,-0.37235 -8.24289,-0.091 -7.75117,0.70465 0.49172,0.79562 -2.60348,1.07701 -7.75117,0.70466 -6.14225,-0.44429 -8.29091,-0.16867 -7.5853,0.97303 0.54146,0.8761 0.4714,1.49142 -0.15568,1.36737 -0.62708,-0.12405 -3.20126,-0.48132 -5.72039,-0.79394 z"
       id="path4833"
       inkscape:connector-curvature="0" />
    <path
       style="fill:#64ffff;fill-opacity:1;fill-rule:evenodd;stroke:none;stroke-width:4;stroke-linecap:round;stroke-linejoin:round;stroke-miterlimit:4;stroke-opacity:1;stroke-dasharray:none;stroke-dashoffset:0"
       d="m 255.7924,522.41386 c -65.66263,-6.03901 -93.71218,-8.9668 -93.99357,-9.81096 -0.22059,-0.66178 0.63977,-1.42217 1.91191,-1.68976 2.49899,-0.52565 191.50878,-17.58807 194.39378,-17.54844 1.59885,0.022 1.74392,1.59906 1.74392,18.95799 l 0,18.93404 -5.23177,-0.11757 c -2.87748,-0.0647 -47.34839,-3.99104 -98.82427,-8.7253 l 0,0 z"
       id="path5351"
       inkscape:connector-curvature="0" />
    <path
       style="fill:#64ffff;fill-opacity:1;fill-rule:evenodd;stroke:none"
       d="m 361.07258,511.15719 0.27065,-19.10301 2.64921,-1.57495 c 1.45706,-0.86622 6.73852,-4.37769 11.73657,-7.80325 4.99805,-3.42557 9.34685,-6.2283 9.66399,-6.2283 0.31715,0 2.27522,-1.34531 4.35129,-2.98959 2.07606,-1.64427 4.2333,-2.98958 4.79387,-2.98958 0.56056,0 1.16869,-0.3483 1.35138,-0.77399 0.1827,-0.4257 5.48921,-4.23408 11.79225,-8.46307 l 11.46008,-7.68908 0.27151,19.17275 c 0.24613,17.38051 0.1064,19.29605 -1.49479,20.49175 -0.97147,0.72544 -1.67178,1.68302 -1.55626,2.12794 0.11553,0.44493 -0.55712,0.7496 -1.49479,0.67706 -0.93766,-0.0725 -1.61032,0.3759 -1.49479,0.99653 0.11553,0.62063 -0.55713,1.06907 -1.49479,0.99653 -0.93767,-0.0725 -1.61032,0.37589 -1.49479,0.99652 0.11553,0.62064 -0.55713,1.06907 -1.4948,0.99653 -0.93766,-0.0725 -1.61032,0.3759 -1.49479,0.99653 0.11553,0.62063 -0.55713,1.06907 -1.49479,0.99653 -0.93767,-0.0725 -1.61032,0.3759 -1.49479,0.99653 0.11553,0.62063 -0.55713,1.06907 -1.4948,0.99653 -0.93766,-0.0725 -1.61032,0.37589 -1.49479,0.99652 0.11553,0.62064 -0.55712,1.06907 -1.49479,0.99653 -0.93766,-0.0725 -1.61032,0.3759 -1.49479,0.99653 0.11553,0.62063 -0.55713,1.06907 -1.49479,0.99653 -0.93767,-0.0725 -1.61033,0.37589 -1.4948,0.99653 0.11553,0.62063 -0.55712,1.06907 -1.49479,0.99652 -0.93766,-0.0725 -1.61032,0.3759 -1.49479,0.99653 0.11553,0.62063 -0.55713,1.06907 -1.49479,0.99653 -0.93767,-0.0725 -1.61032,0.3759 -1.4948,0.99653 0.11553,0.62063 -0.55712,1.06907 -1.49479,0.99653 -0.93766,-0.0725 -1.61032,0.37589 -1.49479,0.99653 0.11553,0.62063 -0.55713,1.06906 -1.49479,0.99652 -0.93767,-0.0725 -1.61032,0.3759 -1.49479,0.99653 0.11553,0.62063 -0.55713,1.06907 -1.4948,0.99653 -0.93766,-0.0725 -1.61032,0.3759 -1.49479,0.99653 0.11553,0.62063 -0.55713,1.06907 -1.49479,0.99653 -0.93767,-0.0725 -1.61032,0.37589 -1.49479,0.99652 0.11553,0.62064 -0.55713,1.06907 -1.4948,0.99653 -0.93766,-0.0725 -1.61032,0.3759 -1.49479,0.99653 0.11553,0.62063 -0.55712,1.06907 -1.49479,0.99653 -0.93766,-0.0725 -1.58162,0.46198 -1.43102,1.18784 0.15139,0.72967 -0.20849,1.02165 -0.80492,0.65303 -0.5933,-0.36668 -2.83699,0.49686 -4.98596,1.91899 -2.14898,1.42212 -4.15075,2.58568 -4.44838,2.58568 -0.29763,0 -0.41935,-8.59636 -0.2705,-19.10301 z"
       id="path5353"
       inkscape:connector-curvature="0" />
  </g>
</svg>
