<?xml version="1.0" encoding="UTF-8" standalone="no"?>
<!-- Created with Inkscape (http://www.inkscape.org/) -->

<svg
   xmlns:dc="http://purl.org/dc/elements/1.1/"
   xmlns:cc="http://creativecommons.org/ns#"
   xmlns:rdf="http://www.w3.org/1999/02/22-rdf-syntax-ns#"
   xmlns:svg="http://www.w3.org/2000/svg"
   xmlns="http://www.w3.org/2000/svg"
   xmlns:sodipodi="http://sodipodi.sourceforge.net/DTD/sodipodi-0.dtd"
   xmlns:inkscape="http://www.inkscape.org/namespaces/inkscape"
   width="744.09448819"
   height="1052.3622047"
   id="svg2"
   version="1.1"
   inkscape:version="0.48.2 r9819"
   sodipodi:docname="YogeshLogoMids.svg">
  <defs
     id="defs4" />
  <sodipodi:namedview
     id="base"
     pagecolor="#ffffff"
     bordercolor="#666666"
     borderopacity="1.0"
     inkscape:pageopacity="0.0"
     inkscape:pageshadow="2"
     inkscape:zoom="1.7071832"
     inkscape:cx="277.1202"
     inkscape:cy="651.80934"
     inkscape:document-units="px"
     inkscape:current-layer="layer1"
     showgrid="true"
     inkscape:snap-global="true"
     inkscape:snap-grids="false"
     inkscape:snap-to-guides="false"
     inkscape:window-width="1366"
     inkscape:window-height="716"
     inkscape:window-x="-8"
     inkscape:window-y="-8"
     inkscape:window-maximized="1">
    <inkscape:grid
       type="xygrid"
       id="grid2985" />
  </sodipodi:namedview>
  <metadata
     id="metadata7">
    <rdf:RDF>
      <cc:Work
         rdf:about="">
        <dc:format>image/svg+xml</dc:format>
        <dc:type
           rdf:resource="http://purl.org/dc/dcmitype/StillImage" />
        <dc:title />
      </cc:Work>
    </rdf:RDF>
  </metadata>
  <g
     inkscape:label="Layer 1"
     inkscape:groupmode="layer"
     id="layer1">
    <path
       style="font-size:42.00379562px;font-style:normal;font-variant:normal;font-weight:bold;font-stretch:normal;line-height:125%;letter-spacing:0px;word-spacing:0px;fill:none;stroke:#000000;stroke-width:2;stroke-miterlimit:4;stroke-opacity:1;stroke-dasharray:none;font-family:Sans;-inkscape-font-specification:Sans Bold"
       d="m 86.103285,323.0392 0,55.625 c -1.7e-5,10.19739 1.908737,18.23856 5.78125,24.125 3.872468,5.88647 10.347345,10.36141 19.406255,13.46875 9.05882,3.10735 20.72344,4.6875 34.96875,4.6875 14.66006,0 26.50685,-1.80811 35.53125,-5.375 1.37037,-0.54165 2.66424,-1.0969 3.90625,-1.6875 l 0,65.875 20,0 0.1875,0 0,-73.875 79.28125,0 0,73.875 1.25,0 18.96875,0 1.75,0 0,-54.28125 25.65625,-25.03125 55.75,79.3125 27.34375,0 -68.59375,-93.21875 65.71875,-63.5 -28.09375,0 -77.78125,77.71875 0,-77.71875 -1.75,0 -18.96875,0 -1.25,0 0,64.375 -79.28125,0 0,-64.375 -0.1875,0 -20,0 -0.125,0 0,55.5625 c 0,8.69518 -3.14481,14.55771 -9.4375,17.6136 -6.2929,3.05592 -16.85788,4.58899 -31.65625,4.58898 -8.64403,10e-6 -15.95594,-0.77327 -21.9375,-2.31698 -5.98167,-1.5437 -10.20141,-3.7399 -12.65625,-6.59104 -2.45492,-2.85111 -3.68754,-4.93532 -3.6875,-13.29456 l 0,-55.5625 z"
       id="text2987"
       inkscape:connector-curvature="0"
       sodipodi:nodetypes="csssssccccccccccccccccccccccccccccsssscscc" />
    <g
       id="g3828">
      <path
         sodipodi:nodetypes="ccccccccc"
         inkscape:connector-curvature="0"
         id="path2984"
         d="m 96.507442,322.96473 -0.414195,60.05828 3.313561,11.59746 8.491002,9.52649 15.53231,6.42002 20.08846,1.65678 25.47299,-2.07097 17.41091,-6.74844 8.3905,-6.13324"
         style="fill:none;stroke:#ff0000;stroke-width:1px;stroke-linecap:butt;stroke-linejoin:miter;stroke-opacity:1" />
      <path
         inkscape:connector-curvature="0"
         id="path3754"
         d="m 194.67166,324.10377 0.82839,154.59829"
         style="fill:none;stroke:#ff0000;stroke-width:1px;stroke-linecap:butt;stroke-linejoin:miter;stroke-opacity:1" />
      <path
         inkscape:connector-curvature="0"
         id="path3754-1"
         d="m 296.04589,323.94842 0.82839,155.32313"
         style="fill:none;stroke:#ff0000;stroke-width:0.99999994px;stroke-linecap:butt;stroke-linejoin:miter;stroke-opacity:1" />
      <path
         inkscape:connector-curvature="0"
         id="path3754-1-7"
         d="M 399.21219,323.65625 297.04968,423.33683"
         style="fill:none;stroke:#ff0000;stroke-width:0.99999994px;stroke-linecap:butt;stroke-linejoin:miter;stroke-opacity:1" />
      <path
         inkscape:connector-curvature="0"
         id="path3754-1-4"
         d="m 296.18067,396.37775 -101.17628,0.82839"
         style="fill:none;stroke:#ff0000;stroke-width:0.99999988px;stroke-linecap:butt;stroke-linejoin:miter;stroke-opacity:1" />
      <path
         inkscape:connector-curvature="0"
         id="path3754-1-0"
         d="M 336.06305,385.74028 400.40913,479.687"
         style="fill:none;stroke:#ff0000;stroke-width:0.99999994px;stroke-linecap:butt;stroke-linejoin:miter;stroke-opacity:1" />
    </g>
  </g>
</svg>
