<?xml version="1.0" encoding="UTF-8" standalone="no"?>
<!-- Created with Inkscape (http://www.inkscape.org/) -->

<svg
   xmlns:dc="http://purl.org/dc/elements/1.1/"
   xmlns:cc="http://creativecommons.org/ns#"
   xmlns:rdf="http://www.w3.org/1999/02/22-rdf-syntax-ns#"
   xmlns:svg="http://www.w3.org/2000/svg"
   xmlns="http://www.w3.org/2000/svg"
   xmlns:sodipodi="http://sodipodi.sourceforge.net/DTD/sodipodi-0.dtd"
   xmlns:inkscape="http://www.inkscape.org/namespaces/inkscape"
   width="744.09448819"
   height="1052.3622047"
   id="svg2"
   version="1.1"
   inkscape:version="0.48.2 r9819"
   sodipodi:docname="YogeshLogo1Letter.svg">
  <defs
     id="defs4" />
  <sodipodi:namedview
     id="base"
     pagecolor="#ffffff"
     bordercolor="#666666"
     borderopacity="1.0"
     inkscape:pageopacity="0.0"
     inkscape:pageshadow="2"
     inkscape:zoom="6.3917937"
     inkscape:cx="209.03131"
     inkscape:cy="640.98739"
     inkscape:document-units="px"
     inkscape:current-layer="layer1"
     showgrid="true"
     inkscape:snap-global="true"
     inkscape:snap-grids="false"
     inkscape:snap-to-guides="false"
     inkscape:window-width="1366"
     inkscape:window-height="716"
     inkscape:window-x="-8"
     inkscape:window-y="-8"
     inkscape:window-maximized="1">
    <inkscape:grid
       type="xygrid"
       id="grid2985" />
  </sodipodi:namedview>
  <metadata
     id="metadata7">
    <rdf:RDF>
      <cc:Work
         rdf:about="">
        <dc:format>image/svg+xml</dc:format>
        <dc:type
           rdf:resource="http://purl.org/dc/dcmitype/StillImage" />
        <dc:title></dc:title>
      </cc:Work>
    </rdf:RDF>
  </metadata>
  <g
     inkscape:label="Layer 1"
     inkscape:groupmode="layer"
     id="layer1">
    <path
       style="font-size:72px;font-style:normal;font-variant:normal;font-weight:normal;font-stretch:normal;line-height:125%;letter-spacing:0px;word-spacing:0px;fill:none;fill-opacity:1;stroke:#000000;font-family:ItalicT;-inkscape-font-specification:ItalicT;stroke-opacity:1"
       d="M 158.6875 387.5 L 158.6875 411.15625 C 158.68754 414.81247 159.15238 417.60934 160.03125 419.53125 C 160.91019 421.45309 162.36722 422.94137 164.40625 424.03125 C 166.44534 425.12106 168.82815 425.68746 171.59375 425.6875 C 176.09377 425.68746 179.82814 423.98434 182.78125 420.5625 L 182.78125 439.03125 L 183.0625 439.03125 L 189.125 439.03125 L 189.40625 439.03125 L 189.40625 418.625 C 189.40624 415.69534 189.76561 413.38284 190.46875 411.71875 C 191.17186 410.05472 192.34764 408.75394 194 407.78125 C 195.65233 406.80863 197.40623 406.31253 199.28125 406.3125 C 201.78904 406.31253 203.72263 407.02738 205.09375 408.46875 C 206.46482 409.91019 207.15622 412.21096 207.15625 415.375 L 207.15625 439.03125 L 213.5 439.03125 L 213.5 415.375 C 213.49996 411.71878 213.03512 408.92191 212.15625 407 C 211.27731 405.07816 209.82028 403.58988 207.78125 402.5 C 205.74216 401.41019 203.35935 400.87504 200.59375 400.875 C 200.34959 400.875 200.1146 400.89617 199.875 400.90625 L 209.875 387.5 L 201.59375 387.5 L 189.40625 404.625 L 189.40625 387.5 L 189.125 387.5 L 183.0625 387.5 L 182.78125 387.5 L 182.78125 407.9375 C 182.78126 410.86716 182.42189 413.14841 181.71875 414.8125 C 181.01564 416.47653 179.83986 417.80856 178.1875 418.78125 C 176.53517 419.75387 174.78127 420.21872 172.90625 420.21875 C 170.39846 420.21872 168.46487 419.50387 167.09375 418.0625 C 165.72268 416.62106 165.03128 414.32029 165.03125 411.15625 L 165.03125 387.5 L 158.6875 387.5 z "
       id="text2988" />
  </g>
</svg>
