<?xml version="1.0" encoding="UTF-8" standalone="no"?>
<!-- Created with Inkscape (http://www.inkscape.org/) -->

<svg
   xmlns:dc="http://purl.org/dc/elements/1.1/"
   xmlns:cc="http://creativecommons.org/ns#"
   xmlns:rdf="http://www.w3.org/1999/02/22-rdf-syntax-ns#"
   xmlns:svg="http://www.w3.org/2000/svg"
   xmlns="http://www.w3.org/2000/svg"
   xmlns:sodipodi="http://sodipodi.sourceforge.net/DTD/sodipodi-0.dtd"
   xmlns:inkscape="http://www.inkscape.org/namespaces/inkscape"
   width="744.09448819"
   height="1052.3622047"
   id="svg2"
   version="1.1"
   inkscape:version="0.48.2 r9819"
   sodipodi:docname="yogesh_logo_personal.svg">
  <defs
     id="defs4" />
  <sodipodi:namedview
     id="base"
     pagecolor="#ffffff"
     bordercolor="#666666"
     borderopacity="1.0"
     inkscape:pageopacity="0.0"
     inkscape:pageshadow="2"
     inkscape:zoom="4.5905223"
     inkscape:cx="167.09659"
     inkscape:cy="637.30773"
     inkscape:document-units="px"
     inkscape:current-layer="g3795"
     showgrid="true"
     inkscape:snap-global="true"
     inkscape:snap-grids="false"
     inkscape:snap-to-guides="false"
     inkscape:window-width="1366"
     inkscape:window-height="707"
     inkscape:window-x="-9"
     inkscape:window-y="-9"
     inkscape:window-maximized="1">
    <inkscape:grid
       type="xygrid"
       id="grid2985"
       empspacing="5"
       visible="true"
       enabled="true"
       snapvisiblegridlinesonly="true" />
  </sodipodi:namedview>
  <metadata
     id="metadata7">
    <rdf:RDF>
      <cc:Work
         rdf:about="">
        <dc:format>image/svg+xml</dc:format>
        <dc:type
           rdf:resource="http://purl.org/dc/dcmitype/StillImage" />
        <dc:title />
      </cc:Work>
    </rdf:RDF>
  </metadata>
  <g
     inkscape:label="Layer 1"
     inkscape:groupmode="layer"
     id="layer1">
    <g
       id="g3795">
      <path
         id="text2988"
         d="m 170.69558,388.67152 0,23.65625 c 4e-5,3.65622 0.46488,6.45309 1.34375,8.375 0.87894,1.92184 2.33597,3.41012 4.375,4.5 2.03909,1.08981 4.4219,1.65621 7.1875,1.65625 4.50002,-4e-5 8.23439,-1.70316 11.1875,-5.125 l 0,18.46875 0.28125,0 6.0625,0 0.28125,0 0,-20.40625 c -1e-5,-2.92966 0.35936,-5.24216 1.0625,-6.90625 0.70311,-1.66403 1.87889,-2.96481 3.53125,-3.9375 1.65233,-0.97262 3.40623,-1.46872 5.28125,-1.46875 2.50779,3e-5 4.44138,0.71488 5.8125,2.15625 1.37107,1.44144 2.06247,3.74221 2.0625,6.90625 l 0,23.65625 6.34375,0 0,-23.65625 c -4e-5,-3.65622 -0.46488,-6.45309 -1.34375,-8.375 -0.87894,-1.92184 -2.33597,-3.41012 -4.375,-4.5 -2.03909,-1.08981 -4.4219,-1.62496 -7.1875,-1.625 -0.24416,0 -0.47915,0.0212 -0.71875,0.0312 l 10,-13.40625 -8.28125,0 -12.1875,17.125 0,-17.125 -0.28125,0 -6.0625,0 -0.28125,0 0,20.4375 c 1e-5,2.92966 -0.35936,5.21091 -1.0625,6.875 -0.70311,1.66403 -1.87889,2.99606 -3.53125,3.96875 -1.65233,0.97262 -3.40623,1.43747 -5.28125,1.4375 -2.50779,-3e-5 -4.44138,-0.71488 -5.8125,-2.15625 -1.37107,-1.44144 -2.06247,-3.74221 -2.0625,-6.90625 l 0,-23.65625 -6.34375,0 z"
         style="font-size:72px;font-style:normal;font-variant:normal;font-weight:normal;font-stretch:normal;line-height:125%;letter-spacing:0px;word-spacing:0px;fill:#743d8b;stroke:#2a003c;stroke-opacity:1;font-family:ItalicT;-inkscape-font-specification:ItalicT;fill-opacity:1;stroke-width:1;stroke-miterlimit:4;stroke-dasharray:none;opacity:1"
         inkscape:connector-curvature="0" />
      <path
         inkscape:connector-curvature="0"
         id="path3914"
         d="m 173.778,388.77507 0.159,27.22241 2.06699,5.00642 4.13395,2.81611 5.24696,0.3129 5.56496,-1.72096 4.92895,-3.75481 5.88295,-8.44833 3.97497,-4.53707 5.72395,-1.09515 7.63194,1.8774 3.02097,5.63222 0.47699,6.41448 0,21.27728"
         style="fill:none;stroke:#da9df3;stroke-width:0.5;stroke-linecap:butt;stroke-linejoin:miter;stroke-miterlimit:2;stroke-opacity:1;stroke-dasharray:1,0.5,0.25,0.5;stroke-dashoffset:1.2;fill-opacity:1;marker-start:none" />
      <path
         inkscape:connector-curvature="0"
         id="path3916"
         d="m 198.34075,389.24443 0,50.68999"
         style="fill:none;stroke:#da9df3;stroke-width:0.5;stroke-linecap:butt;stroke-linejoin:miter;stroke-miterlimit:4;stroke-opacity:1;stroke-dasharray:1,0.5,0.25,0.5;stroke-dashoffset:0;fill-opacity:1" />
      <path
         inkscape:connector-curvature="0"
         id="path3918"
         d="M 205.06813,406.29756 217.42774,389.088"
         style="fill:none;stroke:#da9df3;stroke-width:0.5;stroke-linecap:butt;stroke-linejoin:miter;stroke-miterlimit:4;stroke-opacity:1;stroke-dasharray:1,0.5,0.25,0.5;stroke-dashoffset:0;fill-opacity:1" />
    </g>
  </g>
</svg>
