<?xml version="1.0" encoding="UTF-8" standalone="no"?>
<!-- Created with Inkscape (http://www.inkscape.org/) -->

<svg
   xmlns:osb="http://www.openswatchbook.org/uri/2009/osb"
   xmlns:dc="http://purl.org/dc/elements/1.1/"
   xmlns:cc="http://creativecommons.org/ns#"
   xmlns:rdf="http://www.w3.org/1999/02/22-rdf-syntax-ns#"
   xmlns:svg="http://www.w3.org/2000/svg"
   xmlns="http://www.w3.org/2000/svg"
   xmlns:sodipodi="http://sodipodi.sourceforge.net/DTD/sodipodi-0.dtd"
   xmlns:inkscape="http://www.inkscape.org/namespaces/inkscape"
   width="744.09448819"
   height="1052.3622047"
   id="svg2"
   version="1.1"
   inkscape:version="0.48.2 r9819"
   sodipodi:docname="drawing.svg">
  <defs
     id="defs4">
    <linearGradient
       id="linearGradient5967"
       osb:paint="solid">
      <stop
         style="stop-color:#000000;stop-opacity:1;"
         offset="0"
         id="stop5969" />
    </linearGradient>
    <inkscape:perspective
       sodipodi:type="inkscape:persp3d"
       inkscape:vp_x="-339.43861 : 123.45429 : 0"
       inkscape:vp_y="0 : 703.86946 : 0"
       inkscape:vp_z="339.43861 : 123.45429 : 0"
       inkscape:persp3d-origin="332.43709 : 360.6045 : 1"
       id="perspective5876" />
    <linearGradient
       id="linearGradient3864"
       osb:paint="solid">
      <stop
         style="stop-color:#000000;stop-opacity:1;"
         offset="0"
         id="stop3866" />
    </linearGradient>
    <inkscape:perspective
       sodipodi:type="inkscape:persp3d"
       inkscape:vp_x="5.1549324 : -249.69931 : 0"
       inkscape:vp_y="-1131.8566 : -145.49918 : 0"
       inkscape:vp_z="-402.19597 : 198.66003 : 0"
       inkscape:persp3d-origin="660.30026 : 516.37406 : 1"
       id="perspective5876-8" />
  </defs>
  <sodipodi:namedview
     id="base"
     pagecolor="#ffffff"
     bordercolor="#666666"
     borderopacity="1.0"
     inkscape:pageopacity="0.0"
     inkscape:pageshadow="2"
     inkscape:zoom="0.98994949"
     inkscape:cx="254.73851"
     inkscape:cy="333.88956"
     inkscape:document-units="px"
     inkscape:current-layer="layer1"
     showgrid="false"
     inkscape:window-width="1920"
     inkscape:window-height="1028"
     inkscape:window-x="-8"
     inkscape:window-y="-8"
     inkscape:window-maximized="1"
     inkscape:snap-nodes="true" />
  <metadata
     id="metadata7">
    <rdf:RDF>
      <cc:Work
         rdf:about="">
        <dc:format>image/svg+xml</dc:format>
        <dc:type
           rdf:resource="http://purl.org/dc/dcmitype/StillImage" />
        <dc:title></dc:title>
      </cc:Work>
    </rdf:RDF>
  </metadata>
  <g
     inkscape:label="Layer 1"
     inkscape:groupmode="layer"
     id="layer1">
    <text
       xml:space="preserve"
       style="font-size:20px;font-style:normal;font-weight:normal;line-height:125%;letter-spacing:0px;word-spacing:0px;fill:#000000;fill-opacity:1;stroke:none;font-family:Sans"
       x="47.113121"
       y="96.910423"
       id="text2985"
       sodipodi:linespacing="125%"><tspan
         sodipodi:role="line"
         id="tspan2987"
         x="47.113121"
         y="96.910423">Description</tspan></text>
    <text
       xml:space="preserve"
       style="font-size:20px;font-style:normal;font-weight:normal;line-height:125%;letter-spacing:0px;word-spacing:0px;fill:#000000;fill-opacity:1;stroke:none;font-family:Sans"
       x="317.82739"
       y="99.767563"
       id="text2989"
       sodipodi:linespacing="125%"><tspan
         sodipodi:role="line"
         id="tspan2991"
         x="317.82739"
         y="99.767563">Shape</tspan></text>
    <text
       xml:space="preserve"
       style="font-size:16px;font-style:normal;font-weight:normal;line-height:125%;letter-spacing:0px;word-spacing:0px;fill:#000000;fill-opacity:1;stroke:none;font-family:Sans"
       x="534.97028"
       y="101.91042"
       id="text2993"
       sodipodi:linespacing="125%"><tspan
         sodipodi:role="line"
         id="tspan2995"
         x="534.97028"
         y="101.91042"
         style="font-size:20px">Midsurface</tspan></text>
    <text
       xml:space="preserve"
       style="font-size:14px;font-style:normal;font-weight:normal;line-height:125%;letter-spacing:0px;word-spacing:0px;fill:#000000;fill-opacity:1;stroke:none;font-family:Sans"
       x="50.562"
       y="189.92856"
       id="text2997"
       sodipodi:linespacing="125%"><tspan
         sodipodi:role="line"
         id="tspan2999"
         x="50.562"
         y="189.92856">Sketch - Open Profile</tspan></text>
    <text
       xml:space="preserve"
       style="font-size:14px;font-style:normal;font-weight:normal;line-height:125%;letter-spacing:0px;word-spacing:0px;fill:#000000;fill-opacity:1;stroke:none;font-family:Sans"
       x="48.973125"
       y="219.35135"
       id="text2997-1"
       sodipodi:linespacing="125%"><tspan
         sodipodi:role="line"
         id="tspan2999-7"
         x="48.973125"
         y="219.35135">Sketch - Closed Profile - full</tspan></text>
    <text
       xml:space="preserve"
       style="font-size:14px;font-style:normal;font-weight:normal;line-height:125%;letter-spacing:0px;word-spacing:0px;fill:#000000;fill-opacity:1;stroke:none;font-family:Sans"
       x="49.68742"
       y="250.06563"
       id="text2997-4"
       sodipodi:linespacing="125%"><tspan
         sodipodi:role="line"
         id="tspan2999-0"
         x="49.68742"
         y="250.06563">Sketch - Closed Profile - Thin</tspan></text>
    <path
       style="fill:none;stroke:#000000;stroke-width:1px;stroke-linecap:butt;stroke-linejoin:miter;stroke-opacity:1"
       d="m 314.13342,180.64285 c 1.19048,-0.4762 2.47197,-0.7689 3.57143,-1.42858 0.20417,-0.1225 -0.16836,-0.54592 0,-0.71428 0.16836,-0.16836 0.50133,0.10648 0.71429,0 0.30117,-0.15059 0.41311,-0.5637 0.71428,-0.71429 0.21296,-0.10648 0.54593,0.16836 0.71429,0 0.16836,-0.16836 -0.16836,-0.54592 0,-0.71428 0.16836,-0.16836 0.50132,0.10648 0.71428,0 0.30117,-0.15059 0.41312,-0.5637 0.71429,-0.71429 0.42592,-0.21296 1.00265,0.21296 1.42857,0 0.60234,-0.30117 0.82623,-1.1274 1.42857,-1.42857 0.63888,-0.31944 1.50398,0.31944 2.14286,0 0.21296,-0.10648 -0.16836,-0.54593 0,-0.71429 0.14602,-0.14602 1.85965,0.14161 2.14286,0 0.30117,-0.15058 0.41311,-0.5637 0.71428,-0.71428 0.42592,-0.21296 1.09186,0.33672 1.42857,0 0.16836,-0.16836 -0.16836,-0.54593 0,-0.71429 0.16836,-0.16836 0.47619,0 0.71429,0 0.23809,0 0.47619,0 0.71428,0 3.09524,0 6.19048,0 9.28572,0 1.42857,0 2.85714,0 4.28571,0 0.2381,0 0.47619,0 0.71429,0 0.23809,0 0.50133,-0.10648 0.71428,0 0.30117,0.15059 0.41312,0.5637 0.71429,0.71429 0.42592,0.21296 1.09185,-0.33672 1.42857,0 0.16836,0.16836 -0.16836,0.54592 0,0.71428 0.33672,0.33672 1.00266,-0.21296 1.42857,0 0.60234,0.30117 0.82624,1.12741 1.42857,1.42858 0.21296,0.10647 0.54593,-0.16836 0.71429,0 0.16836,0.16835 -0.16836,0.54592 0,0.71428 0.33672,0.33672 1.09185,-0.33672 1.42857,0 0.16836,0.16836 -0.10648,0.50133 0,0.71429 0.15059,0.30117 0.47619,0.47619 0.71429,0.71428 0.23809,0.2381 0.41311,0.5637 0.71428,0.71429 0.42592,0.21296 1.09186,-0.33672 1.42857,0 0.16836,0.16836 -0.16835,0.54592 0,0.71428 0.16836,0.16836 0.50133,-0.10648 0.71429,0 0.60234,0.30117 0.82623,1.12741 1.42857,1.42858 0.42592,0.21295 1.00266,-0.21296 1.42857,0 2.36899,2.36898 -0.67343,-0.33672 1.42857,0.71428 0.60234,0.30117 0.82624,1.1274 1.42858,1.42857 0.2832,0.14161 1.99683,-0.14602 2.14285,0 0.16836,0.16836 -0.16836,0.54593 0,0.71429 0.16836,0.16836 0.47619,0 0.71429,0 0.23809,0 0.47619,0 0.71428,0 0.17324,0 2.11989,-0.023 2.14286,0 0.16836,0.16836 -0.16836,0.54592 0,0.71428 0.14603,0.14603 1.85965,-0.1416 2.14286,0 0.30117,0.15059 0.41312,0.5637 0.71428,0.71429 0.1601,0.08 2.68741,0 2.85715,0 1.66666,0 3.33333,0 5,0 0.49681,0 3.31312,0.12915 3.57143,0 0.30117,-0.15059 0.41311,-0.5637 0.71428,-0.71429 0.42592,-0.21296 1.09186,0.33672 1.42857,0 0.16836,-0.16836 -0.16836,-0.54592 0,-0.71428 0.33672,-0.33672 1.00266,0.21296 1.42857,0 0.30117,-0.15059 0.41312,-0.5637 0.71429,-0.71429 0.21296,-0.10648 0.50133,0.10648 0.71429,0 0.30117,-0.15058 0.39484,-0.6078 0.71428,-0.71428 0.45176,-0.15059 1.00266,0.21296 1.42857,0 0.21296,-0.10648 -0.16836,-0.54593 0,-0.71429 0.37646,-0.37646 0.9235,-0.54593 1.42857,-0.71428 0.22588,-0.0753 0.54593,0.16835 0.71429,0 0.16836,-0.16836 -0.16836,-0.54593 0,-0.71429 0.35714,-0.35714 1.78571,0.35714 2.14286,0 0.16836,-0.16836 -0.16836,-0.54593 0,-0.71429 1.90476,0 -0.2381,0.2381 0.71428,-0.71428 0.16836,-0.16836 0.50133,0.10648 0.71429,0 0.30117,-0.15059 0.41312,-0.5637 0.71428,-0.71429 0.21296,-0.10648 0.54593,0.16836 0.71429,0 0.16836,-0.16836 -0.16836,-0.54592 0,-0.71428 0.16836,-0.16836 0.50133,0.10648 0.71429,0 0.60233,-0.30117 0.82623,-1.12741 1.42857,-1.42857 0.21296,-0.10648 0.54592,0.16835 0.71428,0 0.16836,-0.16836 -0.16836,-0.54593 0,-0.71429 0.70463,-0.70463 1.42857,1.46363 1.42857,-0.71429"
       id="path3033"
       inkscape:connector-curvature="0" />
    <path
       sodipodi:type="arc"
       style="fill:#ffe680;stroke:#000000;stroke-width:0.99921262;stroke-miterlimit:4;stroke-opacity:1;stroke-dasharray:none;stroke-dashoffset:0"
       id="path3035"
       sodipodi:cx="370.35715"
       sodipodi:cy="110.21932"
       sodipodi:rx="43.92857"
       sodipodi:ry="8.5714283"
       d="m 414.28572,110.21932 a 43.92857,8.5714283 0 1 1 -87.85714,0 43.92857,8.5714283 0 1 1 87.85714,0 z"
       transform="translate(-15.866574,100.42352)" />
    <path
       sodipodi:type="arc"
       style="fill:#ffe680;stroke:#000000;stroke-width:0.99921262;stroke-miterlimit:4;stroke-opacity:1;stroke-dasharray:none;stroke-dashoffset:0"
       id="path3043"
       sodipodi:cx="381.42856"
       sodipodi:cy="150.57646"
       sodipodi:rx="53.57143"
       sodipodi:ry="11.785714"
       d="m 434.99999,150.57646 a 53.57143,11.785714 0 1 1 -107.14286,0 53.57143,11.785714 0 1 1 107.14286,0 z"
       transform="translate(-24.438003,98.99495)" />
    <path
       sodipodi:type="arc"
       style="fill:#ffffff;stroke:#000000;stroke-width:0.99921262;stroke-miterlimit:4;stroke-opacity:1;stroke-dasharray:none;stroke-dashoffset:0"
       id="path3045"
       sodipodi:cx="383.21429"
       sodipodi:cy="150.57646"
       sodipodi:rx="25.357143"
       sodipodi:ry="3.9285715"
       d="m 408.57144,150.57646 a 25.357143,3.9285715 0 1 1 -50.71429,0 25.357143,3.9285715 0 1 1 50.71429,0 z"
       transform="translate(-24.438003,98.99495)" />
    <path
       transform="translate(193.41916,95.066384)"
       sodipodi:type="arc"
       style="fill:#ffe680;stroke:#000000;stroke-width:0.99900001;stroke-miterlimit:4;stroke-opacity:1;stroke-dasharray:none;stroke-dashoffset:0"
       id="path3043-7"
       sodipodi:cx="381.42856"
       sodipodi:cy="150.57646"
       sodipodi:rx="53.57143"
       sodipodi:ry="11.785714"
       d="m 434.99999,150.57646 a 53.57143,11.785714 0 1 1 -107.14286,0 53.57143,11.785714 0 1 1 107.14286,0 z" />
    <path
       sodipodi:type="arc"
       style="fill:#ffe680;fill-opacity:1;stroke:#000000;stroke-width:0.22499999;stroke-miterlimit:4;stroke-opacity:1;stroke-dasharray:none;stroke-dashoffset:0"
       id="path3086"
       sodipodi:cx="595.71429"
       sodipodi:cy="147.00504"
       sodipodi:rx="52.142857"
       sodipodi:ry="5.3571429"
       d="m 647.85715,147.00504 a 52.142857,5.3571429 0 1 1 -104.28571,0 52.142857,5.3571429 0 1 1 104.28571,0 z"
       transform="matrix(0.74149404,0,0,1.6179543,133.93559,7.7826657)" />
    <path
       transform="translate(193.41916,95.066384)"
       sodipodi:type="arc"
       style="fill:#ffffff;stroke:#000000;stroke-width:0.99921262;stroke-miterlimit:4;stroke-opacity:1;stroke-dasharray:none;stroke-dashoffset:0"
       id="path3045-1"
       sodipodi:cx="383.21429"
       sodipodi:cy="150.57646"
       sodipodi:rx="25.357143"
       sodipodi:ry="3.9285715"
       d="m 408.57144,150.57646 a 25.357143,3.9285715 0 1 1 -50.71429,0 25.357143,3.9285715 0 1 1 50.71429,0 z" />
    <text
       xml:space="preserve"
       style="font-size:14px;font-style:normal;font-weight:normal;line-height:125%;letter-spacing:0px;word-spacing:0px;fill:#000000;fill-opacity:1;stroke:none;font-family:Sans"
       x="52.299305"
       y="313.51074"
       id="text2997-4-9"
       sodipodi:linespacing="125%"><tspan
         sodipodi:role="line"
         id="tspan2999-0-4"
         x="52.299305"
         y="313.51074">Extrude - Open Profile </tspan></text>
    <text
       xml:space="preserve"
       style="font-size:14px;font-style:normal;font-weight:normal;line-height:125%;letter-spacing:0px;word-spacing:0px;fill:#000000;fill-opacity:1;stroke:none;font-family:Sans"
       x="52.134129"
       y="385.77994"
       id="text2997-4-9-6"
       sodipodi:linespacing="125%"><tspan
         sodipodi:role="line"
         id="tspan2999-0-4-0"
         x="52.134129"
         y="385.77994">Extrude - Closed Profile - full </tspan></text>
    <text
       xml:space="preserve"
       style="font-size:14px;font-style:normal;font-weight:normal;line-height:125%;letter-spacing:0px;word-spacing:0px;fill:#000000;fill-opacity:1;stroke:none;font-family:Sans"
       x="52.134121"
       y="472.92279"
       id="text2997-4-9-6-3"
       sodipodi:linespacing="125%"><tspan
         sodipodi:role="line"
         id="tspan2999-0-4-0-6"
         x="52.134121"
         y="472.92279">Extrude - Closed Profile  - thin</tspan></text>
    <path
       sodipodi:type="arc"
       style="fill:#ffe680;stroke:#000000;stroke-width:0.99921262;stroke-miterlimit:4;stroke-opacity:1;stroke-dasharray:none;stroke-dashoffset:0"
       id="path3035-8"
       sodipodi:cx="370.35715"
       sodipodi:cy="110.21932"
       sodipodi:rx="43.92857"
       sodipodi:ry="8.5714283"
       d="m 414.28572,110.21932 a 43.92857,8.5714283 0 1 1 -87.85714,0 43.92857,8.5714283 0 1 1 87.85714,0 z"
       transform="translate(-5.5094352,267.56638)" />
    <path
       sodipodi:type="arc"
       style="fill:#ffe680;stroke:#000000;stroke-width:0.99921262;stroke-miterlimit:4;stroke-opacity:1;stroke-dasharray:none;stroke-dashoffset:0"
       id="path3035-8-8"
       sodipodi:cx="370.35715"
       sodipodi:cy="110.21932"
       sodipodi:rx="43.92857"
       sodipodi:ry="8.5714283"
       d="m 414.28572,110.21932 a 43.92857,8.5714283 0 1 1 -87.85714,0 43.92857,8.5714283 0 1 1 87.85714,0 z"
       transform="translate(-5.2846357,297.35717)" />
    <path
       style="fill:none;stroke:#000000;stroke-width:1px;stroke-linecap:butt;stroke-linejoin:miter;stroke-opacity:1"
       d="m 320.97597,377.32774 0,30.55712"
       id="path5518"
       inkscape:connector-curvature="0" />
    <path
       style="fill:none;stroke:#000000;stroke-width:1px;stroke-linecap:butt;stroke-linejoin:miter;stroke-opacity:1"
       d="m 409.11178,377.70655 0,30.55712"
       id="path5518-1"
       inkscape:connector-curvature="0" />
    <path
       style="fill:#ffe680;fill-opacity:1;stroke:#000000;stroke-width:0.2522856;stroke-miterlimit:4;stroke-opacity:1;stroke-dasharray:none;stroke-dashoffset:0"
       d="m 321.64146,392.75508 c 0,-6.8059 0.0593,-12.37436 0.13169,-12.37436 0.0724,0 0.5554,0.27934 1.07329,0.62076 5.14414,3.39137 23.13306,5.93437 41.97905,5.93437 19.62614,0 37.61306,-2.66193 42.6521,-6.31219 l 1.03699,-0.75119 0,12.62849 c 0,6.94567 -0.0518,12.62849 -0.11505,12.62849 -0.0633,0 -0.52639,-0.27913 -1.02913,-0.6203 -3.7646,-2.55473 -14.98856,-4.76207 -29.03412,-5.70994 -9.20161,-0.62098 -25.20755,-0.31369 -34.21892,0.65694 -10.09684,1.08755 -18.3794,3.0495 -21.33171,5.053 -0.50274,0.34117 -0.96585,0.6203 -1.02913,0.6203 -0.0633,0 -0.11506,-5.56846 -0.11506,-12.37437 z"
       id="path5538"
       inkscape:connector-curvature="0" />
    <path
       sodipodi:type="arc"
       style="fill:#ffe680;stroke:#000000;stroke-width:0.99921262;stroke-miterlimit:4;stroke-opacity:1;stroke-dasharray:none;stroke-dashoffset:0"
       id="path3043-2"
       sodipodi:cx="381.42856"
       sodipodi:cy="150.57646"
       sodipodi:rx="53.57143"
       sodipodi:ry="11.785714"
       d="m 434.99999,150.57646 a 53.57143,11.785714 0 1 1 -107.14286,0 53.57143,11.785714 0 1 1 107.14286,0 z"
       transform="translate(-14.437989,298.63781)" />
    <path
       sodipodi:type="arc"
       style="fill:#ffffff;stroke:#000000;stroke-width:0.99921262;stroke-miterlimit:4;stroke-opacity:1;stroke-dasharray:none;stroke-dashoffset:0"
       id="path3045-14"
       sodipodi:cx="383.21429"
       sodipodi:cy="150.57646"
       sodipodi:rx="25.357143"
       sodipodi:ry="3.9285715"
       d="m 408.57144,150.57646 a 25.357143,3.9285715 0 1 1 -50.71429,0 25.357143,3.9285715 0 1 1 50.71429,0 z"
       transform="translate(-14.437989,298.63781)" />
    <path
       sodipodi:type="arc"
       style="fill:#ffe680;stroke:#000000;stroke-width:0.99921262;stroke-miterlimit:4;stroke-opacity:1;stroke-dasharray:none;stroke-dashoffset:0"
       id="path3043-2-9"
       sodipodi:cx="381.42856"
       sodipodi:cy="150.57646"
       sodipodi:rx="53.57143"
       sodipodi:ry="11.785714"
       d="m 434.99999,150.57646 a 53.57143,11.785714 0 1 1 -107.14286,0 53.57143,11.785714 0 1 1 107.14286,0 z"
       transform="translate(-14.355049,341.07282)" />
    <path
       sodipodi:type="arc"
       style="fill:#ffffff;stroke:#000000;stroke-width:0.99900001;stroke-miterlimit:4;stroke-opacity:1;stroke-dasharray:2.997, 2.997;stroke-dashoffset:0"
       id="path3045-14-8"
       sodipodi:cx="383.21429"
       sodipodi:cy="150.57646"
       sodipodi:rx="25.357143"
       sodipodi:ry="3.9285715"
       d="m 408.57144,150.57646 a 25.357143,3.9285715 0 1 1 -50.71429,0 25.357143,3.9285715 0 1 1 50.71429,0 z"
       transform="translate(-14.355049,341.07282)" />
    <path
       style="fill:none;stroke:#000000;stroke-width:1.01197612px;stroke-linecap:butt;stroke-linejoin:miter;stroke-opacity:1"
       d="m 313.41914,449.92856 0,42.42682"
       id="path5602"
       inkscape:connector-curvature="0" />
    <path
       style="fill:none;stroke:#000000;stroke-width:1.01197612px;stroke-linecap:butt;stroke-linejoin:miter;stroke-opacity:1"
       d="m 420.72853,449.04837 0,42.42682"
       id="path5602-4"
       inkscape:connector-curvature="0" />
    <path
       style="fill:#ffe680;fill-opacity:1;stroke:#000000;stroke-width:0.1261428;stroke-miterlimit:4;stroke-opacity:1;stroke-dasharray:none;stroke-dashoffset:0"
       d="m 314.03981,470.43287 0,-18.52643 0.60112,0.56227 c 3.63144,3.3968 14.66377,6.39689 29.13525,7.92294 12.69378,1.33859 28.43616,1.50942 41.54252,0.45079 17.13657,-1.38415 29.98878,-4.57397 34.16377,-8.47918 l 0.62336,-0.58308 0,18.5875 0,18.5875 -0.72605,-0.6262 c -4.53449,-3.91091 -17.52501,-7.04723 -34.56615,-8.34536 -6.80015,-0.51801 -8.67166,-0.5791 -17.74081,-0.5791 -9.06915,0 -10.94065,0.0611 -17.7408,0.5791 -17.18747,1.30928 -30.17802,4.474 -34.6986,8.45317 l -0.59361,0.52251 0,-18.52643 z"
       id="path5622"
       inkscape:connector-curvature="0" />
    <path
       style="fill:none;stroke:#000000;stroke-width:1.01197612;stroke-linecap:butt;stroke-linejoin:miter;stroke-miterlimit:4;stroke-opacity:1;stroke-dasharray:3.03592837, 3.03592837;stroke-dashoffset:0"
       d="m 394.21203,449.17464 0,42.42682"
       id="path5602-4-5"
       inkscape:connector-curvature="0" />
    <path
       style="fill:none;stroke:#000000;stroke-width:1.01197612;stroke-linecap:butt;stroke-linejoin:miter;stroke-miterlimit:4;stroke-opacity:1;stroke-dasharray:3.03592837, 3.03592837;stroke-dashoffset:0"
       d="m 343.95694,449.55344 0,42.42682"
       id="path5602-4-5-2"
       inkscape:connector-curvature="0" />
    <path
       sodipodi:type="arc"
       style="fill:#ffe680;stroke:#000000;stroke-width:0.99921262;stroke-miterlimit:4;stroke-opacity:1;stroke-dasharray:none;stroke-dashoffset:0"
       id="path3043-2-99"
       sodipodi:cx="381.42856"
       sodipodi:cy="150.57646"
       sodipodi:rx="53.57143"
       sodipodi:ry="11.785714"
       d="m 434.99999,150.57646 a 53.57143,11.785714 0 1 1 -107.14286,0 53.57143,11.785714 0 1 1 107.14286,0 z"
       transform="translate(213.46802,294.17467)" />
    <path
       sodipodi:type="arc"
       style="fill:#ffe680;stroke:#000000;stroke-width:0.99921262;stroke-miterlimit:4;stroke-opacity:1;stroke-dasharray:none;stroke-dashoffset:0"
       id="path3043-2-99-3"
       sodipodi:cx="381.42856"
       sodipodi:cy="150.57646"
       sodipodi:rx="53.57143"
       sodipodi:ry="11.785714"
       d="m 434.99999,150.57646 a 53.57143,11.785714 0 1 1 -107.14286,0 53.57143,11.785714 0 1 1 107.14286,0 z"
       transform="matrix(0.81164246,0,0,0.75010853,284.81678,331.80674)" />
    <path
       sodipodi:type="arc"
       style="fill:#ffffff;stroke:#000000;stroke-width:0.99921262;stroke-miterlimit:4;stroke-opacity:1;stroke-dasharray:none;stroke-dashoffset:0"
       id="path3045-14-83"
       sodipodi:cx="383.21429"
       sodipodi:cy="150.57646"
       sodipodi:rx="25.357143"
       sodipodi:ry="3.9285715"
       d="m 408.57144,150.57646 a 25.357143,3.9285715 0 1 1 -50.71429,0 25.357143,3.9285715 0 1 1 50.71429,0 z"
       transform="translate(213.46802,294.17467)" />
    <path
       sodipodi:type="arc"
       style="fill:#ffe680;stroke:#000000;stroke-width:0.99921262;stroke-miterlimit:4;stroke-opacity:1;stroke-dasharray:none;stroke-dashoffset:0"
       id="path3043-2-9-8"
       sodipodi:cx="381.42856"
       sodipodi:cy="150.57646"
       sodipodi:rx="53.57143"
       sodipodi:ry="11.785714"
       d="m 434.99999,150.57646 a 53.57143,11.785714 0 1 1 -107.14286,0 53.57143,11.785714 0 1 1 107.14286,0 z"
       transform="translate(213.55096,336.60968)" />
    <path
       sodipodi:type="arc"
       style="fill:#ffe680;stroke:#000000;stroke-width:0.99921262;stroke-miterlimit:4;stroke-opacity:1;stroke-dasharray:1.99842531, 1.99842531;stroke-dashoffset:0"
       id="path3043-2-99-3-8"
       sodipodi:cx="381.42856"
       sodipodi:cy="150.57646"
       sodipodi:rx="53.57143"
       sodipodi:ry="11.785714"
       d="m 434.99999,150.57646 a 53.57143,11.785714 0 1 1 -107.14286,0 53.57143,11.785714 0 1 1 107.14286,0 z"
       transform="matrix(0.81164246,0,0,0.75010853,285.3656,373.72807)" />
    <path
       sodipodi:type="arc"
       style="fill:#ffffff;stroke:#000000;stroke-width:0.99900001;stroke-miterlimit:4;stroke-opacity:1;stroke-dasharray:2.997, 2.997;stroke-dashoffset:0"
       id="path3045-14-8-6"
       sodipodi:cx="383.21429"
       sodipodi:cy="150.57646"
       sodipodi:rx="25.357143"
       sodipodi:ry="3.9285715"
       d="m 408.57144,150.57646 a 25.357143,3.9285715 0 1 1 -50.71429,0 25.357143,3.9285715 0 1 1 50.71429,0 z"
       transform="translate(213.55096,336.60968)" />
    <path
       style="fill:none;stroke:#000000;stroke-width:1.01197612px;stroke-linecap:butt;stroke-linejoin:miter;stroke-opacity:1"
       d="m 541.32516,445.46542 0,42.42682"
       id="path5602-9"
       inkscape:connector-curvature="0" />
    <path
       style="fill:none;stroke:#000000;stroke-width:1.01197612px;stroke-linecap:butt;stroke-linejoin:miter;stroke-opacity:1"
       d="m 648.63455,444.58523 0,42.42682"
       id="path5602-4-8"
       inkscape:connector-curvature="0" />
    <path
       style="fill:#ffe680;fill-opacity:1;stroke:#000000;stroke-width:0.1261428;stroke-miterlimit:4;stroke-opacity:1;stroke-dasharray:none;stroke-dashoffset:0"
       d="m 541.94583,465.96973 0,-18.52643 0.60112,0.56227 c 3.63144,3.3968 14.66377,6.39689 29.13525,7.92294 12.69378,1.33859 28.43616,1.50942 41.54252,0.45079 17.13657,-1.38415 29.98878,-4.57397 34.16377,-8.47918 l 0.62336,-0.58308 0,18.5875 0,18.5875 -0.72605,-0.6262 c -4.53449,-3.91091 -17.52501,-7.04723 -34.56615,-8.34536 -6.80015,-0.51801 -8.67166,-0.5791 -17.74081,-0.5791 -9.06915,0 -10.94065,0.0611 -17.7408,0.5791 -17.18747,1.30928 -30.17802,4.474 -34.6986,8.45317 l -0.59361,0.52251 0,-18.52643 z"
       id="path5622-6"
       inkscape:connector-curvature="0" />
    <path
       style="fill:none;stroke:#000000;stroke-width:1.01197612;stroke-linecap:butt;stroke-linejoin:miter;stroke-miterlimit:4;stroke-opacity:1;stroke-dasharray:3.03592837, 3.03592837;stroke-dashoffset:0"
       d="m 622.11805,444.7115 0,42.42682"
       id="path5602-4-5-6"
       inkscape:connector-curvature="0" />
    <path
       style="fill:none;stroke:#000000;stroke-width:1.01197612;stroke-linecap:butt;stroke-linejoin:miter;stroke-miterlimit:4;stroke-opacity:1;stroke-dasharray:3.03592837, 3.03592837;stroke-dashoffset:0"
       d="m 571.86296,445.0903 0,42.42682"
       id="path5602-4-5-2-2"
       inkscape:connector-curvature="0" />
    <path
       style="fill:none;stroke:#000000;stroke-width:1.01197612;stroke-linecap:butt;stroke-linejoin:miter;stroke-miterlimit:4;stroke-opacity:1;stroke-dasharray:2.02395225, 2.02395225;stroke-dashoffset:0"
       d="m 638.26847,444.78585 0,42.42682"
       id="path5602-4-5-6-2"
       inkscape:connector-curvature="0" />
    <path
       style="fill:none;stroke:#000000;stroke-width:1.01197612;stroke-linecap:butt;stroke-linejoin:miter;stroke-miterlimit:4;stroke-opacity:1;stroke-dasharray:2.02395225, 2.02395225;stroke-dashoffset:0"
       d="m 551.27628,444.25086 0,42.42682"
       id="path5602-4-5-6-2-6"
       inkscape:connector-curvature="0" />
    <path
       style="fill:none;stroke:#000000;stroke-width:1;stroke-linecap:butt;stroke-linejoin:miter;stroke-miterlimit:4;stroke-opacity:1;stroke-dasharray:none"
       d="m 566.69558,173.52947 28.28427,-1.01015"
       id="path5774"
       inkscape:connector-curvature="0" />
    <path
       style="fill:none;stroke:#000000;stroke-width:1;stroke-linecap:butt;stroke-linejoin:miter;stroke-miterlimit:4;stroke-opacity:1;stroke-dasharray:none"
       d="m 565.68543,207.36958 28.28427,-1.01015"
       id="path5774-2"
       inkscape:connector-curvature="0" />
    <path
       style="fill:none;stroke:#000000;stroke-width:1;stroke-linecap:butt;stroke-linejoin:miter;stroke-miterlimit:4;stroke-opacity:1;stroke-dasharray:none"
       d="m 558.61436,306.36453 28.28427,-1.01015"
       id="path5774-2-7"
       inkscape:connector-curvature="0" />
    <path
       style="fill:none;stroke:#000000;stroke-width:1;stroke-linecap:butt;stroke-linejoin:miter;stroke-miterlimit:4;stroke-opacity:1;stroke-dasharray:none"
       d="m 561.64482,376.06505 28.28427,-1.01015"
       id="path5774-2-7-5"
       inkscape:connector-curvature="0" />
    <rect
       style="fill:#ffe680;fill-opacity:1;stroke:#000000;stroke-width:1.02796054;stroke-miterlimit:4;stroke-opacity:1;stroke-dasharray:none;stroke-dashoffset:0"
       id="rect5830"
       width="122.1927"
       height="44.899975"
       x="131.72128"
       y="321.65213"
       transform="matrix(0.99633704,0.08551318,0.52268987,0.8525229,0,0)"
       inkscape:transform-center-y="6.431107"
       inkscape:transform-center-x="-3.8675754" />
    <text
       xml:space="preserve"
       style="font-size:14px;font-style:normal;font-weight:normal;line-height:125%;letter-spacing:0px;word-spacing:0px;fill:#000000;fill-opacity:1;stroke:none;font-family:Sans"
       x="43.878792"
       y="909.89063"
       id="text2997-4-9-6-3-7"
       sodipodi:linespacing="125%"><tspan
         sodipodi:role="line"
         id="tspan2999-0-4-0-6-8"
         x="43.878792"
         y="909.89063">Fillet/Chamfer only change thickness data but not midsurfce</tspan></text>
    <text
       xml:space="preserve"
       style="font-size:14px;font-style:normal;font-weight:normal;line-height:125%;letter-spacing:0px;word-spacing:0px;fill:#000000;fill-opacity:1;stroke:none;font-family:Sans"
       x="51.371128"
       y="602.42676"
       id="text2997-4-9-6-3-7-2"
       sodipodi:linespacing="125%"><tspan
         sodipodi:role="line"
         id="tspan2999-0-4-0-6-8-7"
         x="51.371128"
         y="602.42676">Boolean - Unit </tspan><tspan
         sodipodi:role="line"
         x="51.371128"
         y="619.9267"
         id="tspan5874">Midsurfaces unit as well</tspan></text>
    <g
       id="g6067"
       transform="translate(-15.152288,98.99495)">
      <path
         d="m 369.42692,536.85056 -1.16685,-56.52113 13.09652,-1.68355 1.16685,56.52114 z"
         style="fill:#e9e9ff;fill-opacity:1;fill-rule:evenodd;stroke:#000000;stroke-width:1.00390947;stroke-miterlimit:4;stroke-opacity:1;stroke-dasharray:none;stroke-dashoffset:0"
         id="path6013"
         inkscape:connector-curvature="0" />
      <path
         d="m 484.52632,593.70258 13.09652,-1.68355 -115.0994,-56.85201 -13.09652,1.68354 z"
         style="fill:#353564;fill-opacity:1;fill-rule:evenodd;stroke:#000000;stroke-width:1.00390947;stroke-miterlimit:4;stroke-opacity:1;stroke-dasharray:none;stroke-dashoffset:0"
         id="path6015"
         inkscape:connector-curvature="0" />
      <path
         d="m 497.62284,592.01903 -1.16685,-56.52114 -115.0994,-56.85201 1.16685,56.52114 z"
         style="fill:#afafde;fill-opacity:1;fill-rule:evenodd;stroke:#000000;stroke-width:1.00390947;stroke-miterlimit:4;stroke-opacity:1;stroke-dasharray:none;stroke-dashoffset:0"
         id="path6017"
         inkscape:connector-curvature="0" />
      <path
         d="m 484.52632,593.70258 -1.16685,-56.52114 -115.0994,-56.85201 1.16685,56.52113 z"
         style="fill:#4d4d9f;fill-opacity:1;fill-rule:evenodd;stroke:#000000;stroke-width:1.00390947;stroke-miterlimit:4;stroke-opacity:1;stroke-dasharray:none;stroke-dashoffset:0"
         id="path6019"
         inkscape:connector-curvature="0" />
      <path
         d="m 483.35947,537.18144 13.09652,-1.68355 -115.0994,-56.85201 -13.09652,1.68355 z"
         style="fill:#d7d7ff;fill-opacity:1;fill-rule:evenodd;stroke:#000000;stroke-width:1.00390947;stroke-miterlimit:4;stroke-opacity:1;stroke-dasharray:none;stroke-dashoffset:0"
         id="path6021"
         inkscape:connector-curvature="0" />
      <path
         d="m 484.52632,593.70258 -1.16685,-56.52114 13.09652,-1.68355 1.16685,56.52114 z"
         style="fill:#8686bf;fill-opacity:1;fill-rule:evenodd;stroke:#000000;stroke-width:1.00390947;stroke-miterlimit:4;stroke-opacity:1;stroke-dasharray:none;stroke-dashoffset:0"
         id="path6023"
         inkscape:connector-curvature="0" />
      <path
         d="m 404.83442,529.35214 58.48811,27.94472 0,8.14435 -58.48811,-27.94472 z"
         style="fill:#e9e9ff;fill-opacity:1;fill-rule:evenodd;stroke:#000000;stroke-width:0.80426234;stroke-miterlimit:4;stroke-opacity:1;stroke-dasharray:none;stroke-dashoffset:0"
         id="path5993"
         inkscape:connector-curvature="0" />
      <path
         d="m 330.88934,564.68197 0,8.14435 73.94508,-35.32983 0,-8.14435 z"
         style="fill:#353564;fill-opacity:1;fill-rule:evenodd;stroke:#000000;stroke-width:0.80426234;stroke-miterlimit:4;stroke-opacity:1;stroke-dasharray:none;stroke-dashoffset:0"
         id="path5995"
         inkscape:connector-curvature="0" />
      <path
         d="m 330.88934,572.82632 58.4881,27.94472 73.94509,-35.32983 -58.48811,-27.94472 z"
         style="fill:#afafde;fill-opacity:1;fill-rule:evenodd;stroke:#000000;stroke-width:0.80426234;stroke-miterlimit:4;stroke-opacity:1;stroke-dasharray:none;stroke-dashoffset:0"
         id="path5997"
         inkscape:connector-curvature="0" />
      <path
         d="m 330.88934,564.68197 58.4881,27.94471 73.94509,-35.32982 -58.48811,-27.94472 z"
         style="fill:#4d4d9f;fill-opacity:1;fill-rule:evenodd;stroke:#000000;stroke-width:0.80426234;stroke-miterlimit:4;stroke-opacity:1;stroke-dasharray:none;stroke-dashoffset:0"
         id="path5999"
         inkscape:connector-curvature="0" />
      <path
         d="m 389.37744,592.62668 0,8.14436 73.94509,-35.32983 0,-8.14435 z"
         style="fill:#d7d7ff;fill-opacity:1;fill-rule:evenodd;stroke:#000000;stroke-width:0.80426234;stroke-miterlimit:4;stroke-opacity:1;stroke-dasharray:none;stroke-dashoffset:0"
         id="path6001"
         inkscape:connector-curvature="0" />
      <path
         d="m 330.88934,564.68197 58.4881,27.94471 0,8.14436 -58.4881,-27.94472 z"
         style="fill:#8686bf;fill-opacity:1;fill-rule:evenodd;stroke:#000000;stroke-width:0.80426234;stroke-miterlimit:4;stroke-opacity:1;stroke-dasharray:none;stroke-dashoffset:0"
         id="path6003"
         inkscape:connector-curvature="0" />
    </g>
    <path
       inkscape:connector-curvature="0"
       id="path6019-8"
       style="fill:#4d4d9f;fill-opacity:1;fill-rule:evenodd;stroke:#000000;stroke-width:1.00390947;stroke-miterlimit:4;stroke-opacity:1;stroke-dasharray:none;stroke-dashoffset:0"
       d="m 671.29571,694.88622 -1.16685,-56.52114 -115.09939,-56.85201 1.16685,56.52113 z" />
    <path
       inkscape:connector-curvature="0"
       id="path5999-1"
       style="fill:#4d4d9f;fill-opacity:1;fill-rule:evenodd;stroke:#000000;stroke-width:0.80426234;stroke-miterlimit:4;stroke-opacity:1;stroke-dasharray:none;stroke-dashoffset:0"
       d="m 514.62112,661.0851 58.4881,27.94471 73.94509,-35.32982 -58.48811,-27.94472 z" />
    <text
       xml:space="preserve"
       style="font-size:13.18170929px;font-style:normal;font-weight:normal;line-height:125%;letter-spacing:0px;word-spacing:0px;fill:#000000;fill-opacity:1;stroke:none;font-family:Sans"
       x="47.684345"
       y="729.39014"
       id="text2997-4-9-6-3-7-2-1"
       sodipodi:linespacing="125%"
       transform="scale(0.96173183,1.0397909)"><tspan
         sodipodi:role="line"
         id="tspan2999-0-4-0-6-8-7-7"
         x="47.684345"
         y="729.39014"
         style="font-size:14px">Boolean - Subtract </tspan><tspan
         sodipodi:role="line"
         x="47.684345"
         y="746.89014"
         id="tspan5874-4"
         style="font-size:14px">Midsurface of Tool body is irrelevant</tspan><tspan
         sodipodi:role="line"
         x="47.684345"
         y="764.39014"
         id="tspan3089"
         style="font-size:14px">Whole Tool body is subracted from </tspan><tspan
         sodipodi:role="line"
         x="47.684345"
         y="781.89014"
         style="font-size:14px"
         id="tspan3163">Target's Midsurface</tspan></text>
    <path
       inkscape:connector-curvature="0"
       id="path3109"
       style="fill:#e9e9ff;fill-opacity:1;fill-rule:evenodd;stroke:none"
       d="m 380.32272,751.78788 82.27463,29.92339 0,12.50302 -82.27463,-29.9234 z" />
    <path
       inkscape:connector-curvature="0"
       id="path3111"
       style="fill:#353564;fill-opacity:1;fill-rule:evenodd;stroke:none"
       d="m 295.46307,782.65145 0,12.50302 84.85965,-30.86358 0,-12.50301 z" />
    <path
       inkscape:connector-curvature="0"
       id="path3113"
       style="fill:#afafde;fill-opacity:1;fill-rule:evenodd;stroke:none"
       d="m 295.46307,795.15447 82.27462,29.92339 84.85966,-30.86357 -82.27463,-29.9234 z" />
    <path
       inkscape:connector-curvature="0"
       id="path3115"
       style="fill:#4d4d9f;fill-opacity:1;fill-rule:evenodd;stroke:none"
       d="m 295.46307,782.65145 82.27462,29.9234 84.85966,-30.86358 -82.27463,-29.92339 z" />
    <path
       inkscape:connector-curvature="0"
       id="path3117"
       style="fill:#d7d7ff;fill-opacity:1;fill-rule:evenodd;stroke:none"
       d="m 377.73769,812.57485 0,12.50301 84.85966,-30.86357 0,-12.50302 z" />
    <path
       inkscape:connector-curvature="0"
       id="path3119"
       style="fill:#8686bf;fill-opacity:1;fill-rule:evenodd;stroke:none"
       d="m 295.46307,782.65145 82.27462,29.9234 0,12.50301 -82.27462,-29.92339 z" />
    <path
       sodipodi:type="arc"
       style="fill:#ffffff;fill-opacity:1;stroke:#000000;stroke-width:1;stroke-miterlimit:4;stroke-opacity:1;stroke-dasharray:none;stroke-dashoffset:0"
       id="path3105"
       sodipodi:cx="419.71838"
       sodipodi:cy="684.16156"
       sodipodi:rx="21.718279"
       sodipodi:ry="6.5659914"
       d="m 441.43666,684.16156 a 21.718279,6.5659914 0 1 1 -43.43656,0 21.718279,6.5659914 0 1 1 43.43656,0 z"
       transform="matrix(0.80220871,0,0,1,57.507752,95.964492)" />
    <path
       inkscape:connector-curvature="0"
       id="path3115-0"
       style="fill:#4d4d9f;fill-opacity:1;fill-rule:evenodd;stroke:none"
       d="m 523.53453,790.1926 82.27462,29.9234 84.85966,-30.86358 -82.27463,-29.92339 z" />
    <path
       sodipodi:type="arc"
       style="fill:#ffffff;fill-opacity:1;stroke:#000000;stroke-width:1;stroke-miterlimit:4;stroke-opacity:1;stroke-dasharray:none;stroke-dashoffset:0"
       id="path3105-9"
       sodipodi:cx="419.71838"
       sodipodi:cy="684.16156"
       sodipodi:rx="21.718279"
       sodipodi:ry="6.5659914"
       d="m 441.43666,684.16156 a 21.718279,6.5659914 0 1 1 -43.43656,0 21.718279,6.5659914 0 1 1 43.43656,0 z"
       transform="matrix(0.80220871,0,0,1,281.51161,100.5102)" />
    <text
       xml:space="preserve"
       style="font-size:14px;font-style:normal;font-weight:normal;line-height:125%;letter-spacing:0px;word-spacing:0px;fill:#000000;fill-opacity:1;stroke:none;font-family:Sans"
       x="40.316166"
       y="969.11206"
       id="text2997-4-9-6-3-7-4"
       sodipodi:linespacing="125%"><tspan
         sodipodi:role="line"
         id="tspan2999-0-4-0-6-8-8"
         x="40.316166"
         y="969.11206">If defeaturing criteria is set then such fillet, chamfer or small holes wont affect midsurface or its thickness data</tspan></text>
  </g>
</svg>
