<?xml version="1.0" encoding="UTF-8" standalone="no"?>
<!-- Created with Inkscape (http://www.inkscape.org/) -->

<svg
   xmlns:dc="http://purl.org/dc/elements/1.1/"
   xmlns:cc="http://creativecommons.org/ns#"
   xmlns:rdf="http://www.w3.org/1999/02/22-rdf-syntax-ns#"
   xmlns:svg="http://www.w3.org/2000/svg"
   xmlns="http://www.w3.org/2000/svg"
   xmlns:sodipodi="http://sodipodi.sourceforge.net/DTD/sodipodi-0.dtd"
   xmlns:inkscape="http://www.inkscape.org/namespaces/inkscape"
   width="64px"
   height="64px"
   id="svg10766"
   version="1.1"
   inkscape:version="0.48.2 r9819"
   sodipodi:docname="FeatureInteractionCells.svg">
  <defs
     id="defs10768">
    <marker
       inkscape:stockid="Arrow1Mstart"
       orient="auto"
       refY="0"
       refX="0"
       id="Arrow1Mstart"
       style="overflow:visible">
      <path
         inkscape:connector-curvature="0"
         id="path4364"
         d="M 0,0 5,-5 -12.5,0 5,5 0,0 z"
         style="fill-rule:evenodd;stroke:#000000;stroke-width:1pt;marker-start:none"
         transform="matrix(0.4,0,0,0.4,4,0)" />
    </marker>
    <marker
       inkscape:stockid="Arrow1Mstart"
       orient="auto"
       refY="0"
       refX="0"
       id="Arrow1Mstart-1"
       style="overflow:visible">
      <path
         inkscape:connector-curvature="0"
         id="path4364-2"
         d="M 0,0 5,-5 -12.5,0 5,5 0,0 z"
         style="fill-rule:evenodd;stroke:#000000;stroke-width:1pt;marker-start:none"
         transform="matrix(0.4,0,0,0.4,4,0)" />
    </marker>
    <marker
       inkscape:stockid="Arrow1Mstart"
       orient="auto"
       refY="0"
       refX="0"
       id="Arrow1Mstart-3"
       style="overflow:visible">
      <path
         inkscape:connector-curvature="0"
         id="path4364-4"
         d="M 0,0 5,-5 -12.5,0 5,5 0,0 z"
         style="fill-rule:evenodd;stroke:#000000;stroke-width:1pt;marker-start:none"
         transform="matrix(0.4,0,0,0.4,4,0)" />
    </marker>
    <marker
       inkscape:stockid="Arrow1Mstart"
       orient="auto"
       refY="0"
       refX="0"
       id="Arrow1Mstart-13"
       style="overflow:visible">
      <path
         inkscape:connector-curvature="0"
         id="path4364-8"
         d="M 0,0 5,-5 -12.5,0 5,5 0,0 z"
         style="fill-rule:evenodd;stroke:#000000;stroke-width:1pt;marker-start:none"
         transform="matrix(0.4,0,0,0.4,4,0)" />
    </marker>
    <marker
       inkscape:stockid="Arrow1Mstart"
       orient="auto"
       refY="0"
       refX="0"
       id="Arrow1Mstart-4"
       style="overflow:visible">
      <path
         inkscape:connector-curvature="0"
         id="path4364-27"
         d="M 0,0 5,-5 -12.5,0 5,5 0,0 z"
         style="fill-rule:evenodd;stroke:#000000;stroke-width:1pt;marker-start:none"
         transform="matrix(0.4,0,0,0.4,4,0)" />
    </marker>
    <marker
       inkscape:stockid="Arrow1Mstart"
       orient="auto"
       refY="0"
       refX="0"
       id="Arrow1Mstart-0"
       style="overflow:visible">
      <path
         inkscape:connector-curvature="0"
         id="path4364-24"
         d="M 0,0 5,-5 -12.5,0 5,5 0,0 z"
         style="fill-rule:evenodd;stroke:#000000;stroke-width:1pt;marker-start:none"
         transform="matrix(0.4,0,0,0.4,4,0)" />
    </marker>
    <marker
       inkscape:stockid="Arrow1Mstart"
       orient="auto"
       refY="0"
       refX="0"
       id="Arrow1Mstart-00"
       style="overflow:visible">
      <path
         inkscape:connector-curvature="0"
         id="path4364-6"
         d="M 0,0 5,-5 -12.5,0 5,5 0,0 z"
         style="fill-rule:evenodd;stroke:#000000;stroke-width:1pt;marker-start:none"
         transform="matrix(0.4,0,0,0.4,4,0)" />
    </marker>
    <marker
       inkscape:stockid="Arrow1Mstart"
       orient="auto"
       refY="0"
       refX="0"
       id="Arrow1Mstart-38"
       style="overflow:visible">
      <path
         inkscape:connector-curvature="0"
         id="path4364-9"
         d="M 0,0 5,-5 -12.5,0 5,5 0,0 z"
         style="fill-rule:evenodd;stroke:#000000;stroke-width:1pt;marker-start:none"
         transform="matrix(0.4,0,0,0.4,4,0)" />
    </marker>
  </defs>
  <sodipodi:namedview
     id="base"
     pagecolor="#ffffff"
     bordercolor="#666666"
     borderopacity="1.0"
     inkscape:pageopacity="0.0"
     inkscape:pageshadow="2"
     inkscape:zoom="5.807006"
     inkscape:cx="29.619928"
     inkscape:cy="28.181171"
     inkscape:current-layer="layer1"
     showgrid="true"
     inkscape:document-units="px"
     inkscape:grid-bbox="true"
     inkscape:snap-global="false"
     inkscape:window-width="1366"
     inkscape:window-height="707"
     inkscape:window-x="-9"
     inkscape:window-y="-9"
     inkscape:window-maximized="1">
    <inkscape:grid
       type="xygrid"
       id="grid10774" />
  </sodipodi:namedview>
  <metadata
     id="metadata10771">
    <rdf:RDF>
      <cc:Work
         rdf:about="">
        <dc:format>image/svg+xml</dc:format>
        <dc:type
           rdf:resource="http://purl.org/dc/dcmitype/StillImage" />
        <dc:title></dc:title>
      </cc:Work>
    </rdf:RDF>
  </metadata>
  <g
     id="layer1"
     inkscape:label="Layer 1"
     inkscape:groupmode="layer">
    <path
       style="fill:none;stroke:#000000;stroke-width:1px;stroke-linecap:butt;stroke-linejoin:miter;stroke-opacity:1"
       d="M 5,14 20,14 20,54 5,54 5,14"
       id="path10776"
       inkscape:connector-curvature="0" />
    <path
       style="fill:none;stroke:#000000;stroke-width:1px;stroke-linecap:butt;stroke-linejoin:miter;stroke-opacity:1"
       d="m 4.9407023,14.04364 0,15 50.0992167,0 0,-15 z"
       id="path10778"
       inkscape:connector-curvature="0" />
    <path
       style="fill:none;stroke:#000000;stroke-width:0.5;stroke-linecap:butt;stroke-linejoin:miter;stroke-miterlimit:4;stroke-opacity:1;stroke-dasharray:0.99999998, 0.49999999;stroke-dashoffset:0;marker-start:url(#Arrow1Mstart)"
       d="m 12.142643,20.394705 c 0,0 7.880025,-18.7835081 7.750139,-14.6864623 -0.129882,4.097047 0.552556,7.8524523 2.760629,3.9602578 2.20807,-3.8921933 3.508571,-3.2497495 3.508571,-3.2497495"
       id="path4353-5"
       inkscape:connector-curvature="0"
       sodipodi:nodetypes="cssc" />
    <path
       style="fill:none;stroke:#000000;stroke-width:0.5;stroke-linecap:butt;stroke-linejoin:miter;stroke-miterlimit:4;stroke-opacity:1;stroke-dasharray:1, 0.5;stroke-dashoffset:0;marker-start:url(#Arrow1Mstart)"
       d="m 37.975377,20.923314 c 0,0 6.398816,-19.1177333 6.26893,-15.5788003 -0.129882,3.538935 -1.476739,7.6705833 0.731334,4.3085957 2.208069,-3.3619873 3.50857,-2.8070591 3.50857,-2.8070591"
       id="path4353-5-3"
       inkscape:connector-curvature="0"
       sodipodi:nodetypes="cssc" />
    <text
       xml:space="preserve"
       style="font-size:10px;font-style:normal;font-variant:normal;font-weight:normal;font-stretch:normal;text-align:start;line-height:125%;letter-spacing:0px;word-spacing:0px;writing-mode:lr-tb;text-anchor:start;fill:#000000;fill-opacity:1;stroke:none;font-family:Arial;-inkscape-font-specification:Arial"
       x="27.268635"
       y="8.5749168"
       id="text11393"
       sodipodi:linespacing="125%"><tspan
         sodipodi:role="line"
         id="tspan11395"
         x="27.268635"
         y="8.5749168"
         style="font-size:6px">f''<tspan
   style="font-size:65%;baseline-shift:sub"
   id="tspan15126">1</tspan>f''<tspan
   style="font-size:65%;baseline-shift:sub"
   id="tspan15128">2</tspan></tspan></text>
    <text
       xml:space="preserve"
       style="font-size:10px;font-style:normal;font-variant:normal;font-weight:normal;font-stretch:normal;text-align:start;line-height:125%;letter-spacing:0px;word-spacing:0px;writing-mode:lr-tb;text-anchor:start;fill:#000000;fill-opacity:1;stroke:none;font-family:Arial;-inkscape-font-specification:Arial"
       x="49.210369"
       y="8.8285789"
       id="text11399"
       sodipodi:linespacing="125%"><tspan
         sodipodi:role="line"
         id="tspan11401"
         x="49.210369"
         y="8.8285789"
         style="font-size:6px">f'<tspan
   style="font-size:65.00091553%;baseline-shift:sub"
   id="tspan15048">2</tspan></tspan></text>
    <path
       style="fill:none;stroke:#000000;stroke-width:0.5;stroke-linecap:butt;stroke-linejoin:miter;stroke-miterlimit:4;stroke-opacity:1;stroke-dasharray:1, 0.5;stroke-dashoffset:0;marker-start:url(#Arrow1Mstart)"
       d="m 12.86721,38.183662 c 0,0 19.117732,6.398816 15.578799,6.26893 -3.538935,-0.129882 -7.670583,-1.476739 -4.308596,0.731334 3.361987,2.208069 2.807059,3.50857 2.807059,3.50857"
       id="path4353-5-3-8"
       inkscape:connector-curvature="0"
       sodipodi:nodetypes="cssc" />
    <text
       xml:space="preserve"
       style="font-size:10px;font-style:normal;font-variant:normal;font-weight:normal;font-stretch:normal;text-align:start;line-height:125%;letter-spacing:0px;word-spacing:0px;writing-mode:lr-tb;text-anchor:start;fill:#000000;fill-opacity:1;stroke:none;font-family:Arial;-inkscape-font-specification:Arial"
       x="30.073284"
       y="49.267185"
       id="text11393-6"
       sodipodi:linespacing="125%"><tspan
         sodipodi:role="line"
         id="tspan11395-5"
         x="30.073284"
         y="49.267185"
         style="font-size:6px">f'<tspan
   style="font-size:65%;baseline-shift:sub"
   id="tspan15124">1</tspan></tspan></text>
    <path
       style="fill:none;stroke:#c86400;stroke-width:1px;stroke-linecap:butt;stroke-linejoin:miter;stroke-opacity:1"
       d="m 19.985963,14.039506 0,15.099217"
       id="path15130"
       inkscape:connector-curvature="0" />
    <path
       style="fill:none;stroke:#c86400;stroke-width:1px;stroke-linecap:butt;stroke-linejoin:miter;stroke-opacity:1"
       d="m 19.848163,29.024341 -15.099217,0"
       id="path15130-9"
       inkscape:connector-curvature="0" />
    <path
       style="fill:none;stroke:#000000;stroke-width:0.5;stroke-linecap:butt;stroke-linejoin:miter;stroke-miterlimit:4;stroke-opacity:1;stroke-dasharray:1, 0.5;stroke-dashoffset:0;marker-start:url(#Arrow1Mstart)"
       d="m 20.538586,23.206213 c 0,0 19.239501,8.590638 15.700568,8.460752 -3.538935,-0.129882 -7.792351,-1.111436 -4.430364,1.096637 3.361987,2.208069 13.035561,2.534426 13.035561,2.534426"
       id="path4353-5-3-1"
       inkscape:connector-curvature="0"
       sodipodi:nodetypes="cssc" />
    <path
       style="fill:none;stroke:#000000;stroke-width:0.5;stroke-linecap:butt;stroke-linejoin:miter;stroke-miterlimit:4;stroke-opacity:1;stroke-dasharray:1, 0.5;stroke-dashoffset:0;marker-start:url(#Arrow1Mstart)"
       d="m 15.599422,29.869752 c 0,0 23.988448,8.590638 20.449515,8.460752 -3.538935,-0.129882 -12.541298,-1.111436 -9.179311,1.096637 3.361987,2.20807 18.028043,4.726249 18.028043,4.726249"
       id="path4353-5-3-1-3"
       inkscape:connector-curvature="0"
       sodipodi:nodetypes="cssc" />
    <text
       xml:space="preserve"
       style="font-size:6px;font-style:normal;font-variant:normal;font-weight:normal;font-stretch:normal;text-align:start;line-height:125%;letter-spacing:0px;word-spacing:0px;writing-mode:lr-tb;text-anchor:start;fill:#000000;fill-opacity:1;stroke:none;font-family:Arial;-inkscape-font-specification:Arial"
       x="46.88063"
       y="36.236923"
       id="text15742"
       sodipodi:linespacing="125%"><tspan
         sodipodi:role="line"
         id="tspan15744"
         x="46.88063"
         y="36.236923">o<tspan
   style="font-size:65%;baseline-shift:sub"
   id="tspan15746">1</tspan></tspan></text>
    <text
       xml:space="preserve"
       style="font-size:6px;font-style:normal;font-variant:normal;font-weight:normal;font-stretch:normal;text-align:start;line-height:125%;letter-spacing:0px;word-spacing:0px;writing-mode:lr-tb;text-anchor:start;fill:#000000;fill-opacity:1;stroke:none;font-family:Arial;-inkscape-font-specification:Arial"
       x="47.854774"
       y="44.273605"
       id="text15748"
       sodipodi:linespacing="125%"><tspan
         sodipodi:role="line"
         id="tspan15750"
         x="47.854774"
         y="44.273605">o<tspan
   style="font-size:65%;baseline-shift:sub"
   id="tspan15752">2</tspan></tspan></text>
    <path
       style="fill:#0000ff;fill-opacity:1;fill-rule:evenodd;stroke:none;stroke-width:1;stroke-linecap:butt;stroke-linejoin:round;stroke-miterlimit:4;stroke-opacity:1;stroke-dasharray:1, 1;stroke-dashoffset:0"
       d="m 5.5143372,21.533157 0,-6.974334 4.4389049,0 c 3.5341569,0 4.4344199,0.01097 4.4169029,0.05381 -0.0121,0.0296 -0.03447,0.08473 -0.04972,0.122519 -0.02103,0.05213 0.02207,0.08848 0.178637,0.15068 0.113494,0.04509 0.219895,0.08807 0.236446,0.09553 0.01655,0.0075 0.0723,-0.08457 0.123895,-0.204494 l 0.0938,-0.218046 2.276425,0 2.276425,0 0,6.974334 0,6.974334 -6.99586,0 -6.9958598,0 0,-6.974334 z m 7.6985188,-2.044944 c 0.757573,-0.947132 1.371474,-1.72816 1.364222,-1.735619 -0.0073,-0.0075 -0.276134,0.09343 -0.597518,0.224205 l -0.584335,0.237765 -0.237448,-0.108707 c -0.130596,-0.05979 -0.253915,-0.09853 -0.274043,-0.08609 -0.02013,0.01244 -0.150715,-0.258916 -0.290195,-0.603012 -0.183694,-0.453176 -0.262091,-0.603984 -0.284406,-0.547104 -0.01694,0.04319 -0.138907,1.008438 -0.271028,2.144996 -0.132121,1.136558 -0.24794,2.101479 -0.257376,2.144268 -0.0094,0.04279 -9.86e-4,0.07185 0.01878,0.06458 0.01977,-0.0073 0.655771,-0.788147 1.413345,-1.735279 z m 0.546474,-2.213922 c 0.108326,-0.244324 0.190847,-0.450335 0.183379,-0.457803 -0.02638,-0.02638 -0.433125,-0.193193 -0.44259,-0.181515 -0.02959,0.03651 -0.129024,0.248544 -0.259497,0.553375 l -0.14792,0.345593 0.22355,0.103572 c 0.122952,0.05696 0.228628,0.09849 0.234834,0.09229 0.0062,-0.0062 0.09992,-0.211186 0.208244,-0.455509 l 0,0 z m 0.599387,-1.3646 c 0.110148,-0.251511 0.194561,-0.462104 0.187583,-0.467983 -0.03804,-0.03206 -0.43719,-0.192897 -0.449115,-0.180971 -0.02433,0.02433 -0.404244,0.904505 -0.392599,0.909565 0.0061,0.0026 0.09823,0.04677 0.204783,0.09807 0.106552,0.0513 0.206185,0.09447 0.221405,0.09594 0.01522,0.0015 0.117795,-0.203111 0.227943,-0.454622 l 0,0 z"
       id="path16354"
       inkscape:connector-curvature="0" />
    <path
       style="fill:#00ffff;fill-opacity:1;fill-rule:evenodd;stroke:none"
       d="m 20.596345,26.130701 c 0,-2.726447 -0.103784,-2.627332 1.40103,-1.337998 0.533783,0.457349 1.014371,0.831544 1.067973,0.831544 0.0536,0 -0.0049,-0.243466 -0.13003,-0.541036 -0.313143,-0.744747 -0.188816,-1.051384 0.554542,-1.367706 l 0.636704,-0.270937 -1.549852,-0.213458 c -0.852419,-0.117401 -1.646718,-0.244482 -1.76511,-0.282402 -0.164321,-0.05263 -0.215257,-1.048187 -0.215257,-4.207288 l 0,-4.138343 9.627402,0 c 9.54262,0 9.626608,0.003 9.537337,0.344411 -0.1217,0.465381 0.405117,0.465381 0.552823,0 0.106967,-0.337021 0.260553,-0.344411 7.158145,-0.344411 l 7.048832,0 0,6.974334 0,6.974334 -11.013068,0 c -8.057444,0 -11.132033,-0.0542 -11.456355,-0.201976 -0.339084,-0.154497 -0.490767,-0.154497 -0.645264,0 -0.145754,0.145754 -1.678385,0.201976 -5.505914,0.201976 l -5.303938,0 0,-2.421044 z m 10.41311,1.913067 c 0.143172,-0.231658 -0.566653,-0.574134 -0.912197,-0.440116 -0.260393,0.100992 -0.255962,0.13517 0.04637,0.357672 0.386573,0.284499 0.721254,0.316367 0.865827,0.08244 l 0,0 z m -1.580639,-0.998823 c -0.377919,-0.282456 -0.738799,-0.274281 -0.738799,0.01674 0,0.3235 0.735582,0.642301 0.900867,0.390434 0.06927,-0.105552 -0.0037,-0.288779 -0.162068,-0.40717 z M 28.29625,26.719444 c 0.04809,-0.14427 -0.631907,-0.57858 -0.905879,-0.57858 -0.212567,0 -0.03987,0.521673 0.22336,0.674715 0.340574,0.19801 0.596486,0.161964 0.682519,-0.09614 z M 26.918604,26.03062 c 0.03205,-0.09615 -0.134697,-0.262744 -0.37055,-0.370206 -0.546607,-0.249051 -0.814829,0.07942 -0.345242,0.422793 0.343328,0.251047 0.62139,0.230619 0.715792,-0.05259 z m -1.576462,-0.848481 c -0.420652,-0.310468 -0.785064,-0.317302 -0.785064,-0.01472 0,0.314577 0.723281,0.639883 0.947132,0.425986 0.113342,-0.108302 0.05794,-0.24888 -0.162068,-0.411264 l 0,0 z m -1.380821,-0.691144 c -0.358562,-0.264619 -0.636605,-0.249731 -0.732931,0.03925 -0.08531,0.255935 0.685765,0.577302 0.898174,0.374339 0.113328,-0.108288 0.05683,-0.249695 -0.165243,-0.413585 z M 38.893957,20.07061 c 1.498235,-2.164231 1.468686,-2.10199 0.844735,-1.779332 -0.835326,0.431963 -1.184495,0.348723 -1.565632,-0.37324 l -0.340915,-0.645772 -0.0088,1.033235 c -0.0049,0.568279 -0.05824,1.55631 -0.118615,2.195624 -0.06038,0.639314 -0.06561,1.162389 -0.01162,1.162389 0.05399,0 0.594386,-0.716807 1.200882,-1.592904 l 4e-6,0 z m 0.414179,-2.920506 c -0.116425,-0.07206 -0.293167,0.06067 -0.430949,0.323636 -0.195984,0.374046 -0.196168,0.469402 -0.0012,0.592447 0.164441,0.103752 0.290497,0.0091 0.430948,-0.323637 0.149136,-0.353294 0.149422,-0.500673 0.0012,-0.592446 l 0,0 z m 0.562813,-0.868021 c 0.08523,-0.222121 0.08286,-0.457274 -0.0055,-0.551058 -0.189392,-0.200914 -0.414842,0.01441 -0.576977,0.551058 -0.08735,0.289119 -0.04715,0.387463 0.1584,0.387463 0.151503,0 0.34236,-0.174358 0.424126,-0.387463 l -4e-6,0 z"
       id="path16356"
       inkscape:connector-curvature="0" />
    <path
       style="fill:#00ffff;fill-opacity:1;fill-rule:evenodd;stroke:none"
       d="m 5.5589676,53.408706 c -0.064202,-0.0642 -0.116731,-5.450804 -0.116731,-11.970228 l 0,-11.853498 4.6496194,0 4.64962,0 1.765045,1.274947 c 0.970776,0.701221 1.790133,1.250871 1.820795,1.221444 0.03066,-0.02943 -0.06565,-0.288274 -0.214038,-0.575216 -0.330382,-0.638889 -0.212565,-0.993102 0.443097,-1.332158 0.275758,-0.1426 0.455526,-0.333466 0.399483,-0.424145 -0.05604,-0.09068 0.05766,-0.164872 0.252678,-0.164872 0.299845,0 0.354575,0.108112 0.354575,0.700427 0,0.646393 -0.02989,0.69136 -0.387463,0.582886 -0.60529,-0.183624 -0.683493,-0.178506 -0.767398,0.05022 -0.08615,0.23485 0.743589,0.622376 0.997106,0.465694 0.09397,-0.05808 0.157755,1.690769 0.157755,4.325439 l 0,4.422936 -0.516618,-0.103324 c -0.70847,-0.141694 -0.706734,0.356325 0.0021,0.603427 l 0.51872,0.180827 -0.04516,6.310983 -0.04515,6.310983 -6.900655,0.04498 c -3.7953598,0.02474 -6.9531833,-0.0076 -7.0173854,-0.07175 z M 15.370497,39.788172 c -0.313807,-0.617335 -0.14124,-1.049647 0.564712,-1.414709 l 0.571608,-0.29559 -2.198932,-0.117554 c -1.209413,-0.06466 -2.223092,-0.0934 -2.252619,-0.06387 -0.06735,0.06735 3.24031,2.345091 3.42238,2.35674 0.07347,0.0047 0.02525,-0.204558 -0.107149,-0.46502 l 0,0 z m 2.707151,0.209745 c 0.136742,-0.356342 -0.743969,-0.716281 -0.9509,-0.388624 -0.115989,0.183658 0.236436,0.459041 0.825035,0.644678 0.01355,0.0043 0.07018,-0.110952 0.125865,-0.256054 l 0,0 z m -1.384826,-0.497908 c 0.06117,-0.159419 -0.07934,-0.305558 -0.401909,-0.418007 -0.613656,-0.213922 -0.82503,0.124621 -0.275818,0.44176 0.473401,0.273362 0.564945,0.270153 0.677727,-0.02375 l 0,0 z"
       id="path16358"
       inkscape:connector-curvature="0" />
  </g>
</svg>
