<?xml version="1.0" encoding="UTF-8" standalone="no"?>
<!-- Created with Inkscape (http://www.inkscape.org/) -->

<svg
   xmlns:dc="http://purl.org/dc/elements/1.1/"
   xmlns:cc="http://creativecommons.org/ns#"
   xmlns:rdf="http://www.w3.org/1999/02/22-rdf-syntax-ns#"
   xmlns:svg="http://www.w3.org/2000/svg"
   xmlns="http://www.w3.org/2000/svg"
   xmlns:xlink="http://www.w3.org/1999/xlink"
   xmlns:sodipodi="http://sodipodi.sourceforge.net/DTD/sodipodi-0.dtd"
   xmlns:inkscape="http://www.inkscape.org/namespaces/inkscape"
   width="640px"
   height="480px"
   id="svg4298"
   version="1.1"
   inkscape:version="0.48.2 r9819"
   sodipodi:docname="New document 5">
  <defs
     id="defs4300">
    <marker
       inkscape:stockid="Arrow2Lend"
       orient="auto"
       refY="0"
       refX="0"
       id="Arrow2Lend"
       style="overflow:visible">
      <path
         inkscape:connector-curvature="0"
         id="path3842"
         style="font-size:12px;fill-rule:evenodd;stroke-width:0.625;stroke-linejoin:round"
         d="M 8.7185878,4.0337352 -2.2072895,0.01601326 8.7185884,-4.0017078 c -1.7454984,2.3720609 -1.7354408,5.6174519 -6e-7,8.035443 z"
         transform="matrix(-1.1,0,0,-1.1,-1.1,0)" />
    </marker>
    <inkscape:path-effect
       effect="spiro"
       id="path-effect3000"
       is_visible="true" />
    <linearGradient
       inkscape:collect="always"
       xlink:href="#linearGradient3794"
       id="linearGradient3800"
       x1="675.85059"
       y1="78.555885"
       x2="1040.8346"
       y2="78.555885"
       gradientUnits="userSpaceOnUse" />
    <linearGradient
       inkscape:collect="always"
       id="linearGradient3794">
      <stop
         style="stop-color:#008000;stop-opacity:1;"
         offset="0"
         id="stop3796" />
      <stop
         style="stop-color:#008000;stop-opacity:0;"
         offset="1"
         id="stop3798" />
    </linearGradient>
    <linearGradient
       inkscape:collect="always"
       xlink:href="#linearGradient3802"
       id="linearGradient3808"
       x1="707.61816"
       y1="302.03928"
       x2="903.59753"
       y2="302.03928"
       gradientUnits="userSpaceOnUse" />
    <linearGradient
       inkscape:collect="always"
       id="linearGradient3802">
      <stop
         style="stop-color:#00ca9a;stop-opacity:1;"
         offset="0"
         id="stop3804" />
      <stop
         style="stop-color:#00ca9a;stop-opacity:0;"
         offset="1"
         id="stop3806" />
    </linearGradient>
    <linearGradient
       y2="302.03928"
       x2="903.59753"
       y1="302.03928"
       x1="707.61816"
       gradientUnits="userSpaceOnUse"
       id="linearGradient4296"
       xlink:href="#linearGradient3802"
       inkscape:collect="always" />
    <clipPath
       clipPathUnits="userSpaceOnUse"
       id="clipPath4411">
      <rect
         style="opacity:0.52654868;fill:#008000;fill-opacity:1;stroke:#000000;stroke-width:1.5;stroke-miterlimit:4;stroke-opacity:1;stroke-dasharray:none;stroke-dashoffset:0"
         id="rect4413"
         width="516.31207"
         height="420.79434"
         x="33.560284"
         y="16.609926" />
    </clipPath>
    <clipPath
       clipPathUnits="userSpaceOnUse"
       id="clipPath4415">
      <rect
         style="opacity:0.52654868;fill:#008000;fill-opacity:1;stroke:#000000;stroke-width:1.5;stroke-miterlimit:4;stroke-opacity:1;stroke-dasharray:none;stroke-dashoffset:0"
         id="rect4417"
         width="516.31207"
         height="420.79434"
         x="33.560284"
         y="16.609926" />
    </clipPath>
    <clipPath
       clipPathUnits="userSpaceOnUse"
       id="clipPath4419">
      <rect
         style="opacity:0.52654868;fill:#008000;fill-opacity:1;stroke:#000000;stroke-width:1.5;stroke-miterlimit:4;stroke-opacity:1;stroke-dasharray:none;stroke-dashoffset:0"
         id="rect4421"
         width="516.31207"
         height="420.79434"
         x="33.560284"
         y="16.609926" />
    </clipPath>
    <clipPath
       clipPathUnits="userSpaceOnUse"
       id="clipPath4423">
      <rect
         style="opacity:0.52654868;fill:#008000;fill-opacity:1;stroke:#000000;stroke-width:1.5;stroke-miterlimit:4;stroke-opacity:1;stroke-dasharray:none;stroke-dashoffset:0"
         id="rect4425"
         width="516.31207"
         height="420.79434"
         x="660.07465"
         y="-11.318682" />
    </clipPath>
  </defs>
  <sodipodi:namedview
     id="base"
     pagecolor="#ffffff"
     bordercolor="#666666"
     borderopacity="1.0"
     inkscape:pageopacity="0.0"
     inkscape:pageshadow="2"
     inkscape:zoom="0.77472527"
     inkscape:cx="320"
     inkscape:cy="240"
     inkscape:current-layer="layer1"
     inkscape:document-units="px"
     showgrid="false"
     inkscape:window-width="1366"
     inkscape:window-height="716"
     inkscape:window-x="-8"
     inkscape:window-y="-8"
     inkscape:window-maximized="1" />
  <metadata
     id="metadata4303">
    <rdf:RDF>
      <cc:Work
         rdf:about="">
        <dc:format>image/svg+xml</dc:format>
        <dc:type
           rdf:resource="http://purl.org/dc/dcmitype/StillImage" />
        <dc:title></dc:title>
      </cc:Work>
    </rdf:RDF>
  </metadata>
  <g
     id="layer1"
     inkscape:label="Layer 1"
     inkscape:groupmode="layer">
    <g
       transform="translate(-626.51439,27.928608)"
       id="g4262"
       clip-path="url(#clipPath4423)">
      <path
         sodipodi:nodetypes="cccaaaaaaaaaac"
         inkscape:connector-curvature="0"
         id="path2987"
         d="m 720.50847,3.6949157 216.15255,1.847457 105.30508,62.8135593 c 0,0 -65.08729,42.036638 -99.76271,59.118638 -5.9498,2.93103 -12.39217,4.74496 -18.47458,7.38983 -10.61046,4.61384 -20.19681,11.91505 -31.40678,14.77966 -19.72546,5.04067 -40.61007,4.06077 -60.9661,3.69492 -19.17648,-0.34465 -38.56492,-1.30775 -57.27118,-5.54237 -14.0602,-3.18287 -27.60883,-8.62317 -40.64407,-14.77966 -14.22936,-6.72047 -29.59795,-12.8088 -40.64407,-24.01695 -6.97011,-7.07236 -12.231,-16.267271 -14.77966,-25.864406 -2.68704,-10.118214 -3.35694,-21.490662 0,-31.40678 4.22598,-12.483188 15.07788,-21.722677 24.01695,-31.40678 5.61952,-6.087877 18.47457,-16.6271183 18.47457,-16.6271183 z"
         style="fill:none;stroke:#000000;stroke-width:1px;stroke-linecap:butt;stroke-linejoin:miter;stroke-opacity:1" />
      <path
         inkscape:connector-curvature="0"
         id="path2989"
         d="m 831.375,217.4375 c -32.15016,17.30444 -64.3124,34.5865 -96.4375,51.93745 -7.03221,8.27113 -19.13938,13.79459 -22.82566,23.90972 -1.66807,10.68539 -3.46015,21.35194 -4.98674,32.05903 5.32407,8.84168 6.09938,21.88069 14.62189,27.82753 15.74655,8.65366 31.65499,17.04878 48.49016,23.41921 8.51508,3.20275 16.77431,7.73839 25.48222,10.02446 19.09046,-0.41368 38.43185,1.56221 57.22117,-2.75209 17.15212,-3.18963 34.16555,-7.90171 50.44606,-13.90914 1.11809,-5.64027 0.24053,-11.741 0.51945,-17.58697 0,-31.34103 0,-62.68207 0,-94.0231 -24.19052,-13.61141 -48.35307,-27.27244 -72.53105,-40.9061 z m -0.0312,1.125 c 23.85417,13.45833 47.70833,26.91667 71.5625,40.375 0,36.73958 0,73.47917 0,110.21875 -24.14675,8.23945 -49.1278,15.65632 -74.78333,16.53846 -11.38511,-0.40827 -22.83724,0.40958 -34.17278,-0.43739 -16.5361,-6.94802 -33.54631,-13.12696 -49.60122,-21.23047 -8.42881,-4.46727 -16.85761,-8.93453 -25.28642,-13.4018 -3.65625,-8.51042 -7.3125,-17.02083 -10.96875,-25.53125 1.83333,-11.60417 3.66667,-23.20833 5.5,-34.8125 10.30576,-8.62375 18.85395,-19.76808 31.41907,-25.24148 28.77698,-15.49243 57.55405,-30.9847 86.33093,-46.47732 z"
         style="font-size:medium;font-style:normal;font-variant:normal;font-weight:normal;font-stretch:normal;text-indent:0;text-align:start;text-decoration:none;line-height:normal;letter-spacing:normal;word-spacing:normal;text-transform:none;direction:ltr;block-progression:tb;writing-mode:lr-tb;text-anchor:start;baseline-shift:baseline;color:#000000;fill:#000000;fill-opacity:1;stroke:#000000;stroke-width:1px;stroke-opacity:1;marker:none;visibility:visible;display:inline;overflow:visible;enable-background:accumulate;font-family:Sans;-inkscape-font-specification:Sans" />
      <path
         sodipodi:nodetypes="cssc"
         inkscape:original-d="m 825.81356,68.355932 c -6.11148,36.498838 -15.50653,72.620558 -18.44573,109.490428 -1.67922,21.06441 0.86102,42.38346 3.86351,63.28564 3.43939,23.94375 9.72148,47.39223 14.58222,71.08834"
         inkscape:path-effect="#path-effect3000"
         inkscape:connector-curvature="0"
         id="path2991"
         d="m 825.81356,68.355932 c -11.58112,35.299238 -17.82221,72.345178 -18.44573,109.490428 -0.35504,21.15079 1.10016,42.31314 3.86351,63.28564 3.1626,24.00257 8.03982,47.77906 14.58222,71.08834"
         style="fill:none;stroke:#000000;stroke-width:1.5;stroke-linecap:butt;stroke-linejoin:miter;stroke-miterlimit:4;stroke-opacity:1;stroke-dasharray:none;marker-end:url(#Arrow2Lend)" />
      <path
         inkscape:connector-curvature="0"
         id="path3002"
         d="m 826.6362,152.4949 c -13.72346,-0.37333 -17.08898,-0.64369 -17.08898,-1.37282 0,-1.31565 2.00836,-17.70108 2.7986,-22.83259 2.783,-18.07194 7.10865,-36.87953 12.37539,-53.807207 1.04319,-3.352918 1.62751,-5.957256 1.39376,-6.212076 -0.6834,-0.744992 -1.15756,0.20401 -2.87301,5.750212 -6.83797,22.107694 -11.95007,46.935261 -14.4314,70.087921 l -0.80437,7.5053 -1.19241,-1e-5 c -2.6264,-1e-5 -21.36987,-2.32097 -26.13309,-3.23599 -14.8773,-2.85796 -27.6448,-7.23194 -46.87923,-16.06022 -19.05136,-8.74423 -28.09093,-13.66075 -34.6708,-18.85704 -13.59109,-10.73323 -21.55986,-26.294071 -22.44433,-43.827673 -0.58551,-11.60705 1.79561,-20.052365 8.1575,-28.932964 5.25902,-7.341091 20.48694,-23.084886 30.92158,-31.9691158 l 5.28811,-4.5023836 12.26274,0.2622141 c 6.74451,0.1442177 55.18149,0.6007982 107.63774,1.0146232 l 95.375,0.7524091 52.02584,30.994812 c 28.61426,17.047149 51.89216,31.13654 51.72886,31.309767 -0.6636,0.703618 -35.4692,22.345124 -49.34172,30.679805 -29.54802,17.752586 -47.30578,27.266416 -59.72442,31.997746 -4.55393,1.73497 -12.2876,5.30196 -19.21733,8.86356 -12.90679,6.63357 -15.83422,7.85595 -22.56332,9.42159 -13.89938,3.23394 -28.113,3.90831 -62.60071,2.97013 l 0,0 z"
         style="opacity:0.52654868;fill:url(#linearGradient3800);fill-opacity:1;stroke:#000000;stroke-width:1.5;stroke-miterlimit:4;stroke-opacity:1;stroke-dasharray:none" />
      <path
         inkscape:connector-curvature="0"
         id="path3004"
         d="m 794.07476,384.8892 c -1.69143,-0.45522 -27.80942,-11.16743 -35.79449,-14.68099 -6.84492,-3.01189 -18.66317,-8.92134 -30.46865,-15.23518 l -8.53009,-4.56208 -5.4567,-12.68362 -5.45669,-12.68361 2.58897,-16.62711 c 1.42394,-9.14492 2.67752,-16.94553 2.78574,-17.33469 0.40382,-1.45214 19.88187,-19.0049 23.98445,-21.61372 2.44984,-1.55784 70.89932,-38.41388 71.34273,-38.41388 0.1895,0 0.48252,1.50683 0.65116,3.34851 0.49104,5.36259 2.9886,21.99994 4.73205,31.52225 2.22001,12.1251 4.29406,21.59661 7.66123,34.98623 2.45934,9.77965 2.99813,11.43114 3.72932,11.43114 0.60139,0 0.7805,-0.23952 0.60439,-0.80826 -2.35691,-7.61188 -7.95638,-31.822 -10.39747,-44.95493 -1.66289,-8.94633 -4.52152,-28.15741 -4.93857,-33.18916 l -0.28929,-3.49044 10.23904,-5.48777 10.23903,-5.48778 2.17082,1.18856 c 1.19395,0.6537 17.23914,9.69376 35.65599,20.089 l 33.48517,18.90046 0.11733,54.92583 0.11733,54.92583 -11.89487,3.78244 c -14.41669,4.58433 -23.15193,6.9241 -33.83344,9.0624 -15.16591,3.03603 -17.05593,3.19196 -40.41313,3.33414 -11.68517,0.0711 -21.86928,-0.0385 -22.63136,-0.24357 l 0,0 z"
         style="opacity:0.27876108;fill:url(#linearGradient4296);fill-opacity:1;stroke:#000000;stroke-width:1.5;stroke-miterlimit:4;stroke-opacity:1;stroke-dasharray:1.5, 9;stroke-dashoffset:0" />
    </g>
    <text
       xml:space="preserve"
       style="font-size:24px;font-style:normal;font-variant:normal;font-weight:normal;font-stretch:normal;line-height:125%;letter-spacing:0px;word-spacing:0px;fill:#0000ff;fill-opacity:1;stroke:none;font-family:ItalicT;-inkscape-font-specification:ItalicT"
       x="367.87234"
       y="150.85107"
       id="text4347"
       sodipodi:linespacing="125%"
       clip-path="url(#clipPath4419)"><tspan
         sodipodi:role="line"
         id="tspan4349"
         x="367.87234"
         y="150.85107"
         style="font-style:normal;font-variant:normal;font-weight:normal;font-stretch:normal;font-family:Sans;-inkscape-font-specification:Sans;fill:#0000ff">Sketch-<tspan
   style="font-style:italic;fill:#0000ff"
   id="tspan4405">Profile</tspan><tspan
   style="font-size:65.00091553000000000%;baseline-shift:sub;fill:#0000ff"
   id="tspan4351">1</tspan></tspan></text>
    <text
       xml:space="preserve"
       style="font-size:24px;font-style:normal;font-variant:normal;font-weight:normal;font-stretch:normal;line-height:125%;letter-spacing:0px;word-spacing:0px;fill:#0000ff;fill-opacity:1;stroke:none;font-family:ItalicT;-inkscape-font-specification:ItalicT"
       x="288.37088"
       y="348.22284"
       id="text4347-6"
       sodipodi:linespacing="125%"
       inkscape:transform-center-x="-9.035461"
       inkscape:transform-center-y="-98.099291"
       clip-path="url(#clipPath4415)"><tspan
         sodipodi:role="line"
         id="tspan4349-8"
         x="288.37088"
         y="348.22284"
         style="font-style:normal;font-variant:normal;font-weight:normal;font-stretch:normal;font-family:Sans;-inkscape-font-specification:Sans;fill:#0000ff">Sketch-<tspan
   style="font-style:italic;fill:#0000ff"
   id="tspan4407">Profile</tspan><tspan
   style="font-size:65%;baseline-shift:sub;fill:#0000ff"
   id="tspan4377">2</tspan></tspan></text>
    <text
       xml:space="preserve"
       style="font-size:24px;font-style:normal;font-variant:normal;font-weight:normal;font-stretch:normal;line-height:125%;letter-spacing:0px;word-spacing:0px;fill:#008000;fill-opacity:1;stroke:none;font-family:ItalicT;-inkscape-font-specification:ItalicT"
       x="190.54166"
       y="224.30797"
       id="text4347-6-2"
       sodipodi:linespacing="125%"
       inkscape:transform-center-x="-9.035461"
       inkscape:transform-center-y="-98.099291"
       clip-path="url(#clipPath4411)"><tspan
         sodipodi:role="line"
         id="tspan4349-8-7"
         x="190.54166"
         y="224.30797"
         style="font-style:normal;font-variant:normal;font-weight:normal;font-stretch:normal;font-family:Sans;-inkscape-font-specification:Sans;fill:#008000">Guide-Path-<tspan
   style="font-style:italic;fill:#008000"
   id="tspan4403">curve</tspan></tspan></text>
  </g>
</svg>
