<?xml version="1.0" encoding="UTF-8" standalone="no"?>
<!-- Created with Inkscape (http://www.inkscape.org/) -->

<svg
   xmlns:dc="http://purl.org/dc/elements/1.1/"
   xmlns:cc="http://creativecommons.org/ns#"
   xmlns:rdf="http://www.w3.org/1999/02/22-rdf-syntax-ns#"
   xmlns:svg="http://www.w3.org/2000/svg"
   xmlns="http://www.w3.org/2000/svg"
   xmlns:sodipodi="http://sodipodi.sourceforge.net/DTD/sodipodi-0.dtd"
   xmlns:inkscape="http://www.inkscape.org/namespaces/inkscape"
   width="64px"
   height="64px"
   id="svg10766"
   version="1.1"
   inkscape:version="0.48.2 r9819"
   sodipodi:docname="MidsurfJoining.svg">
  <defs
     id="defs10768">
    <marker
       inkscape:stockid="Arrow1Mstart"
       orient="auto"
       refY="0"
       refX="0"
       id="Arrow1Mstart"
       style="overflow:visible">
      <path
         inkscape:connector-curvature="0"
         id="path4364"
         d="M 0,0 5,-5 -12.5,0 5,5 0,0 z"
         style="fill-rule:evenodd;stroke:#000000;stroke-width:1pt;marker-start:none"
         transform="matrix(0.4,0,0,0.4,4,0)" />
    </marker>
    <marker
       inkscape:stockid="Arrow1Mstart"
       orient="auto"
       refY="0"
       refX="0"
       id="Arrow1Mstart-1"
       style="overflow:visible">
      <path
         inkscape:connector-curvature="0"
         id="path4364-2"
         d="M 0,0 5,-5 -12.5,0 5,5 0,0 z"
         style="fill-rule:evenodd;stroke:#000000;stroke-width:1pt;marker-start:none"
         transform="matrix(0.4,0,0,0.4,4,0)" />
    </marker>
    <marker
       inkscape:stockid="Arrow1Mstart"
       orient="auto"
       refY="0"
       refX="0"
       id="Arrow1Mstart-3"
       style="overflow:visible">
      <path
         inkscape:connector-curvature="0"
         id="path4364-4"
         d="M 0,0 5,-5 -12.5,0 5,5 0,0 z"
         style="fill-rule:evenodd;stroke:#000000;stroke-width:1pt;marker-start:none"
         transform="matrix(0.4,0,0,0.4,4,0)" />
    </marker>
    <marker
       inkscape:stockid="Arrow1Mstart"
       orient="auto"
       refY="0"
       refX="0"
       id="Arrow1Mstart-13"
       style="overflow:visible">
      <path
         inkscape:connector-curvature="0"
         id="path4364-8"
         d="M 0,0 5,-5 -12.5,0 5,5 0,0 z"
         style="fill-rule:evenodd;stroke:#000000;stroke-width:1pt;marker-start:none"
         transform="matrix(0.4,0,0,0.4,4,0)" />
    </marker>
    <marker
       inkscape:stockid="Arrow1Mstart"
       orient="auto"
       refY="0"
       refX="0"
       id="Arrow1Mstart-4"
       style="overflow:visible">
      <path
         inkscape:connector-curvature="0"
         id="path4364-27"
         d="M 0,0 5,-5 -12.5,0 5,5 0,0 z"
         style="fill-rule:evenodd;stroke:#000000;stroke-width:1pt;marker-start:none"
         transform="matrix(0.4,0,0,0.4,4,0)" />
    </marker>
    <marker
       inkscape:stockid="Arrow1Mstart"
       orient="auto"
       refY="0"
       refX="0"
       id="Arrow1Mstart-0"
       style="overflow:visible">
      <path
         inkscape:connector-curvature="0"
         id="path4364-24"
         d="M 0,0 5,-5 -12.5,0 5,5 0,0 z"
         style="fill-rule:evenodd;stroke:#000000;stroke-width:1pt;marker-start:none"
         transform="matrix(0.4,0,0,0.4,4,0)" />
    </marker>
    <marker
       inkscape:stockid="Arrow1Mstart"
       orient="auto"
       refY="0"
       refX="0"
       id="Arrow1Mstart-00"
       style="overflow:visible">
      <path
         inkscape:connector-curvature="0"
         id="path4364-6"
         d="M 0,0 5,-5 -12.5,0 5,5 0,0 z"
         style="fill-rule:evenodd;stroke:#000000;stroke-width:1pt;marker-start:none"
         transform="matrix(0.4,0,0,0.4,4,0)" />
    </marker>
    <marker
       inkscape:stockid="Arrow1Mstart"
       orient="auto"
       refY="0"
       refX="0"
       id="Arrow1Mstart-38"
       style="overflow:visible">
      <path
         inkscape:connector-curvature="0"
         id="path4364-9"
         d="M 0,0 5,-5 -12.5,0 5,5 0,0 z"
         style="fill-rule:evenodd;stroke:#000000;stroke-width:1pt;marker-start:none"
         transform="matrix(0.4,0,0,0.4,4,0)" />
    </marker>
  </defs>
  <sodipodi:namedview
     id="base"
     pagecolor="#ffffff"
     bordercolor="#666666"
     borderopacity="1.0"
     inkscape:pageopacity="0.0"
     inkscape:pageshadow="2"
     inkscape:zoom="16"
     inkscape:cx="11.529514"
     inkscape:cy="37.867982"
     inkscape:current-layer="layer1"
     showgrid="true"
     inkscape:document-units="px"
     inkscape:grid-bbox="true"
     inkscape:snap-global="true"
     inkscape:window-width="1366"
     inkscape:window-height="707"
     inkscape:window-x="-9"
     inkscape:window-y="-9"
     inkscape:window-maximized="1"
     inkscape:snap-grids="false">
    <inkscape:grid
       type="xygrid"
       id="grid10774" />
  </sodipodi:namedview>
  <metadata
     id="metadata10771">
    <rdf:RDF>
      <cc:Work
         rdf:about="">
        <dc:format>image/svg+xml</dc:format>
        <dc:type
           rdf:resource="http://purl.org/dc/dcmitype/StillImage" />
        <dc:title />
      </cc:Work>
    </rdf:RDF>
  </metadata>
  <g
     id="layer1"
     inkscape:label="Layer 1"
     inkscape:groupmode="layer">
    <path
       style="fill:none;stroke:#000000;stroke-width:1px;stroke-linecap:butt;stroke-linejoin:miter;stroke-opacity:1"
       d="m 5,30 15,0 0,24.864183 -15,0 L 5,30"
       id="path10776"
       inkscape:connector-curvature="0" />
    <path
       style="fill:none;stroke:#000000;stroke-width:1px;stroke-linecap:butt;stroke-linejoin:miter;stroke-opacity:1"
       d="m 21,14 0,15 35.203651,0 0,-15 z"
       id="path10778"
       inkscape:connector-curvature="0" />
    <path
       style="fill:none;stroke:#c86400;stroke-width:1px;stroke-linecap:butt;stroke-linejoin:miter;stroke-opacity:1"
       d="m 19.985963,14 0,15.138722"
       id="path15130"
       inkscape:connector-curvature="0" />
    <path
       style="fill:none;stroke:#c86400;stroke-width:1px;stroke-linecap:butt;stroke-linejoin:miter;stroke-opacity:1"
       d="M 20,29 4.900783,29"
       id="path15130-9"
       inkscape:connector-curvature="0" />
    <rect
       style="fill:none;stroke:#000000;stroke-width:1;stroke-linecap:butt;stroke-linejoin:miter;stroke-miterlimit:4;stroke-opacity:1;stroke-dasharray:none;stroke-dashoffset:0"
       id="rect16410"
       width="13.999999"
       height="14"
       x="5"
       y="14"
       ry="0" />
    <path
       style="fill:none;stroke:#0000ff;stroke-width:1px;stroke-linecap:butt;stroke-linejoin:miter;stroke-opacity:1"
       d="m 21.000001,21 35.000001,0"
       id="path16968"
       inkscape:connector-curvature="0" />
    <path
       style="fill:none;stroke:#0000ff;stroke-width:1px;stroke-linecap:butt;stroke-linejoin:miter;stroke-opacity:1"
       d="m 12.318851,29.625951 0,25.286517"
       id="path16968-7"
       inkscape:connector-curvature="0" />
    <path
       style="fill:none;stroke:#c80000;stroke-width:1;stroke-linecap:butt;stroke-linejoin:miter;stroke-opacity:1;stroke-miterlimit:4;stroke-dasharray:1, 1;stroke-dashoffset:0"
       d="m 12.443061,21.219571 7.110321,0"
       id="path17061"
       inkscape:connector-curvature="0" />
    <path
       style="fill:none;stroke:#c80000;stroke-width:1;stroke-linecap:butt;stroke-linejoin:miter;stroke-miterlimit:4;stroke-opacity:1;stroke-dasharray:1, 1;stroke-dashoffset:0"
       d="m 12.443697,21.689222 0,7.110321"
       id="path17061-5"
       inkscape:connector-curvature="0" />
    <path
       sodipodi:type="arc"
       style="fill:#de8787;stroke:#27ff00;stroke-width:1;stroke-linecap:butt;stroke-linejoin:miter;stroke-miterlimit:4;stroke-opacity:1;stroke-dasharray:none;stroke-dashoffset:0"
       id="path16973-2"
       sodipodi:cx="32.5"
       sodipodi:cy="35.5"
       sodipodi:rx="0.5"
       sodipodi:ry="0.5"
       d="m 33,35.5 a 0.5,0.5 0 1 1 -1,0 0.5,0.5 0 1 1 1,0 z"
       transform="translate(-20.12707,-14.26469)" />
    <path
       sodipodi:type="arc"
       style="fill:none;stroke:#ff00ff;stroke-width:1;stroke-linecap:butt;stroke-linejoin:miter;stroke-miterlimit:4;stroke-opacity:1;stroke-dasharray:none;stroke-dashoffset:0"
       id="path16973-0"
       sodipodi:cx="32.5"
       sodipodi:cy="35.5"
       sodipodi:rx="0.5"
       sodipodi:ry="0.5"
       d="m 33,35.5 a 0.5,0.5 0 1 1 -1,0 0.5,0.5 0 1 1 1,0 z"
       transform="translate(-20.098529,-6.5808723)" />
    <path
       sodipodi:type="arc"
       style="fill:none;stroke:#ff00ff;stroke-width:1;stroke-linecap:butt;stroke-linejoin:miter;stroke-miterlimit:4;stroke-opacity:1;stroke-dasharray:none;stroke-dashoffset:0"
       id="path16973"
       sodipodi:cx="32.5"
       sodipodi:cy="35.5"
       sodipodi:rx="0.5"
       sodipodi:ry="0.5"
       d="m 33,35.5 a 0.5,0.5 0 1 1 -1,0 0.5,0.5 0 1 1 1,0 z"
       transform="translate(-12.490351,-14.584942)" />
    <path
       style="fill:#de8787;fill-opacity:1;fill-rule:evenodd;stroke:none;stroke-width:1;stroke-linecap:butt;stroke-linejoin:miter;stroke-miterlimit:4;stroke-opacity:1;stroke-dasharray:1, 1;stroke-dashoffset:0"
       d="m 5.5045142,20.994518 0,-6.5 6.4977698,0 6.49777,0 -5.62e-4,6.5 -5.63e-4,6.5 -6.497195,0 -6.4972198,0 0,-6.5 z m 7.4374998,5.1875 0,-0.5 -0.5,0 -0.5,0 0,0.5 0,0.5 0.5,0 0.5,0 0,-0.5 z m 0,-2 0,-0.5 -0.5,0 -0.5,0 0,0.5 0,0.5 0.5,0 0.5,0 0,-0.5 z m 0,-1.80928 c 0,-0.238552 0.0338,-0.345748 0.147792,-0.46875 0.08129,-0.08771 0.193786,-0.15947 0.25,-0.15947 0.08609,0 0.102208,-0.07883 0.102208,-0.5 0,-0.31948 -0.02462,-0.5 -0.06819,-0.5 -0.0375,0 -0.180838,-0.09642 -0.31852,-0.214273 -0.444225,-0.380241 -0.965691,-0.370826 -1.361092,0.02457 -0.41054,0.41054 -0.407964,0.971432 0.0064,1.38576 0.199771,0.199771 0.241438,0.284583 0.241438,0.491438 l 0,0.25 0.5,0 0.5,0 0,-0.30928 z m 2.5,-1.12822 0,-0.5 -0.5,0 -0.5,0 0,0.5 0,0.5 0.5,0 0.5,0 0,-0.5 z m 2,0 0,-0.5 -0.5,0 -0.5,0 0,0.5 0,0.5 0.5,0 0.5,0 0,-0.5 z"
       id="path17637"
       inkscape:connector-curvature="0" />
  </g>
</svg>
