<?xml version="1.0" encoding="UTF-8" standalone="no"?>
<!-- Created with Inkscape (http://www.inkscape.org/) -->

<svg
   xmlns:dc="http://purl.org/dc/elements/1.1/"
   xmlns:cc="http://creativecommons.org/ns#"
   xmlns:rdf="http://www.w3.org/1999/02/22-rdf-syntax-ns#"
   xmlns:svg="http://www.w3.org/2000/svg"
   xmlns="http://www.w3.org/2000/svg"
   xmlns:sodipodi="http://sodipodi.sourceforge.net/DTD/sodipodi-0.dtd"
   xmlns:inkscape="http://www.inkscape.org/namespaces/inkscape"
   width="64px"
   height="64px"
   id="svg2985"
   version="1.1"
   inkscape:version="0.48.2 r9819"
   sodipodi:docname="mids_pany.svg">
  <defs
     id="defs2987" />
  <sodipodi:namedview
     id="base"
     pagecolor="#ffffff"
     bordercolor="#666666"
     borderopacity="1.0"
     inkscape:pageopacity="0.0"
     inkscape:pageshadow="2"
     inkscape:zoom="6.2776547"
     inkscape:cx="-14.032292"
     inkscape:cy="29.50856"
     inkscape:current-layer="layer1"
     showgrid="true"
     inkscape:document-units="px"
     inkscape:grid-bbox="true"
     inkscape:window-width="1366"
     inkscape:window-height="716"
     inkscape:window-x="-8"
     inkscape:window-y="-8"
     inkscape:window-maximized="1" />
  <metadata
     id="metadata2990">
    <rdf:RDF>
      <cc:Work
         rdf:about="">
        <dc:format>image/svg+xml</dc:format>
        <dc:type
           rdf:resource="http://purl.org/dc/dcmitype/StillImage" />
        <dc:title />
      </cc:Work>
    </rdf:RDF>
  </metadata>
  <g
     id="layer1"
     inkscape:label="Layer 1"
     inkscape:groupmode="layer">
    <g
       id="g3814"
       transform="matrix(1.0360244,0,0,1.0712466,-0.0899231,-0.11681295)">
      <path
         id="path2985"
         d="M 41.354828,32.175503 6.4500958,31.544984 -3.7363998,-1.8462308 24.872732,-21.852617 52.740644,-0.82602843 z"
         inkscape:transform-center-y="-2.7637763"
         inkscape:transform-center-x="0.075599083"
         style="fill:none;stroke:#000003;stroke-width:1;stroke-miterlimit:4;stroke-opacity:1;stroke-dashoffset:0"
         transform="matrix(0.99965417,-0.02629722,0.02629722,0.99965417,6.7798327,24.638701)"
         inkscape:connector-curvature="0" />
      <path
         inkscape:connector-curvature="0"
         id="path2984"
         d="M 3.1859032,22.742554 30.903261,2.5120688"
         style="fill:none;stroke:#0000ff;stroke-width:1px;stroke-linecap:butt;stroke-linejoin:miter;stroke-opacity:1" />
      <path
         inkscape:connector-curvature="0"
         id="path2984-1"
         d="m 14.383326,55.996414 34.31423,-0.240932"
         style="fill:none;stroke:#0000ff;stroke-width:1px;stroke-linecap:butt;stroke-linejoin:miter;stroke-opacity:1" />
      <path
         inkscape:connector-curvature="0"
         id="path3774"
         d="m 16.725992,13.025549 15.314449,18.956124 0,24.053569"
         style="fill:none;stroke:#a724b2;stroke-width:1.07000005;stroke-linecap:butt;stroke-linejoin:miter;stroke-miterlimit:4;stroke-opacity:1;stroke-dasharray:1.07, 1.07;stroke-dashoffset:0" />
      <path
         transform="matrix(0.80905765,0,0,0.80905765,3.7266356,3.0604856)"
         d="m 16.885286,11.67154 c 0,0.747799 -0.60621,1.354009 -1.354008,1.354009 -0.747799,0 -1.354009,-0.60621 -1.354009,-1.354009 0,-0.747798 0.60621,-1.354009 1.354009,-1.354009 0.747798,0 1.354008,0.606211 1.354008,1.354009 z"
         sodipodi:ry="1.3540088"
         sodipodi:rx="1.3540088"
         sodipodi:cy="11.67154"
         sodipodi:cx="15.531278"
         id="path3776"
         style="fill:#00ff00;fill-opacity:1;stroke:#000000;stroke-width:1;stroke-miterlimit:4;stroke-opacity:1;stroke-dasharray:none;stroke-dashoffset:0"
         sodipodi:type="arc" />
      <path
         transform="matrix(0.80905765,0,0,0.80905765,19.134037,22.538724)"
         d="m 16.885286,11.67154 c 0,0.747799 -0.60621,1.354009 -1.354008,1.354009 -0.747799,0 -1.354009,-0.60621 -1.354009,-1.354009 0,-0.747798 0.60621,-1.354009 1.354009,-1.354009 0.747798,0 1.354008,0.606211 1.354008,1.354009 z"
         sodipodi:ry="1.3540088"
         sodipodi:rx="1.3540088"
         sodipodi:cy="11.67154"
         sodipodi:cx="15.531278"
         id="path3776-7"
         style="fill:#00ff00;fill-opacity:1;stroke:#000000;stroke-width:1;stroke-miterlimit:4;stroke-opacity:1;stroke-dasharray:none;stroke-dashoffset:0"
         sodipodi:type="arc" />
      <path
         transform="matrix(0.80905765,0,0,0.80905765,19.452628,46.592293)"
         d="m 16.885286,11.67154 c 0,0.747799 -0.60621,1.354009 -1.354008,1.354009 -0.747799,0 -1.354009,-0.60621 -1.354009,-1.354009 0,-0.747798 0.60621,-1.354009 1.354009,-1.354009 0.747798,0 1.354008,0.606211 1.354008,1.354009 z"
         sodipodi:ry="1.3540088"
         sodipodi:rx="1.3540088"
         sodipodi:cy="11.67154"
         sodipodi:cx="15.531278"
         id="path3776-7-4"
         style="fill:#00ff00;fill-opacity:1;stroke:#000000;stroke-width:1;stroke-miterlimit:4;stroke-opacity:1;stroke-dasharray:none;stroke-dashoffset:0"
         sodipodi:type="arc" />
    </g>
  </g>
</svg>
