<?xml version="1.0" encoding="UTF-8" standalone="no"?>
<!-- Created with Inkscape (http://www.inkscape.org/) -->

<svg
   xmlns:dc="http://purl.org/dc/elements/1.1/"
   xmlns:cc="http://creativecommons.org/ns#"
   xmlns:rdf="http://www.w3.org/1999/02/22-rdf-syntax-ns#"
   xmlns:svg="http://www.w3.org/2000/svg"
   xmlns="http://www.w3.org/2000/svg"
   xmlns:sodipodi="http://sodipodi.sourceforge.net/DTD/sodipodi-0.dtd"
   xmlns:inkscape="http://www.inkscape.org/namespaces/inkscape"
   width="64px"
   height="64px"
   id="svg10766"
   version="1.1"
   inkscape:version="0.48.2 r9819"
   sodipodi:docname="MidsurfJoining_2.svg">
  <defs
     id="defs10768">
    <marker
       inkscape:stockid="Arrow1Send"
       orient="auto"
       refY="0.0"
       refX="0.0"
       id="Arrow1Send"
       style="overflow:visible;">
      <path
         id="path3876"
         d="M 0.0,0.0 L 5.0,-5.0 L -12.5,0.0 L 5.0,5.0 L 0.0,0.0 z "
         style="fill-rule:evenodd;stroke:#000000;stroke-width:1.0pt;marker-start:none;"
         transform="scale(0.2) rotate(180) translate(6,0)" />
    </marker>
    <inkscape:path-effect
       effect="spiro"
       id="path-effect4328"
       is_visible="true" />
    <inkscape:path-effect
       effect="spiro"
       id="path-effect4324"
       is_visible="true" />
    <marker
       inkscape:stockid="Arrow1Mend"
       orient="auto"
       refY="0.0"
       refX="0.0"
       id="Arrow1Mend"
       style="overflow:visible;">
      <path
         id="path3870"
         d="M 0.0,0.0 L 5.0,-5.0 L -12.5,0.0 L 5.0,5.0 L 0.0,0.0 z "
         style="fill-rule:evenodd;stroke:#000000;stroke-width:1.0pt;marker-start:none;"
         transform="scale(0.4) rotate(180) translate(10,0)" />
    </marker>
    <inkscape:path-effect
       effect="spiro"
       id="path-effect3856"
       is_visible="true" />
    <marker
       inkscape:stockid="Arrow1Mstart"
       orient="auto"
       refY="0"
       refX="0"
       id="Arrow1Mstart"
       style="overflow:visible">
      <path
         inkscape:connector-curvature="0"
         id="path4364"
         d="M 0,0 5,-5 -12.5,0 5,5 0,0 z"
         style="fill-rule:evenodd;stroke:#000000;stroke-width:1pt;marker-start:none"
         transform="matrix(0.4,0,0,0.4,4,0)" />
    </marker>
    <marker
       inkscape:stockid="Arrow1Mstart"
       orient="auto"
       refY="0"
       refX="0"
       id="Arrow1Mstart-1"
       style="overflow:visible">
      <path
         inkscape:connector-curvature="0"
         id="path4364-2"
         d="M 0,0 5,-5 -12.5,0 5,5 0,0 z"
         style="fill-rule:evenodd;stroke:#000000;stroke-width:1pt;marker-start:none"
         transform="matrix(0.4,0,0,0.4,4,0)" />
    </marker>
    <marker
       inkscape:stockid="Arrow1Mstart"
       orient="auto"
       refY="0"
       refX="0"
       id="Arrow1Mstart-3"
       style="overflow:visible">
      <path
         inkscape:connector-curvature="0"
         id="path4364-4"
         d="M 0,0 5,-5 -12.5,0 5,5 0,0 z"
         style="fill-rule:evenodd;stroke:#000000;stroke-width:1pt;marker-start:none"
         transform="matrix(0.4,0,0,0.4,4,0)" />
    </marker>
    <marker
       inkscape:stockid="Arrow1Mstart"
       orient="auto"
       refY="0"
       refX="0"
       id="Arrow1Mstart-13"
       style="overflow:visible">
      <path
         inkscape:connector-curvature="0"
         id="path4364-8"
         d="M 0,0 5,-5 -12.5,0 5,5 0,0 z"
         style="fill-rule:evenodd;stroke:#000000;stroke-width:1pt;marker-start:none"
         transform="matrix(0.4,0,0,0.4,4,0)" />
    </marker>
    <marker
       inkscape:stockid="Arrow1Mstart"
       orient="auto"
       refY="0"
       refX="0"
       id="Arrow1Mstart-4"
       style="overflow:visible">
      <path
         inkscape:connector-curvature="0"
         id="path4364-27"
         d="M 0,0 5,-5 -12.5,0 5,5 0,0 z"
         style="fill-rule:evenodd;stroke:#000000;stroke-width:1pt;marker-start:none"
         transform="matrix(0.4,0,0,0.4,4,0)" />
    </marker>
    <marker
       inkscape:stockid="Arrow1Mstart"
       orient="auto"
       refY="0"
       refX="0"
       id="Arrow1Mstart-0"
       style="overflow:visible">
      <path
         inkscape:connector-curvature="0"
         id="path4364-24"
         d="M 0,0 5,-5 -12.5,0 5,5 0,0 z"
         style="fill-rule:evenodd;stroke:#000000;stroke-width:1pt;marker-start:none"
         transform="matrix(0.4,0,0,0.4,4,0)" />
    </marker>
    <marker
       inkscape:stockid="Arrow1Mstart"
       orient="auto"
       refY="0"
       refX="0"
       id="Arrow1Mstart-00"
       style="overflow:visible">
      <path
         inkscape:connector-curvature="0"
         id="path4364-6"
         d="M 0,0 5,-5 -12.5,0 5,5 0,0 z"
         style="fill-rule:evenodd;stroke:#000000;stroke-width:1pt;marker-start:none"
         transform="matrix(0.4,0,0,0.4,4,0)" />
    </marker>
    <marker
       inkscape:stockid="Arrow1Mstart"
       orient="auto"
       refY="0"
       refX="0"
       id="Arrow1Mstart-38"
       style="overflow:visible">
      <path
         inkscape:connector-curvature="0"
         id="path4364-9"
         d="M 0,0 5,-5 -12.5,0 5,5 0,0 z"
         style="fill-rule:evenodd;stroke:#000000;stroke-width:1pt;marker-start:none"
         transform="matrix(0.4,0,0,0.4,4,0)" />
    </marker>
    <marker
       inkscape:stockid="Arrow1Mstart"
       orient="auto"
       refY="0"
       refX="0"
       id="Arrow1Mstart-17"
       style="overflow:visible">
      <path
         inkscape:connector-curvature="0"
         id="path4364-40"
         d="M 0,0 5,-5 -12.5,0 5,5 0,0 z"
         style="fill-rule:evenodd;stroke:#000000;stroke-width:1pt;marker-start:none"
         transform="matrix(0.4,0,0,0.4,4,0)" />
    </marker>
    <marker
       inkscape:stockid="Arrow1Mstart"
       orient="auto"
       refY="0"
       refX="0"
       id="Arrow1Mstart-9"
       style="overflow:visible">
      <path
         inkscape:connector-curvature="0"
         id="path4364-48"
         d="M 0,0 5,-5 -12.5,0 5,5 0,0 z"
         style="fill-rule:evenodd;stroke:#000000;stroke-width:1pt;marker-start:none"
         transform="matrix(0.4,0,0,0.4,4,0)" />
    </marker>
  </defs>
  <sodipodi:namedview
     id="base"
     pagecolor="#ffffff"
     bordercolor="#666666"
     borderopacity="1.0"
     inkscape:pageopacity="0.0"
     inkscape:pageshadow="2"
     inkscape:zoom="8"
     inkscape:cx="17.195035"
     inkscape:cy="50.399884"
     inkscape:current-layer="layer1"
     showgrid="true"
     inkscape:document-units="px"
     inkscape:grid-bbox="true"
     inkscape:snap-global="true"
     inkscape:window-width="1920"
     inkscape:window-height="1018"
     inkscape:window-x="-8"
     inkscape:window-y="-8"
     inkscape:window-maximized="1"
     inkscape:snap-grids="false">
    <inkscape:grid
       type="xygrid"
       id="grid10774" />
  </sodipodi:namedview>
  <metadata
     id="metadata10771">
    <rdf:RDF>
      <cc:Work
         rdf:about="">
        <dc:format>image/svg+xml</dc:format>
        <dc:type
           rdf:resource="http://purl.org/dc/dcmitype/StillImage" />
        <dc:title />
      </cc:Work>
    </rdf:RDF>
  </metadata>
  <g
     id="layer1"
     inkscape:label="Layer 1"
     inkscape:groupmode="layer">
    <path
       style="fill:none;stroke:#000000;stroke-width:1;stroke-linecap:butt;stroke-linejoin:miter;stroke-opacity:1;stroke-miterlimit:4;stroke-dasharray:none"
       d="m 5,30 15,0 0,24.864183 -15,0 L 5,30"
       id="path10776"
       inkscape:connector-curvature="0" />
    <path
       style="fill:none;stroke:#000000;stroke-width:1;stroke-linecap:butt;stroke-linejoin:miter;stroke-opacity:1;stroke-miterlimit:4;stroke-dasharray:none"
       d="m 21,14 0,15 35.203651,0 0,-15 z"
       id="path10778"
       inkscape:connector-curvature="0" />
    <path
       style="fill:none;stroke:#c86400;stroke-width:1px;stroke-linecap:butt;stroke-linejoin:miter;stroke-opacity:1"
       d="m 19.985963,14 0,15.138722"
       id="path15130"
       inkscape:connector-curvature="0" />
    <path
       style="fill:none;stroke:#c86400;stroke-width:1px;stroke-linecap:butt;stroke-linejoin:miter;stroke-opacity:1"
       d="M 20,29 4.900783,29"
       id="path15130-9"
       inkscape:connector-curvature="0" />
    <rect
       style="fill:none;stroke:#000000;stroke-width:1;stroke-linecap:butt;stroke-linejoin:miter;stroke-miterlimit:4;stroke-opacity:1;stroke-dasharray:none;stroke-dashoffset:0"
       id="rect16410"
       width="13.999999"
       height="14"
       x="5"
       y="14"
       ry="0" />
    <path
       style="fill:none;stroke:#ff0000;stroke-width:1;stroke-linecap:butt;stroke-linejoin:miter;stroke-opacity:1;stroke-miterlimit:4;stroke-dasharray:none"
       d="m 21.000001,21 35.000001,0"
       id="path16968"
       inkscape:connector-curvature="0" />
    <path
       style="fill:none;stroke:#ff0000;stroke-width:1;stroke-linecap:butt;stroke-linejoin:miter;stroke-opacity:1;stroke-miterlimit:4;stroke-dasharray:none"
       d="m 12.318851,29.625951 0,25.286517"
       id="path16968-7"
       inkscape:connector-curvature="0" />
    <path
       style="fill:none;stroke:#c80000;stroke-width:1;stroke-linecap:butt;stroke-linejoin:miter;stroke-opacity:1;stroke-miterlimit:4;stroke-dasharray:none;stroke-dashoffset:0"
       d="m 12.443061,21.219571 7.110321,0"
       id="path17061"
       inkscape:connector-curvature="0" />
    <path
       style="fill:none;stroke:#c80000;stroke-width:1;stroke-linecap:butt;stroke-linejoin:miter;stroke-miterlimit:4;stroke-opacity:1;stroke-dasharray:none;stroke-dashoffset:0"
       d="m 12.443697,21.689222 0,7.110321"
       id="path17061-5"
       inkscape:connector-curvature="0" />
    <path
       sodipodi:type="arc"
       style="fill:#de8787;stroke:#27ff00;stroke-width:1;stroke-linecap:butt;stroke-linejoin:miter;stroke-miterlimit:4;stroke-opacity:1;stroke-dasharray:none;stroke-dashoffset:0"
       id="path16973-2"
       sodipodi:cx="32.5"
       sodipodi:cy="35.5"
       sodipodi:rx="0.5"
       sodipodi:ry="0.5"
       d="m 33,35.5 a 0.5,0.5 0 1 1 -1,0 0.5,0.5 0 1 1 1,0 z"
       transform="translate(-20.12707,-14.26469)" />
    <path
       sodipodi:type="arc"
       style="fill:none;stroke:#ff00ff;stroke-width:1;stroke-linecap:butt;stroke-linejoin:miter;stroke-miterlimit:4;stroke-opacity:1;stroke-dasharray:none;stroke-dashoffset:0"
       id="path16973-0"
       sodipodi:cx="32.5"
       sodipodi:cy="35.5"
       sodipodi:rx="0.5"
       sodipodi:ry="0.5"
       d="m 33,35.5 a 0.5,0.5 0 1 1 -1,0 0.5,0.5 0 1 1 1,0 z"
       transform="translate(-20.098529,-6.5808723)" />
    <path
       sodipodi:type="arc"
       style="fill:none;stroke:#ff00ff;stroke-width:1;stroke-linecap:butt;stroke-linejoin:miter;stroke-miterlimit:4;stroke-opacity:1;stroke-dasharray:none;stroke-dashoffset:0"
       id="path16973"
       sodipodi:cx="32.5"
       sodipodi:cy="35.5"
       sodipodi:rx="0.5"
       sodipodi:ry="0.5"
       d="m 33,35.5 a 0.5,0.5 0 1 1 -1,0 0.5,0.5 0 1 1 1,0 z"
       transform="translate(-12.490351,-14.584942)" />
    <text
       xml:space="preserve"
       style="font-size:6px;font-style:normal;font-variant:normal;font-weight:normal;font-stretch:normal;text-align:start;line-height:125%;letter-spacing:0px;word-spacing:0px;writing-mode:lr-tb;text-anchor:start;fill:#000000;fill-opacity:1;stroke:none;font-family:Arial;-inkscape-font-specification:Arial"
       x="27.381584"
       y="44.202263"
       id="text4051"
       sodipodi:linespacing="125%"><tspan
         sodipodi:role="line"
         id="tspan4053"
         x="27.381584"
         y="44.202263">sCell(n<tspan
   style="font-size:65.00091553000000000%;baseline-shift:sub;fill:#000000;fill-opacity:1"
   id="tspan4069">1</tspan>)</tspan></text>
    <text
       xml:space="preserve"
       style="font-size:6px;font-style:normal;font-variant:normal;font-weight:normal;font-stretch:normal;text-align:start;line-height:125%;letter-spacing:0px;word-spacing:0px;writing-mode:lr-tb;text-anchor:start;fill:#000000;fill-opacity:1;stroke:none;font-family:Arial;-inkscape-font-specification:Arial"
       x="4.6960754"
       y="7.2590599"
       id="text4045"
       sodipodi:linespacing="125%"><tspan
         sodipodi:role="line"
         id="tspan4047"
         x="4.6960754"
         y="7.2590599">iCell(n<tspan
   style="font-size:65.00091553000000000%;baseline-shift:sub;fill:#000000;fill-opacity:1"
   id="tspan4067">2</tspan>)</tspan></text>
    <path
       style="fill:none;fill-opacity:1;stroke:none;stroke-width:0.06250000000000000;stroke-linecap:butt;stroke-linejoin:round;stroke-miterlimit:4;stroke-opacity:1;stroke-dasharray:0.06250000000000000, 0.06250000000000000;stroke-dashoffset:0"
       d="m 5.270035,21.010204 0,-6.685088 6.6875,0 6.6875,0 0,3.3125 c 0,2.125 -0.04481,3.3125 -0.125,3.3125 -0.06875,0 -0.125,0.140625 -0.125,0.3125 0,0.171875 0.05625,0.3125 0.125,0.3125 0.07906,0 0.125,0.895833 0.125,2.4375 0,1.340625 -0.02346,2.4375 -0.05214,2.4375 -0.02868,0 -0.314589,-0.1125 -0.635364,-0.25 -0.320775,-0.1375 -0.636909,-0.25 -0.702521,-0.25 -0.06561,0 0.09801,0.323437 0.363595,0.71875 0.26559,0.395312 0.522852,0.786995 0.571695,0.870406 0.06913,0.118058 -1.352222,0.152139 -6.415731,0.153838 l -6.504538,0.0022 0,-6.685087 z m 7.5,5.877412 c 0,-0.25 -0.0625,-0.3125 -0.3125,-0.3125 -0.25,0 -0.3125,0.0625 -0.3125,0.3125 0,0.25 0.0625,0.3125 0.3125,0.3125 0.25,0 0.3125,-0.0625 0.3125,-0.3125 z m 0,-1 c 0,-0.25 -0.0625,-0.3125 -0.3125,-0.3125 -0.25,0 -0.3125,0.0625 -0.3125,0.3125 0,0.25 0.0625,0.3125 0.3125,0.3125 0.25,0 0.3125,-0.0625 0.3125,-0.3125 z m 0,-1 c 0,-0.25 -0.0625,-0.3125 -0.3125,-0.3125 -0.25,0 -0.3125,0.0625 -0.3125,0.3125 0,0.25 0.0625,0.3125 0.3125,0.3125 0.25,0 0.3125,-0.0625 0.3125,-0.3125 z m 0,-1 c 0,-0.25 -0.0625,-0.3125 -0.3125,-0.3125 -0.25,0 -0.3125,0.0625 -0.3125,0.3125 0,0.25 0.0625,0.3125 0.3125,0.3125 0.25,0 0.3125,-0.0625 0.3125,-0.3125 z m 0,-1 c 0,-0.25 -0.0625,-0.3125 -0.3125,-0.3125 -0.25,0 -0.3125,0.0625 -0.3125,0.3125 0,0.25 0.0625,0.3125 0.3125,0.3125 0.25,0 0.3125,-0.0625 0.3125,-0.3125 z m 0.11606,-0.745377 c 0.194505,-0.100582 0.386821,-0.269332 0.427369,-0.375 0.04055,-0.105668 0.216115,-0.192123 0.390148,-0.192123 0.254185,0 0.316423,-0.06147 0.316423,-0.3125 0,-0.232424 -0.06613,-0.3125 -0.25807,-0.3125 -0.141938,0 -0.400064,-0.16875 -0.573612,-0.375 -0.246676,-0.293159 -0.415418,-0.374132 -0.77318,-0.371025 -0.55658,0.0048 -0.852893,0.212535 -1.030643,0.722429 -0.166705,0.47821 0.05035,1.004096 0.510505,1.236845 0.404197,0.204447 0.561328,0.201097 0.99106,-0.02113 l 0,0 z m 2.13394,-0.879623 c 0,-0.25 -0.0625,-0.3125 -0.3125,-0.3125 -0.25,0 -0.3125,0.0625 -0.3125,0.3125 0,0.25 0.0625,0.3125 0.3125,0.3125 0.25,0 0.3125,-0.0625 0.3125,-0.3125 z m 1,0 c 0,-0.25 -0.0625,-0.3125 -0.3125,-0.3125 -0.25,0 -0.3125,0.0625 -0.3125,0.3125 0,0.25 0.0625,0.3125 0.3125,0.3125 0.25,0 0.3125,-0.0625 0.3125,-0.3125 z m 1,0 c 0,-0.25 -0.0625,-0.3125 -0.3125,-0.3125 -0.25,0 -0.3125,0.0625 -0.3125,0.3125 0,0.25 0.0625,0.3125 0.3125,0.3125 0.25,0 0.3125,-0.0625 0.3125,-0.3125 z m 1,0 c 0,-0.25 -0.0625,-0.3125 -0.3125,-0.3125 -0.25,0 -0.3125,0.0625 -0.3125,0.3125 0,0.25 0.0625,0.3125 0.3125,0.3125 0.25,0 0.3125,-0.0625 0.3125,-0.3125 z"
       id="path3852"
       inkscape:connector-curvature="0" />
    <path
       style="fill:none;stroke:#000003;stroke-width:0.50000000000000000;stroke-linecap:butt;stroke-linejoin:miter;stroke-opacity:1;stroke-miterlimit:4;stroke-dasharray:none;marker-end:url(#Arrow1Mend)"
       d="m 11.375,9 0,8.625"
       id="path3854"
       inkscape:path-effect="#path-effect3856"
       inkscape:original-d="m 11.375,9 0,8.625"
       inkscape:connector-curvature="0" />
    <path
       style="fill:none;stroke:#000003;stroke-width:0.50000000000000000;stroke-linecap:butt;stroke-linejoin:miter;stroke-opacity:1;stroke-miterlimit:4;stroke-dasharray:none;marker-end:url(#Arrow1Mend)"
       d="m 38.875,39 0,-12.875"
       id="path4322"
       inkscape:path-effect="#path-effect4324"
       inkscape:original-d="m 38.875,39 0,-12.875"
       inkscape:connector-curvature="0" />
    <path
       style="fill:none;stroke:#000003;stroke-width:0.50000000000000000;stroke-linecap:butt;stroke-linejoin:miter;stroke-opacity:1;marker-end:url(#Arrow1Mend);stroke-miterlimit:4;stroke-dasharray:none"
       d="m 25.5,42.75 -9.75,0"
       id="path4326"
       inkscape:path-effect="#path-effect4328"
       inkscape:original-d="m 25.5,42.75 -9.75,0"
       inkscape:connector-curvature="0" />
  </g>
</svg>
