<?xml version="1.0" encoding="UTF-8" standalone="no"?>
<!-- Created with Inkscape (http://www.inkscape.org/) -->

<svg
   xmlns:dc="http://purl.org/dc/elements/1.1/"
   xmlns:cc="http://creativecommons.org/ns#"
   xmlns:rdf="http://www.w3.org/1999/02/22-rdf-syntax-ns#"
   xmlns:svg="http://www.w3.org/2000/svg"
   xmlns="http://www.w3.org/2000/svg"
   xmlns:sodipodi="http://sodipodi.sourceforge.net/DTD/sodipodi-0.dtd"
   xmlns:inkscape="http://www.inkscape.org/namespaces/inkscape"
   width="744.09448819"
   height="1052.3622047"
   id="svg2"
   version="1.1"
   inkscape:version="0.48.2 r9819"
   sodipodi:docname="NonManifoldLoopsToFaces1.svg">
  <defs
     id="defs4">
    <marker
       inkscape:stockid="Arrow2Lend"
       orient="auto"
       refY="0.0"
       refX="0.0"
       id="Arrow2Lend"
       style="overflow:visible;">
      <path
         id="path3825"
         style="font-size:12.0;fill-rule:evenodd;stroke-width:0.62500000;stroke-linejoin:round;"
         d="M 8.7185878,4.0337352 L -2.2072895,0.016013256 L 8.7185884,-4.0017078 C 6.9730900,-1.6296469 6.9831476,1.6157441 8.7185878,4.0337352 z "
         transform="scale(1.1) rotate(180) translate(1,0)" />
    </marker>
    <marker
       inkscape:stockid="Arrow1Lstart"
       orient="auto"
       refY="0.0"
       refX="0.0"
       id="Arrow1Lstart"
       style="overflow:visible">
      <path
         id="path3804"
         d="M 0.0,0.0 L 5.0,-5.0 L -12.5,0.0 L 5.0,5.0 L 0.0,0.0 z "
         style="fill-rule:evenodd;stroke:#000000;stroke-width:1.0pt;marker-start:none"
         transform="scale(0.8) translate(12.5,0)" />
    </marker>
    <marker
       inkscape:stockid="Arrow1Lend"
       orient="auto"
       refY="0.0"
       refX="0.0"
       id="Arrow1Lend"
       style="overflow:visible;">
      <path
         id="path3807"
         d="M 0.0,0.0 L 5.0,-5.0 L -12.5,0.0 L 5.0,5.0 L 0.0,0.0 z "
         style="fill-rule:evenodd;stroke:#000000;stroke-width:1.0pt;marker-start:none;"
         transform="scale(0.8) rotate(180) translate(12.5,0)" />
    </marker>
    <inkscape:path-effect
       effect="spiro"
       id="path-effect5840"
       is_visible="true" />
    <marker
       inkscape:stockid="Arrow1Lstart"
       orient="auto"
       refY="0"
       refX="0"
       id="Arrow1Lstart-8"
       style="overflow:visible">
      <path
         inkscape:connector-curvature="0"
         id="path3804-2"
         d="M 0,0 5,-5 -12.5,0 5,5 0,0 z"
         style="fill-rule:evenodd;stroke:#000000;stroke-width:1pt;marker-start:none"
         transform="matrix(0.8,0,0,0.8,10,0)" />
    </marker>
    <inkscape:path-effect
       effect="spiro"
       id="path-effect5840-4"
       is_visible="true" />
    <marker
       inkscape:stockid="Arrow1Lstart"
       orient="auto"
       refY="0"
       refX="0"
       id="Arrow1Lstart-5"
       style="overflow:visible">
      <path
         inkscape:connector-curvature="0"
         id="path3804-1"
         d="M 0,0 5,-5 -12.5,0 5,5 0,0 z"
         style="fill-rule:evenodd;stroke:#000000;stroke-width:1pt;marker-start:none"
         transform="matrix(0.8,0,0,0.8,10,0)" />
    </marker>
    <inkscape:path-effect
       effect="spiro"
       id="path-effect5840-7"
       is_visible="true" />
    <marker
       inkscape:stockid="Arrow1Lstart"
       orient="auto"
       refY="0"
       refX="0"
       id="Arrow1Lstart-1"
       style="overflow:visible">
      <path
         inkscape:connector-curvature="0"
         id="path3804-5"
         d="M 0,0 5,-5 -12.5,0 5,5 0,0 z"
         style="fill-rule:evenodd;stroke:#000000;stroke-width:1pt;marker-start:none"
         transform="matrix(0.8,0,0,0.8,10,0)" />
    </marker>
    <inkscape:path-effect
       effect="spiro"
       id="path-effect5840-7-2"
       is_visible="true" />
    <marker
       inkscape:stockid="Arrow1Lstart"
       orient="auto"
       refY="0"
       refX="0"
       id="Arrow1Lstart-6"
       style="overflow:visible">
      <path
         inkscape:connector-curvature="0"
         id="path3804-14"
         d="M 0,0 5,-5 -12.5,0 5,5 0,0 z"
         style="fill-rule:evenodd;stroke:#000000;stroke-width:1pt;marker-start:none"
         transform="matrix(0.8,0,0,0.8,10,0)" />
    </marker>
    <inkscape:path-effect
       effect="spiro"
       id="path-effect5840-7-2-2"
       is_visible="true" />
    <marker
       inkscape:stockid="Arrow1Lstart"
       orient="auto"
       refY="0"
       refX="0"
       id="Arrow1Lstart-2"
       style="overflow:visible">
      <path
         inkscape:connector-curvature="0"
         id="path3804-21"
         d="M 0,0 5,-5 -12.5,0 5,5 0,0 z"
         style="fill-rule:evenodd;stroke:#000000;stroke-width:1pt;marker-start:none"
         transform="matrix(0.8,0,0,0.8,10,0)" />
    </marker>
    <inkscape:path-effect
       effect="spiro"
       id="path-effect5840-7-2-2-6"
       is_visible="true" />
    <marker
       inkscape:stockid="Arrow1Lstart"
       orient="auto"
       refY="0"
       refX="0"
       id="Arrow1Lstart-57"
       style="overflow:visible">
      <path
         inkscape:connector-curvature="0"
         id="path3804-6"
         d="M 0,0 5,-5 -12.5,0 5,5 0,0 z"
         style="fill-rule:evenodd;stroke:#000000;stroke-width:1pt;marker-start:none"
         transform="matrix(0.8,0,0,0.8,10,0)" />
    </marker>
    <inkscape:path-effect
       effect="spiro"
       id="path-effect5840-7-2-2-6-1"
       is_visible="true" />
    <marker
       inkscape:stockid="Arrow1Lstart"
       orient="auto"
       refY="0"
       refX="0"
       id="Arrow1Lstart-9"
       style="overflow:visible">
      <path
         inkscape:connector-curvature="0"
         id="path3804-27"
         d="M 0,0 5,-5 -12.5,0 5,5 0,0 z"
         style="fill-rule:evenodd;stroke:#000000;stroke-width:1pt;marker-start:none"
         transform="matrix(0.8,0,0,0.8,10,0)" />
    </marker>
    <inkscape:path-effect
       effect="spiro"
       id="path-effect5840-7-2-2-9"
       is_visible="true" />
    <marker
       inkscape:stockid="Arrow1Lstart"
       orient="auto"
       refY="0"
       refX="0"
       id="Arrow1Lstart-3"
       style="overflow:visible">
      <path
         inkscape:connector-curvature="0"
         id="path3804-12"
         d="M 0,0 5,-5 -12.5,0 5,5 0,0 z"
         style="fill-rule:evenodd;stroke:#000000;stroke-width:1pt;marker-start:none"
         transform="matrix(0.8,0,0,0.8,10,0)" />
    </marker>
    <inkscape:path-effect
       effect="spiro"
       id="path-effect5840-7-3"
       is_visible="true" />
    <marker
       inkscape:stockid="Arrow1Lstart"
       orient="auto"
       refY="0"
       refX="0"
       id="Arrow1Lstart-13"
       style="overflow:visible">
      <path
         inkscape:connector-curvature="0"
         id="path3804-8"
         d="M 0,0 5,-5 -12.5,0 5,5 0,0 z"
         style="fill-rule:evenodd;stroke:#000000;stroke-width:1pt;marker-start:none"
         transform="matrix(0.8,0,0,0.8,10,0)" />
    </marker>
    <inkscape:path-effect
       effect="spiro"
       id="path-effect5840-7-3-7"
       is_visible="true" />
    <marker
       inkscape:stockid="Arrow2Lend"
       orient="auto"
       refY="0"
       refX="0"
       id="Arrow2Lend-2"
       style="overflow:visible">
      <path
         inkscape:connector-curvature="0"
         id="path3825-7"
         style="font-size:12px;fill-rule:evenodd;stroke-width:0.625;stroke-linejoin:round"
         d="M 8.7185878,4.0337352 -2.2072895,0.01601326 8.7185884,-4.0017078 c -1.7454984,2.3720609 -1.7354408,5.6174519 -6e-7,8.035443 z"
         transform="matrix(-1.1,0,0,-1.1,-1.1,0)" />
    </marker>
    <marker
       inkscape:stockid="Arrow2Lend"
       orient="auto"
       refY="0"
       refX="0"
       id="Arrow2Lend-5"
       style="overflow:visible">
      <path
         inkscape:connector-curvature="0"
         id="path3825-2"
         style="font-size:12px;fill-rule:evenodd;stroke-width:0.625;stroke-linejoin:round"
         d="M 8.7185878,4.0337352 -2.2072895,0.01601326 8.7185884,-4.0017078 c -1.7454984,2.3720609 -1.7354408,5.6174519 -6e-7,8.035443 z"
         transform="matrix(-1.1,0,0,-1.1,-1.1,0)" />
    </marker>
    <marker
       inkscape:stockid="Arrow2Lend"
       orient="auto"
       refY="0"
       refX="0"
       id="Arrow2Lend-6"
       style="overflow:visible">
      <path
         inkscape:connector-curvature="0"
         id="path3825-78"
         style="font-size:12px;fill-rule:evenodd;stroke-width:0.625;stroke-linejoin:round"
         d="M 8.7185878,4.0337352 -2.2072895,0.01601326 8.7185884,-4.0017078 c -1.7454984,2.3720609 -1.7354408,5.6174519 -6e-7,8.035443 z"
         transform="matrix(-1.1,0,0,-1.1,-1.1,0)" />
    </marker>
    <marker
       inkscape:stockid="Arrow2Lend"
       orient="auto"
       refY="0"
       refX="0"
       id="Arrow2Lend-8"
       style="overflow:visible">
      <path
         inkscape:connector-curvature="0"
         id="path3825-1"
         style="font-size:12px;fill-rule:evenodd;stroke-width:0.625;stroke-linejoin:round"
         d="M 8.7185878,4.0337352 -2.2072895,0.01601326 8.7185884,-4.0017078 c -1.7454984,2.3720609 -1.7354408,5.6174519 -6e-7,8.035443 z"
         transform="matrix(-1.1,0,0,-1.1,-1.1,0)" />
    </marker>
    <marker
       inkscape:stockid="Arrow2Lend"
       orient="auto"
       refY="0"
       refX="0"
       id="Arrow2Lend-0"
       style="overflow:visible">
      <path
         inkscape:connector-curvature="0"
         id="path3825-9"
         style="font-size:12px;fill-rule:evenodd;stroke-width:0.625;stroke-linejoin:round"
         d="M 8.7185878,4.0337352 -2.2072895,0.01601326 8.7185884,-4.0017078 c -1.7454984,2.3720609 -1.7354408,5.6174519 -6e-7,8.035443 z"
         transform="matrix(-1.1,0,0,-1.1,-1.1,0)" />
    </marker>
    <marker
       inkscape:stockid="Arrow2Lend"
       orient="auto"
       refY="0"
       refX="0"
       id="Arrow2Lend-89"
       style="overflow:visible">
      <path
         inkscape:connector-curvature="0"
         id="path3825-0"
         style="font-size:12px;fill-rule:evenodd;stroke-width:0.625;stroke-linejoin:round"
         d="M 8.7185878,4.0337352 -2.2072895,0.01601326 8.7185884,-4.0017078 c -1.7454984,2.3720609 -1.7354408,5.6174519 -6e-7,8.035443 z"
         transform="matrix(-1.1,0,0,-1.1,-1.1,0)" />
    </marker>
    <marker
       inkscape:stockid="Arrow2Lend"
       orient="auto"
       refY="0"
       refX="0"
       id="Arrow2Lend-07"
       style="overflow:visible">
      <path
         inkscape:connector-curvature="0"
         id="path3825-25"
         style="font-size:12px;fill-rule:evenodd;stroke-width:0.625;stroke-linejoin:round"
         d="M 8.7185878,4.0337352 -2.2072895,0.01601326 8.7185884,-4.0017078 c -1.7454984,2.3720609 -1.7354408,5.6174519 -6e-7,8.035443 z"
         transform="matrix(-1.1,0,0,-1.1,-1.1,0)" />
    </marker>
    <marker
       inkscape:stockid="Arrow1Lstart"
       orient="auto"
       refY="0"
       refX="0"
       id="Arrow1Lstart-17"
       style="overflow:visible">
      <path
         inkscape:connector-curvature="0"
         id="path3804-4"
         d="M 0,0 5,-5 -12.5,0 5,5 0,0 z"
         style="fill-rule:evenodd;stroke:#000000;stroke-width:1pt;marker-start:none"
         transform="matrix(0.8,0,0,0.8,10,0)" />
    </marker>
    <inkscape:path-effect
       effect="spiro"
       id="path-effect5840-7-3-0"
       is_visible="true" />
    <marker
       inkscape:stockid="Arrow1Lstart"
       orient="auto"
       refY="0"
       refX="0"
       id="Arrow1Lstart-4"
       style="overflow:visible">
      <path
         inkscape:connector-curvature="0"
         id="path3804-55"
         d="M 0,0 5,-5 -12.5,0 5,5 0,0 z"
         style="fill-rule:evenodd;stroke:#000000;stroke-width:1pt;marker-start:none"
         transform="matrix(0.8,0,0,0.8,10,0)" />
    </marker>
    <inkscape:path-effect
       effect="spiro"
       id="path-effect5840-7-3-7-1"
       is_visible="true" />
    <marker
       inkscape:stockid="Arrow2Lend"
       orient="auto"
       refY="0"
       refX="0"
       id="Arrow2Lend-2-1"
       style="overflow:visible">
      <path
         inkscape:connector-curvature="0"
         id="path3825-7-7"
         style="font-size:12px;fill-rule:evenodd;stroke-width:0.625;stroke-linejoin:round"
         d="M 8.7185878,4.0337352 -2.2072895,0.01601326 8.7185884,-4.0017078 c -1.7454984,2.3720609 -1.7354408,5.6174519 -6e-7,8.035443 z"
         transform="matrix(-1.1,0,0,-1.1,-1.1,0)" />
    </marker>
    <marker
       inkscape:stockid="Arrow2Lend"
       orient="auto"
       refY="0"
       refX="0"
       id="Arrow2Lend-2-4"
       style="overflow:visible">
      <path
         inkscape:connector-curvature="0"
         id="path3825-7-0"
         style="font-size:12px;fill-rule:evenodd;stroke-width:0.625;stroke-linejoin:round"
         d="M 8.7185878,4.0337352 -2.2072895,0.01601326 8.7185884,-4.0017078 c -1.7454984,2.3720609 -1.7354408,5.6174519 -6e-7,8.035443 z"
         transform="matrix(-1.1,0,0,-1.1,-1.1,0)" />
    </marker>
    <marker
       inkscape:stockid="Arrow2Lend"
       orient="auto"
       refY="0"
       refX="0"
       id="Arrow2Lend-9"
       style="overflow:visible">
      <path
         inkscape:connector-curvature="0"
         id="path3825-4"
         style="font-size:12px;fill-rule:evenodd;stroke-width:0.625;stroke-linejoin:round"
         d="M 8.7185878,4.0337352 -2.2072895,0.01601326 8.7185884,-4.0017078 c -1.7454984,2.3720609 -1.7354408,5.6174519 -6e-7,8.035443 z"
         transform="matrix(-1.1,0,0,-1.1,-1.1,0)" />
    </marker>
    <marker
       inkscape:stockid="Arrow2Lend"
       orient="auto"
       refY="0"
       refX="0"
       id="marker6268"
       style="overflow:visible">
      <path
         inkscape:connector-curvature="0"
         id="path6270"
         style="font-size:12px;fill-rule:evenodd;stroke-width:0.625;stroke-linejoin:round"
         d="M 8.7185878,4.0337352 -2.2072895,0.01601326 8.7185884,-4.0017078 c -1.7454984,2.3720609 -1.7354408,5.6174519 -6e-7,8.035443 z"
         transform="matrix(-1.1,0,0,-1.1,-1.1,0)" />
    </marker>
    <marker
       inkscape:stockid="Arrow2Lend"
       orient="auto"
       refY="0"
       refX="0"
       id="marker6272"
       style="overflow:visible">
      <path
         inkscape:connector-curvature="0"
         id="path6274"
         style="font-size:12px;fill-rule:evenodd;stroke-width:0.625;stroke-linejoin:round"
         d="M 8.7185878,4.0337352 -2.2072895,0.01601326 8.7185884,-4.0017078 c -1.7454984,2.3720609 -1.7354408,5.6174519 -6e-7,8.035443 z"
         transform="matrix(-1.1,0,0,-1.1,-1.1,0)" />
    </marker>
    <marker
       inkscape:stockid="Arrow2Lend"
       orient="auto"
       refY="0"
       refX="0"
       id="marker6276"
       style="overflow:visible">
      <path
         inkscape:connector-curvature="0"
         id="path6278"
         style="font-size:12px;fill-rule:evenodd;stroke-width:0.625;stroke-linejoin:round"
         d="M 8.7185878,4.0337352 -2.2072895,0.01601326 8.7185884,-4.0017078 c -1.7454984,2.3720609 -1.7354408,5.6174519 -6e-7,8.035443 z"
         transform="matrix(-1.1,0,0,-1.1,-1.1,0)" />
    </marker>
    <marker
       inkscape:stockid="Arrow2Lend"
       orient="auto"
       refY="0"
       refX="0"
       id="marker6280"
       style="overflow:visible">
      <path
         inkscape:connector-curvature="0"
         id="path6282"
         style="font-size:12px;fill-rule:evenodd;stroke-width:0.625;stroke-linejoin:round"
         d="M 8.7185878,4.0337352 -2.2072895,0.01601326 8.7185884,-4.0017078 c -1.7454984,2.3720609 -1.7354408,5.6174519 -6e-7,8.035443 z"
         transform="matrix(-1.1,0,0,-1.1,-1.1,0)" />
    </marker>
    <marker
       inkscape:stockid="Arrow2Lend"
       orient="auto"
       refY="0"
       refX="0"
       id="marker6284"
       style="overflow:visible">
      <path
         inkscape:connector-curvature="0"
         id="path6286"
         style="font-size:12px;fill-rule:evenodd;stroke-width:0.625;stroke-linejoin:round"
         d="M 8.7185878,4.0337352 -2.2072895,0.01601326 8.7185884,-4.0017078 c -1.7454984,2.3720609 -1.7354408,5.6174519 -6e-7,8.035443 z"
         transform="matrix(-1.1,0,0,-1.1,-1.1,0)" />
    </marker>
    <marker
       inkscape:stockid="Arrow1Lstart"
       orient="auto"
       refY="0"
       refX="0"
       id="Arrow1Lstart-88"
       style="overflow:visible">
      <path
         inkscape:connector-curvature="0"
         id="path3804-24"
         d="M 0,0 5,-5 -12.5,0 5,5 0,0 z"
         style="fill-rule:evenodd;stroke:#000000;stroke-width:1pt;marker-start:none"
         transform="matrix(0.8,0,0,0.8,10,0)" />
    </marker>
    <inkscape:path-effect
       effect="spiro"
       id="path-effect5840-7-3-0-5"
       is_visible="true" />
    <marker
       inkscape:stockid="Arrow1Lstart"
       orient="auto"
       refY="0"
       refX="0"
       id="marker6291"
       style="overflow:visible">
      <path
         inkscape:connector-curvature="0"
         id="path6293"
         d="M 0,0 5,-5 -12.5,0 5,5 0,0 z"
         style="fill-rule:evenodd;stroke:#000000;stroke-width:1pt;marker-start:none"
         transform="matrix(0.8,0,0,0.8,10,0)" />
    </marker>
    <inkscape:path-effect
       effect="spiro"
       id="path-effect5840-7-3-7-1-5"
       is_visible="true" />
    <marker
       inkscape:stockid="Arrow2Lend"
       orient="auto"
       refY="0"
       refX="0"
       id="Arrow2Lend-54"
       style="overflow:visible">
      <path
         inkscape:connector-curvature="0"
         id="path3825-3"
         style="font-size:12px;fill-rule:evenodd;stroke-width:0.625;stroke-linejoin:round"
         d="M 8.7185878,4.0337352 -2.2072895,0.01601326 8.7185884,-4.0017078 c -1.7454984,2.3720609 -1.7354408,5.6174519 -6e-7,8.035443 z"
         transform="matrix(-1.1,0,0,-1.1,-1.1,0)" />
    </marker>
    <marker
       inkscape:stockid="Arrow2Lend"
       orient="auto"
       refY="0"
       refX="0"
       id="Arrow2Lend-4"
       style="overflow:visible">
      <path
         inkscape:connector-curvature="0"
         id="path3825-11"
         style="font-size:12px;fill-rule:evenodd;stroke-width:0.625;stroke-linejoin:round"
         d="M 8.7185878,4.0337352 -2.2072895,0.01601326 8.7185884,-4.0017078 c -1.7454984,2.3720609 -1.7354408,5.6174519 -6e-7,8.035443 z"
         transform="matrix(-1.1,0,0,-1.1,-1.1,0)" />
    </marker>
    <marker
       inkscape:stockid="Arrow1Lstart"
       orient="auto"
       refY="0"
       refX="0"
       id="Arrow1Lstart-42"
       style="overflow:visible">
      <path
         inkscape:connector-curvature="0"
         id="path3804-7"
         d="M 0,0 5,-5 -12.5,0 5,5 0,0 z"
         style="fill-rule:evenodd;stroke:#000000;stroke-width:1pt;marker-start:none"
         transform="matrix(0.8,0,0,0.8,10,0)" />
    </marker>
    <inkscape:path-effect
       effect="spiro"
       id="path-effect5840-7-3-7-1-5-7"
       is_visible="true" />
  </defs>
  <sodipodi:namedview
     id="base"
     pagecolor="#ffffff"
     bordercolor="#666666"
     borderopacity="1.0"
     inkscape:pageopacity="0.0"
     inkscape:pageshadow="2"
     inkscape:zoom="0.41142369"
     inkscape:cx="-280.59461"
     inkscape:cy="479.33916"
     inkscape:document-units="px"
     inkscape:current-layer="g7405"
     showgrid="true"
     inkscape:window-width="1366"
     inkscape:window-height="707"
     inkscape:window-x="-9"
     inkscape:window-y="-9"
     inkscape:window-maximized="1">
    <inkscape:grid
       type="xygrid"
       id="grid2987"
       empspacing="5"
       visible="true"
       enabled="true"
       snapvisiblegridlinesonly="true" />
  </sodipodi:namedview>
  <metadata
     id="metadata7">
    <rdf:RDF>
      <cc:Work
         rdf:about="">
        <dc:format>image/svg+xml</dc:format>
        <dc:type
           rdf:resource="http://purl.org/dc/dcmitype/StillImage" />
        <dc:title />
      </cc:Work>
    </rdf:RDF>
  </metadata>
  <g
     inkscape:label="Layer 1"
     inkscape:groupmode="layer"
     id="layer1">
    <g
       id="g7405"
       transform="translate(18.978085,-82.880967)">
      <g
         id="g7498"
         transform="matrix(1.3973323,0,0,1.2561474,-86.124431,-94.407242)">
        <g
           transform="translate(-19.200014,82.880967)"
           id="g7424">
          <g
             id="g3191"
             transform="translate(-7.4438535,0)">
            <path
               inkscape:connector-curvature="0"
               id="path7228"
               d="m 270,387.55832 c 0,14.80386 0,14.80386 0,14.80386"
               style="fill:none;stroke:#00f200;stroke-width:1.50959289;stroke-linecap:butt;stroke-linejoin:miter;stroke-miterlimit:4;stroke-opacity:1;stroke-dasharray:none;marker-end:url(#Arrow2Lend-2)" />
            <path
               inkscape:connector-curvature="0"
               id="path7454"
               d="m 210.48771,362.72898 124.79999,0 0,0"
               style="fill:none;stroke:#000000;stroke-width:3.01918578;stroke-linecap:butt;stroke-linejoin:miter;stroke-miterlimit:4;stroke-opacity:1;stroke-dasharray:none" />
            <path
               inkscape:connector-curvature="0"
               id="path7456"
               d="m 268.08771,362.72898 0,-59.21544"
               style="fill:none;stroke:#000000;stroke-width:3.01918578;stroke-linecap:butt;stroke-linejoin:miter;stroke-miterlimit:4;stroke-opacity:1;stroke-dasharray:none" />
            <path
               inkscape:connector-curvature="0"
               id="path6910-7-7"
               d="M 335.2877,371.62451 268.08771,370.1309"
               style="fill:none;stroke:#000000;stroke-width:0.75479645;stroke-linecap:butt;stroke-linejoin:miter;stroke-miterlimit:4;stroke-opacity:1;stroke-dasharray:2.26438925, 2.26438925;stroke-dashoffset:0;marker-end:url(#Arrow2Lend)" />
            <path
               inkscape:connector-curvature="0"
               id="path6910-7-7-7"
               d="M 268.07373,371.62451 210.48771,370.1309"
               style="fill:none;stroke:#000000;stroke-width:0.75479645;stroke-linecap:butt;stroke-linejoin:miter;stroke-miterlimit:4;stroke-opacity:1;stroke-dasharray:2.26438923, 2.26438923;stroke-dashoffset:0;marker-end:url(#Arrow2Lend)" />
            <path
               inkscape:connector-curvature="0"
               id="path6910-7-7-7-6"
               d="m 210.48771,353.24646 47.18888,0.54175"
               style="fill:none;stroke:#000000;stroke-width:0.75479645;stroke-linecap:butt;stroke-linejoin:miter;stroke-miterlimit:4;stroke-opacity:1;stroke-dasharray:2.26438925, 2.26438925;stroke-dashoffset:0;marker-end:url(#Arrow2Lend)" />
            <path
               inkscape:connector-curvature="0"
               id="path6910-7-7-7-6-5"
               d="m 258.48771,347.92511 -0.61609,-44.41157"
               style="fill:none;stroke:#000000;stroke-width:0.75479645;stroke-linecap:butt;stroke-linejoin:miter;stroke-miterlimit:4;stroke-opacity:1;stroke-dasharray:2.26438925, 2.26438925;stroke-dashoffset:0;marker-end:url(#Arrow2Lend)" />
            <path
               inkscape:connector-curvature="0"
               id="path6910-7-7-7-6-5-0"
               d="m 277.85532,310.91312 -0.16761,44.41393"
               style="fill:none;stroke:#000000;stroke-width:0.75479645;stroke-linecap:butt;stroke-linejoin:miter;stroke-miterlimit:4;stroke-opacity:1;stroke-dasharray:2.26438925, 2.26438925;stroke-dashoffset:0;marker-end:url(#Arrow2Lend)" />
            <path
               inkscape:connector-curvature="0"
               id="path6910-7-7-7-6-52"
               d="m 288.09883,354.78529 47.18887,0.54176"
               style="fill:none;stroke:#000000;stroke-width:0.75479645;stroke-linecap:butt;stroke-linejoin:miter;stroke-miterlimit:4;stroke-opacity:1;stroke-dasharray:2.26438925, 2.26438925;stroke-dashoffset:0;marker-end:url(#Arrow2Lend)" />
            <path
               transform="matrix(0.95999997,0,0,0.74019302,146.16773,-168.9977)"
               d="m 70,717.36218 c 0,2.76143 -2.238576,5 -5,5 -2.761424,0 -5,-2.23857 -5,-5 0,-2.76142 2.238576,-5 5,-5 2.761424,0 5,2.23858 5,5 z"
               sodipodi:ry="5"
               sodipodi:rx="5"
               sodipodi:cy="717.36218"
               sodipodi:cx="65"
               id="path6809-1"
               style="opacity:0.5;fill:#ff0000;fill-opacity:1;stroke:#000000;stroke-width:1.79081905;stroke-miterlimit:4;stroke-opacity:1;stroke-dasharray:14.32655286, 14.32655286;stroke-dashoffset:0"
               sodipodi:type="arc" />
            <path
               transform="matrix(0.95999997,0,0,0.74019302,272.88773,-167.51732)"
               d="m 70,717.36218 c 0,2.76143 -2.238576,5 -5,5 -2.761424,0 -5,-2.23857 -5,-5 0,-2.76142 2.238576,-5 5,-5 2.761424,0 5,2.23858 5,5 z"
               sodipodi:ry="5"
               sodipodi:rx="5"
               sodipodi:cy="717.36218"
               sodipodi:cx="65"
               id="path6809-1-4"
               style="opacity:0.5;fill:#ff0000;fill-opacity:1;stroke:#000000;stroke-width:1.79081905;stroke-miterlimit:4;stroke-opacity:1;stroke-dasharray:14.32655286, 14.32655286;stroke-dashoffset:0"
               sodipodi:type="arc" />
            <path
               transform="matrix(0.95999997,0,0,0.74019302,205.68773,-226.73276)"
               d="m 70,717.36218 c 0,2.76143 -2.238576,5 -5,5 -2.761424,0 -5,-2.23857 -5,-5 0,-2.76142 2.238576,-5 5,-5 2.761424,0 5,2.23858 5,5 z"
               sodipodi:ry="5"
               sodipodi:rx="5"
               sodipodi:cy="717.36218"
               sodipodi:cx="65"
               id="path6809-1-4-8"
               style="opacity:0.5;fill:#ff0000;fill-opacity:1;stroke:#000000;stroke-width:1.79081905;stroke-miterlimit:4;stroke-opacity:1;stroke-dasharray:14.32655286, 14.32655286;stroke-dashoffset:0"
               sodipodi:type="arc" />
            <path
               transform="matrix(0.95999997,0,0,0.74019302,205.68773,-168.9977)"
               d="m 70,717.36218 c 0,2.76143 -2.238576,5 -5,5 -2.761424,0 -5,-2.23857 -5,-5 0,-2.76142 2.238576,-5 5,-5 2.761424,0 5,2.23858 5,5 z"
               sodipodi:ry="5"
               sodipodi:rx="5"
               sodipodi:cy="717.36218"
               sodipodi:cx="65"
               id="path6809-1-4-8-6"
               style="opacity:0.5;fill:#0000ff;fill-opacity:1;stroke:#000000;stroke-width:1.79081905;stroke-miterlimit:4;stroke-opacity:1;stroke-dasharray:14.32655286, 14.32655286;stroke-dashoffset:0"
               sodipodi:type="arc" />
            <path
               sodipodi:nodetypes="cccccccccc"
               inkscape:connector-curvature="0"
               id="path7731"
               d="m 239.28771,429.34635 38.4,0 0,59.21544 57.59999,0 0,29.60775 -153.59999,0 0,-29.60775 57.6,0 0,0 z"
               style="fill:#b3b3b3;stroke:#000000;stroke-width:1.50959289;stroke-linecap:butt;stroke-linejoin:miter;stroke-miterlimit:4;stroke-opacity:1;stroke-dasharray:none" />
            <path
               sodipodi:nodetypes="cscc"
               inkscape:connector-curvature="0"
               inkscape:original-d="m 271.46978,356.94353 c 0,0 28.97721,-20.06318 45.41792,-26.66475 9.15888,-3.67764 28.66007,-6.81316 28.66007,-6.81316 l 0,0"
               inkscape:path-effect="#path-effect5840-7-3-0"
               id="path5838-1-3-9"
               d="m 271.46978,356.94353 c 13.2564,-11.67242 28.76505,-20.77751 45.41792,-26.66475 9.27557,-3.27916 18.90112,-5.56738 28.66007,-6.81316 l 0,0"
               style="fill:none;stroke:#000000;stroke-width:0.75479645px;stroke-linecap:butt;stroke-linejoin:miter;stroke-opacity:1;marker-start:url(#Arrow1Lstart)" />
            <text
               transform="scale(1.138841,0.8780857)"
               sodipodi:linespacing="125%"
               id="text6793-4-4"
               y="355.73087"
               x="307.32999"
               style="font-size:20.23109436px;font-style:normal;font-variant:normal;font-weight:normal;font-stretch:normal;line-height:125%;letter-spacing:0px;word-spacing:0px;fill:#000000;fill-opacity:1;stroke:none;font-family:ItalicT;-inkscape-font-specification:ItalicT"
               xml:space="preserve"><tspan
                 style="font-size:20px"
                 y="355.73087"
                 x="307.32999"
                 id="tspan6795-1-8"
                 sodipodi:role="line">Radial </tspan><tspan
                 id="tspan3181"
                 style="font-size:20px"
                 y="380.73087"
                 x="307.32999"
                 sodipodi:role="line">Vertex</tspan></text>
            <text
               transform="scale(1.138841,0.8780857)"
               sodipodi:linespacing="125%"
               id="text6904-8"
               y="446.83813"
               x="324.89172"
               style="font-size:20.23109436px;font-style:normal;font-variant:normal;font-weight:normal;font-stretch:normal;line-height:125%;letter-spacing:0px;word-spacing:0px;fill:#000000;fill-opacity:1;stroke:none;font-family:ItalicT;-inkscape-font-specification:ItalicT"
               xml:space="preserve"><tspan
                 style="font-size:20px"
                 y="446.83813"
                 x="324.89172"
                 id="tspan6906-2"
                 sodipodi:role="line">Sharp </tspan><tspan
                 id="tspan3177"
                 style="font-size:20px"
                 y="471.83813"
                 x="324.89172"
                 sodipodi:role="line">Radial </tspan><tspan
                 id="tspan3179"
                 style="font-size:20px"
                 y="496.83813"
                 x="324.89172"
                 sodipodi:role="line">Edge</tspan></text>
            <path
               sodipodi:nodetypes="cscc"
               inkscape:connector-curvature="0"
               inkscape:original-d="m 294.98735,365.24313 c 0,0 24.57033,25.26875 39.4317,34.91331 8.27905,5.37287 26.81116,12.20574 26.81116,12.20574 l 0,0"
               inkscape:path-effect="#path-effect5840-7-3-7-1"
               id="path5838-1-3-4-7"
               d="m 294.98735,365.24313 c 10.76,14.00714 24.22457,25.92884 39.4317,34.91331 8.4703,5.00431 17.47488,9.10363 26.81116,12.20574 l 0,0"
               style="fill:none;stroke:#000000;stroke-width:0.75479645px;stroke-linecap:butt;stroke-linejoin:miter;stroke-opacity:1;marker-start:url(#Arrow1Lstart)" />
          </g>
          <text
             xml:space="preserve"
             style="font-size:24px;font-style:normal;font-variant:normal;font-weight:normal;font-stretch:normal;text-align:start;line-height:125%;letter-spacing:0px;word-spacing:0px;writing-mode:lr-tb;text-anchor:start;fill:#000000;fill-opacity:1;stroke:none;font-family:Arial;-inkscape-font-specification:Arial"
             x="299.21112"
             y="571.59344"
             id="text3117"
             sodipodi:linespacing="125%"><tspan
               sodipodi:role="line"
               id="tspan3119"
               x="299.21112"
               y="571.59344">(b)</tspan></text>
        </g>
        <g
           transform="translate(-19.200015,82.880967)"
           id="g6447">
          <text
             xml:space="preserve"
             style="font-size:24px;font-style:normal;font-variant:normal;font-weight:normal;font-stretch:normal;text-align:start;line-height:125%;letter-spacing:0px;word-spacing:0px;writing-mode:lr-tb;text-anchor:start;fill:#000000;fill-opacity:1;stroke:none;font-family:Arial;-inkscape-font-specification:Arial"
             x="299.21112"
             y="246.91841"
             id="text3113"
             sodipodi:linespacing="125%"><tspan
               sodipodi:role="line"
               id="tspan3115"
               x="299.21112"
               y="246.91841">(a)</tspan></text>
          <g
             id="g3216"
             transform="translate(12.735901,0)">
            <path
               inkscape:connector-curvature="0"
               id="path6805"
               d="m 175.42875,128.77953 153.59999,0 0,0"
               style="fill:none;stroke:#000000;stroke-width:3.01918578;stroke-linecap:butt;stroke-linejoin:miter;stroke-miterlimit:4;stroke-opacity:1;stroke-dasharray:none" />
            <path
               transform="matrix(0.95999997,0,0,0.74019302,113.98877,-402.20695)"
               d="m 70,717.36218 c 0,2.76143 -2.238576,5 -5,5 -2.761424,0 -5,-2.23857 -5,-5 0,-2.76142 2.238576,-5 5,-5 2.761424,0 5,2.23858 5,5 z"
               sodipodi:ry="5"
               sodipodi:rx="5"
               sodipodi:cy="717.36218"
               sodipodi:cx="65"
               id="path6809"
               style="opacity:0.5;fill:#ff0000;fill-opacity:1;stroke:#000000;stroke-width:1.79081905;stroke-miterlimit:4;stroke-opacity:1;stroke-dasharray:14.32655286, 14.32655286;stroke-dashoffset:0"
               sodipodi:type="arc" />
            <path
               inkscape:transform-center-y="22.205798"
               inkscape:transform-center-x="75.839995"
               transform="matrix(0.95999997,0,0,0.74019302,265.66877,-402.20695)"
               d="m 70,717.36218 c 0,2.76143 -2.238576,5 -5,5 -2.761424,0 -5,-2.23857 -5,-5 0,-2.76142 2.238576,-5 5,-5 2.761424,0 5,2.23858 5,5 z"
               sodipodi:ry="5"
               sodipodi:rx="5"
               sodipodi:cy="717.36218"
               sodipodi:cx="65"
               id="path6809-4"
               style="opacity:0.5;fill:#ff0000;fill-opacity:1;stroke:#000000;stroke-width:1.79081905;stroke-miterlimit:4;stroke-opacity:1;stroke-dasharray:14.32655286, 14.32655286;stroke-dashoffset:0"
               sodipodi:type="arc" />
            <path
               sodipodi:nodetypes="cscc"
               inkscape:connector-curvature="0"
               inkscape:original-d="m 341.04166,132.94886 c 0,0 33.64158,10.50969 48.95834,19.41332 8.53274,4.96008 22.99871,18.40863 22.99871,18.40863 l 0,0"
               inkscape:path-effect="#path-effect5840-7-3"
               id="path5838-1-3"
               d="m 341.04166,132.94886 c 17.35678,3.27409 34.07437,9.90307 48.95834,19.41332 8.2903,5.29717 16.01447,11.47974 22.99871,18.40863 l 0,0"
               style="fill:none;stroke:#000000;stroke-width:0.75479645px;stroke-linecap:butt;stroke-linejoin:miter;stroke-opacity:1;marker-start:url(#Arrow1Lstart)" />
            <text
               transform="scale(1.138841,0.8780857)"
               sodipodi:linespacing="125%"
               id="text6793-4"
               y="219.06995"
               x="307.32999"
               style="font-size:20.23109436px;font-style:normal;font-variant:normal;font-weight:normal;font-stretch:normal;line-height:125%;letter-spacing:0px;word-spacing:0px;fill:#000000;fill-opacity:1;stroke:none;font-family:ItalicT;-inkscape-font-specification:ItalicT"
               xml:space="preserve"><tspan
                 style="font-size:20px"
                 y="219.06995"
                 x="307.32999"
                 id="tspan6795-1"
                 sodipodi:role="line">Sharp </tspan><tspan
                 id="tspan3185"
                 style="font-size:20px"
                 y="244.06995"
                 x="307.32999"
                 sodipodi:role="line">Vertex</tspan></text>
            <path
               sodipodi:nodetypes="cscc"
               inkscape:connector-curvature="0"
               inkscape:original-d="m 275.64751,126.28341 c 0,0 20.93062,-28.357017 34.35249,-39.921227 7.47714,-6.442277 24.91601,-15.716589 24.91601,-15.716589 l 0,0"
               inkscape:path-effect="#path-effect5840-7-3-7"
               id="path5838-1-3-4"
               d="M 275.64751,126.28341 C 284.41614,110.95081 296.14634,97.319083 310,86.362183 317.71643,80.25924 326.08452,74.980791 334.91601,70.645594 l 0,0"
               style="fill:none;stroke:#000000;stroke-width:0.75479645px;stroke-linecap:butt;stroke-linejoin:miter;stroke-opacity:1;marker-start:url(#Arrow1Lstart)" />
            <text
               transform="scale(1.138841,0.8780857)"
               sodipodi:linespacing="125%"
               id="text6904"
               y="82.409019"
               x="307.32999"
               style="font-size:20.23109436px;font-style:normal;font-variant:normal;font-weight:normal;font-stretch:normal;line-height:125%;letter-spacing:0px;word-spacing:0px;fill:#000000;fill-opacity:1;stroke:none;font-family:ItalicT;-inkscape-font-specification:ItalicT"
               xml:space="preserve"><tspan
                 style="font-size:20px"
                 y="82.409019"
                 x="307.32999"
                 id="tspan6906"
                 sodipodi:role="line">Sharp </tspan><tspan
                 id="tspan3183"
                 style="font-size:20px"
                 y="107.40902"
                 x="307.32999"
                 sodipodi:role="line">Edge</tspan></text>
            <rect
               y="182.75446"
               x="166.8"
               height="29.607723"
               width="163.2"
               id="rect6908"
               style="fill:#b3b3b3;fill-opacity:1;stroke:#000000;stroke-width:1.50959289;stroke-miterlimit:4;stroke-opacity:1;stroke-dasharray:none;stroke-dashoffset:0" />
            <path
               inkscape:connector-curvature="0"
               id="path6910"
               d="m 185.02875,121.3776 134.39999,0"
               style="fill:none;stroke:#000000;stroke-width:0.75479645;stroke-linecap:butt;stroke-linejoin:miter;stroke-miterlimit:4;stroke-opacity:1;stroke-dasharray:2.26438925, 2.26438925;stroke-dashoffset:0;marker-end:url(#Arrow2Lend)" />
            <path
               inkscape:connector-curvature="0"
               id="path6910-7"
               d="m 319.42874,136.18146 -134.38603,-1.4936"
               style="fill:none;stroke:#000000;stroke-width:0.75479645;stroke-linecap:butt;stroke-linejoin:miter;stroke-miterlimit:4;stroke-opacity:1;stroke-dasharray:2.26438923, 2.26438923;stroke-dashoffset:0;marker-end:url(#Arrow2Lend)" />
            <path
               inkscape:connector-curvature="0"
               id="path7228-4"
               d="m 250,152.36218 c 0,14.80386 0,14.80386 0,14.80386"
               style="fill:none;stroke:#00f200;stroke-width:1.50959289;stroke-linecap:butt;stroke-linejoin:miter;stroke-miterlimit:4;stroke-opacity:1;stroke-dasharray:none;marker-end:url(#Arrow2Lend-2)" />
          </g>
        </g>
        <path
           style="fill:none;stroke:#00f200;stroke-width:1.50959289;stroke-linecap:butt;stroke-linejoin:miter;stroke-miterlimit:4;stroke-opacity:1;stroke-dasharray:none;marker-end:url(#Arrow2Lend-2)"
           d="m 259.96477,772.36218 c 0,14.80386 0,14.80386 0,14.80386"
           id="path7228-7"
           inkscape:connector-curvature="0" />
        <text
           xml:space="preserve"
           style="font-size:24px;font-style:normal;font-variant:normal;font-weight:normal;font-stretch:normal;text-align:start;line-height:125%;letter-spacing:0px;word-spacing:0px;writing-mode:lr-tb;text-anchor:start;fill:#000000;fill-opacity:1;stroke:none;font-family:Arial;-inkscape-font-specification:Arial"
           x="245.70313"
           y="972.36218"
           id="text3117-7"
           sodipodi:linespacing="125%"><tspan
             sodipodi:role="line"
             id="tspan3119-9"
             x="245.70313"
             y="972.36218">(c)</tspan></text>
        <path
           style="fill:#b3b3b3;stroke:#000000;stroke-width:1.50959289;stroke-linecap:butt;stroke-linejoin:miter;stroke-miterlimit:4;stroke-opacity:1;stroke-dasharray:none"
           d="m 200,815.21933 30,-10e-6 0,50 c 0,0 0,-4.28571 0,10 0,14.28572 30,10 30,10 l 60,0 0,30 -80,0 c 0,0 40,0 0,0 -40,0 -40,-42.85714 -40,-42.85714 z"
           id="path6490"
           inkscape:connector-curvature="0"
           sodipodi:nodetypes="cccsccccscc" />
        <g
           transform="translate(5.191715,12.88095)"
           id="g7365">
          <path
             inkscape:connector-curvature="0"
             id="path6910-7-7-7-6-7-1"
             d="m 182.41112,701.82043 117.18887,0.54175"
             style="fill:none;stroke:#000000;stroke-width:0.75479645;stroke-linecap:butt;stroke-linejoin:miter;stroke-miterlimit:4;stroke-opacity:1;stroke-dasharray:2.26438923, 2.26438923;stroke-dashoffset:0;marker-end:url(#Arrow2Lend)" />
          <path
             inkscape:connector-curvature="0"
             id="path7454-1-2"
             d="m 179.80001,712.36218 124.79999,0 0,0"
             style="fill:none;stroke:#000000;stroke-width:3.01918578;stroke-linecap:butt;stroke-linejoin:miter;stroke-miterlimit:4;stroke-opacity:1;stroke-dasharray:none" />
          <path
             transform="matrix(0.95999997,0,0,0.74019302,152.4,181.3757)"
             d="m 70,717.36218 c 0,2.76143 -2.238576,5 -5,5 -2.761424,0 -5,-2.23857 -5,-5 0,-2.76142 2.238576,-5 5,-5 2.761424,0 5,2.23858 5,5 z"
             sodipodi:ry="5"
             sodipodi:rx="5"
             sodipodi:cy="717.36218"
             sodipodi:cx="65"
             id="path6809-1-4-8-6-2-3"
             style="opacity:0.5;fill:#0000ff;fill-opacity:1;stroke:#000000;stroke-width:1.79081905;stroke-miterlimit:4;stroke-opacity:1;stroke-dasharray:14.32655286, 14.32655286;stroke-dashoffset:0"
             sodipodi:type="arc" />
          <path
             transform="matrix(0.95999997,0,0,0.74019302,202.4,181.3757)"
             d="m 70,717.36218 c 0,2.76143 -2.238576,5 -5,5 -2.761424,0 -5,-2.23857 -5,-5 0,-2.76142 2.238576,-5 5,-5 2.761424,0 5,2.23858 5,5 z"
             sodipodi:ry="5"
             sodipodi:rx="5"
             sodipodi:cy="717.36218"
             sodipodi:cx="65"
             id="path6809-1-4-8-6-2-3-3"
             style="opacity:0.5;fill:#0000ff;fill-opacity:1;stroke:#000000;stroke-width:1.79081905;stroke-miterlimit:4;stroke-opacity:1;stroke-dasharray:14.32655286, 14.32655286;stroke-dashoffset:0"
             sodipodi:type="arc" />
          <path
             inkscape:connector-curvature="0"
             id="path6910-7-7-7-6-7-1-3"
             d="M 296.79002,723.20763 179.6,723.36218"
             style="fill:none;stroke:#000000;stroke-width:0.75479645;stroke-linecap:butt;stroke-linejoin:miter;stroke-miterlimit:4;stroke-opacity:1;stroke-dasharray:2.26438923, 2.26438923;stroke-dashoffset:0;marker-end:url(#Arrow2Lend)" />
          <path
             transform="matrix(0.95999997,0,0,0.74019302,116.2,181.67474)"
             d="m 70,717.36218 c 0,2.76143 -2.238576,5 -5,5 -2.761424,0 -5,-2.23857 -5,-5 0,-2.76142 2.238576,-5 5,-5 2.761424,0 5,2.23858 5,5 z"
             sodipodi:ry="5"
             sodipodi:rx="5"
             sodipodi:cy="717.36218"
             sodipodi:cx="65"
             id="path6809-1-2-8"
             style="opacity:0.5;fill:#ff0000;fill-opacity:1;stroke:#000000;stroke-width:1.79081905;stroke-miterlimit:4;stroke-opacity:1;stroke-dasharray:14.32655286, 14.32655286;stroke-dashoffset:0"
             sodipodi:type="arc" />
          <path
             transform="matrix(0.95999997,0,0,0.74019302,242.4,181.3757)"
             d="m 70,717.36218 c 0,2.76143 -2.238576,5 -5,5 -2.761424,0 -5,-2.23857 -5,-5 0,-2.76142 2.238576,-5 5,-5 2.761424,0 5,2.23858 5,5 z"
             sodipodi:ry="5"
             sodipodi:rx="5"
             sodipodi:cy="717.36218"
             sodipodi:cx="65"
             id="path6809-1-2-8-7"
             style="opacity:0.5;fill:#ff0000;fill-opacity:1;stroke:#000000;stroke-width:1.79081905;stroke-miterlimit:4;stroke-opacity:1;stroke-dasharray:14.32655286, 14.32655286;stroke-dashoffset:0"
             sodipodi:type="arc" />
          <text
             transform="scale(1.138841,0.8780857)"
             sodipodi:linespacing="125%"
             id="text6904-8-6-9"
             y="845.4325"
             x="285.02661"
             style="font-size:20.23109436px;font-style:normal;font-variant:normal;font-weight:normal;font-stretch:normal;line-height:125%;letter-spacing:0px;word-spacing:0px;fill:#000000;fill-opacity:1;stroke:none;font-family:ItalicT;-inkscape-font-specification:ItalicT"
             xml:space="preserve"><tspan
               style="font-size:20px"
               y="845.4325"
               x="285.02661"
               id="tspan6906-2-1-3"
               sodipodi:role="line">Side </tspan><tspan
               id="tspan3177-8-1"
               style="font-size:20px"
               y="870.4325"
               x="285.02661"
               sodipodi:role="line">Radial </tspan><tspan
               id="tspan3179-9-9"
               style="font-size:20px"
               y="895.4325"
               x="285.02661"
               sodipodi:role="line">Edge</tspan></text>
          <path
             sodipodi:nodetypes="cscc"
             inkscape:connector-curvature="0"
             inkscape:original-d="m 249.58734,715.24315 c 0,0 24.57033,25.26875 39.4317,34.91331 8.27905,5.37287 26.81116,12.20574 26.81116,12.20574 l 0,0"
             inkscape:path-effect="#path-effect5840-7-3-7-1-5-7"
             id="path5838-1-3-4-7-2-8"
             d="m 249.58734,715.24315 c 10.76,14.00714 24.22457,25.92884 39.4317,34.91331 8.4703,5.00431 17.47488,9.10363 26.81116,12.20574 l 0,0"
             style="fill:none;stroke:#000000;stroke-width:0.75479645px;stroke-linecap:butt;stroke-linejoin:miter;stroke-opacity:1;marker-start:url(#Arrow1Lstart)" />
        </g>
      </g>
    </g>
  </g>
</svg>
