<?xml version="1.0" encoding="UTF-8" standalone="no"?>
<!-- Created with Inkscape (http://www.inkscape.org/) -->

<svg
   xmlns:dc="http://purl.org/dc/elements/1.1/"
   xmlns:cc="http://creativecommons.org/ns#"
   xmlns:rdf="http://www.w3.org/1999/02/22-rdf-syntax-ns#"
   xmlns:svg="http://www.w3.org/2000/svg"
   xmlns="http://www.w3.org/2000/svg"
   xmlns:sodipodi="http://sodipodi.sourceforge.net/DTD/sodipodi-0.dtd"
   xmlns:inkscape="http://www.inkscape.org/namespaces/inkscape"
   width="64px"
   height="64px"
   id="svg10766"
   version="1.1"
   inkscape:version="0.48.2 r9819"
   sodipodi:docname="Plus_cellsJoining.svg">
  <defs
     id="defs10768">
    <marker
       inkscape:stockid="Arrow1Mstart"
       orient="auto"
       refY="0"
       refX="0"
       id="Arrow1Mstart"
       style="overflow:visible">
      <path
         inkscape:connector-curvature="0"
         id="path4364"
         d="M 0,0 5,-5 -12.5,0 5,5 0,0 z"
         style="fill-rule:evenodd;stroke:#000000;stroke-width:1pt;marker-start:none"
         transform="matrix(0.4,0,0,0.4,4,0)" />
    </marker>
    <marker
       inkscape:stockid="Arrow1Mstart"
       orient="auto"
       refY="0"
       refX="0"
       id="Arrow1Mstart-1"
       style="overflow:visible">
      <path
         inkscape:connector-curvature="0"
         id="path4364-2"
         d="M 0,0 5,-5 -12.5,0 5,5 0,0 z"
         style="fill-rule:evenodd;stroke:#000000;stroke-width:1pt;marker-start:none"
         transform="matrix(0.4,0,0,0.4,4,0)" />
    </marker>
    <marker
       inkscape:stockid="Arrow1Mstart"
       orient="auto"
       refY="0"
       refX="0"
       id="Arrow1Mstart-3"
       style="overflow:visible">
      <path
         inkscape:connector-curvature="0"
         id="path4364-4"
         d="M 0,0 5,-5 -12.5,0 5,5 0,0 z"
         style="fill-rule:evenodd;stroke:#000000;stroke-width:1pt;marker-start:none"
         transform="matrix(0.4,0,0,0.4,4,0)" />
    </marker>
    <marker
       inkscape:stockid="Arrow1Mstart"
       orient="auto"
       refY="0"
       refX="0"
       id="Arrow1Mstart-13"
       style="overflow:visible">
      <path
         inkscape:connector-curvature="0"
         id="path4364-8"
         d="M 0,0 5,-5 -12.5,0 5,5 0,0 z"
         style="fill-rule:evenodd;stroke:#000000;stroke-width:1pt;marker-start:none"
         transform="matrix(0.4,0,0,0.4,4,0)" />
    </marker>
    <marker
       inkscape:stockid="Arrow1Mstart"
       orient="auto"
       refY="0"
       refX="0"
       id="Arrow1Mstart-4"
       style="overflow:visible">
      <path
         inkscape:connector-curvature="0"
         id="path4364-27"
         d="M 0,0 5,-5 -12.5,0 5,5 0,0 z"
         style="fill-rule:evenodd;stroke:#000000;stroke-width:1pt;marker-start:none"
         transform="matrix(0.4,0,0,0.4,4,0)" />
    </marker>
    <marker
       inkscape:stockid="Arrow1Mstart"
       orient="auto"
       refY="0"
       refX="0"
       id="Arrow1Mstart-0"
       style="overflow:visible">
      <path
         inkscape:connector-curvature="0"
         id="path4364-24"
         d="M 0,0 5,-5 -12.5,0 5,5 0,0 z"
         style="fill-rule:evenodd;stroke:#000000;stroke-width:1pt;marker-start:none"
         transform="matrix(0.4,0,0,0.4,4,0)" />
    </marker>
    <marker
       inkscape:stockid="Arrow1Mstart"
       orient="auto"
       refY="0"
       refX="0"
       id="Arrow1Mstart-00"
       style="overflow:visible">
      <path
         inkscape:connector-curvature="0"
         id="path4364-6"
         d="M 0,0 5,-5 -12.5,0 5,5 0,0 z"
         style="fill-rule:evenodd;stroke:#000000;stroke-width:1pt;marker-start:none"
         transform="matrix(0.4,0,0,0.4,4,0)" />
    </marker>
    <marker
       inkscape:stockid="Arrow1Mstart"
       orient="auto"
       refY="0"
       refX="0"
       id="Arrow1Mstart-38"
       style="overflow:visible">
      <path
         inkscape:connector-curvature="0"
         id="path4364-9"
         d="M 0,0 5,-5 -12.5,0 5,5 0,0 z"
         style="fill-rule:evenodd;stroke:#000000;stroke-width:1pt;marker-start:none"
         transform="matrix(0.4,0,0,0.4,4,0)" />
    </marker>
    <marker
       inkscape:stockid="Arrow1Mstart"
       orient="auto"
       refY="0"
       refX="0"
       id="Arrow1Mstart-17"
       style="overflow:visible">
      <path
         inkscape:connector-curvature="0"
         id="path4364-40"
         d="M 0,0 5,-5 -12.5,0 5,5 0,0 z"
         style="fill-rule:evenodd;stroke:#000000;stroke-width:1pt;marker-start:none"
         transform="matrix(0.4,0,0,0.4,4,0)" />
    </marker>
    <marker
       inkscape:stockid="Arrow1Mstart"
       orient="auto"
       refY="0"
       refX="0"
       id="Arrow1Mstart-48"
       style="overflow:visible">
      <path
         inkscape:connector-curvature="0"
         id="path4364-82"
         d="M 0,0 5,-5 -12.5,0 5,5 0,0 z"
         style="fill-rule:evenodd;stroke:#000000;stroke-width:1pt;marker-start:none"
         transform="matrix(0.4,0,0,0.4,4,0)" />
    </marker>
    <marker
       inkscape:stockid="Arrow1Mstart"
       orient="auto"
       refY="0"
       refX="0"
       id="Arrow1Mstart-7"
       style="overflow:visible">
      <path
         inkscape:connector-curvature="0"
         id="path4364-1"
         d="M 0,0 5,-5 -12.5,0 5,5 0,0 z"
         style="fill-rule:evenodd;stroke:#000000;stroke-width:1pt;marker-start:none"
         transform="matrix(0.4,0,0,0.4,4,0)" />
    </marker>
  </defs>
  <sodipodi:namedview
     id="base"
     pagecolor="#ffffff"
     bordercolor="#666666"
     borderopacity="1.0"
     inkscape:pageopacity="0.0"
     inkscape:pageshadow="2"
     inkscape:zoom="8.4384381"
     inkscape:cx="-26.906318"
     inkscape:cy="41.432136"
     inkscape:current-layer="layer1"
     showgrid="true"
     inkscape:document-units="px"
     inkscape:grid-bbox="true"
     inkscape:snap-global="false"
     inkscape:window-width="1920"
     inkscape:window-height="1018"
     inkscape:window-x="-8"
     inkscape:window-y="-8"
     inkscape:window-maximized="1">
    <inkscape:grid
       type="xygrid"
       id="grid10774" />
  </sodipodi:namedview>
  <metadata
     id="metadata10771">
    <rdf:RDF>
      <cc:Work
         rdf:about="">
        <dc:format>image/svg+xml</dc:format>
        <dc:type
           rdf:resource="http://purl.org/dc/dcmitype/StillImage" />
        <dc:title />
      </cc:Work>
    </rdf:RDF>
  </metadata>
  <g
     id="layer1"
     inkscape:label="Layer 1"
     inkscape:groupmode="layer">
    <path
       style="fill:none;stroke:#000000;stroke-width:1px;stroke-linecap:butt;stroke-linejoin:miter;stroke-opacity:1"
       d="m 22.657296,13.89095 15,0 0,40 -15,0 0,-40"
       id="path10776"
       inkscape:connector-curvature="0" />
    <path
       style="fill:none;stroke:#000000;stroke-width:1px;stroke-linecap:butt;stroke-linejoin:miter;stroke-opacity:1"
       d="m 5.888745,25.429608 0,15 50.099217,0 0,-15 z"
       id="path10778"
       inkscape:connector-curvature="0" />
    <path
       style="fill:none;stroke:#000000;stroke-width:0.5;stroke-linecap:butt;stroke-linejoin:miter;stroke-miterlimit:4;stroke-opacity:1;stroke-dasharray:1,0.5;stroke-dashoffset:0;marker-start:url(#Arrow1Mstart)"
       d="m 31.128445,31.025426 c 0,0 7.912493,-23.9619478 7.782073,-18.735384 -0.130418,5.226564 0.554831,10.017301 2.772003,5.052065 2.217168,-4.965236 2.765757,-6.71122 2.765757,-6.71122"
       id="path4353-5"
       inkscape:connector-curvature="0"
       sodipodi:nodetypes="cssc" />
    <path
       style="fill:none;stroke:#c86400;stroke-width:1px;stroke-linecap:butt;stroke-linejoin:miter;stroke-opacity:1"
       d="m 37.406248,25.306969 0,15.099217"
       id="path15130"
       inkscape:connector-curvature="0" />
    <path
       style="fill:none;stroke:#c86400;stroke-width:1px;stroke-linecap:butt;stroke-linejoin:miter;stroke-opacity:1"
       d="m 37.623964,39.936288 -15.099217,0"
       id="path15130-9"
       inkscape:connector-curvature="0" />
    <path
       sodipodi:type="arc"
       style="fill:#de8787;stroke:#27ff00;stroke-width:1;stroke-linecap:butt;stroke-linejoin:miter;stroke-miterlimit:4;stroke-opacity:1;stroke-dasharray:none;stroke-dashoffset:0"
       id="path16973-2"
       sodipodi:cx="32.5"
       sodipodi:cy="35.5"
       sodipodi:rx="0.5"
       sodipodi:ry="0.5"
       d="m 33,35.5 a 0.5,0.5 0 1 1 -1,0 0.5,0.5 0 1 1 1,0 z"
       transform="translate(-1.9567185,-3.1737407)" />
    <text
       xml:space="preserve"
       style="font-size:6px;font-style:normal;font-variant:normal;font-weight:normal;font-stretch:normal;text-align:start;line-height:125%;letter-spacing:0px;word-spacing:0px;writing-mode:lr-tb;text-anchor:start;fill:#000000;fill-opacity:1;stroke:none;font-family:Arial;-inkscape-font-specification:Arial"
       x="41.588947"
       y="9.7868881"
       id="text4041"
       sodipodi:linespacing="125%"><tspan
         sodipodi:role="line"
         id="tspan4043"
         x="41.588947"
         y="9.7868881">centroid</tspan></text>
    <text
       xml:space="preserve"
       style="font-size:6px;font-style:normal;font-variant:normal;font-weight:normal;font-stretch:normal;text-align:start;line-height:125%;letter-spacing:0px;word-spacing:0px;writing-mode:lr-tb;text-anchor:start;fill:#000000;fill-opacity:1;stroke:none;font-family:Arial;-inkscape-font-specification:Arial"
       x="39.675289"
       y="61.316681"
       id="text4045"
       sodipodi:linespacing="125%"><tspan
         sodipodi:role="line"
         id="tspan4047"
         x="39.675289"
         y="61.316681">iCell(n<tspan
   style="font-size:65.00091553%;baseline-shift:sub"
   id="tspan4067">2</tspan>)</tspan></text>
    <text
       xml:space="preserve"
       style="font-size:6px;font-style:normal;font-variant:normal;font-weight:normal;font-stretch:normal;text-align:start;line-height:125%;letter-spacing:0px;word-spacing:0px;writing-mode:lr-tb;text-anchor:start;fill:#000000;fill-opacity:1;stroke:none;font-family:Arial;-inkscape-font-specification:Arial"
       x="3.1021459"
       y="60.599674"
       id="text4051"
       sodipodi:linespacing="125%"><tspan
         sodipodi:role="line"
         id="tspan4053"
         x="3.1021459"
         y="60.599674">sCell(n<tspan
   style="font-size:65.00091553%;baseline-shift:sub"
   id="tspan4069">1</tspan>)</tspan></text>
    <text
       xml:space="preserve"
       style="font-size:6px;font-style:normal;font-variant:normal;font-weight:normal;font-stretch:normal;text-align:start;line-height:125%;letter-spacing:0px;word-spacing:0px;writing-mode:lr-tb;text-anchor:start;fill:#000000;fill-opacity:1;stroke:none;font-family:Arial;-inkscape-font-specification:Arial"
       x="6.9550624"
       y="26.962198"
       id="text4063"
       sodipodi:linespacing="125%"><tspan
         sodipodi:role="line"
         id="tspan4065"
         x="6.9550624"
         y="26.962198" /></text>
    <path
       style="fill:none;stroke:#000000;stroke-width:0.5;stroke-linecap:butt;stroke-linejoin:miter;stroke-miterlimit:4;stroke-opacity:1;stroke-dasharray:0.99999998, 0.49999999;stroke-dashoffset:0;marker-start:url(#Arrow1Mstart)"
       d="m 26.346729,48.194168 c -8.583833,14.936764 -1.455935,-6.225031 -9.68728,6.883007"
       id="path4353-5-9"
       inkscape:connector-curvature="0"
       sodipodi:nodetypes="cc" />
    <path
       style="fill:none;stroke:#0000ff;stroke-width:0.7161085px;stroke-linecap:butt;stroke-linejoin:miter;stroke-opacity:1"
       d="m 38.289205,32.385512 17.948399,0"
       id="path16968"
       inkscape:connector-curvature="0" />
    <path
       style="fill:none;stroke:#000000;stroke-width:0.5;stroke-linecap:butt;stroke-linejoin:miter;stroke-miterlimit:4;stroke-opacity:1;stroke-dasharray:1.00000001, 0.50000001;stroke-dashoffset:0;marker-start:url(#Arrow1Mstart)"
       d="m 34.979239,36.71499 c 0,0 11.477364,11.750494 8.544196,11.615342 -2.93317,-0.135146 -4.899096,-0.315902 -2.112585,1.981678 2.78651,2.297575 5.521383,4.784298 5.521383,4.784298"
       id="path4353-5-3-8"
       inkscape:connector-curvature="0"
       sodipodi:nodetypes="cssc" />
    <path
       style="fill:none;stroke:#c80000;stroke-width:1;stroke-linecap:butt;stroke-linejoin:miter;stroke-miterlimit:4;stroke-opacity:1;stroke-dasharray:1, 1;stroke-dashoffset:0"
       d="m 30.979828,32.385512 7.110321,0"
       id="path17061"
       inkscape:connector-curvature="0" />
    <path
       sodipodi:type="arc"
       style="fill:none;stroke:#ff00ff;stroke-width:1;stroke-linecap:butt;stroke-linejoin:miter;stroke-miterlimit:4;stroke-opacity:1;stroke-dasharray:none;stroke-dashoffset:0"
       id="path16973"
       sodipodi:cx="32.5"
       sodipodi:cy="35.5"
       sodipodi:rx="0.5"
       sodipodi:ry="0.5"
       d="m 33,35.5 a 0.5,0.5 0 1 1 -1,0 0.5,0.5 0 1 1 1,0 z"
       transform="translate(5.6433961,-3.2329931)" />
    <path
       style="fill:none;stroke:#c86400;stroke-width:1px;stroke-linecap:butt;stroke-linejoin:miter;stroke-opacity:1"
       d="m 22.753025,25.371812 0,15.099217"
       id="path15130-0"
       inkscape:connector-curvature="0" />
    <path
       style="fill:none;stroke:#0000ff;stroke-width:0.7161085px;stroke-linecap:butt;stroke-linejoin:miter;stroke-opacity:1"
       d="m 5.0686835,32.802915 17.9483995,0"
       id="path16968-9"
       inkscape:connector-curvature="0" />
    <path
       style="fill:none;stroke:#0000ff;stroke-width:1;stroke-linecap:butt;stroke-linejoin:miter;stroke-opacity:1;stroke-miterlimit:4;stroke-dasharray:none"
       d="m 30.100358,40.249835 0,13.784452"
       id="path16968-4"
       inkscape:connector-curvature="0" />
    <path
       sodipodi:type="arc"
       style="fill:none;stroke:#ff00ff;stroke-width:1;stroke-linecap:butt;stroke-linejoin:miter;stroke-miterlimit:4;stroke-opacity:1;stroke-dasharray:none;stroke-dashoffset:0"
       id="path16973-8"
       sodipodi:cx="32.5"
       sodipodi:cy="35.5"
       sodipodi:rx="0.5"
       sodipodi:ry="0.5"
       d="m 33,35.5 a 0.5,0.5 0 1 1 -1,0 0.5,0.5 0 1 1 1,0 z"
       transform="translate(-2.0441273,-10.162921)" />
    <path
       sodipodi:type="arc"
       style="fill:none;stroke:#ff00ff;stroke-width:1;stroke-linecap:butt;stroke-linejoin:miter;stroke-miterlimit:4;stroke-opacity:1;stroke-dasharray:none;stroke-dashoffset:0"
       id="path16973-8-8"
       sodipodi:cx="32.5"
       sodipodi:cy="35.5"
       sodipodi:rx="0.5"
       sodipodi:ry="0.5"
       d="m 33,35.5 a 0.5,0.5 0 1 1 -1,0 0.5,0.5 0 1 1 1,0 z"
       transform="translate(-9.8062269,-2.5785797)" />
    <path
       style="fill:none;stroke:#c80000;stroke-width:1;stroke-linecap:butt;stroke-linejoin:miter;stroke-miterlimit:4;stroke-opacity:1;stroke-dasharray:1, 1;stroke-dashoffset:0"
       d="m 22.990035,32.68441 7.110321,0"
       id="path17061-2"
       inkscape:connector-curvature="0" />
    <path
       style="fill:none;stroke:#c80000;stroke-width:1;stroke-linecap:butt;stroke-linejoin:miter;stroke-miterlimit:4;stroke-opacity:1;stroke-dasharray:1, 1;stroke-dashoffset:0"
       d="m 30.455873,32.802915 0,7.110322"
       id="path17061-2-4"
       inkscape:connector-curvature="0" />
    <path
       sodipodi:type="arc"
       style="fill:none;stroke:#ff00ff;stroke-width:1;stroke-linecap:butt;stroke-linejoin:miter;stroke-miterlimit:4;stroke-opacity:1;stroke-dasharray:none;stroke-dashoffset:0"
       id="path16973-8-1"
       sodipodi:cx="32.5"
       sodipodi:cy="35.5"
       sodipodi:rx="0.5"
       sodipodi:ry="0.5"
       d="m 33,35.5 a 0.5,0.5 0 1 1 -1,0 0.5,0.5 0 1 1 1,0 z"
       transform="translate(-2.3996429,4.2656574)" />
    <path
       style="fill:none;stroke:#c80000;stroke-width:1;stroke-linecap:butt;stroke-linejoin:miter;stroke-miterlimit:4;stroke-opacity:1;stroke-dasharray:1, 1;stroke-dashoffset:0"
       d="m 30.337367,25.189499 0,7.110322"
       id="path17061-2-4-7"
       inkscape:connector-curvature="0" />
    <path
       style="fill:none;stroke:#0000ff;stroke-width:0.88746166;stroke-linecap:butt;stroke-linejoin:miter;stroke-miterlimit:4;stroke-opacity:1;stroke-dasharray:none"
       d="m 30.574379,14.102634 0,10.856472"
       id="path16968-4-0"
       inkscape:connector-curvature="0" />
    <path
       style="fill:none;stroke:#c86400;stroke-width:1px;stroke-linecap:butt;stroke-linejoin:miter;stroke-opacity:1"
       d="m 38.123987,25.485763 -15.099217,0"
       id="path15130-9-9"
       inkscape:connector-curvature="0" />
    <path
       style="opacity:0.2;fill:#0000ff;fill-opacity:1;stroke:#000000;stroke-width:0.05925267000000000;stroke-linecap:butt;stroke-linejoin:round;stroke-miterlimit:4;stroke-opacity:1;stroke-dasharray:0.11850534000000000, 0.05925267000000000;stroke-dashoffset:0"
       d="m 23.292546,36.655902 c 0,-2.368874 0.02651,-2.762591 0.207384,-3.08039 0.114061,-0.200403 0.274044,-0.364707 0.355516,-0.365119 0.09645,-4.88e-4 0.148132,-0.186808 0.148132,-0.534024 0,-0.513523 -0.01317,-0.533274 -0.355516,-0.533274 l -0.355516,0 0,-3.021886 0,-3.021886 3.235195,0 c 2.194863,0 3.277115,0.04192 3.365552,0.130356 0.168823,0.168822 0.968829,0.168822 1.137652,0 0.0717,-0.0717 0.417228,-0.130356 0.76785,-0.130356 l 0.637494,0 -0.07809,0.355516 c -0.04604,0.209631 -0.02957,0.355516 0.04015,0.355516 0.06503,0 0.197239,0.03032 0.293808,0.06738 0.122898,0.04716 0.217455,-0.05951 0.315146,-0.355516 l 0.139567,-0.422892 1.827642,0 1.827643,0 0,5.633173 c 0,5.334568 -0.01102,5.627273 -0.208001,5.521855 -0.114401,-0.06123 -0.674339,-0.380637 -1.244306,-0.709804 -0.569968,-0.329167 -1.036305,-0.542256 -1.036305,-0.473532 0,0.06872 0.373291,0.81124 0.829537,1.650036 0.456245,0.838795 0.829537,1.554466 0.829537,1.59038 0,0.03592 -1.106543,0.05089 -2.458986,0.03327 -2.448809,-0.0319 -2.459142,-0.03313 -2.496854,-0.298667 -0.03083,-0.217108 -0.118886,-0.270125 -0.474021,-0.285413 -0.724043,-0.03117 -0.890899,0.01273 -1.2099,0.318356 l -0.30577,0.292946 -2.86727,0 -2.86727,0 0,-2.716019 z m 7.702847,0.642176 0,-0.533274 -0.533274,0 -0.533274,0 0,0.533274 0,0.533274 0.533274,0 0.533274,0 0,-0.533274 z m 0,-2.014591 0,-0.533274 -0.533274,0 -0.533274,0 0,0.533274 0,0.533274 0.533274,0 0.533274,0 0,-0.533274 z m 0,-1.734889 c 0,-0.320624 0.319331,-0.567324 0.740658,-0.572196 0.311562,-0.0036 0.32589,-0.02982 0.32589,-0.596296 0,-0.544887 -0.02265,-0.592527 -0.281753,-0.592527 -0.663982,0 -0.591389,-0.248876 0.572514,-1.962821 0.614632,-0.905097 1.099255,-1.663889 1.076939,-1.686205 -0.02232,-0.02232 -0.310013,0.09596 -0.639327,0.262837 -0.784079,0.397323 -1.054398,0.297651 -1.442714,-0.531957 -0.289572,-0.618648 -0.293819,-0.621876 -0.367812,-0.279575 l -0.07486,0.346298 -0.01402,-0.385143 c -0.01367,-0.375384 -0.02753,-0.385142 -0.547295,-0.385142 l -0.533275,0 0,0.533274 0,0.533274 0.533275,0 0.533274,0 0,0.474021 0,0.474022 -0.533274,0 -0.533275,0 0,0.533274 0,0.533274 0.533275,0 c 0.446691,0 0.533274,0.03691 0.533274,0.227318 0,0.463715 -0.133242,0.602219 -0.579334,0.602219 -0.413784,0 -0.443313,0.02656 -0.592929,0.533274 -0.129717,0.439326 -0.207346,0.533274 -0.44064,0.533274 -0.256621,0 -0.283183,0.05002 -0.283183,0.533274 l 0,0.533274 0.474021,0 c 0.42662,0 0.474022,0.02963 0.474022,0.296264 0,0.272123 0.04345,0.296263 0.533274,0.296263 0.465881,0 0.533274,-0.03204 0.533274,-0.253572 z m -4.977224,-0.872229 0,-0.533274 -0.533275,0 -0.533274,0 0,0.533274 0,0.533274 0.533274,0 0.533275,0 0,-0.533274 z m 2.01459,0 0,-0.533274 -0.533274,0 -0.533274,0 0,0.533274 0,0.533274 0.533274,0 0.533274,0 0,-0.533274 z m 6.043773,-0.296263 0,-0.592527 -0.592527,0 -0.592527,0 0,0.592527 0,0.592527 0.592527,0 0.592527,0 0,-0.592527 z m 2.014591,0 0,-0.592527 -0.592527,0 -0.592527,0 0,0.592527 0,0.592527 0.592527,0 0.592527,0 0,-0.592527 z M 32.528778,27.85415 c 0.132967,-0.443803 0.126234,-0.513303 -0.06314,-0.651779 -0.3101,-0.226751 -0.352293,-0.201345 -0.50344,0.303139 -0.208496,0.695897 -0.196319,0.725031 0.347626,0.831668 0.03857,0.0076 0.137098,-0.209802 0.218958,-0.483028 l 0,0 z"
       id="path3959"
       inkscape:connector-curvature="0" />
  </g>
</svg>
