<?xml version="1.0" encoding="UTF-8" standalone="no"?>
<!-- Created with Inkscape (http://www.inkscape.org/) -->

<svg
   xmlns:dc="http://purl.org/dc/elements/1.1/"
   xmlns:cc="http://creativecommons.org/ns#"
   xmlns:rdf="http://www.w3.org/1999/02/22-rdf-syntax-ns#"
   xmlns:svg="http://www.w3.org/2000/svg"
   xmlns="http://www.w3.org/2000/svg"
   xmlns:sodipodi="http://sodipodi.sourceforge.net/DTD/sodipodi-0.dtd"
   xmlns:inkscape="http://www.inkscape.org/namespaces/inkscape"
   width="64px"
   height="64px"
   id="svg3910"
   version="1.1"
   inkscape:version="0.48.2 r9819"
   sodipodi:docname="New document 4">
  <defs
     id="defs3912">
    <marker
       inkscape:stockid="Arrow1Lend"
       orient="auto"
       refY="0.0"
       refX="0.0"
       id="Arrow1Lend"
       style="overflow:visible;">
      <path
         id="path4634"
         d="M 0.0,0.0 L 5.0,-5.0 L -12.5,0.0 L 5.0,5.0 L 0.0,0.0 z "
         style="fill-rule:evenodd;stroke:#000000;stroke-width:1.0pt;marker-start:none;"
         transform="scale(0.8) rotate(180) translate(12.5,0)" />
    </marker>
    <marker
       inkscape:stockid="Arrow1Mend"
       orient="auto"
       refY="0.0"
       refX="0.0"
       id="Arrow1Mend"
       style="overflow:visible;">
      <path
         id="path4640"
         d="M 0.0,0.0 L 5.0,-5.0 L -12.5,0.0 L 5.0,5.0 L 0.0,0.0 z "
         style="fill-rule:evenodd;stroke:#000000;stroke-width:1.0pt;marker-start:none;"
         transform="scale(0.4) rotate(180) translate(10,0)" />
    </marker>
    <marker
       inkscape:stockid="Arrow1Lstart"
       orient="auto"
       refY="0"
       refX="0"
       id="Arrow1Lstart"
       style="overflow:visible">
      <path
         inkscape:connector-curvature="0"
         id="path3816"
         d="M 0,0 5,-5 -12.5,0 5,5 0,0 z"
         style="fill-rule:evenodd;stroke:#000000;stroke-width:1pt;marker-start:none"
         transform="matrix(0.8,0,0,0.8,10,0)" />
    </marker>
    <marker
       inkscape:stockid="Arrow1Lstart"
       orient="auto"
       refY="0"
       refX="0"
       id="marker3871"
       style="overflow:visible">
      <path
         inkscape:connector-curvature="0"
         id="path3873"
         d="M 0,0 5,-5 -12.5,0 5,5 0,0 z"
         style="fill-rule:evenodd;stroke:#000000;stroke-width:1pt;marker-start:none"
         transform="matrix(0.8,0,0,0.8,10,0)" />
    </marker>
    <marker
       inkscape:stockid="Arrow1Lstart"
       orient="auto"
       refY="0"
       refX="0"
       id="marker3875"
       style="overflow:visible">
      <path
         inkscape:connector-curvature="0"
         id="path3877"
         d="M 0,0 5,-5 -12.5,0 5,5 0,0 z"
         style="fill-rule:evenodd;stroke:#000000;stroke-width:1pt;marker-start:none"
         transform="matrix(0.8,0,0,0.8,10,0)" />
    </marker>
    <marker
       inkscape:stockid="Arrow1Lstart"
       orient="auto"
       refY="0"
       refX="0"
       id="marker3879"
       style="overflow:visible">
      <path
         inkscape:connector-curvature="0"
         id="path3881"
         d="M 0,0 5,-5 -12.5,0 5,5 0,0 z"
         style="fill-rule:evenodd;stroke:#000000;stroke-width:1pt;marker-start:none"
         transform="matrix(0.8,0,0,0.8,10,0)" />
    </marker>
  </defs>
  <sodipodi:namedview
     id="base"
     pagecolor="#ffffff"
     bordercolor="#666666"
     borderopacity="1.0"
     inkscape:pageopacity="0.0"
     inkscape:pageshadow="2"
     inkscape:zoom="5.5751953"
     inkscape:cx="-17.341077"
     inkscape:cy="34.992384"
     inkscape:current-layer="layer1"
     showgrid="true"
     inkscape:document-units="px"
     inkscape:grid-bbox="true"
     inkscape:window-width="1366"
     inkscape:window-height="707"
     inkscape:window-x="-9"
     inkscape:window-y="-9"
     inkscape:window-maximized="1">
    <inkscape:grid
       type="xygrid"
       id="grid3993" />
  </sodipodi:namedview>
  <metadata
     id="metadata3915">
    <rdf:RDF>
      <cc:Work
         rdf:about="">
        <dc:format>image/svg+xml</dc:format>
        <dc:type
           rdf:resource="http://purl.org/dc/dcmitype/StillImage" />
        <dc:title></dc:title>
      </cc:Work>
    </rdf:RDF>
  </metadata>
  <g
     id="layer1"
     inkscape:label="Layer 1"
     inkscape:groupmode="layer">
    <path
       style="fill:none;stroke:#000000;stroke-width:1.00000012px;stroke-linecap:butt;stroke-linejoin:miter;stroke-opacity:1"
       d="m 5,10.428572 7.108156,0 0,32.142856 24.878545,0 0,6.428572 L 5,49 z"
       id="path2987"
       inkscape:connector-curvature="0" />
    <path
       style="fill:none;stroke:#000000;stroke-width:1.00000012px;stroke-linecap:butt;stroke-linejoin:miter;stroke-opacity:1"
       d="M 5,10.428572 15.662234,4.000002"
       id="path3007"
       inkscape:connector-curvature="0" />
    <path
       style="fill:none;stroke:#000000;stroke-width:1.00000012px;stroke-linecap:butt;stroke-linejoin:miter;stroke-opacity:1"
       d="M 12.108156,10.428572 22.770389,4.000002"
       id="path3009"
       inkscape:connector-curvature="0" />
    <path
       style="fill:none;stroke:#000000;stroke-width:1.00000012px;stroke-linecap:butt;stroke-linejoin:miter;stroke-opacity:1"
       d="m 36.986701,42.571428 10.662234,-6.42857"
       id="path3011"
       inkscape:connector-curvature="0" />
    <path
       style="fill:none;stroke:#000000;stroke-width:1.00000012px;stroke-linecap:butt;stroke-linejoin:miter;stroke-opacity:1"
       d="M 36.986701,49 47.648935,42.571428"
       id="path3013"
       inkscape:connector-curvature="0" />
    <path
       style="fill:none;stroke:#000000;stroke-width:1.00000012px;stroke-linecap:butt;stroke-linejoin:miter;stroke-opacity:1"
       d="m 47.648935,36.142858 0,6.42857"
       id="path3015"
       inkscape:connector-curvature="0" />
    <path
       style="fill:none;stroke:#000000;stroke-width:1.00000012px;stroke-linecap:butt;stroke-linejoin:miter;stroke-opacity:1"
       d="m 15.662234,4 7.108155,0 0,32.142856"
       id="path3017"
       inkscape:connector-curvature="0" />
    <path
       style="fill:none;stroke:#000000;stroke-width:1.00000012px;stroke-linecap:butt;stroke-linejoin:miter;stroke-opacity:1"
       d="m 12.108156,42.571428 10.662233,-6.42857"
       id="path3019"
       inkscape:connector-curvature="0" />
    <path
       style="fill:none;stroke:#000000;stroke-width:1.00000012px;stroke-linecap:butt;stroke-linejoin:miter;stroke-opacity:1"
       d="m 22.770389,36.142858 24.878546,0"
       id="path3021"
       inkscape:connector-curvature="0" />
    <path
       style="fill:#cccccc;fill-opacity:1;stroke:none"
       d="m 5.0308139,29.7226 0,-19.138844 3.5061423,0 3.5061418,0 0,16.081159 0,16.08116 12.396719,0 12.396715,0 0,3.057686 0,3.057686 -15.902857,0 -15.9028611,0 0,-19.138847 z"
       id="path3023"
       inkscape:connector-curvature="0" />
    <path
       style="fill:#333333;fill-opacity:1;fill-rule:evenodd;stroke:none"
       d="m 37.312367,45.541087 0,-3.018162 5.071384,-3.060609 5.071385,-3.060609 0.125213,3.11556 c 0.124811,3.105279 0.01062,3.75818 -0.619077,3.539647 -0.182608,-0.06338 -0.417175,0.0094 -0.521259,0.161706 -0.131299,0.192136 -0.08154,0.220422 0.162496,0.09237 0.204924,-0.107521 0.265966,-0.0997 0.14624,0.01874 -0.113028,0.111812 -0.394774,0.204594 -0.626098,0.206184 -0.231326,0.0016 -0.39377,0.126623 -0.360987,0.277857 0.03278,0.151232 -0.09669,0.220725 -0.287718,0.15443 -0.191026,-0.06629 -0.43248,0.0041 -0.536568,0.156395 -0.128988,0.188754 -0.08487,0.218585 0.138576,0.09369 0.212323,-0.118677 0.267251,-0.09459 0.155893,0.06836 -0.09457,0.138378 -0.32597,0.19814 -0.514238,0.132802 -0.188269,-0.06534 -0.427467,0.0058 -0.531553,0.158134 -0.128988,0.188754 -0.08487,0.218588 0.138576,0.09369 0.212322,-0.118676 0.26725,-0.09459 0.155895,0.06836 -0.09457,0.13838 -0.325974,0.19814 -0.51424,0.132803 -0.188269,-0.06534 -0.427467,0.0058 -0.531553,0.158135 -0.128988,0.188754 -0.08487,0.218588 0.138575,0.09369 0.212322,-0.118678 0.267251,-0.09459 0.155894,0.06836 -0.09457,0.13838 -0.325972,0.198139 -0.51424,0.132801 -0.188268,-0.06534 -0.427466,0.0058 -0.531553,0.158136 -0.128988,0.188754 -0.08487,0.218586 0.138575,0.09369 0.212323,-0.118675 0.267251,-0.09459 0.155895,0.06836 -0.09457,0.138378 -0.325973,0.198139 -0.514241,0.132801 -0.188269,-0.06534 -0.427466,0.0058 -0.531552,0.158135 -0.128988,0.188756 -0.08487,0.218587 0.138576,0.09369 0.212321,-0.118676 0.267248,-0.09459 0.155894,0.06836 -0.09457,0.13838 -0.325974,0.198142 -0.514241,0.132804 -0.18827,-0.06534 -0.427468,0.0058 -0.531552,0.158135 -0.128988,0.188754 -0.08487,0.218587 0.138575,0.09369 0.212323,-0.118678 0.267249,-0.09459 0.155894,0.06836 -0.09457,0.13838 -0.325972,0.19814 -0.514241,0.132801 -0.188268,-0.06534 -0.427466,0.0058 -0.531551,0.158136 -0.128988,0.188754 -0.08487,0.218589 0.138576,0.09369 0.212323,-0.118678 0.267249,-0.09459 0.155895,0.06836 -0.09457,0.138379 -0.325974,0.198139 -0.514241,0.132801 -0.188269,-0.06534 -0.427468,0.0058 -0.531552,0.158135 -0.128988,0.188756 -0.08487,0.218587 0.138575,0.09369 0.212322,-0.118676 0.267248,-0.09459 0.155893,0.06836 -0.09456,0.138379 -0.325971,0.19814 -0.51424,0.132802 -0.188268,-0.06534 -0.427466,0.0058 -0.531552,0.158134 -0.128988,0.188756 -0.08487,0.218588 0.138576,0.09369 0.212322,-0.118675 0.267249,-0.09459 0.155892,0.06836 -0.09457,0.13838 -0.325971,0.198142 -0.51424,0.132804 -0.188267,-0.06534 -0.427466,0.0058 -0.53155,0.158135 -0.131299,0.192135 -0.08154,0.220419 0.162496,0.09237 0.193459,-0.101506 0.264924,-0.09819 0.158811,0.0074 -0.10611,0.105559 -0.41603,0.206789 -0.688706,0.224956 -0.471099,0.03139 -0.495774,-0.117191 -0.495774,-2.985127 z"
       id="path3793"
       inkscape:connector-curvature="0" />
    <path
       style="fill:none;stroke:none"
       d="M 9.5580252,10.187935 C 7.3980039,10.137975 6.5003153,10.03946 6.5665919,9.859638 6.618678,9.718333 8.72533,8.345571 11.248053,6.809057 l 4.586771,-2.793664 3.288218,0.005 3.28822,0.005 -0.626096,0.467608 c -0.344354,0.257184 -0.467813,0.392054 -0.274354,0.299711 0.226406,-0.108071 0.290476,-0.07825 0.179808,0.0837 -0.09457,0.138378 -0.325972,0.19814 -0.514239,0.132801 -0.188269,-0.06534 -0.427468,0.0058 -0.531554,0.158135 -0.128988,0.188756 -0.08487,0.218588 0.13859,0.09369 0.212322,-0.118676 0.267251,-0.09459 0.155894,0.06836 -0.09456,0.138378 -0.309198,0.206896 -0.476963,0.152261 -0.167765,-0.05463 -0.586771,0.111545 -0.931123,0.369289 -0.344355,0.257744 -0.467813,0.393074 -0.274356,0.300729 0.226408,-0.108071 0.290478,-0.07825 0.17981,0.0837 -0.09457,0.138379 -0.325973,0.198139 -0.51424,0.1328 -0.188269,-0.06534 -0.427467,0.0058 -0.531553,0.158135 -0.128988,0.188756 -0.08487,0.218588 0.13859,0.09369 0.212321,-0.118675 0.267251,-0.09459 0.155894,0.06836 -0.09456,0.138378 -0.309198,0.206897 -0.476963,0.15226 -0.167765,-0.05464 -0.586771,0.111546 -0.931125,0.369289 -0.344353,0.257746 -0.467813,0.393073 -0.274354,0.300729 0.226407,-0.108069 0.290478,-0.07824 0.17981,0.0837 -0.09457,0.138379 -0.309198,0.206897 -0.476963,0.152262 -0.167766,-0.05464 -0.586773,0.111544 -0.931126,0.369289 -0.344352,0.257744 -0.467812,0.393071 -0.274353,0.300729 0.226408,-0.108071 0.290478,-0.07825 0.179809,0.0837 -0.09457,0.138378 -0.325972,0.19814 -0.51424,0.132802 -0.188269,-0.06534 -0.427467,0.0058 -0.531552,0.158134 -0.128988,0.188756 -0.08487,0.218588 0.138576,0.09369 0.212321,-0.118676 0.267247,-0.09459 0.155892,0.06836 -0.09457,0.13838 -0.325971,0.198142 -0.51424,0.132803 -0.188269,-0.06534 -0.427467,0.0058 -0.531552,0.158136 -0.128988,0.188753 -0.08487,0.218587 0.13859,0.09369 0.212323,-0.118678 0.267249,-0.09459 0.155892,0.06836 -0.09457,0.138379 -0.32597,0.19814 -0.514239,0.132801 -0.188268,-0.06534 -0.427466,0.0058 -0.531551,0.158136 -0.128988,0.188754 -0.08487,0.218586 0.138576,0.09369 0.212324,-0.118675 0.267251,-0.09459 0.155895,0.06836 -0.09457,0.138378 -0.35586,0.187767 -0.580656,0.109751 -0.27321,-0.09482 -0.348682,-0.05399 -0.227638,0.123139 0.09959,0.145743 0.146257,0.24295 0.103698,0.216013 -0.04257,-0.02694 -1.466145,-0.0811 -3.163515,-0.12035 l 0,0 z"
       id="path3795"
       inkscape:connector-curvature="0" />
    <path
       style="fill:none;stroke:none"
       d="m 5.6041667,10.271161 c 0,-0.05213 2.2552115,-1.4544 5.0115803,-3.116153 l 5.011581,-3.021371 3.332904,0.03016 3.332902,0.03016 -5.121633,3.085999 -5.121632,3.085996 -3.2228499,0 c -1.7725679,0 -3.2228524,-0.04266 -3.2228524,-0.09478 z"
       id="path3797"
       inkscape:connector-curvature="0" />
    <path
       style="fill:#b3b3b3;fill-opacity:1;stroke:none"
       d="m 5.6041667,10.271161 c 0,-0.05213 2.2552115,-1.4544 5.0115803,-3.116153 l 5.011581,-3.021371 3.332904,0.03016 3.332902,0.03016 -5.121633,3.085999 -5.121632,3.085996 -3.2228499,0 c -1.7725679,0 -3.2228524,-0.04266 -3.2228524,-0.09478 z"
       id="path3799"
       inkscape:connector-curvature="0" />
    <path
       style="fill:#b81ce5;fill-opacity:1;fill-rule:evenodd;stroke:none"
       d="m 12.244098,26.371606 0.0033,-15.949037 5.081108,-3.057685 c 2.794609,-1.681727 5.131595,-3.074673 5.1933,-3.095435 0.06579,-0.02214 0.110832,6.559224 0.108894,15.911288 l -0.0033,15.949038 -5.081106,3.057686 c -2.79461,1.681727 -5.131595,3.074673 -5.193302,3.095434 -0.06579,0.02213 -0.110817,-6.559222 -0.108894,-15.911289 l 0,0 z"
       id="path3801"
       inkscape:connector-curvature="0" />
    <path
       style="fill:#b3b3b3;fill-opacity:1;fill-rule:evenodd;stroke:none;stroke-width:1.00000011999999990;stroke-opacity:1"
       d="m 12.741672,42.414383 c 0,-0.06264 2.283634,-1.489555 5.074742,-3.170933 l 5.074742,-3.05705 12.230574,0 c 6.726816,0 12.177044,0.04331 12.111617,0.09625 -0.06543,0.05294 -2.433392,1.47986 -5.262144,3.170933 l -5.143185,3.074678 -12.043173,0 c -7.990067,0 -12.043173,-0.03833 -12.043173,-0.113883 z"
       id="path3803"
       inkscape:connector-curvature="0" />
    <path
       style="fill:#333333;fill-opacity:1;fill-rule:evenodd;stroke:none;stroke-width:1.00000011999999990;stroke-opacity:1"
       d="m 12.197967,42.338538 c -0.04531,-0.04098 -0.08238,-7.190881 -0.08238,-15.888663 0,-12.47977 0.033,-15.852115 0.156523,-15.994232 0.08609,-0.09905 2.466821,-1.568765 5.290518,-3.26604 l 5.133995,-3.085954 0.03218,15.899816 c 0.0177,8.744898 -0.0056,15.976258 -0.0518,16.069688 -0.04619,0.09343 -0.09011,0.220832 -0.0976,0.283119 -0.0075,0.06229 -0.106727,0.09916 -0.220507,0.08193 -0.113788,-0.01723 -0.248012,0.02887 -0.298281,0.102433 -0.06121,0.08957 -0.03726,0.103489 0.07251,0.04213 0.106167,-0.05934 0.133624,-0.0473 0.07795,0.03418 -0.04728,0.06919 -0.162987,0.09907 -0.257122,0.0664 -0.09414,-0.03267 -0.213731,0.0029 -0.265775,0.07906 -0.0645,0.09438 -0.04243,0.109294 0.0693,0.04685 0.106152,-0.05934 0.133623,-0.04729 0.07795,0.03418 -0.04728,0.06919 -0.162986,0.09907 -0.25712,0.0664 -0.09414,-0.03267 -0.213734,0.0029 -0.265776,0.07906 -0.0645,0.09438 -0.04243,0.109296 0.0693,0.04685 0.106168,-0.05934 0.133624,-0.0473 0.07795,0.03418 -0.04728,0.06919 -0.162985,0.09907 -0.25712,0.06639 -0.09414,-0.03267 -0.213734,0.0029 -0.265777,0.07907 -0.06449,0.09438 -0.04243,0.109294 0.0693,0.04685 0.106167,-0.05934 0.133624,-0.04729 0.07795,0.03418 -0.04728,0.06919 -0.162987,0.09907 -0.25712,0.0664 -0.09414,-0.03267 -0.213733,0.0029 -0.265776,0.07906 -0.0645,0.09438 -0.04243,0.109293 0.0693,0.04685 0.106167,-0.05934 0.133624,-0.0473 0.07795,0.03418 -0.04728,0.06919 -0.162985,0.09907 -0.25712,0.0664 -0.09414,-0.03267 -0.213734,0.0029 -0.265775,0.07907 -0.06449,0.09438 -0.04243,0.109293 0.0693,0.04685 0.106167,-0.05934 0.133624,-0.0473 0.07795,0.03418 -0.04728,0.06919 -0.162985,0.09907 -0.257119,0.0664 -0.09414,-0.03267 -0.213734,0.0029 -0.265775,0.07906 -0.0645,0.09438 -0.04243,0.109294 0.06929,0.04685 0.106167,-0.05934 0.133624,-0.04729 0.07795,0.03418 -0.04728,0.06919 -0.162986,0.09907 -0.257121,0.0664 -0.09414,-0.03267 -0.213732,0.0029 -0.265775,0.07906 -0.0645,0.09438 -0.04243,0.109294 0.0693,0.04685 0.106167,-0.05934 0.133624,-0.0473 0.07795,0.03418 -0.04728,0.06919 -0.162986,0.09907 -0.25712,0.0664 -0.09414,-0.03267 -0.213732,0.0029 -0.265777,0.07907 -0.0645,0.09438 -0.04243,0.109294 0.0693,0.04685 0.106153,-0.05934 0.133624,-0.04729 0.07795,0.03418 -0.04728,0.06919 -0.162984,0.09907 -0.257119,0.0664 -0.09414,-0.03267 -0.213734,0.0029 -0.265775,0.07906 -0.06449,0.09438 -0.04243,0.109293 0.0693,0.04685 0.106167,-0.05934 0.133623,-0.0473 0.07795,0.03418 -0.04728,0.06919 -0.162987,0.09907 -0.257119,0.0664 -0.09414,-0.03267 -0.213734,0.0029 -0.265778,0.07906 -0.06449,0.09438 -0.04243,0.109294 0.06929,0.04685 0.106167,-0.05934 0.133624,-0.0473 0.07795,0.03418 -0.04728,0.06919 -0.162987,0.09907 -0.257121,0.0664 -0.09414,-0.03267 -0.213732,0.0029 -0.265775,0.07907 -0.06449,0.09438 -0.04243,0.109294 0.0693,0.04685 0.106167,-0.05934 0.133624,-0.04729 0.07795,0.03418 -0.04728,0.06919 -0.162986,0.09907 -0.25712,0.0664 -0.09414,-0.03267 -0.213734,0.0029 -0.265777,0.07906 -0.0645,0.09438 -0.04243,0.109294 0.0693,0.04685 0.106167,-0.05934 0.133624,-0.04729 0.07795,0.03418 -0.04728,0.06919 -0.177929,0.09389 -0.290327,0.05488 -0.126562,-0.04392 -0.173217,-0.02535 -0.122558,0.04879 0.04652,0.06808 -0.0122,0.113009 -0.135978,0.104181 -0.119788,-0.0085 -0.205908,0.04218 -0.191392,0.112709 0.01452,0.07053 -0.07001,0.121492 -0.18783,0.113247 -0.117821,-0.0082 -0.202343,0.04272 -0.187827,0.113248 0.01451,0.07053 -0.07001,0.121492 -0.18783,0.113248 -0.117821,-0.0082 -0.202346,0.04272 -0.18783,0.113248 0.01452,0.07053 -0.07,0.121492 -0.187828,0.113247 -0.117822,-0.0082 -0.202346,0.04272 -0.187829,0.113247 0.01452,0.07053 -0.07,0.121493 -0.187828,0.113248 -0.117822,-0.0082 -0.202346,0.04272 -0.18783,0.113247 0.01452,0.07053 -0.07001,0.121492 -0.18783,0.113249 -0.117821,-0.0082 -0.202346,0.04272 -0.187827,0.113247 0.01451,0.07053 -0.07001,0.121492 -0.18783,0.113248 -0.117821,-0.0082 -0.202346,0.04272 -0.187829,0.113247 0.01453,0.07053 -0.07,0.121492 -0.187829,0.113247 -0.117821,-0.0082 -0.202346,0.04272 -0.18783,0.113249 0.01451,0.07053 -0.07,0.121492 -0.187828,0.113247 -0.117822,-0.0082 -0.202346,0.04272 -0.187829,0.113248 0.01452,0.07053 -0.07001,0.121492 -0.18783,0.113247 -0.117821,-0.0082 -0.202346,0.04272 -0.187829,0.113247 0.01453,0.07053 -0.07,0.121493 -0.187827,0.113248 -0.117822,-0.0082 -0.202347,0.04272 -0.18783,0.113248 0.01451,0.07053 -0.07001,0.121493 -0.18783,0.113248 -0.117822,-0.0082 -0.19874,0.0525 -0.179814,0.134989 0.01892,0.08248 -0.02581,0.11632 -0.09941,0.07519 -0.07359,-0.04114 -0.206959,-0.01989 -0.296367,0.04722 -0.0894,0.06711 -0.199638,0.08848 -0.244955,0.0475 l 0,0 z"
       id="path3805"
       inkscape:connector-curvature="0" />
    <text
       xml:space="preserve"
       style="font-size:4.05589724px;font-style:normal;font-variant:normal;font-weight:normal;font-stretch:normal;text-align:start;line-height:125%;letter-spacing:0px;word-spacing:0px;writing-mode:lr-tb;text-anchor:start;fill:#000000;fill-opacity:1;stroke:none;font-family:Arial;-inkscape-font-specification:Arial"
       x="28.529884"
       y="14.721406"
       id="text4807"
       sodipodi:linespacing="125%"
       transform="scale(1.051529,0.95099613)"><tspan
         sodipodi:role="line"
         id="tspan4809"
         x="28.529884"
         y="14.721406">Principal Faces</tspan></text>
    <text
       xml:space="preserve"
       style="font-size:4.05589724px;font-style:normal;font-variant:normal;font-weight:normal;font-stretch:normal;text-align:start;line-height:125%;letter-spacing:0px;word-spacing:0px;writing-mode:lr-tb;text-anchor:start;fill:#000000;fill-opacity:1;stroke:none;font-family:Arial;-inkscape-font-specification:Arial"
       x="14.264942"
       y="62.040211"
       id="text4807-1"
       sodipodi:linespacing="125%"
       transform="scale(1.051529,0.95099613)"><tspan
         sodipodi:role="line"
         id="tspan4809-7"
         x="14.264942"
         y="62.040211">Capping Faces</tspan></text>
    <path
       style="fill:none;stroke:#000000;stroke-width:0.5;stroke-linecap:butt;stroke-linejoin:miter;stroke-miterlimit:4;stroke-opacity:1;stroke-dasharray:none;marker-end:url(#Arrow1Mend)"
       d="M 30,14 20,19"
       id="path4088"
       inkscape:connector-curvature="0" />
    <path
       style="fill:none;stroke:#000000;stroke-width:0.5;stroke-linecap:butt;stroke-linejoin:miter;stroke-opacity:1;marker-end:url(#Arrow1Mend);stroke-miterlimit:4;stroke-dasharray:none"
       d="m 29.999999,19 -5,20"
       id="path4090"
       inkscape:connector-curvature="0" />
    <path
       style="fill:none;stroke:#000000;stroke-width:0.5;stroke-linecap:butt;stroke-linejoin:miter;stroke-opacity:1;marker-end:url(#Arrow1Mend);stroke-miterlimit:4;stroke-dasharray:none"
       d="M 25,54 10,44"
       id="path4092"
       inkscape:connector-curvature="0" />
    <path
       style="fill:none;stroke:#000000;stroke-width:0.5;stroke-linecap:butt;stroke-linejoin:miter;stroke-opacity:1;marker-end:url(#Arrow1Mend);stroke-miterlimit:4;stroke-dasharray:none"
       d="M 30,54 40,44"
       id="path4094"
       inkscape:connector-curvature="0" />
  </g>
</svg>
