<?xml version="1.0" encoding="UTF-8" standalone="no"?>
<!-- Created with Inkscape (http://www.inkscape.org/) -->

<svg
   xmlns:osb="http://www.openswatchbook.org/uri/2009/osb"
   xmlns:dc="http://purl.org/dc/elements/1.1/"
   xmlns:cc="http://creativecommons.org/ns#"
   xmlns:rdf="http://www.w3.org/1999/02/22-rdf-syntax-ns#"
   xmlns:svg="http://www.w3.org/2000/svg"
   xmlns="http://www.w3.org/2000/svg"
   xmlns:sodipodi="http://sodipodi.sourceforge.net/DTD/sodipodi-0.dtd"
   xmlns:inkscape="http://www.inkscape.org/namespaces/inkscape"
   width="744.09448819"
   height="1052.3622047"
   id="svg2"
   version="1.1"
   inkscape:version="0.48.2 r9819"
   sodipodi:docname="PrincipalCappingL.svg">
  <defs
     id="defs4">
    <linearGradient
       id="linearGradient6815"
       osb:paint="solid">
      <stop
         style="stop-color:#64ffff;stop-opacity:1;"
         offset="0"
         id="stop6817" />
    </linearGradient>
    <marker
       inkscape:stockid="Arrow1Lstart"
       orient="auto"
       refY="0.0"
       refX="0.0"
       id="Arrow1Lstart"
       style="overflow:visible">
      <path
         id="path3816"
         d="M 0.0,0.0 L 5.0,-5.0 L -12.5,0.0 L 5.0,5.0 L 0.0,0.0 z "
         style="fill-rule:evenodd;stroke:#000000;stroke-width:1.0pt;marker-start:none"
         transform="scale(0.8) translate(12.5,0)" />
    </marker>
  </defs>
  <sodipodi:namedview
     id="base"
     pagecolor="#ffffff"
     bordercolor="#666666"
     borderopacity="1.0"
     inkscape:pageopacity="0.0"
     inkscape:pageshadow="2"
     inkscape:zoom="1.003484"
     inkscape:cx="155.80796"
     inkscape:cy="617.60246"
     inkscape:document-units="px"
     inkscape:current-layer="layer1"
     showgrid="true"
     inkscape:snap-global="true"
     inkscape:window-width="1366"
     inkscape:window-height="707"
     inkscape:window-x="-9"
     inkscape:window-y="-9"
     inkscape:window-maximized="1">
    <inkscape:grid
       type="xygrid"
       id="grid2985" />
  </sodipodi:namedview>
  <metadata
     id="metadata7">
    <rdf:RDF>
      <cc:Work
         rdf:about="">
        <dc:format>image/svg+xml</dc:format>
        <dc:type
           rdf:resource="http://purl.org/dc/dcmitype/StillImage" />
        <dc:title></dc:title>
      </cc:Work>
    </rdf:RDF>
  </metadata>
  <g
     inkscape:label="Layer 1"
     inkscape:groupmode="layer"
     id="layer1">
    <path
       style="fill:none;stroke:#000000;stroke-width:1px;stroke-linecap:butt;stroke-linejoin:miter;stroke-opacity:1"
       d="m 120,352.36218 40,0 0,200 140,0 0,40 -180,0 z"
       id="path2987"
       inkscape:connector-curvature="0" />
    <path
       style="fill:none;stroke:#000000;stroke-width:1px;stroke-linecap:butt;stroke-linejoin:miter;stroke-opacity:1"
       d="m 120,352.36218 60,-40"
       id="path3007"
       inkscape:connector-curvature="0" />
    <path
       style="fill:none;stroke:#000000;stroke-width:1px;stroke-linecap:butt;stroke-linejoin:miter;stroke-opacity:1"
       d="m 160,352.36218 60,-40"
       id="path3009"
       inkscape:connector-curvature="0" />
    <path
       style="fill:none;stroke:#000000;stroke-width:1px;stroke-linecap:butt;stroke-linejoin:miter;stroke-opacity:1"
       d="m 300,552.36218 60,-40"
       id="path3011"
       inkscape:connector-curvature="0" />
    <path
       style="fill:none;stroke:#000000;stroke-width:1px;stroke-linecap:butt;stroke-linejoin:miter;stroke-opacity:1"
       d="m 300,592.36218 60,-40"
       id="path3013"
       inkscape:connector-curvature="0" />
    <path
       style="fill:none;stroke:#000000;stroke-width:1px;stroke-linecap:butt;stroke-linejoin:miter;stroke-opacity:1"
       d="m 360,512.36218 0,40"
       id="path3015"
       inkscape:connector-curvature="0" />
    <path
       style="fill:none;stroke:#000000;stroke-width:1px;stroke-linecap:butt;stroke-linejoin:miter;stroke-opacity:1"
       d="m 180,312.36217 40,0 0,200"
       id="path3017"
       inkscape:connector-curvature="0" />
    <path
       style="fill:none;stroke:#000000;stroke-width:1px;stroke-linecap:butt;stroke-linejoin:miter;stroke-opacity:1"
       d="m 160,552.36218 60,-40"
       id="path3019"
       inkscape:connector-curvature="0" />
    <path
       style="fill:none;stroke:#000000;stroke-width:1px;stroke-linecap:butt;stroke-linejoin:miter;stroke-opacity:1"
       d="m 220,512.36218 140,0"
       id="path3021"
       inkscape:connector-curvature="0" />
    <path
       style="fill:#64ffff;stroke:none;stroke-width:3.99999976000000010;stroke-linecap:round;stroke-linejoin:round;stroke-miterlimit:4;stroke-opacity:1;stroke-dasharray:none;stroke-dashoffset:0;fill-opacity:1"
       d="m 120.1734,472.41391 0,-119.08615 19.73025,0 19.73025,0 0,100.06055 0,100.06056 69.76053,0 69.76052,0 0,19.0256 0,19.0256 -89.49077,0 -89.49078,0 0,-119.08616 z"
       id="path3023"
       inkscape:connector-curvature="0" />
    <path
       style="fill:#64ffff;fill-opacity:1;fill-rule:evenodd;stroke:none;stroke-width:3.99999976000000010;stroke-linecap:round;stroke-linejoin:round;stroke-miterlimit:4;stroke-opacity:1;stroke-dasharray:none;stroke-dashoffset:0"
       d="m 301.83263,570.84005 0,-18.77967 28.5384,-19.04379 28.5384,-19.04379 0.70465,19.38571 c 0.70233,19.32173 0.0597,23.38423 -3.48375,22.02447 -1.0276,-0.39433 -2.34759,0.0584 -2.93331,1.00617 -0.73887,1.19551 -0.45887,1.37151 0.91442,0.57478 1.15318,-0.66902 1.49668,-0.62035 0.82294,0.11661 -0.63605,0.69572 -2.22152,1.27303 -3.52326,1.28292 -1.30175,0.01 -2.21588,0.78788 -2.0314,1.72889 0.18448,0.941 -0.5441,1.3734 -1.61908,0.9609 -1.07497,-0.41251 -2.43372,0.0254 -3.01945,0.97312 -0.72586,1.17447 -0.47755,1.36009 0.77985,0.58297 1.19481,-0.73843 1.50391,-0.58856 0.87727,0.42536 -0.53214,0.86102 -1.83435,1.23287 -2.8938,0.82632 -1.05945,-0.40655 -2.4055,0.0362 -2.99123,0.98395 -0.72586,1.17447 -0.47755,1.3601 0.77985,0.58298 1.19481,-0.73843 1.50391,-0.58857 0.87727,0.42535 -0.53214,0.86103 -1.83436,1.23287 -2.8938,0.82633 -1.05945,-0.40655 -2.4055,0.0362 -2.99123,0.98395 -0.72586,1.17447 -0.47755,1.3601 0.77985,0.58298 1.19481,-0.73844 1.50391,-0.58857 0.87727,0.42535 -0.53214,0.86103 -1.83436,1.23287 -2.8938,0.82632 -1.05945,-0.40654 -2.4055,0.0362 -2.99123,0.98396 -0.72586,1.17447 -0.47755,1.36009 0.77985,0.58297 1.19481,-0.73843 1.50391,-0.58856 0.87727,0.42536 -0.53215,0.86102 -1.83436,1.23287 -2.89381,0.82632 -1.05945,-0.40655 -2.40549,0.0362 -2.99122,0.98395 -0.72586,1.17448 -0.47755,1.3601 0.77985,0.58298 1.19481,-0.73843 1.5039,-0.58856 0.87727,0.42535 -0.53215,0.86103 -1.83436,1.23288 -2.89381,0.82633 -1.05945,-0.40655 -2.4055,0.0362 -2.99122,0.98395 -0.72587,1.17447 -0.47756,1.3601 0.77985,0.58298 1.19481,-0.73844 1.5039,-0.58857 0.87727,0.42535 -0.53215,0.86103 -1.83436,1.23287 -2.89381,0.82632 -1.05945,-0.40654 -2.4055,0.0362 -2.99122,0.98396 -0.72587,1.17447 -0.47756,1.3601 0.77985,0.58298 1.19481,-0.73844 1.5039,-0.58857 0.87727,0.42535 -0.53215,0.86103 -1.83436,1.23287 -2.89381,0.82632 -1.05945,-0.40655 -2.4055,0.0362 -2.99122,0.98395 -0.72587,1.17448 -0.47756,1.3601 0.77985,0.58298 1.19481,-0.73843 1.5039,-0.58856 0.87726,0.42536 -0.53214,0.86102 -1.83435,1.23287 -2.8938,0.82632 -1.05945,-0.40655 -2.4055,0.0362 -2.99122,0.98395 -0.72587,1.17448 -0.47756,1.3601 0.77985,0.58298 1.19481,-0.73843 1.5039,-0.58857 0.87726,0.42535 -0.53214,0.86103 -1.83435,1.23288 -2.8938,0.82633 -1.05945,-0.40655 -2.4055,0.0362 -2.99122,0.98395 -0.73887,1.19551 -0.45887,1.3715 0.91442,0.57478 1.08866,-0.63159 1.49082,-0.61096 0.89369,0.0458 -0.59712,0.65681 -2.34114,1.28669 -3.87558,1.39973 -2.65104,0.19531 -2.7899,-0.72919 -2.7899,-18.57413 z"
       id="path3793"
       inkscape:connector-curvature="0" />
    <path
       style="fill:none;fill-opacity:1;fill-rule:evenodd;stroke:none;stroke-width:3.99999976000000010;stroke-linecap:round;stroke-linejoin:round;stroke-miterlimit:4;stroke-opacity:1;stroke-dasharray:none;stroke-dashoffset:0"
       d="m 145.64955,350.86488 c -12.15517,-0.31085 -17.20677,-0.92385 -16.83381,-2.04274 0.29308,-0.87923 12.14795,-9.42086 26.34417,-18.98139 l 25.81131,-17.3828 18.50392,0.0313 18.50393,0.0313 -3.52326,2.90956 c -1.93779,1.60026 -2.63254,2.43945 -1.54388,1.86487 1.27406,-0.67244 1.63461,-0.48686 1.01184,0.52081 -0.53214,0.86102 -1.83435,1.23287 -2.8938,0.82632 -1.05945,-0.40655 -2.4055,0.0362 -2.99123,0.98395 -0.72586,1.17448 -0.47755,1.3601 0.77985,0.58298 1.19481,-0.73843 1.50391,-0.58856 0.87727,0.42536 -0.53214,0.86102 -1.73996,1.28735 -2.68403,0.9474 -0.94407,-0.33995 -3.30196,0.69406 -5.23975,2.2978 -1.9378,1.60374 -2.63254,2.44579 -1.54389,1.8712 1.27407,-0.67244 1.63462,-0.48686 1.01185,0.52081 -0.53214,0.86103 -1.83436,1.23287 -2.8938,0.82632 -1.05945,-0.40654 -2.4055,0.0362 -2.99123,0.98395 -0.72586,1.17448 -0.47755,1.3601 0.77985,0.58298 1.19481,-0.73843 1.50391,-0.58856 0.87727,0.42536 -0.53214,0.86102 -1.73996,1.28736 -2.68403,0.9474 -0.94407,-0.33995 -3.30196,0.69406 -5.23976,2.2978 -1.93779,1.60375 -2.63254,2.44579 -1.54388,1.8712 1.27407,-0.67243 1.63462,-0.48685 1.01185,0.52081 -0.53215,0.86103 -1.73996,1.28736 -2.68403,0.94741 -0.94408,-0.33996 -3.30197,0.69405 -5.23976,2.2978 -1.93779,1.60374 -2.63254,2.44578 -1.54388,1.8712 1.27407,-0.67244 1.63462,-0.48686 1.01184,0.52081 -0.53214,0.86102 -1.83435,1.23287 -2.8938,0.82632 -1.05945,-0.40655 -2.4055,0.0362 -2.99122,0.98395 -0.72587,1.17448 -0.47756,1.3601 0.77985,0.58298 1.19481,-0.73843 1.5039,-0.58857 0.87726,0.42535 -0.53214,0.86103 -1.83435,1.23288 -2.8938,0.82633 -1.05945,-0.40655 -2.4055,0.0362 -2.99122,0.98395 -0.72587,1.17447 -0.47756,1.3601 0.77985,0.58298 1.19481,-0.73844 1.5039,-0.58857 0.87726,0.42535 -0.53214,0.86103 -1.83435,1.23287 -2.8938,0.82632 -1.05945,-0.40654 -2.4055,0.0362 -2.99122,0.98396 -0.72587,1.17447 -0.47756,1.36009 0.77984,0.58297 1.19482,-0.73843 1.50391,-0.58856 0.87727,0.42536 -0.53214,0.86102 -2.00254,1.16833 -3.26754,0.6829 -1.53745,-0.58997 -1.96216,-0.33594 -1.281,0.7662 0.56046,0.90684 0.82304,1.51168 0.58351,1.34408 -0.23952,-0.1676 -8.2505,-0.50458 -17.80217,-0.74885 l 0,0 z"
       id="path3795"
       inkscape:connector-curvature="0" />
    <path
       style="fill:none;stroke:none"
       d="m 123.39985,351.38273 c 0,-0.32437 12.69084,-9.0496 28.20186,-19.3894 l 28.20186,-18.79964 18.75538,0.18764 18.75537,0.18764 -28.82116,19.20177 -28.82116,19.20176 -18.13607,0 c -9.97484,0 -18.13608,-0.2654 -18.13608,-0.58977 z"
       id="path3797"
       inkscape:connector-curvature="0" />
    <path
       style="fill:#64ffff;stroke:none;fill-opacity:1"
       d="m 123.39985,351.38273 c 0,-0.32437 12.69084,-9.0496 28.20186,-19.3894 l 28.20186,-18.79964 18.75538,0.18764 18.75537,0.18764 -28.82116,19.20177 -28.82116,19.20176 -18.13607,0 c -9.97484,0 -18.13608,-0.2654 -18.13608,-0.58977 z"
       id="path3799"
       inkscape:connector-curvature="0" />
    <path
       style="fill:#b81ce5;fill-opacity:1;fill-rule:evenodd;stroke:none"
       d="m 160.76499,451.56328 0.0186,-99.23846 28.59311,-19.02559 c 15.72621,-10.46408 28.87722,-19.1313 29.22446,-19.26049 0.3702,-0.13773 0.62365,40.81295 0.61275,99.00358 l -0.0186,99.23846 -28.59311,19.0256 c -15.72621,10.46408 -28.87722,19.1313 -29.22446,19.26048 -0.3702,0.13773 -0.62365,-40.81294 -0.61275,-99.00358 l 0,0 z"
       id="path3801"
       inkscape:connector-curvature="0" />
    <path
       style="fill:#00c8ff;fill-opacity:1;fill-rule:evenodd;stroke:#0b0b1e;stroke-opacity:1"
       d="m 163.56501,551.38501 c 0,-0.38973 12.85078,-9.26835 28.55729,-19.73025 l 28.55729,-19.02165 68.82559,0 c 37.85407,0 68.52435,0.26951 68.15617,0.59892 -0.36818,0.3294 -13.69352,9.20802 -29.61187,19.73025 l -28.94244,19.13133 -67.77102,0 c -44.96281,0 -67.77101,-0.23848 -67.77101,-0.7086 z"
       id="path3803"
       inkscape:connector-curvature="0" />
    <path
       style="fill:#00c8ff;fill-opacity:1;fill-rule:evenodd;stroke:#0b0b1e;stroke-opacity:1"
       d="m 160.5054,550.91308 c -0.25501,-0.25501 -0.46365,-44.74326 -0.46365,-98.86279 0,-77.65191 0.18572,-98.63539 0.88081,-99.51967 0.48445,-0.6163 13.88164,-9.76121 29.77154,-20.32203 l 28.89073,-19.20149 0.1811,98.93219 c 0.0996,54.4127 -0.0316,99.40783 -0.29147,99.98917 -0.25991,0.58134 -0.50707,1.37407 -0.54924,1.76163 -0.0422,0.38756 -0.60056,0.61697 -1.24086,0.5098 -0.64031,-0.10717 -1.39565,0.17964 -1.67853,0.63736 -0.34446,0.55734 -0.20968,0.64393 0.40806,0.26214 0.59741,-0.36922 0.75195,-0.29428 0.43864,0.21268 -0.26608,0.43051 -0.91718,0.61644 -1.44691,0.41316 -0.52972,-0.20327 -1.20274,0.0181 -1.49561,0.49197 -0.36293,0.58724 -0.23878,0.68005 0.38993,0.29149 0.5974,-0.36921 0.75195,-0.29428 0.43863,0.21268 -0.26607,0.43052 -0.91718,0.61644 -1.4469,0.41316 -0.52973,-0.20327 -1.20275,0.0181 -1.49561,0.49197 -0.36294,0.58725 -0.23878,0.68006 0.38992,0.2915 0.59741,-0.36922 0.75195,-0.29429 0.43864,0.21268 -0.26608,0.43051 -0.91718,0.61643 -1.44691,0.41315 -0.52972,-0.20327 -1.20275,0.0181 -1.49561,0.49198 -0.36293,0.58724 -0.23878,0.68005 0.38993,0.29149 0.5974,-0.36922 0.75195,-0.29428 0.43863,0.21268 -0.26607,0.43051 -0.91718,0.61644 -1.4469,0.41316 -0.52973,-0.20327 -1.20275,0.0181 -1.49561,0.49197 -0.36294,0.58724 -0.23878,0.68005 0.38992,0.2915 0.59741,-0.36922 0.75195,-0.29429 0.43863,0.21267 -0.26607,0.43052 -0.91717,0.61644 -1.4469,0.41316 -0.52972,-0.20327 -1.20275,0.0181 -1.49561,0.49198 -0.36293,0.58724 -0.23878,0.68005 0.38993,0.29149 0.5974,-0.36922 0.75195,-0.29429 0.43863,0.21268 -0.26607,0.43051 -0.91718,0.61643 -1.4469,0.41316 -0.52973,-0.20328 -1.20275,0.0181 -1.49561,0.49197 -0.36294,0.58724 -0.23878,0.68005 0.38992,0.29149 0.59741,-0.36921 0.75195,-0.29428 0.43863,0.21268 -0.26607,0.43051 -0.91717,0.61644 -1.4469,0.41316 -0.52972,-0.20327 -1.20275,0.0181 -1.49561,0.49197 -0.36293,0.58725 -0.23878,0.68005 0.38992,0.2915 0.59741,-0.36922 0.75196,-0.29429 0.43864,0.21267 -0.26607,0.43052 -0.91718,0.61644 -1.4469,0.41316 -0.52973,-0.20327 -1.20275,0.0181 -1.49562,0.49198 -0.36293,0.58724 -0.23877,0.68005 0.38993,0.29149 0.5974,-0.36922 0.75195,-0.29428 0.43863,0.21268 -0.26607,0.43051 -0.91717,0.61643 -1.4469,0.41316 -0.52972,-0.20327 -1.20275,0.0181 -1.49561,0.49197 -0.36293,0.58724 -0.23878,0.68005 0.38992,0.29149 0.59741,-0.36921 0.75196,-0.29428 0.43864,0.21268 -0.26607,0.43052 -0.91718,0.61644 -1.4469,0.41316 -0.52973,-0.20327 -1.20275,0.0181 -1.49562,0.49197 -0.36293,0.58725 -0.23877,0.68006 0.38993,0.2915 0.5974,-0.36922 0.75195,-0.29429 0.43863,0.21267 -0.26607,0.43052 -0.91718,0.61644 -1.4469,0.41316 -0.52972,-0.20327 -1.20275,0.0181 -1.49561,0.49198 -0.36293,0.58724 -0.23878,0.68005 0.38992,0.29149 0.59741,-0.36922 0.75196,-0.29428 0.43864,0.21268 -0.26607,0.43051 -0.91718,0.61643 -1.4469,0.41316 -0.52973,-0.20327 -1.20275,0.0181 -1.49562,0.49197 -0.36293,0.58724 -0.23877,0.68005 0.38993,0.29149 0.5974,-0.36921 0.75195,-0.29428 0.43863,0.21268 -0.26607,0.43052 -1.00127,0.58417 -1.63377,0.34145 -0.71218,-0.27329 -0.97475,-0.15772 -0.68967,0.30355 0.26179,0.42358 -0.0683,0.70317 -0.76522,0.64824 -0.67406,-0.0531 -1.15872,0.26245 -1.07703,0.7013 0.0817,0.43886 -0.39395,0.75595 -1.05698,0.70465 -0.66302,-0.0513 -1.13866,0.2658 -1.05697,0.70465 0.0817,0.43886 -0.39395,0.75595 -1.05698,0.70466 -0.66303,-0.0513 -1.13867,0.2658 -1.05698,0.70465 0.0817,0.43885 -0.39395,0.75595 -1.05698,0.70465 -0.66303,-0.0513 -1.13867,0.2658 -1.05697,0.70465 0.0817,0.43886 -0.39395,0.75595 -1.05698,0.70465 -0.66303,-0.0513 -1.13867,0.2658 -1.05698,0.70465 0.0817,0.43886 -0.39395,0.75595 -1.05698,0.70466 -0.66303,-0.0513 -1.13867,0.2658 -1.05697,0.70465 0.0817,0.43886 -0.39395,0.75595 -1.05698,0.70465 -0.66303,-0.0513 -1.13867,0.2658 -1.05698,0.70465 0.0817,0.43886 -0.39395,0.75595 -1.05698,0.70465 -0.66303,-0.0513 -1.13867,0.26581 -1.05698,0.70466 0.0817,0.43885 -0.39394,0.75595 -1.05697,0.70465 -0.66303,-0.0513 -1.13867,0.2658 -1.05698,0.70465 0.0817,0.43886 -0.39395,0.75595 -1.05698,0.70465 -0.66303,-0.0513 -1.13867,0.2658 -1.05698,0.70465 0.0817,0.43886 -0.39394,0.75595 -1.05697,0.70465 -0.66303,-0.0513 -1.13867,0.26581 -1.05698,0.70466 0.0817,0.43885 -0.39395,0.75595 -1.05698,0.70465 -0.66303,-0.0513 -1.11838,0.32667 -1.01188,0.83993 0.10649,0.51325 -0.14522,0.72377 -0.55936,0.46782 -0.41414,-0.25595 -1.16463,-0.12372 -1.66776,0.29384 -0.50313,0.41756 -1.12343,0.55056 -1.37844,0.29555 l 0,0 z"
       id="path3805"
       inkscape:connector-curvature="0" />
    <path
       style="fill:none;stroke:#000000;stroke-width:1px;stroke-linecap:butt;stroke-linejoin:miter;stroke-opacity:1;marker-start:url(#Arrow1Lstart)"
       d="m 280,582.36218 140,-40"
       id="path3809"
       inkscape:connector-curvature="0" />
    <path
       style="fill:none;stroke:#000000;stroke-width:1px;stroke-linecap:butt;stroke-linejoin:miter;stroke-opacity:1;marker-start:url(#Arrow1Lstart)"
       d="m 340,542.36218 80,-10"
       id="path3811"
       inkscape:connector-curvature="0" />
    <path
       style="fill:none;stroke:#000000;stroke-width:1px;stroke-linecap:butt;stroke-linejoin:miter;stroke-opacity:1;marker-start:url(#Arrow1Lstart)"
       d="m 200,442.36218 100,0"
       id="path4439"
       inkscape:connector-curvature="0" />
    <path
       style="fill:none;stroke:#000000;stroke-width:1px;stroke-linecap:butt;stroke-linejoin:miter;stroke-opacity:1;marker-start:url(#Arrow1Lstart)"
       d="m 240,522.36218 60,-70"
       id="path4441"
       inkscape:connector-curvature="0" />
    <text
       xml:space="preserve"
       style="font-size:24px;font-style:normal;font-variant:normal;font-weight:normal;font-stretch:normal;text-align:start;line-height:125%;letter-spacing:0px;word-spacing:0px;writing-mode:lr-tb;text-anchor:start;fill:#000000;fill-opacity:1;stroke:none;font-family:Arial;-inkscape-font-specification:Arial"
       x="311.9133"
       y="457.43488"
       id="text4807"
       sodipodi:linespacing="125%"><tspan
         sodipodi:role="line"
         id="tspan4809"
         x="311.9133"
         y="457.43488">Principal Faces</tspan></text>
    <text
       xml:space="preserve"
       style="font-size:24px;font-style:normal;font-variant:normal;font-weight:normal;font-stretch:normal;text-align:start;line-height:125%;letter-spacing:0px;word-spacing:0px;writing-mode:lr-tb;text-anchor:start;fill:#000000;fill-opacity:1;stroke:none;font-family:Arial;-inkscape-font-specification:Arial"
       x="429.50363"
       y="542.13977"
       id="text4811"
       sodipodi:linespacing="125%"><tspan
         sodipodi:role="line"
         id="tspan4813"
         x="429.50363"
         y="542.13977">Capping</tspan><tspan
         sodipodi:role="line"
         x="429.50363"
         y="572.13977"
         id="tspan4815">Faces</tspan></text>
  </g>
</svg>
