<?xml version="1.0" encoding="UTF-8" standalone="no"?>
<!-- Created with Inkscape (http://www.inkscape.org/) -->

<svg
   xmlns:dc="http://purl.org/dc/elements/1.1/"
   xmlns:cc="http://creativecommons.org/ns#"
   xmlns:rdf="http://www.w3.org/1999/02/22-rdf-syntax-ns#"
   xmlns:svg="http://www.w3.org/2000/svg"
   xmlns="http://www.w3.org/2000/svg"
   xmlns:sodipodi="http://sodipodi.sourceforge.net/DTD/sodipodi-0.dtd"
   xmlns:inkscape="http://www.inkscape.org/namespaces/inkscape"
   width="64px"
   height="64px"
   id="svg2985"
   version="1.1"
   inkscape:version="0.48.2 r9819"
   sodipodi:docname="SG_entity_curve.svg">
  <defs
     id="defs2987" />
  <sodipodi:namedview
     id="base"
     pagecolor="#ffffff"
     bordercolor="#666666"
     borderopacity="1.0"
     inkscape:pageopacity="0.0"
     inkscape:pageshadow="2"
     inkscape:zoom="1.9445436"
     inkscape:cx="-83.947238"
     inkscape:cy="42.460895"
     inkscape:current-layer="layer1"
     showgrid="true"
     inkscape:document-units="px"
     inkscape:grid-bbox="true"
     inkscape:window-width="1366"
     inkscape:window-height="716"
     inkscape:window-x="-8"
     inkscape:window-y="-8"
     inkscape:window-maximized="1" />
  <metadata
     id="metadata2990">
    <rdf:RDF>
      <cc:Work
         rdf:about="">
        <dc:format>image/svg+xml</dc:format>
        <dc:type
           rdf:resource="http://purl.org/dc/dcmitype/StillImage" />
        <dc:title />
      </cc:Work>
    </rdf:RDF>
  </metadata>
  <g
     id="layer1"
     inkscape:label="Layer 1"
     inkscape:groupmode="layer">
    <text
       xml:space="preserve"
       style="font-size:24px;font-style:normal;font-variant:normal;font-weight:normal;font-stretch:normal;line-height:125%;letter-spacing:0px;word-spacing:0px;fill:#000000;fill-opacity:1;stroke:none;font-family:ScriptC;-inkscape-font-specification:ScriptC"
       x="26.363636"
       y="37.272728"
       id="text3003"
       sodipodi:linespacing="125%"><tspan
         sodipodi:role="line"
         id="tspan3005" /></text>
    <g
       style="font-size:24px;font-style:normal;font-variant:normal;font-weight:normal;font-stretch:normal;line-height:125%;letter-spacing:0px;word-spacing:0px;fill:#000000;fill-opacity:1;stroke:none;font-family:ItalicT;-inkscape-font-specification:ItalicT"
       id="text3007" />
    <path
       style="fill:none;stroke:#0024ff;stroke-width:2;stroke-opacity:1;stroke-miterlimit:4;stroke-dasharray:none"
       inkscape:connector-curvature="0"
       d="m 1.7218525,33.345822 q 14.4010965,-30.287954 28.8021935,0 14.401097,30.287956 28.802194,0"
       id="path10" />
    <g
       style="fill:#000000"
       transform="matrix(0.07200549,0,0,0.12115182,-12.679245,-2.999723)"
       id="g12">
      <circle
         sodipodi:ry="10"
         sodipodi:rx="10"
         sodipodi:cy="300"
         sodipodi:cx="200"
         d="m 210,300 c 0,5.52285 -4.47715,10 -10,10 -5.52285,0 -10,-4.47715 -10,-10 0,-5.52285 4.47715,-10 10,-10 5.52285,0 10,4.47715 10,10 z"
         cx="200"
         cy="300"
         r="10"
         id="circle14" />
      <circle
         sodipodi:ry="10"
         sodipodi:rx="10"
         sodipodi:cy="300"
         sodipodi:cx="600"
         d="m 610,300 c 0,5.52285 -4.47715,10 -10,10 -5.52285,0 -10,-4.47715 -10,-10 0,-5.52285 4.47715,-10 10,-10 5.52285,0 10,4.47715 10,10 z"
         cx="600"
         cy="300"
         r="10"
         id="circle16" />
      <circle
         sodipodi:ry="10"
         sodipodi:rx="10"
         sodipodi:cy="300"
         sodipodi:cx="1000"
         d="m 1010,300 c 0,5.52285 -4.4772,10 -10,10 -5.52285,0 -10,-4.47715 -10,-10 0,-5.52285 4.47715,-10 10,-10 5.5228,0 10,4.47715 10,10 z"
         cx="1000"
         cy="300"
         r="10"
         id="circle18" />
    </g>
    <g
       style="fill:#888888"
       transform="matrix(0.07200549,0,0,0.12115182,-12.679245,-2.999723)"
       id="g20">
      <circle
         sodipodi:ry="10"
         sodipodi:rx="10"
         sodipodi:cy="50"
         sodipodi:cx="400"
         d="m 410,50 c 0,5.522847 -4.47715,10 -10,10 -5.52285,0 -10,-4.477153 -10,-10 0,-5.522847 4.47715,-10 10,-10 5.52285,0 10,4.477153 10,10 z"
         cx="400"
         cy="50"
         r="10"
         id="circle22" />
      <circle
         sodipodi:ry="10"
         sodipodi:rx="10"
         sodipodi:cy="550"
         sodipodi:cx="800"
         d="m 810,550 c 0,5.52285 -4.47715,10 -10,10 -5.52285,0 -10,-4.47715 -10,-10 0,-5.52285 4.47715,-10 10,-10 5.52285,0 10,4.47715 10,10 z"
         cx="800"
         cy="550"
         r="10"
         id="circle24" />
    </g>
    <path
       style="fill:none;stroke:#888888;stroke-width:0.18680037999999999;stroke-opacity:1"
       inkscape:connector-curvature="0"
       d="M 1.7218525,33.345822 16.122949,3.057868 30.524046,33.345822 44.925143,63.633778 59.32624,33.345822"
       id="path26" />
  </g>
</svg>
