<?xml version="1.0" encoding="UTF-8" standalone="no"?>
<!-- Created with Inkscape (http://www.inkscape.org/) -->

<svg
   xmlns:dc="http://purl.org/dc/elements/1.1/"
   xmlns:cc="http://creativecommons.org/ns#"
   xmlns:rdf="http://www.w3.org/1999/02/22-rdf-syntax-ns#"
   xmlns:svg="http://www.w3.org/2000/svg"
   xmlns="http://www.w3.org/2000/svg"
   xmlns:sodipodi="http://sodipodi.sourceforge.net/DTD/sodipodi-0.dtd"
   xmlns:inkscape="http://www.inkscape.org/namespaces/inkscape"
   width="64px"
   height="64px"
   id="svg3762"
   version="1.1"
   inkscape:version="0.48.2 r9819"
   sodipodi:docname="SG_entity_profile.svg">
  <defs
     id="defs3764" />
  <sodipodi:namedview
     id="base"
     pagecolor="#ffffff"
     bordercolor="#666666"
     borderopacity="1.0"
     inkscape:pageopacity="0.0"
     inkscape:pageshadow="2"
     inkscape:zoom="5.5"
     inkscape:cx="-24.727273"
     inkscape:cy="32"
     inkscape:current-layer="layer1"
     showgrid="true"
     inkscape:document-units="px"
     inkscape:grid-bbox="true"
     inkscape:window-width="1366"
     inkscape:window-height="716"
     inkscape:window-x="-8"
     inkscape:window-y="-8"
     inkscape:window-maximized="1" />
  <metadata
     id="metadata3767">
    <rdf:RDF>
      <cc:Work
         rdf:about="">
        <dc:format>image/svg+xml</dc:format>
        <dc:type
           rdf:resource="http://purl.org/dc/dcmitype/StillImage" />
        <dc:title />
      </cc:Work>
    </rdf:RDF>
  </metadata>
  <g
     id="layer1"
     inkscape:label="Layer 1"
     inkscape:groupmode="layer">
    <path
       inkscape:connector-curvature="0"
       d="m 7.0093291,47.904918 2.776742,-5.069124 -2.776741,-5.069124 5.5534819,0 2.77674,-5.069125 -2.77674,-5.069128 -5.5534819,0 2.776741,-5.06912 -2.776741,-5.069123 5.5534819,0 2.776741,-5.069124 2.776741,5.069124 5.553481,0 2.776741,-5.069124 -2.77674,-5.069124 5.553482,0 2.776741,-5.0691295 2.776742,5.0691295 5.553481,0 -2.77674,5.069124 2.77674,5.069124 5.553486,0 2.776741,-5.069124 2.776735,5.069124 5.553486,0 -2.77675,5.069123 2.77675,5.06912 -5.553491,0 -2.776735,5.069128 2.776735,5.069125 5.553491,0 -2.776745,5.069124 2.776745,5.069124 -5.553486,0 -2.776735,5.069117 -2.776741,-5.069117 -5.553486,0 -2.776745,5.069117 2.776745,5.069123 -5.553486,0 -2.77674,5.069132 -2.776738,-5.069132 -5.553482,0 2.776741,-5.069123 -2.776741,-5.069117 -5.553482,0 -2.776742,5.069117 -2.77674,-5.069117 -5.5534829,0"
       style="fill:none;stroke:#0000e1;stroke-width:0.50798856999999997;stroke-linecap:butt;stroke-linejoin:miter;stroke-miterlimit:4;stroke-opacity:1;stroke-dasharray:none"
       id="path4374" />
  </g>
</svg>
