<?xml version="1.0" encoding="UTF-8" standalone="no"?>
<!-- Created with Inkscape (http://www.inkscape.org/) -->

<svg
   xmlns:dc="http://purl.org/dc/elements/1.1/"
   xmlns:cc="http://creativecommons.org/ns#"
   xmlns:rdf="http://www.w3.org/1999/02/22-rdf-syntax-ns#"
   xmlns:svg="http://www.w3.org/2000/svg"
   xmlns="http://www.w3.org/2000/svg"
   xmlns:sodipodi="http://sodipodi.sourceforge.net/DTD/sodipodi-0.dtd"
   xmlns:inkscape="http://www.inkscape.org/namespaces/inkscape"
   width="64px"
   height="64px"
   id="svg10766"
   version="1.1"
   inkscape:version="0.48.2 r9819"
   sodipodi:docname="T_cellsJoining.svg">
  <defs
     id="defs10768">
    <marker
       inkscape:stockid="Arrow1Mstart"
       orient="auto"
       refY="0"
       refX="0"
       id="Arrow1Mstart"
       style="overflow:visible">
      <path
         inkscape:connector-curvature="0"
         id="path4364"
         d="M 0,0 5,-5 -12.5,0 5,5 0,0 z"
         style="fill-rule:evenodd;stroke:#000000;stroke-width:1pt;marker-start:none"
         transform="matrix(0.4,0,0,0.4,4,0)" />
    </marker>
    <marker
       inkscape:stockid="Arrow1Mstart"
       orient="auto"
       refY="0"
       refX="0"
       id="Arrow1Mstart-1"
       style="overflow:visible">
      <path
         inkscape:connector-curvature="0"
         id="path4364-2"
         d="M 0,0 5,-5 -12.5,0 5,5 0,0 z"
         style="fill-rule:evenodd;stroke:#000000;stroke-width:1pt;marker-start:none"
         transform="matrix(0.4,0,0,0.4,4,0)" />
    </marker>
    <marker
       inkscape:stockid="Arrow1Mstart"
       orient="auto"
       refY="0"
       refX="0"
       id="Arrow1Mstart-3"
       style="overflow:visible">
      <path
         inkscape:connector-curvature="0"
         id="path4364-4"
         d="M 0,0 5,-5 -12.5,0 5,5 0,0 z"
         style="fill-rule:evenodd;stroke:#000000;stroke-width:1pt;marker-start:none"
         transform="matrix(0.4,0,0,0.4,4,0)" />
    </marker>
    <marker
       inkscape:stockid="Arrow1Mstart"
       orient="auto"
       refY="0"
       refX="0"
       id="Arrow1Mstart-13"
       style="overflow:visible">
      <path
         inkscape:connector-curvature="0"
         id="path4364-8"
         d="M 0,0 5,-5 -12.5,0 5,5 0,0 z"
         style="fill-rule:evenodd;stroke:#000000;stroke-width:1pt;marker-start:none"
         transform="matrix(0.4,0,0,0.4,4,0)" />
    </marker>
    <marker
       inkscape:stockid="Arrow1Mstart"
       orient="auto"
       refY="0"
       refX="0"
       id="Arrow1Mstart-4"
       style="overflow:visible">
      <path
         inkscape:connector-curvature="0"
         id="path4364-27"
         d="M 0,0 5,-5 -12.5,0 5,5 0,0 z"
         style="fill-rule:evenodd;stroke:#000000;stroke-width:1pt;marker-start:none"
         transform="matrix(0.4,0,0,0.4,4,0)" />
    </marker>
    <marker
       inkscape:stockid="Arrow1Mstart"
       orient="auto"
       refY="0"
       refX="0"
       id="Arrow1Mstart-0"
       style="overflow:visible">
      <path
         inkscape:connector-curvature="0"
         id="path4364-24"
         d="M 0,0 5,-5 -12.5,0 5,5 0,0 z"
         style="fill-rule:evenodd;stroke:#000000;stroke-width:1pt;marker-start:none"
         transform="matrix(0.4,0,0,0.4,4,0)" />
    </marker>
    <marker
       inkscape:stockid="Arrow1Mstart"
       orient="auto"
       refY="0"
       refX="0"
       id="Arrow1Mstart-00"
       style="overflow:visible">
      <path
         inkscape:connector-curvature="0"
         id="path4364-6"
         d="M 0,0 5,-5 -12.5,0 5,5 0,0 z"
         style="fill-rule:evenodd;stroke:#000000;stroke-width:1pt;marker-start:none"
         transform="matrix(0.4,0,0,0.4,4,0)" />
    </marker>
    <marker
       inkscape:stockid="Arrow1Mstart"
       orient="auto"
       refY="0"
       refX="0"
       id="Arrow1Mstart-38"
       style="overflow:visible">
      <path
         inkscape:connector-curvature="0"
         id="path4364-9"
         d="M 0,0 5,-5 -12.5,0 5,5 0,0 z"
         style="fill-rule:evenodd;stroke:#000000;stroke-width:1pt;marker-start:none"
         transform="matrix(0.4,0,0,0.4,4,0)" />
    </marker>
    <marker
       inkscape:stockid="Arrow1Mstart"
       orient="auto"
       refY="0"
       refX="0"
       id="Arrow1Mstart-17"
       style="overflow:visible">
      <path
         inkscape:connector-curvature="0"
         id="path4364-40"
         d="M 0,0 5,-5 -12.5,0 5,5 0,0 z"
         style="fill-rule:evenodd;stroke:#000000;stroke-width:1pt;marker-start:none"
         transform="matrix(0.4,0,0,0.4,4,0)" />
    </marker>
    <marker
       inkscape:stockid="Arrow1Mstart"
       orient="auto"
       refY="0"
       refX="0"
       id="Arrow1Mstart-48"
       style="overflow:visible">
      <path
         inkscape:connector-curvature="0"
         id="path4364-82"
         d="M 0,0 5,-5 -12.5,0 5,5 0,0 z"
         style="fill-rule:evenodd;stroke:#000000;stroke-width:1pt;marker-start:none"
         transform="matrix(0.4,0,0,0.4,4,0)" />
    </marker>
    <marker
       inkscape:stockid="Arrow1Mstart"
       orient="auto"
       refY="0"
       refX="0"
       id="Arrow1Mstart-7"
       style="overflow:visible">
      <path
         inkscape:connector-curvature="0"
         id="path4364-1"
         d="M 0,0 5,-5 -12.5,0 5,5 0,0 z"
         style="fill-rule:evenodd;stroke:#000000;stroke-width:1pt;marker-start:none"
         transform="matrix(0.4,0,0,0.4,4,0)" />
    </marker>
  </defs>
  <sodipodi:namedview
     id="base"
     pagecolor="#ffffff"
     bordercolor="#666666"
     borderopacity="1.0"
     inkscape:pageopacity="0.0"
     inkscape:pageshadow="2"
     inkscape:zoom="8.4384381"
     inkscape:cx="16.391783"
     inkscape:cy="32.034173"
     inkscape:current-layer="layer1"
     showgrid="true"
     inkscape:document-units="px"
     inkscape:grid-bbox="true"
     inkscape:snap-global="false"
     inkscape:window-width="885"
     inkscape:window-height="760"
     inkscape:window-x="175"
     inkscape:window-y="175"
     inkscape:window-maximized="0">
    <inkscape:grid
       type="xygrid"
       id="grid10774" />
  </sodipodi:namedview>
  <metadata
     id="metadata10771">
    <rdf:RDF>
      <cc:Work
         rdf:about="">
        <dc:format>image/svg+xml</dc:format>
        <dc:type
           rdf:resource="http://purl.org/dc/dcmitype/StillImage" />
        <dc:title />
      </cc:Work>
    </rdf:RDF>
  </metadata>
  <g
     id="layer1"
     inkscape:label="Layer 1"
     inkscape:groupmode="layer">
    <path
       style="fill:none;stroke:#000000;stroke-width:1px;stroke-linecap:butt;stroke-linejoin:miter;stroke-opacity:1"
       d="m 22.657296,13.89095 15,0 0,40 -15,0 0,-40"
       id="path10776"
       inkscape:connector-curvature="0" />
    <path
       style="fill:none;stroke:#000000;stroke-width:1px;stroke-linecap:butt;stroke-linejoin:miter;stroke-opacity:1"
       d="m 4.9407023,13.579074 0,15 50.0992167,0 0,-15 z"
       id="path10778"
       inkscape:connector-curvature="0" />
    <path
       style="fill:none;stroke:#000000;stroke-width:0.418605;stroke-linecap:butt;stroke-linejoin:miter;stroke-miterlimit:4;stroke-opacity:1;stroke-dasharray:0.83720997, 0.41860499;stroke-dashoffset:0;marker-start:url(#Arrow1Mstart)"
       d="m 30.569254,19.853877 c 0,0 6.317313,-16.4225543 6.213186,-12.8404783 -0.104125,3.5820773 0.442976,6.8654553 2.21316,3.4624823 1.770181,-3.4029733 2.208173,-4.5996003 2.208173,-4.5996003"
       id="path4353-5"
       inkscape:connector-curvature="0"
       sodipodi:nodetypes="cssc" />
    <path
       style="fill:none;stroke:#c86400;stroke-width:1px;stroke-linecap:butt;stroke-linejoin:miter;stroke-opacity:1"
       d="m 37.406248,13.693445 0,15.099217"
       id="path15130"
       inkscape:connector-curvature="0" />
    <path
       style="fill:none;stroke:#c86400;stroke-width:1px;stroke-linecap:butt;stroke-linejoin:miter;stroke-opacity:1"
       d="m 37.623964,28.322764 -15.099217,0"
       id="path15130-9"
       inkscape:connector-curvature="0" />
    <path
       sodipodi:type="arc"
       style="fill:#de8787;stroke:#27ff00;stroke-width:1;stroke-linecap:butt;stroke-linejoin:miter;stroke-miterlimit:4;stroke-opacity:1;stroke-dasharray:none;stroke-dashoffset:0"
       id="path16973-2"
       sodipodi:cx="32.5"
       sodipodi:cy="35.5"
       sodipodi:rx="0.5"
       sodipodi:ry="0.5"
       d="m 33,35.5 a 0.5,0.5 0 1 1 -1,0 0.5,0.5 0 1 1 1,0 z"
       transform="translate(-2.3714872,-14.491001)" />
    <text
       xml:space="preserve"
       style="font-size:6px;font-style:normal;font-variant:normal;font-weight:normal;font-stretch:normal;text-align:start;line-height:125%;letter-spacing:0px;word-spacing:0px;writing-mode:lr-tb;text-anchor:start;fill:#000000;fill-opacity:1;stroke:none;font-family:Arial;-inkscape-font-specification:Arial"
       x="41.766705"
       y="6.7650023"
       id="text4041"
       sodipodi:linespacing="125%"><tspan
         sodipodi:role="line"
         id="tspan4043"
         x="41.766705"
         y="6.7650023">centroid</tspan></text>
    <text
       xml:space="preserve"
       style="font-size:6px;font-style:normal;font-variant:normal;font-weight:normal;font-stretch:normal;text-align:start;line-height:125%;letter-spacing:0px;word-spacing:0px;writing-mode:lr-tb;text-anchor:start;fill:#000000;fill-opacity:1;stroke:none;font-family:Arial;-inkscape-font-specification:Arial"
       x="42.756432"
       y="50.769703"
       id="text4045"
       sodipodi:linespacing="125%"><tspan
         sodipodi:role="line"
         id="tspan4047"
         x="42.756432"
         y="50.769703">iCell(n<tspan
   style="font-size:65.00091553%;baseline-shift:sub"
   id="tspan4067">2</tspan>)</tspan></text>
    <text
       xml:space="preserve"
       style="font-size:6px;font-style:normal;font-variant:normal;font-weight:normal;font-stretch:normal;text-align:start;line-height:125%;letter-spacing:0px;word-spacing:0px;writing-mode:lr-tb;text-anchor:start;fill:#000000;fill-opacity:1;stroke:none;font-family:Arial;-inkscape-font-specification:Arial"
       x="36.283642"
       y="61.784729"
       id="text4051"
       sodipodi:linespacing="125%"><tspan
         sodipodi:role="line"
         id="tspan4053"
         x="36.283642"
         y="61.784729">sCell(n<tspan
   style="font-size:65.00091553%;baseline-shift:sub"
   id="tspan4069">1</tspan>)</tspan></text>
    <text
       xml:space="preserve"
       style="font-size:6px;font-style:normal;font-variant:normal;font-weight:normal;font-stretch:normal;text-align:start;line-height:125%;letter-spacing:0px;word-spacing:0px;writing-mode:lr-tb;text-anchor:start;fill:#000000;fill-opacity:1;stroke:none;font-family:Arial;-inkscape-font-specification:Arial"
       x="9.7441483"
       y="24.888916"
       id="text4057"
       sodipodi:linespacing="125%"><tspan
         sodipodi:role="line"
         id="tspan4059"
         x="9.7441483"
         y="24.888916">n<tspan
   style="font-size:65.00091553%;baseline-shift:sub"
   id="tspan4061">3</tspan></tspan></text>
    <text
       xml:space="preserve"
       style="font-size:6px;font-style:normal;font-variant:normal;font-weight:normal;font-stretch:normal;text-align:start;line-height:125%;letter-spacing:0px;word-spacing:0px;writing-mode:lr-tb;text-anchor:start;fill:#000000;fill-opacity:1;stroke:none;font-family:Arial;-inkscape-font-specification:Arial"
       x="6.9550624"
       y="26.962198"
       id="text4063"
       sodipodi:linespacing="125%"><tspan
         sodipodi:role="line"
         id="tspan4065"
         x="6.9550624"
         y="26.962198" /></text>
    <path
       style="fill:none;stroke:#000000;stroke-width:0.5;stroke-linecap:butt;stroke-linejoin:miter;stroke-miterlimit:4;stroke-opacity:1;stroke-dasharray:0.99999998, 0.49999999;stroke-dashoffset:0;marker-start:url(#Arrow1Mstart)"
       d="m 32.781801,50.68278 c 8.583833,14.936764 1.455935,-6.225031 9.68728,6.883007"
       id="path4353-5-9"
       inkscape:connector-curvature="0"
       sodipodi:nodetypes="cc" />
    <path
       style="fill:none;stroke:#0000ff;stroke-width:0.7161085px;stroke-linecap:butt;stroke-linejoin:miter;stroke-opacity:1"
       d="m 37.578173,21.008999 17.948399,0"
       id="path16968"
       inkscape:connector-curvature="0" />
    <path
       style="fill:none;stroke:#000000;stroke-width:0.5;stroke-linecap:butt;stroke-linejoin:miter;stroke-miterlimit:4;stroke-opacity:1;stroke-dasharray:1.00000001, 0.50000001;stroke-dashoffset:0;marker-start:url(#Arrow1Mstart)"
       d="m 32.609132,26.997552 c 0,0 11.477364,11.750494 8.544196,11.615342 -2.93317,-0.135146 -4.899096,-0.315902 -2.112585,1.981678 2.78651,2.297575 5.521383,4.784298 5.521383,4.784298"
       id="path4353-5-3-8"
       inkscape:connector-curvature="0"
       sodipodi:nodetypes="cssc" />
    <path
       style="fill:none;stroke:#000000;stroke-width:0.5;stroke-linecap:butt;stroke-linejoin:miter;stroke-miterlimit:4;stroke-opacity:1;stroke-dasharray:1, 0.5;stroke-dashoffset:0;marker-start:url(#Arrow1Mstart)"
       d="m 49.0397,21.787073 c 0,0 5.580764,5.992964 2.041831,5.863078 -3.538935,-0.129882 -4.189126,2.491789 -0.827139,4.699861 3.361987,2.208069 5.41013,3.372385 5.41013,3.372385"
       id="path4353-5-3-1-4-1"
       inkscape:connector-curvature="0"
       sodipodi:nodetypes="cssc" />
    <text
       xml:space="preserve"
       style="font-size:6px;font-style:normal;font-variant:normal;font-weight:normal;font-stretch:normal;text-align:start;line-height:125%;letter-spacing:0px;word-spacing:0px;writing-mode:lr-tb;text-anchor:start;fill:#000000;fill-opacity:1;stroke:none;font-family:Arial;-inkscape-font-specification:Arial"
       x="55.453712"
       y="41.672203"
       id="text15742-5-5"
       sodipodi:linespacing="125%"><tspan
         sodipodi:role="line"
         id="tspan15744-5-2"
         x="55.453712"
         y="41.672203">m<tspan
   style="font-size:65.00091553%;baseline-shift:super"
   id="tspan4184">2</tspan></tspan></text>
    <path
       style="fill:none;stroke:#c80000;stroke-width:1;stroke-linecap:butt;stroke-linejoin:miter;stroke-miterlimit:4;stroke-opacity:1;stroke-dasharray:1, 1;stroke-dashoffset:0"
       d="m 30.387301,21.008999 7.110321,0"
       id="path17061"
       inkscape:connector-curvature="0" />
    <path
       sodipodi:type="arc"
       style="fill:none;stroke:#ff00ff;stroke-width:1;stroke-linecap:butt;stroke-linejoin:miter;stroke-miterlimit:4;stroke-opacity:1;stroke-dasharray:none;stroke-dashoffset:0"
       id="path16973"
       sodipodi:cx="32.5"
       sodipodi:cy="35.5"
       sodipodi:rx="0.5"
       sodipodi:ry="0.5"
       d="m 33,35.5 a 0.5,0.5 0 1 1 -1,0 0.5,0.5 0 1 1 1,0 z"
       transform="translate(5.0508694,-14.609506)" />
    <text
       xml:space="preserve"
       style="font-size:6px;font-style:normal;font-variant:normal;font-weight:normal;font-stretch:normal;text-align:start;line-height:125%;letter-spacing:0px;word-spacing:0px;writing-mode:lr-tb;text-anchor:start;fill:#000000;fill-opacity:1;stroke:none;font-family:Arial;-inkscape-font-specification:Arial"
       x="44.419994"
       y="18.649811"
       id="text4057-1"
       sodipodi:linespacing="125%"><tspan
         sodipodi:role="line"
         id="tspan4059-7"
         x="44.419994"
         y="18.649811">n<tspan
   style="font-size:65.00091553%;baseline-shift:sub"
   id="tspan3066">4</tspan></tspan></text>
    <path
       style="fill:none;stroke:#c86400;stroke-width:1px;stroke-linecap:butt;stroke-linejoin:miter;stroke-opacity:1"
       d="m 22.753025,13.521278 0,15.099217"
       id="path15130-0"
       inkscape:connector-curvature="0" />
    <path
       style="fill:none;stroke:#0000ff;stroke-width:0.7161085px;stroke-linecap:butt;stroke-linejoin:miter;stroke-opacity:1"
       d="m 4.7724201,21.307897 17.9483989,0"
       id="path16968-9"
       inkscape:connector-curvature="0" />
    <path
       style="fill:none;stroke:#0000ff;stroke-width:0.83959097px;stroke-linecap:butt;stroke-linejoin:miter;stroke-opacity:1"
       d="m 30.100358,29.177079 0,24.671956"
       id="path16968-4"
       inkscape:connector-curvature="0" />
    <path
       sodipodi:type="arc"
       style="fill:none;stroke:#ff00ff;stroke-width:1;stroke-linecap:butt;stroke-linejoin:miter;stroke-miterlimit:4;stroke-opacity:1;stroke-dasharray:none;stroke-dashoffset:0"
       id="path16973-8"
       sodipodi:cx="32.5"
       sodipodi:cy="35.5"
       sodipodi:rx="0.5"
       sodipodi:ry="0.5"
       d="m 33,35.5 a 0.5,0.5 0 1 1 -1,0 0.5,0.5 0 1 1 1,0 z"
       transform="translate(-2.5181487,-7.0817823)" />
    <path
       sodipodi:type="arc"
       style="fill:none;stroke:#ff00ff;stroke-width:1;stroke-linecap:butt;stroke-linejoin:miter;stroke-miterlimit:4;stroke-opacity:1;stroke-dasharray:none;stroke-dashoffset:0"
       id="path16973-8-8"
       sodipodi:cx="32.5"
       sodipodi:cy="35.5"
       sodipodi:rx="0.5"
       sodipodi:ry="0.5"
       d="m 33,35.5 a 0.5,0.5 0 1 1 -1,0 0.5,0.5 0 1 1 1,0 z"
       transform="translate(-9.3914582,-14.073598)" />
    <path
       style="fill:none;stroke:#c80000;stroke-width:1;stroke-linecap:butt;stroke-linejoin:miter;stroke-miterlimit:4;stroke-opacity:1;stroke-dasharray:1, 1;stroke-dashoffset:0"
       d="m 22.87153,21.189392 7.110321,0"
       id="path17061-2"
       inkscape:connector-curvature="0" />
    <path
       style="fill:none;stroke:#c80000;stroke-width:1;stroke-linecap:butt;stroke-linejoin:miter;stroke-miterlimit:4;stroke-opacity:1;stroke-dasharray:1, 1;stroke-dashoffset:0"
       d="m 29.981852,21.189391 0,7.110322"
       id="path17061-2-4"
       inkscape:connector-curvature="0" />
    <path
       style="opacity:0.2;fill:#0000ff;fill-opacity:1;stroke:#ff0000;stroke-width:0.11631253000000000;stroke-linecap:round;stroke-linejoin:round;stroke-miterlimit:4;stroke-opacity:1;stroke-dasharray:none;stroke-dashoffset:0"
       d="m 23.317854,17.407081 c 0,2.94695 0.001,2.959017 0.266637,3.100496 0.401167,0.213692 0.55496,0.472748 0.559132,0.941824 0.0038,0.425391 -0.371069,0.939074 -0.685275,0.939074 -0.104162,0 -0.140494,0.690052 -0.140494,2.668405 l 0,2.668405 2.99226,-0.03166 c 2.975331,-0.03148 2.992922,-0.03317 3.10924,-0.298299 0.09499,-0.216519 0.211934,-0.266637 0.622153,-0.266637 0.416653,0 0.505173,0.03931 0.505173,0.224332 0,0.123383 0.08435,0.256701 0.187451,0.296264 0.247978,0.09516 1.82714,0.09298 1.82714,-0.0025 0,-0.04095 -0.163896,-0.360914 -0.364213,-0.711032 -0.200317,-0.350118 -0.312274,-0.636578 -0.248792,-0.636578 0.06348,0 0.673056,0.319964 1.35461,0.711032 l 1.239189,0.711032 1.142699,0 1.142699,0 0,-3.081139 c 0,-3.002135 -0.0061,-3.081139 -0.23701,-3.081139 -0.19751,0 -0.237011,-0.079 -0.237011,-0.474021 0,-0.316014 0.079,-0.553025 0.237011,-0.711032 0.223843,-0.223844 0.23701,-0.395018 0.23701,-3.081139 l 0,-2.844128 -1.894495,0 -1.894495,0 -0.173301,0.414768 c -0.263498,0.630641 -0.786133,0.526476 -0.544692,-0.10856 l 0.11642,-0.306208 -4.559523,0 -4.559523,0 0,2.958464 z m 9.103612,-1.407732 c -0.142012,0.407376 -0.400797,0.563185 -0.601707,0.362275 -0.0984,-0.0984 -0.08088,-0.242462 0.06727,-0.553149 0.172379,-0.361482 0.232494,-0.40288 0.430863,-0.296716 0.199308,0.106667 0.213336,0.17271 0.103569,0.48759 z m -0.362287,0.756648 c 0.06168,0.05209 -0.332624,0.892223 -0.417915,0.890449 -0.04801,-9.95e-4 -0.159779,-0.04774 -0.248379,-0.103881 -0.134395,-0.08515 -0.135337,-0.173287 -0.0057,-0.531845 0.12736,-0.35221 0.199211,-0.416358 0.3981,-0.355418 0.133481,0.0409 0.256724,0.08621 0.273874,0.100695 l -1e-6,0 z m -1.171147,0.473074 c 0.276121,0.624218 0.632443,0.771533 1.180569,0.488086 0.199317,-0.103071 0.420319,-0.187401 0.491116,-0.187401 0.0708,0 -0.263312,0.519942 -0.742462,1.155427 -0.47915,0.635485 -0.912309,1.224422 -0.962575,1.30875 -0.118575,0.198922 0.132336,0.498456 0.417543,0.498456 0.1847,0 0.2225,0.0906 0.2225,0.533274 0,0.427375 -0.04118,0.534057 -0.207384,0.537217 -0.244088,0.0046 -0.740659,0.392126 -0.740659,0.577953 0,0.07405 -0.227494,0.129136 -0.533274,0.129136 -0.45427,0 -0.533274,-0.03511 -0.533274,-0.23701 0,-0.184342 -0.079,-0.237011 -0.355516,-0.237011 -0.347615,0 -0.355516,-0.01317 -0.355516,-0.592527 0,-0.380551 0.05067,-0.592526 0.141647,-0.592526 0.07791,0 0.286376,-0.138659 0.463266,-0.30813 0.17689,-0.169472 0.452973,-0.316122 0.613516,-0.32589 0.285937,-0.0174 0.294645,-0.04802 0.426379,-1.499077 0.07397,-0.814724 0.134097,-1.547976 0.133627,-1.629448 -0.0016,-0.271571 0.104337,-0.153156 0.340497,0.380721 z m 2.502777,3.796592 0,0.533274 -0.533275,0 -0.533274,0 0,-0.533274 0,-0.533274 0.533274,0 0.533275,0 0,0.533274 z m 2.01459,0 0,0.533274 -0.533274,0 -0.533274,0 0,-0.533274 0,-0.533274 0.533274,0 0.533274,0 0,0.533274 z m -9.480427,0.177758 0,0.592527 -0.533274,0 -0.533274,0 0,-0.592527 0,-0.592526 0.533274,0 0.533274,0 0,0.592526 z m 2.014591,0 0,0.592527 -0.533274,0 -0.533274,0 0,-0.592527 0,-0.592526 0.533274,0 0.533274,0 0,0.592526 z m 2.607117,2.488612 0,0.592527 -0.533274,0 -0.533274,0 0,-0.592527 0,-0.592526 0.533274,0 0.533274,0 0,0.592526 z m 0,2.014591 0,0.592527 -0.533274,0 -0.533274,0 0,-0.592527 0,-0.592526 0.533274,0 0.533274,0 0,0.592526 z"
       id="path3194"
       inkscape:connector-curvature="0" />
  </g>
</svg>
