<?xml version="1.0" encoding="UTF-8" standalone="no"?>
<!-- Created with Inkscape (http://www.inkscape.org/) -->

<svg
   xmlns:dc="http://purl.org/dc/elements/1.1/"
   xmlns:cc="http://creativecommons.org/ns#"
   xmlns:rdf="http://www.w3.org/1999/02/22-rdf-syntax-ns#"
   xmlns:svg="http://www.w3.org/2000/svg"
   xmlns="http://www.w3.org/2000/svg"
   xmlns:sodipodi="http://sodipodi.sourceforge.net/DTD/sodipodi-0.dtd"
   xmlns:inkscape="http://www.inkscape.org/namespaces/inkscape"
   width="64px"
   height="64px"
   id="svg10766"
   version="1.1"
   inkscape:version="0.48.2 r9819"
   sodipodi:docname="ZU_cellsJoining.svg">
  <defs
     id="defs10768">
    <marker
       inkscape:stockid="Arrow1Mstart"
       orient="auto"
       refY="0"
       refX="0"
       id="Arrow1Mstart"
       style="overflow:visible">
      <path
         inkscape:connector-curvature="0"
         id="path4364"
         d="M 0,0 5,-5 -12.5,0 5,5 0,0 z"
         style="fill-rule:evenodd;stroke:#000000;stroke-width:1pt;marker-start:none"
         transform="matrix(0.4,0,0,0.4,4,0)" />
    </marker>
    <marker
       inkscape:stockid="Arrow1Mstart"
       orient="auto"
       refY="0"
       refX="0"
       id="Arrow1Mstart-1"
       style="overflow:visible">
      <path
         inkscape:connector-curvature="0"
         id="path4364-2"
         d="M 0,0 5,-5 -12.5,0 5,5 0,0 z"
         style="fill-rule:evenodd;stroke:#000000;stroke-width:1pt;marker-start:none"
         transform="matrix(0.4,0,0,0.4,4,0)" />
    </marker>
    <marker
       inkscape:stockid="Arrow1Mstart"
       orient="auto"
       refY="0"
       refX="0"
       id="Arrow1Mstart-3"
       style="overflow:visible">
      <path
         inkscape:connector-curvature="0"
         id="path4364-4"
         d="M 0,0 5,-5 -12.5,0 5,5 0,0 z"
         style="fill-rule:evenodd;stroke:#000000;stroke-width:1pt;marker-start:none"
         transform="matrix(0.4,0,0,0.4,4,0)" />
    </marker>
    <marker
       inkscape:stockid="Arrow1Mstart"
       orient="auto"
       refY="0"
       refX="0"
       id="Arrow1Mstart-13"
       style="overflow:visible">
      <path
         inkscape:connector-curvature="0"
         id="path4364-8"
         d="M 0,0 5,-5 -12.5,0 5,5 0,0 z"
         style="fill-rule:evenodd;stroke:#000000;stroke-width:1pt;marker-start:none"
         transform="matrix(0.4,0,0,0.4,4,0)" />
    </marker>
    <marker
       inkscape:stockid="Arrow1Mstart"
       orient="auto"
       refY="0"
       refX="0"
       id="Arrow1Mstart-4"
       style="overflow:visible">
      <path
         inkscape:connector-curvature="0"
         id="path4364-27"
         d="M 0,0 5,-5 -12.5,0 5,5 0,0 z"
         style="fill-rule:evenodd;stroke:#000000;stroke-width:1pt;marker-start:none"
         transform="matrix(0.4,0,0,0.4,4,0)" />
    </marker>
    <marker
       inkscape:stockid="Arrow1Mstart"
       orient="auto"
       refY="0"
       refX="0"
       id="Arrow1Mstart-0"
       style="overflow:visible">
      <path
         inkscape:connector-curvature="0"
         id="path4364-24"
         d="M 0,0 5,-5 -12.5,0 5,5 0,0 z"
         style="fill-rule:evenodd;stroke:#000000;stroke-width:1pt;marker-start:none"
         transform="matrix(0.4,0,0,0.4,4,0)" />
    </marker>
    <marker
       inkscape:stockid="Arrow1Mstart"
       orient="auto"
       refY="0"
       refX="0"
       id="Arrow1Mstart-00"
       style="overflow:visible">
      <path
         inkscape:connector-curvature="0"
         id="path4364-6"
         d="M 0,0 5,-5 -12.5,0 5,5 0,0 z"
         style="fill-rule:evenodd;stroke:#000000;stroke-width:1pt;marker-start:none"
         transform="matrix(0.4,0,0,0.4,4,0)" />
    </marker>
    <marker
       inkscape:stockid="Arrow1Mstart"
       orient="auto"
       refY="0"
       refX="0"
       id="Arrow1Mstart-38"
       style="overflow:visible">
      <path
         inkscape:connector-curvature="0"
         id="path4364-9"
         d="M 0,0 5,-5 -12.5,0 5,5 0,0 z"
         style="fill-rule:evenodd;stroke:#000000;stroke-width:1pt;marker-start:none"
         transform="matrix(0.4,0,0,0.4,4,0)" />
    </marker>
    <marker
       inkscape:stockid="Arrow1Mstart"
       orient="auto"
       refY="0"
       refX="0"
       id="Arrow1Mstart-17"
       style="overflow:visible">
      <path
         inkscape:connector-curvature="0"
         id="path4364-40"
         d="M 0,0 5,-5 -12.5,0 5,5 0,0 z"
         style="fill-rule:evenodd;stroke:#000000;stroke-width:1pt;marker-start:none"
         transform="matrix(0.4,0,0,0.4,4,0)" />
    </marker>
    <marker
       inkscape:stockid="Arrow1Mstart"
       orient="auto"
       refY="0"
       refX="0"
       id="Arrow1Mstart-48"
       style="overflow:visible">
      <path
         inkscape:connector-curvature="0"
         id="path4364-82"
         d="M 0,0 5,-5 -12.5,0 5,5 0,0 z"
         style="fill-rule:evenodd;stroke:#000000;stroke-width:1pt;marker-start:none"
         transform="matrix(0.4,0,0,0.4,4,0)" />
    </marker>
    <marker
       inkscape:stockid="Arrow1Mstart"
       orient="auto"
       refY="0"
       refX="0"
       id="Arrow1Mstart-7"
       style="overflow:visible">
      <path
         inkscape:connector-curvature="0"
         id="path4364-1"
         d="M 0,0 5,-5 -12.5,0 5,5 0,0 z"
         style="fill-rule:evenodd;stroke:#000000;stroke-width:1pt;marker-start:none"
         transform="matrix(0.4,0,0,0.4,4,0)" />
    </marker>
  </defs>
  <sodipodi:namedview
     id="base"
     pagecolor="#ffffff"
     bordercolor="#666666"
     borderopacity="1.0"
     inkscape:pageopacity="0.0"
     inkscape:pageshadow="2"
     inkscape:zoom="8"
     inkscape:cx="-35.471707"
     inkscape:cy="45.256457"
     inkscape:current-layer="layer1"
     showgrid="true"
     inkscape:document-units="px"
     inkscape:grid-bbox="true"
     inkscape:snap-global="false"
     inkscape:window-width="1920"
     inkscape:window-height="1018"
     inkscape:window-x="-8"
     inkscape:window-y="-8"
     inkscape:window-maximized="1">
    <inkscape:grid
       type="xygrid"
       id="grid10774" />
  </sodipodi:namedview>
  <metadata
     id="metadata10771">
    <rdf:RDF>
      <cc:Work
         rdf:about="">
        <dc:format>image/svg+xml</dc:format>
        <dc:type
           rdf:resource="http://purl.org/dc/dcmitype/StillImage" />
        <dc:title />
      </cc:Work>
    </rdf:RDF>
  </metadata>
  <g
     id="layer1"
     inkscape:label="Layer 1"
     inkscape:groupmode="layer">
    <path
       style="fill:none;stroke:#000000;stroke-width:1.15044868px;stroke-linecap:butt;stroke-linejoin:miter;stroke-opacity:1"
       d="m 19.769886,1.4046079 14.849552,0 0,53.4776661 -14.849552,0 0,-53.4776661"
       id="path10776"
       inkscape:connector-curvature="0" />
    <path
       style="fill:none;stroke:#000000;stroke-width:1.08034778px;stroke-linecap:butt;stroke-linejoin:miter;stroke-opacity:1"
       d="m 2.9662853,26.53633 0,14.919652 58.7882637,0 0,-14.919652 z"
       id="path10778"
       inkscape:connector-curvature="0" />
    <path
       style="fill:none;stroke:#c86400;stroke-width:1px;stroke-linecap:butt;stroke-linejoin:miter;stroke-opacity:1"
       d="m 34.443614,26.373517 0,15.099217"
       id="path15130"
       inkscape:connector-curvature="0" />
    <path
       style="fill:none;stroke:#c86400;stroke-width:1px;stroke-linecap:butt;stroke-linejoin:miter;stroke-opacity:1"
       d="m 34.66133,41.002836 -15.099217,0"
       id="path15130-9"
       inkscape:connector-curvature="0" />
    <path
       sodipodi:type="arc"
       style="fill:#de8787;stroke:#27ff00;stroke-width:1;stroke-linecap:butt;stroke-linejoin:miter;stroke-miterlimit:4;stroke-opacity:1;stroke-dasharray:none;stroke-dashoffset:0"
       id="path16973-2"
       sodipodi:cx="32.5"
       sodipodi:cy="35.5"
       sodipodi:rx="0.5"
       sodipodi:ry="0.5"
       d="m 33,35.5 a 0.5,0.5 0 1 1 -1,0 0.5,0.5 0 1 1 1,0 z"
       transform="translate(-4.9193521,-2.1071926)" />
    <text
       xml:space="preserve"
       style="font-size:6px;font-style:normal;font-variant:normal;font-weight:normal;font-stretch:normal;text-align:start;line-height:125%;letter-spacing:0px;word-spacing:0px;writing-mode:lr-tb;text-anchor:start;fill:#000000;fill-opacity:1;stroke:none;font-family:Arial;-inkscape-font-specification:Arial"
       x="36.712654"
       y="62.383228"
       id="text4045"
       sodipodi:linespacing="125%"><tspan
         sodipodi:role="line"
         id="tspan4047"
         x="36.712654"
         y="62.383228">iCells</tspan></text>
    <text
       xml:space="preserve"
       style="font-size:6px;font-style:normal;font-variant:normal;font-weight:normal;font-stretch:normal;text-align:start;line-height:125%;letter-spacing:0px;word-spacing:0px;writing-mode:lr-tb;text-anchor:start;fill:#000000;fill-opacity:1;stroke:none;font-family:Arial;-inkscape-font-specification:Arial"
       x="6.9550624"
       y="26.962198"
       id="text4063"
       sodipodi:linespacing="125%"><tspan
         sodipodi:role="line"
         id="tspan4065"
         x="6.9550624"
         y="26.962198" /></text>
    <path
       style="fill:none;stroke:#0000ff;stroke-width:1;stroke-linecap:butt;stroke-linejoin:miter;stroke-opacity:1;stroke-miterlimit:4;stroke-dasharray:none"
       d="m 35.182841,33.45206 11.125538,0"
       id="path16968"
       inkscape:connector-curvature="0" />
    <path
       style="fill:none;stroke:#000000;stroke-width:0.5;stroke-linecap:butt;stroke-linejoin:miter;stroke-miterlimit:4;stroke-opacity:1;stroke-dasharray:1.00000001, 0.50000001;stroke-dashoffset:0;marker-start:url(#Arrow1Mstart)"
       d="m 32.016605,37.781538 c 0,0 11.477364,11.750494 8.544196,11.615342 -2.93317,-0.135146 -4.899096,-0.315902 -2.112585,1.981678 2.78651,2.297575 5.521383,4.784298 5.521383,4.784298"
       id="path4353-5-3-8"
       inkscape:connector-curvature="0"
       sodipodi:nodetypes="cssc" />
    <path
       style="fill:none;stroke:#c80000;stroke-width:1;stroke-linecap:butt;stroke-linejoin:miter;stroke-miterlimit:4;stroke-opacity:1;stroke-dasharray:1, 1;stroke-dashoffset:0"
       d="m 28.017194,33.45206 7.110321,0"
       id="path17061"
       inkscape:connector-curvature="0" />
    <path
       sodipodi:type="arc"
       style="fill:none;stroke:#ff00ff;stroke-width:1;stroke-linecap:butt;stroke-linejoin:miter;stroke-miterlimit:4;stroke-opacity:1;stroke-dasharray:none;stroke-dashoffset:0"
       id="path16973"
       sodipodi:cx="32.5"
       sodipodi:cy="35.5"
       sodipodi:rx="0.5"
       sodipodi:ry="0.5"
       d="m 33,35.5 a 0.5,0.5 0 1 1 -1,0 0.5,0.5 0 1 1 1,0 z"
       transform="translate(2.6807625,-2.166445)" />
    <path
       style="fill:none;stroke:#c86400;stroke-width:1px;stroke-linecap:butt;stroke-linejoin:miter;stroke-opacity:1"
       d="m 19.790391,26.43836 0,15.099217"
       id="path15130-0"
       inkscape:connector-curvature="0" />
    <path
       style="fill:none;stroke:#0000ff;stroke-width:1;stroke-linecap:butt;stroke-linejoin:miter;stroke-opacity:1;stroke-miterlimit:4;stroke-dasharray:none"
       d="m 2.1060499,33.869463 17.9483991,0"
       id="path16968-9"
       inkscape:connector-curvature="0" />
    <path
       style="fill:none;stroke:#0000ff;stroke-width:1;stroke-linecap:butt;stroke-linejoin:miter;stroke-miterlimit:4;stroke-opacity:1;stroke-dasharray:none"
       d="m 27.137724,41.316383 0,13.784452"
       id="path16968-4"
       inkscape:connector-curvature="0" />
    <path
       sodipodi:type="arc"
       style="fill:none;stroke:#ff00ff;stroke-width:1;stroke-linecap:butt;stroke-linejoin:miter;stroke-miterlimit:4;stroke-opacity:1;stroke-dasharray:none;stroke-dashoffset:0"
       id="path16973-8"
       sodipodi:cx="32.5"
       sodipodi:cy="35.5"
       sodipodi:rx="0.5"
       sodipodi:ry="0.5"
       d="m 33,35.5 a 0.5,0.5 0 1 1 -1,0 0.5,0.5 0 1 1 1,0 z"
       transform="translate(-5.0067609,-9.0963729)" />
    <path
       sodipodi:type="arc"
       style="fill:none;stroke:#ff00ff;stroke-width:1;stroke-linecap:butt;stroke-linejoin:miter;stroke-miterlimit:4;stroke-opacity:1;stroke-dasharray:none;stroke-dashoffset:0"
       id="path16973-8-8"
       sodipodi:cx="32.5"
       sodipodi:cy="35.5"
       sodipodi:rx="0.5"
       sodipodi:ry="0.5"
       d="m 33,35.5 a 0.5,0.5 0 1 1 -1,0 0.5,0.5 0 1 1 1,0 z"
       transform="translate(-12.76886,-1.5120316)" />
    <path
       style="fill:none;stroke:#c80000;stroke-width:1;stroke-linecap:butt;stroke-linejoin:miter;stroke-miterlimit:4;stroke-opacity:1;stroke-dasharray:1, 1;stroke-dashoffset:0"
       d="m 20.027401,33.750958 7.110321,0"
       id="path17061-2"
       inkscape:connector-curvature="0" />
    <path
       style="fill:none;stroke:#c80000;stroke-width:1;stroke-linecap:butt;stroke-linejoin:miter;stroke-miterlimit:4;stroke-opacity:1;stroke-dasharray:1, 1;stroke-dashoffset:0"
       d="m 27.493239,33.869463 0,7.110322"
       id="path17061-2-4"
       inkscape:connector-curvature="0" />
    <path
       sodipodi:type="arc"
       style="fill:none;stroke:#ff00ff;stroke-width:1;stroke-linecap:butt;stroke-linejoin:miter;stroke-miterlimit:4;stroke-opacity:1;stroke-dasharray:none;stroke-dashoffset:0"
       id="path16973-8-1"
       sodipodi:cx="32.5"
       sodipodi:cy="35.5"
       sodipodi:rx="0.5"
       sodipodi:ry="0.5"
       d="m 33,35.5 a 0.5,0.5 0 1 1 -1,0 0.5,0.5 0 1 1 1,0 z"
       transform="translate(-5.3622765,5.3322055)" />
    <path
       style="fill:none;stroke:#c80000;stroke-width:1;stroke-linecap:butt;stroke-linejoin:miter;stroke-miterlimit:4;stroke-opacity:1;stroke-dasharray:1, 1;stroke-dashoffset:0"
       d="m 27.374733,26.256047 0,7.110322"
       id="path17061-2-4-7"
       inkscape:connector-curvature="0" />
    <path
       style="fill:none;stroke:#0000ff;stroke-width:1;stroke-linecap:butt;stroke-linejoin:miter;stroke-miterlimit:4;stroke-opacity:1;stroke-dasharray:none"
       d="m 27.611745,1.9419622 0,23.5642918"
       id="path16968-4-0"
       inkscape:connector-curvature="0" />
    <path
       style="fill:none;stroke:#c86400;stroke-width:1px;stroke-linecap:butt;stroke-linejoin:miter;stroke-opacity:1"
       d="m 35.161353,26.552311 -15.099217,0"
       id="path15130-9-9"
       inkscape:connector-curvature="0" />
    <path
       style="fill:none;stroke:#000000;stroke-width:1px;stroke-linecap:butt;stroke-linejoin:miter;stroke-opacity:1"
       d="m 46.656942,1.1010659 15,0 0,40.0000001 -15,0 0,-40.0000001"
       id="path10776-1"
       inkscape:connector-curvature="0" />
    <path
       style="fill:none;stroke:#c86400;stroke-width:1px;stroke-linecap:butt;stroke-linejoin:miter;stroke-opacity:1"
       d="m 61.706551,26.315301 -15.099217,0"
       id="path15130-9-9-7"
       inkscape:connector-curvature="0" />
    <path
       style="fill:none;stroke:#c86400;stroke-width:1px;stroke-linecap:butt;stroke-linejoin:miter;stroke-opacity:1"
       d="m 61.588045,41.156623 -15.099217,0"
       id="path15130-9-4"
       inkscape:connector-curvature="0" />
    <path
       style="fill:none;stroke:#c86400;stroke-width:1px;stroke-linecap:butt;stroke-linejoin:miter;stroke-opacity:1"
       d="m 61.504273,26.113023 0,15.099217"
       id="path15130-09"
       inkscape:connector-curvature="0" />
    <path
       style="fill:none;stroke:#c86400;stroke-width:1px;stroke-linecap:butt;stroke-linejoin:miter;stroke-opacity:1"
       d="m 47.046621,26.824056 0,15.099217"
       id="path15130-0-4"
       inkscape:connector-curvature="0" />
    <path
       style="fill:none;stroke:#c80000;stroke-width:1;stroke-linecap:butt;stroke-linejoin:miter;stroke-miterlimit:4;stroke-opacity:1;stroke-dasharray:1, 1;stroke-dashoffset:0"
       d="m 47.080906,33.795674 7.110321,0"
       id="path17061-2-8"
       inkscape:connector-curvature="0" />
    <path
       style="fill:none;stroke:#c80000;stroke-width:1;stroke-linecap:butt;stroke-linejoin:miter;stroke-miterlimit:4;stroke-opacity:1;stroke-dasharray:1, 1;stroke-dashoffset:0"
       d="m 54.428238,26.300763 0,7.110322"
       id="path17061-2-4-7-4"
       inkscape:connector-curvature="0" />
    <path
       sodipodi:type="arc"
       style="fill:none;stroke:#ff00ff;stroke-width:1;stroke-linecap:butt;stroke-linejoin:miter;stroke-miterlimit:4;stroke-opacity:1;stroke-dasharray:none;stroke-dashoffset:0"
       id="path16973-5"
       sodipodi:cx="32.5"
       sodipodi:cy="35.5"
       sodipodi:rx="0.5"
       sodipodi:ry="0.5"
       d="m 33,35.5 a 0.5,0.5 0 1 1 -1,0 0.5,0.5 0 1 1 1,0 z"
       transform="translate(21.893952,-9.3032044)" />
    <path
       sodipodi:type="arc"
       style="fill:none;stroke:#ff00ff;stroke-width:1;stroke-linecap:butt;stroke-linejoin:miter;stroke-miterlimit:4;stroke-opacity:1;stroke-dasharray:none;stroke-dashoffset:0"
       id="path16973-51"
       sodipodi:cx="32.5"
       sodipodi:cy="35.5"
       sodipodi:rx="0.5"
       sodipodi:ry="0.5"
       d="m 33,35.5 a 0.5,0.5 0 1 1 -1,0 0.5,0.5 0 1 1 1,0 z"
       transform="translate(14.546621,-1.7188625)" />
    <path
       sodipodi:type="arc"
       style="fill:#de8787;stroke:#27ff00;stroke-width:1;stroke-linecap:butt;stroke-linejoin:miter;stroke-miterlimit:4;stroke-opacity:1;stroke-dasharray:none;stroke-dashoffset:0"
       id="path16973-2-7"
       sodipodi:cx="32.5"
       sodipodi:cy="35.5"
       sodipodi:rx="0.5"
       sodipodi:ry="0.5"
       d="m 33,35.5 a 0.5,0.5 0 1 1 -1,0 0.5,0.5 0 1 1 1,0 z"
       transform="translate(21.900891,-1.6884354)" />
    <path
       style="fill:none;stroke:#0000ff;stroke-width:1;stroke-linecap:butt;stroke-linejoin:miter;stroke-miterlimit:4;stroke-opacity:1;stroke-dasharray:none"
       d="m 54.5,1.5632093 0,24.7485817"
       id="path16968-4-0-1"
       inkscape:connector-curvature="0" />
    <path
       style="opacity:0.2;fill:#0000ff;fill-opacity:1;stroke:#000000;stroke-width:0.12500000000000000;stroke-linecap:butt;stroke-linejoin:round;stroke-miterlimit:4;stroke-opacity:1;stroke-dasharray:none;stroke-dashoffset:0"
       d="m 20.403293,37.602615 0,-2.865927 0.3125,-0.245813 c 0.242685,-0.190896 0.3125,-0.360478 0.3125,-0.759072 0,-0.464144 -0.02991,-0.51326 -0.3125,-0.51326 l -0.3125,0 0,-3.0625 0,-3.0625 3.1875,0 c 1.940806,0 3.1875,0.04667 3.1875,0.119335 0,0.239385 0.891332,0.299919 1.25479,0.08522 0.292503,-0.172786 0.775229,-0.204554 3.108246,-0.204554 l 2.761964,0 0,5.697694 0,5.697695 -0.40625,-0.243376 c -1.272481,-0.76232 -2.012056,-1.158188 -2.103599,-1.125981 -0.05701,0.02006 0.287511,0.757109 0.765598,1.637893 0.478088,0.880783 0.869251,1.627285 0.869251,1.658892 0,0.03161 -1.110938,0.04222 -2.46875,0.02358 -2.417697,-0.03319 -2.469541,-0.03944 -2.507009,-0.302285 -0.07342,-0.515029 -1.495494,-0.439952 -1.781278,0.09404 -0.118765,0.221914 -0.307808,0.236853 -2.997361,0.236853 l -2.870602,0 0,-2.865928 z m 7.625,0.803428 0,-0.5625 -0.5625,0 -0.5625,0 0,0.5625 0,0.5625 0.5625,0 0.5625,0 0,-0.5625 z m 0,-2 0,-0.5625 -0.5625,0 -0.5625,0 0,0.5625 0,0.5625 0.5625,0 0.5625,0 0,-0.5625 z m 0,-1.72222 c 0,-0.33555 0.398921,-0.71528 0.751429,-0.71528 0.211269,0 0.248571,-0.08441 0.248571,-0.5625 0,-0.483171 -0.03603,-0.5625 -0.255456,-0.5625 -0.1405,0 -0.407113,-0.140625 -0.592473,-0.3125 -0.393478,-0.364854 -1.402071,-0.459005 -1.402071,-0.130882 0,0.355949 -0.293867,0.818382 -0.520065,0.818382 -0.189183,0 -0.229935,0.09969 -0.229935,0.5625 0,0.559523 0.0023,0.5625 0.4375,0.5625 0.383333,0 0.4375,0.03869 0.4375,0.3125 0,0.287037 0.04583,0.3125 0.5625,0.3125 0.502031,0 0.5625,-0.03061 0.5625,-0.28472 z m -5,-0.90278 0,-0.5625 -0.5,0 -0.5,0 0,0.5625 0,0.5625 0.5,0 0.5,0 0,-0.5625 z m 2,0 0,-0.5625 -0.5,0 -0.5,0 0,0.5625 0,0.5625 0.5,0 0.5,0 0,-0.5625 z m 6,-0.375 0,-0.5625 -0.5625,0 -0.5625,0 0,0.5625 0,0.5625 0.5625,0 0.5625,0 0,-0.5625 z m 2,0 0,-0.5625 -0.5625,0 -0.5625,0 0,0.5625 0,0.5625 0.5625,0 0.5625,0 0,-0.5625 z m -5.125,-2.625 0,-0.5625 -0.5625,0 -0.5625,0 0,0.5625 0,0.5625 0.5625,0 0.5625,0 0,-0.5625 z m 0,-2 0,-0.5625 -0.5625,0 -0.5625,0 0,0.5625 0,0.5625 0.5625,0 0.5625,0 0,-0.5625 z"
       id="path4061"
       inkscape:connector-curvature="0" />
    <path
       style="opacity:0.2;fill:#0000ff;fill-opacity:1;stroke:#000000;stroke-width:0.12500000000000000;stroke-linecap:butt;stroke-linejoin:round;stroke-miterlimit:4;stroke-opacity:1;stroke-dasharray:none;stroke-dashoffset:0"
       d="m 47.653293,37.594602 c 0,-2.863565 0.01129,-3.005989 0.25,-3.155069 0.351512,-0.219523 0.351512,-1.097458 0,-1.316981 -0.238475,-0.14893 -0.25,-0.291504 -0.25,-3.092569 l 0,-2.93644 3.125,0 c 2,0 3.125,0.045 3.125,0.125 0,0.06875 0.253125,0.125 0.5625,0.125 0.309375,0 0.5625,-0.05625 0.5625,-0.125 0,-0.07979 1.0625,-0.125 2.9375,-0.125 l 2.9375,0 0,6.75 0,6.75 -2.9375,0 -2.9375,0 0,-0.482554 c 0,-0.777365 -0.148963,-1.642391 -0.269954,-1.567615 -0.06147,0.03799 -0.335878,0.514819 -0.609799,1.059621 l -0.498038,0.990548 -2.998604,0 -2.998605,0 0,-2.998941 z m 7.486152,-3.048819 c 0.336769,-0.358474 0.377453,-0.947739 0.09518,-1.378546 -0.113481,-0.173194 -0.206329,-0.457503 -0.206329,-0.631797 0,-0.292249 -0.04375,-0.316897 -0.5625,-0.316897 -0.493956,0 -0.5625,0.03307 -0.5625,0.271407 0,0.342025 -0.341884,0.728593 -0.644374,0.728593 -0.190002,0 -0.230626,0.09908 -0.230626,0.5625 0,0.463416 0.04062,0.5625 0.230626,0.5625 0.126845,0 0.332438,0.1125 0.456874,0.25 0.326712,0.361013 1.062829,0.336318 1.423652,-0.04776 z m -4.986152,-0.76474 0,-0.5625 -0.5625,0 -0.5625,0 0,0.5625 0,0.5625 0.5625,0 0.5625,0 0,-0.5625 z m 2,0 0,-0.5625 -0.5625,0 -0.5625,0 0,0.5625 0,0.5625 0.5625,0 0.5625,0 0,-0.5625 z m 2.875,-3 0,-0.5625 -0.5625,0 -0.5625,0 0,0.5625 0,0.5625 0.5625,0 0.5625,0 0,-0.5625 z m 0,-2 0,-0.5625 -0.5625,0 -0.5625,0 0,0.5625 0,0.5625 0.5625,0 0.5625,0 0,-0.5625 z"
       id="path4063"
       inkscape:connector-curvature="0" />
    <path
       style="fill:none;stroke:#000000;stroke-width:0.5;stroke-linecap:butt;stroke-linejoin:miter;stroke-miterlimit:4;stroke-opacity:1;stroke-dasharray:1,0.5;stroke-dashoffset:0;marker-start:url(#Arrow1Mstart)"
       d="M 54.592411,39.642706 C 47.878634,70.690768 53.453663,26.703146 47.01558,53.949958"
       id="path4353-5-9"
       inkscape:connector-curvature="0"
       sodipodi:nodetypes="cc" />
  </g>
</svg>
